<?xml version="1.0" encoding="UTF-8" standalone="no"?>
<!-- Created with Inkscape (http://www.inkscape.org/) -->

<svg
   xmlns:dc="http://purl.org/dc/elements/1.1/"
   xmlns:cc="http://creativecommons.org/ns#"
   xmlns:rdf="http://www.w3.org/1999/02/22-rdf-syntax-ns#"
   xmlns:svg="http://www.w3.org/2000/svg"
   xmlns="http://www.w3.org/2000/svg"
   xmlns:xlink="http://www.w3.org/1999/xlink"
   xmlns:sodipodi="http://sodipodi.sourceforge.net/DTD/sodipodi-0.dtd"
   xmlns:inkscape="http://www.inkscape.org/namespaces/inkscape"
   width="88.571434"
   height="88.571434"
   id="svg2"
   version="1.1"
   inkscape:version="0.48.4 r9939"
   sodipodi:docname="basketBall.svg">
  <defs
     id="defs4">
    <linearGradient
       id="linearGradient3909">
      <stop
         style="stop-color:#ffffff;stop-opacity:1;"
         offset="0"
         id="stop3911" />
      <stop
         style="stop-color:#aaf0ff;stop-opacity:1;"
         offset="1"
         id="stop3913" />
    </linearGradient>
    <filter
       inkscape:collect="always"
       id="filter3891"
       color-interpolation-filters="sRGB">
      <feGaussianBlur
         inkscape:collect="always"
         stdDeviation="5.0346162"
         id="feGaussianBlur3893" />
    </filter>
    <filter
       inkscape:collect="always"
       id="filter3905"
       color-interpolation-filters="sRGB">
      <feGaussianBlur
         inkscape:collect="always"
         stdDeviation="5.159567"
         id="feGaussianBlur3907" />
    </filter>
    <linearGradient
       inkscape:collect="always"
       xlink:href="#linearGradient3909"
       id="linearGradient3915"
       x1="284.28571"
       y1="459.50504"
       x2="151.42857"
       y2="390.93362"
       gradientUnits="userSpaceOnUse" />
    <linearGradient
       inkscape:collect="always"
       xlink:href="#linearGradient3909"
       id="linearGradient3923"
       x1="427.14285"
       y1="525.2193"
       x2="337.14285"
       y2="610.93359"
       gradientUnits="userSpaceOnUse" />
    <radialGradient
       inkscape:collect="always"
       xlink:href="#linearGradient3909"
       id="radialGradient3939"
       cx="437.14285"
       cy="495.79965"
       fx="437.14285"
       fy="495.79965"
       r="137.41518"
       gradientTransform="matrix(0.8406693,-1.0376217,2.0113068,1.629573,-927.55493,80.866492)"
       gradientUnits="userSpaceOnUse" />
    <radialGradient
       inkscape:collect="always"
       xlink:href="#linearGradient3909"
       id="radialGradient3947"
       cx="408.57144"
       cy="364.96295"
       fx="408.57144"
       fy="364.96295"
       r="106.33683"
       gradientTransform="matrix(-1.3944362,1.1204968,-0.48744324,-0.6066119,1156.1969,273.09293)"
       gradientUnits="userSpaceOnUse" />
    <clipPath
       clipPathUnits="userSpaceOnUse"
       id="clipPath3952">
      <rect
         ry="180"
         rx="180"
         y="235.21933"
         x="168.57143"
         height="360"
         width="360"
         id="rect3954"
         style="fill:#d45500;fill-opacity:1;fill-rule:evenodd;stroke:#000000;stroke-width:3;stroke-linejoin:miter;stroke-miterlimit:4;stroke-opacity:1;stroke-dasharray:none" />
    </clipPath>
    <clipPath
       clipPathUnits="userSpaceOnUse"
       id="clipPath3956">
      <rect
         ry="180"
         rx="180"
         y="235.21933"
         x="168.57143"
         height="360"
         width="360"
         id="rect3958"
         style="fill:#d45500;fill-opacity:1;fill-rule:evenodd;stroke:#000000;stroke-width:3;stroke-linejoin:miter;stroke-miterlimit:4;stroke-opacity:1;stroke-dasharray:none" />
    </clipPath>
    <clipPath
       clipPathUnits="userSpaceOnUse"
       id="clipPath3960">
      <rect
         ry="180"
         rx="180"
         y="235.21933"
         x="168.57143"
         height="360"
         width="360"
         id="rect3962"
         style="fill:#d45500;fill-opacity:1;fill-rule:evenodd;stroke:#000000;stroke-width:3;stroke-linejoin:miter;stroke-miterlimit:4;stroke-opacity:1;stroke-dasharray:none" />
    </clipPath>
    <clipPath
       clipPathUnits="userSpaceOnUse"
       id="clipPath3964">
      <rect
         ry="180"
         rx="180"
         y="235.21933"
         x="168.57143"
         height="360"
         width="360"
         id="rect3966"
         style="fill:#d45500;fill-opacity:1;fill-rule:evenodd;stroke:#000000;stroke-width:3;stroke-linejoin:miter;stroke-miterlimit:4;stroke-opacity:1;stroke-dasharray:none" />
    </clipPath>
    <linearGradient
       inkscape:collect="always"
       xlink:href="#linearGradient3909"
       id="linearGradient3968"
       gradientUnits="userSpaceOnUse"
       x1="427.14285"
       y1="525.2193"
       x2="337.14285"
       y2="610.93359" />
  </defs>
  <sodipodi:namedview
     id="base"
     pagecolor="#ffffff"
     bordercolor="#666666"
     borderopacity="1.0"
     inkscape:pageopacity="0.0"
     inkscape:pageshadow="2"
     inkscape:zoom="1.4"
     inkscape:cx="-19.832334"
     inkscape:cy="35.550672"
     inkscape:document-units="px"
     inkscape:current-layer="layer1"
     showgrid="false"
     fit-margin-top="0"
     fit-margin-left="0"
     fit-margin-right="0"
     fit-margin-bottom="0"
     inkscape:window-width="1366"
     inkscape:window-height="705"
     inkscape:window-x="-8"
     inkscape:window-y="-8"
     inkscape:window-maximized="1" />
  <metadata
     id="metadata7">
    <rdf:RDF>
      <cc:Work
         rdf:about="">
        <dc:format>image/svg+xml</dc:format>
        <dc:type
           rdf:resource="http://purl.org/dc/dcmitype/StillImage" />
        <dc:title></dc:title>
      </cc:Work>
    </rdf:RDF>
  </metadata>
  <g
     inkscape:label="Layer 1"
     inkscape:groupmode="layer"
     id="layer1"
     transform="translate(-304.28571,-370.93363)">
    <rect
       transform="matrix(0.24603176,0,0,0.24603176,262.81179,313.0622)"
       clip-path="url(#clipPath3964)"
       ry="180"
       rx="180"
       y="235.21933"
       x="168.57143"
       height="360"
       width="360"
       id="rect3970"
       style="fill:#000000;fill-opacity:1;fill-rule:evenodd;stroke:none" />
    <rect
       style="fill:#0088aa;fill-opacity:1;fill-rule:evenodd;stroke:none"
       id="rect2985"
       width="360"
       height="360"
       x="168.57143"
       y="235.21933"
       rx="180"
       ry="180"
       clip-path="url(#clipPath3964)"
       transform="matrix(0.23809524,0,0,0.23809524,265.57823,316.35758)" />
    <rect
       ry="171.98557"
       rx="171.98557"
       y="235.15254"
       x="184.66708"
       height="343.97113"
       width="343.97113"
       id="rect3895"
       style="fill:#00aad4;fill-opacity:1;fill-rule:evenodd;stroke:none;filter:url(#filter3905)"
       clip-path="url(#clipPath3960)"
       transform="matrix(0.23809524,0,0,0.23809524,265.57823,316.35758)" />
    <rect
       ry="157.33176"
       rx="157.33176"
       y="243.60185"
       x="194.09682"
       height="314.66351"
       width="314.66351"
       id="rect2987"
       style="fill:#5fbcd3;fill-opacity:1;fill-rule:evenodd;stroke:none;filter:url(#filter3891)"
       clip-path="url(#clipPath3956)"
       transform="matrix(0.23809524,0,0,0.23809524,265.57823,316.35758)" />
    <path
       style="fill:url(#linearGradient3968);fill-opacity:1;fill-rule:evenodd;stroke:none"
       d="m 325.84375,238.84375 c -6.25185,0 -9.79736,0.47419 -13.9375,1.4375 76.74008,2.64159 137.92325,80.58792 138.1875,177.125 -17.04334,-0.0869 -35.21036,-7.59928 -50.0625,-15.59375 -45.72159,-24.61058 -65.68583,-81.79563 -107.09375,-113.125 -12.73139,-9.63261 -29.46744,-19.63099 -42.40625,-22.21875 l -6.0625,8.0625 c 21.74428,3.82945 36.34079,20.56271 52,34.15625 34.49397,29.94374 50.22701,81.34887 90.53125,102.84375 18.52188,9.87801 41.37735,17.63512 62.84375,17.3125 -0.58218,12.24743 -2.14265,24.1492 -4.59375,35.59375 C 343.0863,471.38283 189.81876,439.87945 173.4375,375 c -1.56279,11.39189 -1.00607,10.15064 -0.96875,14.8125 4.0118,58.03828 175.83067,109.4099 265.125,101.4375 -4.59833,12.77402 -10.35692,24.74539 -17.125,35.6875 -22.08598,-0.0455 -45.08849,6.5042 -66.90625,10.25 -29.53934,5.07149 -88.44236,26.89187 -98.90625,28.90625 7.58232,4.31166 8.93229,8.84188 13.03125,7.46875 23.33548,-7.8173 60.7845,-24.37014 92.9375,-27.28125 14.54508,-1.3169 34.05558,-5.81161 51.75,-7.40625 -19.82381,26.80098 -46.19892,45.94434 -76,53.46875 37.21239,-4.08294 71.54471,-23.31049 96.21875,-53.5625 12.01725,1.42393 21.16419,6.25053 24,17.59375 6.20104,-1.85559 6.74423,-5.56947 9.09375,-9.09375 -1.30947,-9.63081 -10.51874,-13.52001 -18.1875,-16.15625 -2.48585,-0.85454 -4.99753,-1.55158 -7.53125,-2.125 8.63697,-12.42313 15.74008,-26.39019 20.96875,-41.6875 56.95589,-13.48992 64.16099,-36.2749 66.3125,-52.5 -13.34001,9.09322 -23.26456,21.22594 -59.625,27.125 2.17082,-11.5793 3.29928,-23.73883 3.3125,-36.40625 1.94002,-0.63403 3.84716,-1.35448 5.71875,-2.1875 22.88479,-10.18574 43.99465,-35.17459 42.5625,-61.9375 -2.38782,-6.32823 -3.35235,-8.05977 -6.0625,-12.125 3.75899,29.83384 -19.0879,53.30174 -42.5625,63.84375 -5.1912,-93.45341 -69.23879,-174.28125 -144.75,-174.28125 z m -71.1875,327.25 c -0.3635,-0.2067 -0.7005,-0.41995 -1.09375,-0.625 -1.01875,0.7877 -0.53707,0.93895 1.09375,0.625 z m 57.25,-325.8125 c -1.33729,-0.046 -2.68475,-0.0625 -4.03125,-0.0625 -3.35054,0 -1.42051,1.02068 -2.4375,1.6875 2.43576,-0.62667 4.59636,-1.18934 6.46875,-1.625 z m -6.46875,1.625 c -0.5873,0.1511 -1.01384,0.27543 -1.65625,0.4375 0.90286,-0.0989 1.37577,-0.25359 1.65625,-0.4375 z"
       id="rect3841"
       clip-path="url(#clipPath3952)"
       inkscape:connector-curvature="0"
       transform="matrix(0.23809524,0,0,0.23809524,265.57823,316.35758)" />
  </g>
</svg>
