<?xml version="1.0" encoding="UTF-8" standalone="no"?>
<!-- Created with Inkscape (http://www.inkscape.org/) -->

<svg
   xmlns:dc="http://purl.org/dc/elements/1.1/"
   xmlns:cc="http://creativecommons.org/ns#"
   xmlns:rdf="http://www.w3.org/1999/02/22-rdf-syntax-ns#"
   xmlns:svg="http://www.w3.org/2000/svg"
   xmlns="http://www.w3.org/2000/svg"
   xmlns:sodipodi="http://sodipodi.sourceforge.net/DTD/sodipodi-0.dtd"
   xmlns:inkscape="http://www.inkscape.org/namespaces/inkscape"
   width="131.61121"
   height="93.619484"
   id="svg2"
   version="1.1"
   inkscape:version="0.48.4 r9939"
   sodipodi:docname="booksManga.svg"
   inkscape:export-filename="C:\Users\Mira\Documents\GameJam\packageloss\Graphics\png2x\grapplingHook.png"
   inkscape:export-xdpi="42.959652"
   inkscape:export-ydpi="42.959652">
  <sodipodi:namedview
     id="base"
     pagecolor="#ffffff"
     bordercolor="#666666"
     borderopacity="1.0"
     inkscape:pageopacity="0.0"
     inkscape:pageshadow="2"
     inkscape:zoom="1.4142136"
     inkscape:cx="40.306593"
     inkscape:cy="-4.2405911"
     inkscape:document-units="px"
     inkscape:current-layer="layer1"
     showgrid="false"
     fit-margin-top="0"
     fit-margin-left="0"
     fit-margin-right="0"
     fit-margin-bottom="0"
     inkscape:window-width="1366"
     inkscape:window-height="705"
     inkscape:window-x="-8"
     inkscape:window-y="-8"
     inkscape:window-maximized="1"
     inkscape:snap-grids="true">
    <inkscape:grid
       type="xygrid"
       id="grid4724"
       empspacing="5"
       visible="true"
       enabled="true"
       snapvisiblegridlinesonly="true"
       originx="105.27368px"
       originy="-149.99901px" />
  </sodipodi:namedview>
  <defs
     id="defs4">
    <linearGradient
       id="linearGradient5253">
      <stop
         style="stop-color:#a1a1a1;stop-opacity:1;"
         offset="0"
         id="stop5255" />
      <stop
         id="stop5279"
         offset="0.09326643"
         style="stop-color:#f2f2f2;stop-opacity:1" />
      <stop
         id="stop5277"
         offset="0.28016874"
         style="stop-color:#f9f9f9;stop-opacity:1" />
      <stop
         id="stop5275"
         offset="0.41136032"
         style="stop-color:#dcdcdc;stop-opacity:1;" />
      <stop
         id="stop5273"
         offset="0.56053966"
         style="stop-color:#f2f2f2;stop-opacity:1" />
      <stop
         id="stop5271"
         offset="0.71340966"
         style="stop-color:#ececec;stop-opacity:1" />
      <stop
         id="stop5269"
         offset="0.83397985"
         style="stop-color:#f2f2f2;stop-opacity:1" />
      <stop
         style="stop-color:#e6e6e6;stop-opacity:1"
         offset="1"
         id="stop5257" />
    </linearGradient>
    <linearGradient
       id="linearGradient5012">
      <stop
         style="stop-color:#b6b6b6;stop-opacity:1;"
         offset="0"
         id="stop5014" />
      <stop
         id="stop5034"
         offset="0.08083832"
         style="stop-color:#e6e6e6;stop-opacity:0.99607843;" />
      <stop
         id="stop5032"
         offset="0.18914835"
         style="stop-color:#b6b6b6;stop-opacity:1;" />
      <stop
         id="stop5030"
         offset="0.32335329"
         style="stop-color:#e6e6e6;stop-opacity:0.99607843;" />
      <stop
         id="stop5028"
         offset="0.44344622"
         style="stop-color:#b6b6b6;stop-opacity:1;" />
      <stop
         id="stop5026"
         offset="0.55158675"
         style="stop-color:#e6e6e6;stop-opacity:0.99607843;" />
      <stop
         id="stop5024"
         offset="0.65251696"
         style="stop-color:#b6b6b6;stop-opacity:1;" />
      <stop
         id="stop5022"
         offset="0.77196223"
         style="stop-color:#e6e6e6;stop-opacity:0.99607843;" />
      <stop
         id="stop5020"
         offset="0.87916976"
         style="stop-color:#b6b6b6;stop-opacity:1;" />
      <stop
         style="stop-color:#e6e6e6;stop-opacity:0.99607843;"
         offset="1"
         id="stop5016" />
    </linearGradient>
    <linearGradient
       id="linearGradient3909">
      <stop
         id="stop3911"
         offset="0"
         style="stop-color:#ffffff;stop-opacity:1;" />
      <stop
         id="stop3913"
         offset="1"
         style="stop-color:#aaf0ff;stop-opacity:1;" />
    </linearGradient>
    <clipPath
       id="clipPath3952"
       clipPathUnits="userSpaceOnUse">
      <rect
         style="fill:#d45500;fill-opacity:1;fill-rule:evenodd;stroke:#000000;stroke-width:3;stroke-linejoin:miter;stroke-miterlimit:4;stroke-opacity:1;stroke-dasharray:none"
         id="rect3954"
         width="360"
         height="360"
         x="168.57143"
         y="235.21933"
         rx="180"
         ry="180" />
    </clipPath>
    <clipPath
       id="clipPath3956"
       clipPathUnits="userSpaceOnUse">
      <rect
         style="fill:#d45500;fill-opacity:1;fill-rule:evenodd;stroke:#000000;stroke-width:3;stroke-linejoin:miter;stroke-miterlimit:4;stroke-opacity:1;stroke-dasharray:none"
         id="rect3958"
         width="360"
         height="360"
         x="168.57143"
         y="235.21933"
         rx="180"
         ry="180" />
    </clipPath>
    <clipPath
       id="clipPath3960"
       clipPathUnits="userSpaceOnUse">
      <rect
         style="fill:#d45500;fill-opacity:1;fill-rule:evenodd;stroke:#000000;stroke-width:3;stroke-linejoin:miter;stroke-miterlimit:4;stroke-opacity:1;stroke-dasharray:none"
         id="rect3962"
         width="360"
         height="360"
         x="168.57143"
         y="235.21933"
         rx="180"
         ry="180" />
    </clipPath>
    <clipPath
       id="clipPath3964"
       clipPathUnits="userSpaceOnUse">
      <rect
         style="fill:#d45500;fill-opacity:1;fill-rule:evenodd;stroke:#000000;stroke-width:3;stroke-linejoin:miter;stroke-miterlimit:4;stroke-opacity:1;stroke-dasharray:none"
         id="rect3966"
         width="360"
         height="360"
         x="168.57143"
         y="235.21933"
         rx="180"
         ry="180" />
    </clipPath>
  </defs>
  <metadata
     id="metadata7">
    <rdf:RDF>
      <cc:Work
         rdf:about="">
        <dc:format>image/svg+xml</dc:format>
        <dc:type
           rdf:resource="http://purl.org/dc/dcmitype/StillImage" />
        <dc:title></dc:title>
      </cc:Work>
    </rdf:RDF>
  </metadata>
  <g
     transform="translate(-199.01202,-215.88657)"
     id="layer1"
     inkscape:groupmode="layer"
     inkscape:label="Layer 1">
    <g
       id="g3884">
      <path
         style="fill:#2c89a0;stroke:#000000;stroke-width:1px;stroke-linecap:butt;stroke-linejoin:miter;stroke-opacity:1"
         d="m 199.51202,245.68989 9.54594,-6.01041 111.01576,-0.70711 9.54594,6.71752 z"
         id="path3878"
         inkscape:connector-curvature="0" />
      <path
         inkscape:connector-curvature="0"
         id="path3880"
         d="m 199.51202,267.45764 9.54594,-6.01041 111.01576,-0.70711 9.54594,6.71752 z"
         style="fill:#2c89a0;stroke:#000000;stroke-width:1px;stroke-linecap:butt;stroke-linejoin:miter;stroke-opacity:1" />
      <path
         style="fill:#2c89a0;stroke:#000000;stroke-width:1px;stroke-linecap:butt;stroke-linejoin:miter;stroke-opacity:1"
         d="m 199.51202,288.87184 9.54594,-6.01041 111.01576,-0.70711 9.54594,6.71752 z"
         id="path3882"
         inkscape:connector-curvature="0" />
    </g>
    <path
       style="fill:#2c89a0;stroke:#000000;stroke-width:1px;stroke-linecap:butt;stroke-linejoin:miter;stroke-opacity:1"
       d="m 199.51202,223.10409 9.54594,-6.01041 111.01576,-0.70711 9.54594,6.71752 z"
       id="path3876"
       inkscape:connector-curvature="0" />
    <rect
       style="fill:#afdde9;fill-opacity:1;fill-rule:evenodd;stroke:#000000;stroke-width:1.29999995;stroke-linejoin:miter;stroke-miterlimit:4;stroke-opacity:1;stroke-dasharray:none"
       id="rect3050"
       width="130.10765"
       height="21.213203"
       x="23.334524"
       y="25.004375"
       transform="translate(176.53105,262.44643)"
       rx="170"
       ry="2.2361834" />
    <rect
       ry="1.618271"
       rx="31.040466"
       y="290.38168"
       x="299.04114"
       height="15.351475"
       width="23.756481"
       id="rect3052"
       style="fill:#decd87;fill-opacity:1;fill-rule:evenodd;stroke:#000000;stroke-width:0.69066137;stroke-linejoin:miter;stroke-miterlimit:4;stroke-opacity:1;stroke-dasharray:none" />
    <rect
       style="fill:#decd87;fill-opacity:1;fill-rule:evenodd;stroke:#000000;stroke-width:0.60128593;stroke-linejoin:miter;stroke-miterlimit:4;stroke-opacity:1;stroke-dasharray:none"
       id="rect3054"
       width="14.299914"
       height="19.329937"
       x="216.99644"
       y="288.56924"
       rx="18.684418"
       ry="2.0376594" />
    <path
       style="fill:#ffffff;stroke:#000000;stroke-width:0.30000001;stroke-linecap:butt;stroke-linejoin:miter;stroke-miterlimit:4;stroke-opacity:1;stroke-dasharray:none"
       d="m 144.60334,40.207171 c -8.0481,-0.640726 -16.26346,0.751172 -16.26346,-6.717514 0,-1.508768 3.61288,-4.165299 5.3033,-2.474874 0.42543,0.425428 2.93467,3.42929 1.76777,4.596194 -0.2591,0.259097 -2.83777,0.69777 -2.12132,1.414214 1.08977,1.089771 4.49297,1.123241 5.65685,1.414213 0.32727,0.08182 3.16537,1.447449 3.53554,0.707107 0.10918,-0.218358 -0.7631,-8.187714 0.7071,-6.717514 1.86339,1.86339 0.37615,5.356014 1.41422,7.778174 z"
       id="path3824"
       inkscape:connector-curvature="0"
       transform="translate(176.53105,262.44643)" />
    <path
       style="fill:#37c871;stroke:#000000;stroke-width:1px;stroke-linecap:butt;stroke-linejoin:miter;stroke-opacity:1"
       d="m 91.216775,26.418589 c 3.484773,-1.450791 6.506888,-1.414214 10.253045,-1.414214 6.6014,0 14.90578,1.060661 20.15255,1.060661 2.10017,0 2.9517,15.663355 1.41421,18.738329 -0.14011,0.280229 -30.467316,1.706043 -31.112698,1.06066 C 87.524264,41.464408 81.574291,28.347086 91.216775,26.418589 z"
       id="path3832"
       inkscape:connector-curvature="0"
       transform="translate(176.53105,262.44643)" />
    <path
       style="fill:#f4e3d7;stroke:#000000;stroke-width:1px;stroke-linecap:butt;stroke-linejoin:miter;stroke-opacity:1"
       d="m 72.478445,33.136103 c 8.668303,-2.093962 19.708341,-2.202928 16.263456,8.131728 -3.796327,5.699432 -10.430193,2.886247 -15.909902,3.535534 0,0 -1.767767,-1.414213 -0.353554,-11.667262 z"
       id="path3826"
       inkscape:connector-curvature="0"
       transform="translate(176.53105,262.44643)"
       sodipodi:nodetypes="cccc" />
    <path
       style="fill:#a05a2c;stroke:#000000;stroke-width:1px;stroke-linecap:butt;stroke-linejoin:miter;stroke-opacity:1"
       d="m 64.700271,44.803365 c -5.101501,-3.401 -3.972446,-3.496253 0,-10.253048 0.07233,-5.537019 5.061266,-6.177686 7.071067,-9.192388 6.661391,-2.245345 14.242209,-0.353554 20.152544,-0.353554 -1.104978,4.521806 -6.042198,6.374558 -10.253049,7.778175 -2.531471,5.654757 -3.93196,7.453203 -7.071068,9.545942 7.262264,6.608052 27.970285,0.366743 34.294675,2.474873 -5.84085,1.707861 -43.468992,2.900714 -44.194169,0 z"
       id="path3828"
       inkscape:connector-curvature="0"
       transform="translate(176.53105,262.44643)" />
    <rect
       ry="2.2361834"
       rx="170"
       y="265.45081"
       x="199.86557"
       height="21.213203"
       width="130.10765"
       id="rect3834"
       style="fill:#afdde9;fill-opacity:1;fill-rule:evenodd;stroke:#000000;stroke-width:1.29999995;stroke-linejoin:miter;stroke-miterlimit:4;stroke-opacity:1;stroke-dasharray:none" />
    <rect
       style="fill:#decd87;fill-opacity:1;fill-rule:evenodd;stroke:#000000;stroke-width:0.69066137;stroke-linejoin:miter;stroke-miterlimit:4;stroke-opacity:1;stroke-dasharray:none"
       id="rect3836"
       width="23.756481"
       height="15.351475"
       x="299.04114"
       y="268.38168"
       rx="31.040466"
       ry="1.618271" />
    <rect
       ry="2.0376594"
       rx="18.684418"
       y="266.56924"
       x="216.99644"
       height="19.329937"
       width="14.299914"
       id="rect3838"
       style="fill:#decd87;fill-opacity:1;fill-rule:evenodd;stroke:#000000;stroke-width:0.60128593;stroke-linejoin:miter;stroke-miterlimit:4;stroke-opacity:1;stroke-dasharray:none" />
    <path
       inkscape:connector-curvature="0"
       id="path3840"
       d="m 321.13439,280.6536 c -8.0481,-0.64073 -16.26346,0.75117 -16.26346,-6.71751 0,-1.50877 3.61288,-4.1653 5.3033,-2.47488 0.42543,0.42543 2.93467,3.42929 1.76777,4.5962 -0.2591,0.25909 -2.83777,0.69777 -2.12132,1.41421 1.08977,1.08977 4.49297,1.12324 5.65685,1.41421 0.32727,0.0818 3.16537,1.44745 3.53554,0.70711 0.10918,-0.21836 -0.7631,-8.18771 0.7071,-6.71751 1.86339,1.86339 0.37615,5.35601 1.41422,7.77817 z"
       style="fill:#ffffff;stroke:#000000;stroke-width:0.30000001;stroke-linecap:butt;stroke-linejoin:miter;stroke-miterlimit:4;stroke-opacity:1;stroke-dasharray:none"
       sodipodi:nodetypes="csscscssc" />
    <path
       inkscape:connector-curvature="0"
       id="path3842"
       d="m 267.74782,266.86502 c 3.48478,-1.45079 6.50689,-1.41422 10.25305,-1.41422 6.6014,0 14.90578,1.06067 20.15255,1.06067 2.10017,0 2.9517,15.66335 1.41421,18.73832 -0.14011,0.28023 -30.46732,1.70605 -31.1127,1.06067 -4.39962,-4.39962 -10.34959,-17.51694 -0.70711,-19.44544 z"
       style="fill:#ff8080;stroke:#000000;stroke-width:1px;stroke-linecap:butt;stroke-linejoin:miter;stroke-opacity:1"
       sodipodi:nodetypes="csscsc" />
    <path
       sodipodi:nodetypes="cccc"
       inkscape:connector-curvature="0"
       id="path3844"
       d="m 249.00949,273.58253 c 8.66831,-2.09396 19.70835,-2.20292 16.26346,8.13173 -3.79633,5.69943 -10.43019,2.88625 -15.9099,3.53553 0,0 -1.76777,-1.41421 -0.35356,-11.66726 z"
       style="fill:#f4e3d7;stroke:#000000;stroke-width:1px;stroke-linecap:butt;stroke-linejoin:miter;stroke-opacity:1" />
    <path
       inkscape:connector-curvature="0"
       id="path3846"
       d="m 245.47396,285.60334 c -5.1015,-3.401 -5.03311,-3.8498 -1.06066,-10.60659 0.0723,-5.53702 0.46508,-2.64216 2.47488,-5.65686 6.66139,-2.24535 5.75693,-1.76777 11.66726,-1.76777 -1.10498,4.52181 3.85729,4.25324 -0.35356,5.65686 -2.53147,5.65476 -3.93196,7.4532 -7.07107,9.54594 7.26227,6.60805 27.97029,0.36674 34.29468,2.47487 -5.84085,1.70787 -39.22635,3.25427 -39.95153,0.35355 z"
       style="fill:#ffe680;stroke:#000000;stroke-width:1px;stroke-linecap:butt;stroke-linejoin:miter;stroke-opacity:1"
       sodipodi:nodetypes="cccccccc" />
    <rect
       ry="2.2361834"
       rx="170"
       y="243.45081"
       x="199.86557"
       height="21.213203"
       width="130.10765"
       id="rect3848"
       style="fill:#afdde9;fill-opacity:1;fill-rule:evenodd;stroke:#000000;stroke-width:1.29999995;stroke-linejoin:miter;stroke-miterlimit:4;stroke-opacity:1;stroke-dasharray:none" />
    <rect
       style="fill:#decd87;fill-opacity:1;fill-rule:evenodd;stroke:#000000;stroke-width:0.69066137;stroke-linejoin:miter;stroke-miterlimit:4;stroke-opacity:1;stroke-dasharray:none"
       id="rect3850"
       width="23.756481"
       height="15.351475"
       x="299.04114"
       y="246.38168"
       rx="31.040466"
       ry="1.618271" />
    <rect
       ry="2.0376594"
       rx="18.684418"
       y="244.56924"
       x="216.99644"
       height="19.329937"
       width="14.299914"
       id="rect3852"
       style="fill:#decd87;fill-opacity:1;fill-rule:evenodd;stroke:#000000;stroke-width:0.60128593;stroke-linejoin:miter;stroke-miterlimit:4;stroke-opacity:1;stroke-dasharray:none" />
    <path
       inkscape:connector-curvature="0"
       id="path3854"
       d="m 321.13439,258.6536 c -8.0481,-0.64073 -16.26346,0.75117 -16.26346,-6.71751 0,-1.50877 3.61288,-4.1653 5.3033,-2.47488 0.42543,0.42543 2.93467,3.42929 1.76777,4.5962 -0.2591,0.25909 -2.83777,0.69777 -2.12132,1.41421 1.08977,1.08977 4.49297,1.12324 5.65685,1.41421 0.32727,0.0818 3.16537,1.44745 3.53554,0.70711 0.10918,-0.21836 -0.7631,-8.18771 0.7071,-6.71751 1.86339,1.86339 0.37615,5.35601 1.41422,7.77817 z"
       style="fill:#ffffff;stroke:#000000;stroke-width:0.30000001;stroke-linecap:butt;stroke-linejoin:miter;stroke-miterlimit:4;stroke-opacity:1;stroke-dasharray:none" />
    <path
       inkscape:connector-curvature="0"
       id="path3856"
       d="m 267.74782,244.86502 c 3.48478,-1.45079 6.50689,-1.41422 10.25305,-1.41422 6.6014,0 14.90578,1.06067 20.15255,1.06067 2.10017,0 2.9517,15.66335 1.41421,18.73832 -0.14011,0.28023 -30.46732,1.70605 -31.1127,1.06067 -4.39962,-4.39962 -10.34959,-17.51694 -0.70711,-19.44544 z"
       style="fill:#deaa87;stroke:#000000;stroke-width:1px;stroke-linecap:butt;stroke-linejoin:miter;stroke-opacity:1" />
    <path
       sodipodi:nodetypes="cccc"
       inkscape:connector-curvature="0"
       id="path3858"
       d="m 249.00949,251.58253 c 8.66831,-2.09396 19.70835,-2.20292 16.26346,8.13173 -3.79633,5.69943 -10.43019,2.88625 -15.9099,3.53553 0,0 -1.76777,-1.41421 -0.35356,-11.66726 z"
       style="fill:#f4e3d7;stroke:#000000;stroke-width:1px;stroke-linecap:butt;stroke-linejoin:miter;stroke-opacity:1" />
    <path
       inkscape:connector-curvature="0"
       id="path3860"
       d="m 241.23132,263.24979 c -5.1015,-3.401 -3.97245,-3.49625 0,-10.25304 0.0723,-5.53702 5.06127,-6.17769 7.07107,-9.19239 6.66139,-2.24535 14.24221,-0.35356 20.15254,-0.35356 -1.10498,4.52181 -6.0422,6.37456 -10.25305,7.77818 -2.53147,5.65476 -3.93196,7.4532 -7.07107,9.54594 7.26227,6.60805 27.97029,0.36674 34.29468,2.47487 -5.84085,1.70787 -43.46899,2.90072 -44.19417,0 z"
       style="fill:#000000;stroke:#000000;stroke-width:1px;stroke-linecap:butt;stroke-linejoin:miter;stroke-opacity:1" />
    <rect
       style="fill:#afdde9;fill-opacity:1;fill-rule:evenodd;stroke:#000000;stroke-width:1.29999995;stroke-linejoin:miter;stroke-miterlimit:4;stroke-opacity:1;stroke-dasharray:none"
       id="rect3862"
       width="130.10765"
       height="21.213203"
       x="199.86557"
       y="221.45081"
       rx="170"
       ry="2.2361834" />
    <rect
       ry="1.618271"
       rx="31.040466"
       y="224.38168"
       x="299.04114"
       height="15.351475"
       width="23.756481"
       id="rect3864"
       style="fill:#decd87;fill-opacity:1;fill-rule:evenodd;stroke:#000000;stroke-width:0.69066137;stroke-linejoin:miter;stroke-miterlimit:4;stroke-opacity:1;stroke-dasharray:none" />
    <rect
       style="fill:#decd87;fill-opacity:1;fill-rule:evenodd;stroke:#000000;stroke-width:0.60128593;stroke-linejoin:miter;stroke-miterlimit:4;stroke-opacity:1;stroke-dasharray:none"
       id="rect3866"
       width="14.299914"
       height="19.329937"
       x="216.99644"
       y="222.56924"
       rx="18.684418"
       ry="2.0376594" />
    <path
       sodipodi:nodetypes="csscscssc"
       style="fill:#ffffff;stroke:#000000;stroke-width:0.30000001;stroke-linecap:butt;stroke-linejoin:miter;stroke-miterlimit:4;stroke-opacity:1;stroke-dasharray:none"
       d="m 321.13439,236.6536 c -8.0481,-0.64073 -16.26346,0.75117 -16.26346,-6.71751 0,-1.50877 3.61288,-4.1653 5.3033,-2.47488 0.42543,0.42543 2.93467,3.42929 1.76777,4.5962 -0.2591,0.25909 -2.83777,0.69777 -2.12132,1.41421 1.08977,1.08977 4.49297,1.12324 5.65685,1.41421 0.32727,0.0818 3.16537,1.44745 3.53554,0.70711 0.10918,-0.21836 -0.7631,-8.18771 0.7071,-6.71751 1.86339,1.86339 0.37615,5.35601 1.41422,7.77817 z"
       id="path3868"
       inkscape:connector-curvature="0" />
    <path
       sodipodi:nodetypes="csscsc"
       style="fill:#2ad4ff;stroke:#000000;stroke-width:1px;stroke-linecap:butt;stroke-linejoin:miter;stroke-opacity:1"
       d="m 267.74782,222.86502 c 3.48478,-1.45079 6.50689,-1.41422 10.25305,-1.41422 6.6014,0 14.90578,1.06067 20.15255,1.06067 2.10017,0 2.9517,15.66335 1.41421,18.73832 -0.14011,0.28023 -30.46732,1.70605 -31.1127,1.06067 -4.39962,-4.39962 -10.34959,-17.51694 -0.70711,-19.44544 z"
       id="path3870"
       inkscape:connector-curvature="0" />
    <path
       style="fill:#f4e3d7;stroke:#000000;stroke-width:1px;stroke-linecap:butt;stroke-linejoin:miter;stroke-opacity:1"
       d="m 249.00949,229.58253 c 8.66831,-2.09396 19.70835,-2.20292 16.26346,8.13173 -3.79633,5.69943 -10.43019,2.88625 -15.9099,3.53553 0,0 -1.76777,-1.41421 -0.35356,-11.66726 z"
       id="path3872"
       inkscape:connector-curvature="0"
       sodipodi:nodetypes="cccc" />
    <path
       sodipodi:nodetypes="cccccccc"
       style="fill:#0088aa;stroke:#000000;stroke-width:1px;stroke-linecap:butt;stroke-linejoin:miter;stroke-opacity:1"
       d="m 245.47396,241.60334 c -5.1015,-3.401 -5.03311,-3.8498 -1.06066,-10.60659 0.0723,-5.53702 0.46508,-2.64216 2.47488,-5.65686 6.66139,-2.24535 5.75693,-1.76777 11.66726,-1.76777 -1.10498,4.52181 3.85729,4.25324 -0.35356,5.65686 -2.53147,5.65476 -3.93196,7.4532 -7.07107,9.54594 7.26227,6.60805 27.97029,0.36674 34.29468,2.47487 -5.84085,1.70787 -39.22635,3.25427 -39.95153,0.35355 z"
       id="path3874"
       inkscape:connector-curvature="0" />
  </g>
</svg>
