<?xml version="1.0" encoding="UTF-8" standalone="no"?>
<!-- Created with Inkscape (http://www.inkscape.org/) -->

<svg
   xmlns:dc="http://purl.org/dc/elements/1.1/"
   xmlns:cc="http://creativecommons.org/ns#"
   xmlns:rdf="http://www.w3.org/1999/02/22-rdf-syntax-ns#"
   xmlns:svg="http://www.w3.org/2000/svg"
   xmlns="http://www.w3.org/2000/svg"
   xmlns:xlink="http://www.w3.org/1999/xlink"
   xmlns:sodipodi="http://sodipodi.sourceforge.net/DTD/sodipodi-0.dtd"
   xmlns:inkscape="http://www.inkscape.org/namespaces/inkscape"
   width="392.29324"
   height="112.03908"
   id="svg2"
   version="1.1"
   inkscape:version="0.48.4 r9939"
   sodipodi:docname="chainsaw.svg">
  <sodipodi:namedview
     id="base"
     pagecolor="#ffffff"
     bordercolor="#666666"
     borderopacity="1.0"
     inkscape:pageopacity="0.0"
     inkscape:pageshadow="2"
     inkscape:zoom="0.70710678"
     inkscape:cx="224.99658"
     inkscape:cy="-25.375845"
     inkscape:document-units="px"
     inkscape:current-layer="layer1"
     showgrid="false"
     fit-margin-top="0"
     fit-margin-left="0"
     fit-margin-right="0"
     fit-margin-bottom="0"
     inkscape:window-width="1366"
     inkscape:window-height="705"
     inkscape:window-x="-8"
     inkscape:window-y="-8"
     inkscape:window-maximized="1"
     inkscape:snap-grids="false">
    <inkscape:grid
       type="xygrid"
       id="grid4724"
       empspacing="5"
       visible="true"
       enabled="true"
       snapvisiblegridlinesonly="true"
       originx="189.3415px"
       originy="0.25152889px" />
  </sodipodi:namedview>
  <defs
     id="defs4">
    <linearGradient
       id="linearGradient5012">
      <stop
         style="stop-color:#b6b6b6;stop-opacity:1;"
         offset="0"
         id="stop5014" />
      <stop
         id="stop5034"
         offset="0.08083832"
         style="stop-color:#e6e6e6;stop-opacity:0.99607843;" />
      <stop
         id="stop5032"
         offset="0.18914835"
         style="stop-color:#b6b6b6;stop-opacity:1;" />
      <stop
         id="stop5030"
         offset="0.32335329"
         style="stop-color:#e6e6e6;stop-opacity:0.99607843;" />
      <stop
         id="stop5028"
         offset="0.44344622"
         style="stop-color:#b6b6b6;stop-opacity:1;" />
      <stop
         id="stop5026"
         offset="0.55158675"
         style="stop-color:#e6e6e6;stop-opacity:0.99607843;" />
      <stop
         id="stop5024"
         offset="0.65251696"
         style="stop-color:#b6b6b6;stop-opacity:1;" />
      <stop
         id="stop5022"
         offset="0.77196223"
         style="stop-color:#e6e6e6;stop-opacity:0.99607843;" />
      <stop
         id="stop5020"
         offset="0.87916976"
         style="stop-color:#b6b6b6;stop-opacity:1;" />
      <stop
         style="stop-color:#e6e6e6;stop-opacity:0.99607843;"
         offset="1"
         id="stop5016" />
    </linearGradient>
    <linearGradient
       id="linearGradient3909">
      <stop
         id="stop3911"
         offset="0"
         style="stop-color:#ffffff;stop-opacity:1;" />
      <stop
         id="stop3913"
         offset="1"
         style="stop-color:#aaf0ff;stop-opacity:1;" />
    </linearGradient>
    <clipPath
       id="clipPath3952"
       clipPathUnits="userSpaceOnUse">
      <rect
         style="fill:#d45500;fill-opacity:1;fill-rule:evenodd;stroke:#000000;stroke-width:3;stroke-linejoin:miter;stroke-miterlimit:4;stroke-opacity:1;stroke-dasharray:none"
         id="rect3954"
         width="360"
         height="360"
         x="168.57143"
         y="235.21933"
         rx="180"
         ry="180" />
    </clipPath>
    <clipPath
       id="clipPath3956"
       clipPathUnits="userSpaceOnUse">
      <rect
         style="fill:#d45500;fill-opacity:1;fill-rule:evenodd;stroke:#000000;stroke-width:3;stroke-linejoin:miter;stroke-miterlimit:4;stroke-opacity:1;stroke-dasharray:none"
         id="rect3958"
         width="360"
         height="360"
         x="168.57143"
         y="235.21933"
         rx="180"
         ry="180" />
    </clipPath>
    <clipPath
       id="clipPath3960"
       clipPathUnits="userSpaceOnUse">
      <rect
         style="fill:#d45500;fill-opacity:1;fill-rule:evenodd;stroke:#000000;stroke-width:3;stroke-linejoin:miter;stroke-miterlimit:4;stroke-opacity:1;stroke-dasharray:none"
         id="rect3962"
         width="360"
         height="360"
         x="168.57143"
         y="235.21933"
         rx="180"
         ry="180" />
    </clipPath>
    <clipPath
       id="clipPath3964"
       clipPathUnits="userSpaceOnUse">
      <rect
         style="fill:#d45500;fill-opacity:1;fill-rule:evenodd;stroke:#000000;stroke-width:3;stroke-linejoin:miter;stroke-miterlimit:4;stroke-opacity:1;stroke-dasharray:none"
         id="rect3966"
         width="360"
         height="360"
         x="168.57143"
         y="235.21933"
         rx="180"
         ry="180" />
    </clipPath>
    <filter
       inkscape:collect="always"
       id="filter4718"
       x="-0.168"
       width="1.336"
       y="-0.168"
       height="1.336"
       color-interpolation-filters="sRGB">
      <feGaussianBlur
         inkscape:collect="always"
         stdDeviation="4.4500001"
         id="feGaussianBlur4720" />
    </filter>
    <filter
       inkscape:collect="always"
       id="filter4847"
       color-interpolation-filters="sRGB">
      <feGaussianBlur
         inkscape:collect="always"
         stdDeviation="0.95771524"
         id="feGaussianBlur4849" />
    </filter>
    <linearGradient
       inkscape:collect="always"
       xlink:href="#linearGradient5012"
       id="linearGradient5018"
       x1="127.94421"
       y1="441.75659"
       x2="298.94421"
       y2="398.75659"
       gradientUnits="userSpaceOnUse" />
    <filter
       inkscape:collect="always"
       id="filter5048">
      <feGaussianBlur
         inkscape:collect="always"
         stdDeviation="1.4554447"
         id="feGaussianBlur5050" />
    </filter>
  </defs>
  <metadata
     id="metadata7">
    <rdf:RDF>
      <cc:Work
         rdf:about="">
        <dc:format>image/svg+xml</dc:format>
        <dc:type
           rdf:resource="http://purl.org/dc/dcmitype/StillImage" />
        <dc:title></dc:title>
      </cc:Work>
    </rdf:RDF>
  </metadata>
  <g
     transform="translate(-114.94421,-347.71751)"
     id="layer1"
     inkscape:groupmode="layer"
     inkscape:label="Layer 1">
    <path
       style="fill:#000000;stroke:none"
       d="m 328.8182,370.75301 c -14.05166,0.78341 -25.65263,11.05699 -32.46198,22.71316 -1.10485,1.89559 -2.077,3.85912 -2.9378,5.8756 -2.01403,0.003 -4.02599,-0.77898 -5.91946,-1.37389 -2.24568,-1.35237 -4.13125,1.02336 -5.71482,2.14853 -2.21138,0.39105 -4.15333,-1.48862 -6.47485,-1.03772 -2.70015,-0.21443 -5.21944,1.28776 -7.99493,0.68694 -0.88608,0.56274 -1.25313,-1.52206 -2.35315,-1.47621 -1.75251,-0.29703 -3.5023,0.39383 -5.36405,-0.0877 -1.80517,0.17005 -3.93608,-0.57869 -5.46637,0.59926 -2.3819,-1.01834 -4.63864,0.60501 -7.00102,0.0585 -1.90663,-0.0438 -3.72212,1.52516 -5.21789,-0.27769 -1.74923,-1.37853 -4.03104,-1.20763 -5.72945,0.16077 -1.9308,1.21844 -4.15702,1.54464 -6.18254,0.54078 -2.36704,-0.92187 -5.02158,-2.20305 -7.65874,-1.35927 -2.0394,-0.25661 -3.69244,1.98335 -5.59791,1.15466 -1.80473,-0.23637 -3.85631,-0.70041 -5.5102,-0.17539 -1.40334,-1.06794 -2.67701,1.04797 -4.12169,-0.14617 -2.91288,-1.6777 -5.55074,2.25957 -8.38955,0.30694 -2.24337,-0.89156 -4.63876,-1.56369 -6.89872,-0.65772 -2.4415,0.52825 -4.97601,-1.00008 -7.29334,0.30694 -2.55227,-1.01743 -5.39812,-0.0593 -7.76107,0.96465 -2.96705,0.14636 -6.02923,-0.58876 -8.91572,0.32155 -1.60719,-0.86783 -2.77521,-3.0581 -4.94019,-2.23624 -2.61087,0.18627 -4.92286,1.54976 -7.19103,2.61625 -3.10973,-1.45909 -6.95742,-3.55521 -10.23275,-1.25274 -1.58651,1.17083 -3.39156,-0.13976 -5.09936,0.34656 1.25204,-1.79551 -1.42512,-1.96888 -2.67471,-1.35929 -3.28641,1.27531 -6.67461,2.25263 -10.18731,2.77703 -2.16408,0.7973 -4.42155,1.95376 -4.96942,4.42862 -0.60882,1.87517 -3.5235,1.73824 -4.034,3.88784 -0.90315,2.57125 -2.04533,5.04821 -3.40551,7.32258 -0.73515,1.31217 1.0866,2.12608 1.15466,3.08397 -1.43307,1.6697 -1.32552,3.90019 -0.36539,5.74406 0.44232,2.05126 0.39256,4.94596 2.90857,5.56867 2.27545,1.66146 3.82782,4.00231 5.77329,6.13869 1.6214,1.34212 4.03927,1.22179 5.40789,2.89395 2.35879,1.11313 4.14063,-2.00026 6.50216,-0.89306 1.92813,0.36511 3.47005,-0.5072 5.29814,0.51479 1.99261,0.80462 4.48982,2.10338 5.98728,-0.20636 1.95032,-0.40636 4.12107,-1.36295 6.1387,-0.14616 2.39363,0.5132 4.54279,1.13973 7.0595,0.74541 1.76639,-0.0973 3.34364,-0.55864 5.02788,-0.0292 1.81676,-0.48223 3.51637,0.80918 5.43712,0.29232 2.02474,-0.0226 3.85258,0.76061 5.52483,-0.61387 2.214,1.60234 5.11887,1.1864 7.54182,2.06084 1.8414,-0.16267 3.60664,-0.40122 5.40788,-0.0584 1.28021,-0.30384 2.38079,-1.02907 3.61015,-0.24848 1.74732,0.30866 2.9975,-1.59777 4.56017,-1.18388 2.3198,-0.68875 4.70968,-0.19758 6.78179,0.77464 1.15638,-0.11838 2.13332,-0.4063 3.14242,0.27769 1.74184,0.11563 3.45442,-1.7014 5.2179,-0.43848 2.98281,0.98034 6.25545,0.6644 8.68186,-1.41774 1.33797,-0.81527 2.90826,0.13091 3.65398,1.33005 2.30141,0.96207 4.84229,0.94246 7.29335,0.57003 2.3122,1.25331 4.86559,-0.17593 7.26411,-0.26309 3.11084,-0.78093 6.12374,-1.56468 9.16419,-1.6516 2.52561,-0.2838 4.95685,2.8344 7.41028,1.30081 1.10053,-0.94486 3.03511,0.1379 4.38477,-0.65771 2.33531,-1.31541 5.34189,0.27596 7.67337,-1.02312 2.21361,0.71586 3.84714,3.2895 6.40179,2.04624 1.8179,-0.28434 3.53245,-2.96702 5.24711,-1.11081 1.03573,1.0646 2.35348,1.46608 3.69782,1.21311 2.11988,1.12028 4.40959,0.0614 6.28486,-0.86233 1.3435,0.34944 2.80915,0.65899 4.01938,-0.43848 7.24409,11.70272 21.59152,16.85672 34.94657,16.33038 21.28066,-0.33777 42.56203,-1.18762 63.84221,-1.2032 37.22394,0.70421 74.45406,-0.004 111.68063,-0.0728 2.19811,-12.71768 2.99439,-25.95187 0.6431,-38.68838 -0.93355,-2.11942 -4.2002,-2.27077 -6.10325,-3.60938 -25.83956,-12.18776 -48.78068,-31.16148 -77.19989,-37.43044 -4.95823,-0.98877 -9.91603,-1.98219 -14.85745,-3.05644 -12.71836,-1.40155 -25.58759,-0.58315 -38.3659,-1.00433 -13.3931,-0.10194 -26.78794,-0.32724 -40.18012,-0.35495 z m 103.42233,18.91301 c 21.40364,6.48474 39.9646,19.43617 58.15678,31.96504 0.7814,7.427 -0.28968,14.96997 -0.42386,22.43547 -18.09077,3.80602 -37.18957,2.6725 -55.01435,-1.15467 4.27717,-15.26201 3.10451,-31.70316 -0.70157,-46.93175 -0.45664,-2.03817 -1.58426,-4.75267 -2.017,-6.31409 z"
       id="path5003"
       inkscape:connector-curvature="0" />
    <path
       style="fill:#000000;stroke:none"
       d="m 107.80689,13.15686 c 35.26327,5.235675 56.33253,21.70063 79.08938,36.871861 1.02051,4.693719 -0.34638,19.055983 -0.34638,23.831656 -25.27342,5.294645 -47.61296,1.588148 -72.26418,-4.574657 -0.30305,4.824874 -39.95721,10.900104 -41.57142,13.321428 35.34112,1.455936 94.86959,0.398061 127.06783,0.398061 1.99594,-10.412618 2.74962,-28.44966 0.36074,-38.005204 C 162.1699,28.336605 138.9558,2.4285768 93.285714,2.4285768 94.47619,3.619053 106.61641,11.966383 107.80689,13.15686 z"
       id="path4726"
       inkscape:connector-curvature="0"
       transform="translate(304.28571,370.93363)"
       sodipodi:nodetypes="ccccccccc" />
    <path
       style="fill:#ff9955;stroke:none;filter:url(#filter4847)"
       d="m 406.97321,375.08988 c 4.18315,3.77734 8.84505,6.19777 14.53125,6.46875 27.04227,5.14294 50.20714,20.77604 72.5,36.21875 1.49413,8.82192 -0.34371,17.80465 -0.15625,26.6875 -24.28719,5.73214 -49.73284,1.9426 -73.46875,-3.8125 -8.88964,5.7106 -20.14189,6.36653 -30.15625,9.28125 37.7252,0.78034 75.4591,0.11211 113.1875,0 1.58278,-11.35166 2.31415,-23.16013 0.3125,-34.5625 -31.40979,-13.85885 -58.65492,-38.67068 -94.08723,-41.45776 -1.79701,0.16303 -7.71147,-1.67514 -2.66277,1.17651 z"
       id="path4839"
       inkscape:connector-curvature="0" />
    <path
       style="fill:#b3b3b3;fill-opacity:1;fill-rule:evenodd;stroke:none"
       d="m 139.12837,400.7589 c -0.45073,0.95717 0.2382,-0.99013 4.18626,-0.30188 0.71966,0.7951 3.8974,-1.32554 4.79769,-1.33041 0.76629,-0.72272 5.21975,1.00583 6.15763,1.565 1.72265,1.05654 2.15456,0.62687 3.74979,-0.43315 0.59077,-0.17298 3.36453,-1.73274 6.07783,-1.5992 0.87928,-0.75019 2.82767,3.16905 4.60652,2.0997 0.63141,-0.24395 4.36116,-0.61329 5.22194,-0.0205 2.44809,-0.59096 2.95711,0.28118 3.91491,-0.4538 2.01603,-0.9848 4.81846,-1.57797 6.78273,-0.55 2.12098,-0.93159 2.47424,-0.87554 4.94011,-0.2197 2.56823,-0.37078 2.18504,0.0749 4.55285,-0.69331 0.63437,-0.0405 2.94519,0.57966 5.20938,1.43925 2.28599,0.81573 2.66832,-0.0796 5.08595,-0.78332 1.02756,-0.84758 3.95565,1.16167 4.96325,0.34935 1.47752,-1.05755 1.46494,0.83466 2.96305,-0.2239 0.67205,-0.2451 4.3449,0.52157 5.00352,0.43418 1.06713,0.87318 2.62637,-1.26298 5.27635,-1.18913 2.39458,-0.71574 4.9928,0.22751 6.48146,1.28574 2.64734,0.10838 1.44642,1.02752 4.02177,0.62721 0.71392,0.3626 4.62413,-1.81273 5.30197,-2.08405 0.99774,-0.8055 3.64068,0.97577 5.00083,2.00427 0.66913,-0.14038 3.26116,-1.47729 5.51476,-0.63042 2.44657,-0.66594 2.54428,-0.97181 5.00913,-0.37089 0.88945,0.67474 0.59905,-1.08623 3.08614,-0.52696 2.62544,-0.31805 5.76497,0.55654 6.61436,-0.11338 2.66762,-0.12226 2.17018,2.75493 3.91529,1.69039 0.68357,0.0964 4.08021,0.14499 6.16624,-0.80383 0.69001,0.0975 3.96093,-0.007 4.6967,0.50621 2.01234,1.01653 3.53627,0.74359 4.2194,0.3288 1.23115,-0.94419 2.5459,-3.01068 4.44494,-1.98955 0.96567,0.70283 3.73827,0.73505 4.65428,1.53919 2.74314,-0.0812 4.31568,0.003 6.75827,-0.48441 1.08915,-0.76389 2.58071,-0.10512 3.79076,0.91949 2.77323,0.5241 4.73341,-2.88433 5.49406,-2.05188 4.15124,0.26195 2.99069,0.73968 3.69603,1.49977 1.9712,0.98628 3.81508,-0.28734 5.75416,0.9353 0.63046,0.68418 3.61599,-1.49141 4.04058,-0.85108 0.52126,0.28947 4.32277,3.7371 5.28257,3.54898 1.9274,1.74166 1.51719,1.34253 2.18625,3.40352 0.69969,2.09922 4.04879,3.16473 4.13566,3.80642 1.2268,0.40225 -0.19939,2.98616 1.25191,4.62599 1.03214,2.43337 0.85435,2.15859 1.68408,4.4444 0.29808,2.71104 -0.16265,3.68258 -0.5122,4.17767 -0.2995,2.63352 -2.58829,3.53884 -3.77286,3.92398 -0.14917,0.57349 -1.01836,3.2664 -1.87642,3.38727 -0.25777,0.53205 -4.16471,1.69868 -4.83129,3.33118 -1.5923,-0.20422 -3.57995,1.72231 -4.33995,3.026 -0.92979,-0.39258 -2.71979,0.0934 -3.39139,-0.1272 -0.54457,0.62717 -5.14328,1.62383 -5.72319,1.58511 0.23096,-1.04328 -0.97004,0.19812 -3.23584,0.62962 -1.80056,-0.97802 -2.80707,-1.27129 -5.57173,-1.81048 -2.14546,-0.8235 -4.44188,-0.65315 -5.71345,0.26302 -1.84358,-1.02566 -3.95154,1.99126 -5.2689,1.02247 -2.04237,-0.94947 -3.34656,1.41021 -4.23519,0.81607 -1.59886,1.07226 -3.27658,-0.79563 -4.23998,-0.0763 -0.69858,0.45246 -3.40716,-2.83333 -4.7952,-1.8125 -2.08773,0.94413 -2.73223,1.93216 -5.41805,1.91616 -1.52289,-1.06715 -3.74096,-2.98516 -4.85176,-2.10339 -0.88111,0.71564 -5.19009,0.0349 -5.89024,0.27504 -0.73316,0.4745 -2.74955,1.24666 -5.24537,0.64175 -0.93147,0.76346 -0.83517,1.48508 -3.05986,0.59547 -0.89725,-0.72158 -5.34516,-2.05596 -6.6997,-1.03602 -0.69801,-0.35966 -4.40649,0.70139 -5.07312,0.82139 -2.50595,0.54122 -1.72092,0.64105 -4.37506,0.72902 -0.75421,0.48605 -3.12478,0.99621 -4.30564,0.0523 -2.63523,-0.16774 -3.68085,0.828 -5.75584,-0.1438 -2.63785,0.16643 -1.28801,-1.63762 -3.92077,-1.8357 -1.63407,-1.07209 -3.24757,1.45186 -5.78333,1.94472 -0.69377,0.29566 -4.76116,-0.27354 -5.59267,-0.8967 -2.64052,-0.19852 -3.52448,1.56646 -4.68889,0.62495 -0.96076,-0.76601 -2.36569,0.51101 -3.31885,-0.26809 -1.05143,-0.84853 -4.56448,-1.17536 -6.84763,-0.35733 -1.0773,-0.86626 -2.40142,1.77397 -4.4756,0.81123 -1.1554,-0.91911 -2.76311,1.2169 -4.51171,0.15217 -2.67412,-0.008 -3.59784,0.9019 -5.39493,-0.15441 -2.60319,-0.41088 -3.81928,-0.22198 -5.36565,-1.29133 -0.94881,-0.72467 -0.92598,-0.13435 -3.08313,0.7657 -2.08004,-0.98921 -5.435,0.19695 -6.79006,-0.84122 -0.76079,-0.35281 -1.86239,0.71797 -3.38252,-0.35138 -2.3663,0.81904 -5.97512,0.35787 -6.60985,0.71535 -2.22884,-0.93901 -1.18492,-0.21663 -3.52341,-0.87887 -0.97213,-0.6156 -3.76362,-1.13823 -5.14458,-0.0742 -2.83705,-0.3768 -2.70253,2.39004 -4.22721,1.3274 -3.39227,-1.04819 -5.48933,-2.05593 -6.20862,-1.31101 -0.58233,-0.0897 -1.71111,-0.0669 -4.19162,-0.44635 -0.57427,-0.0778 -3.30591,2.48866 -4.53088,0.89513 -1.37497,-1.63289 -3.69661,-1.00283 -5.21368,-2.86994 -0.51254,-0.28888 -2.63327,-3.84793 -3.53833,-3.8952 -0.37007,-0.48122 -1.46532,-1.83733 -2.91174,-2.35201 -1.23888,-0.40757 -0.89907,-3.56015 -2.00346,-5.94794 -1.04334,-2.42463 1.73572,-3.54749 0.79102,-4.88315 -0.91137,-1.24619 -1.77428,-1.03087 -0.50782,-3.21162 1.26254,-0.94416 2.38014,-5.93891 3.0208,-6.28799 0.024,-0.72413 1.08418,-1.32203 3.22736,-2.29997 0.2785,-0.4977 1.37755,-3.37189 1.88999,-3.66084 2.27011,-1.07413 1.70368,-1.26292 4.19058,-1.84082 2.40491,-0.35516 3.99226,-0.61464 4.54963,-0.94486 2.39416,-0.71671 5.44562,-2.12247 6.10106,-1.71196 0.91039,-0.44365 -1.83105,1.6106 -1.54193,0.58412"
       id="rect3979"
       inkscape:connector-curvature="0" />
    <path
       inkscape:connector-curvature="0"
       id="path4624"
       d="m 141.41571,403.30802 c -0.437,0.82814 0.23095,-0.85666 4.05878,-0.26119 0.69775,0.68792 3.77872,-1.14686 4.6516,-1.15107 0.74295,-0.6253 5.06079,0.87025 5.97011,1.35404 1.67019,0.91412 2.08896,0.54237 3.63561,-0.37477 0.57278,-0.14966 3.26207,-1.49916 5.89274,-1.38362 0.85251,-0.64906 2.74157,2.74186 4.46625,1.81666 0.61218,-0.21106 4.22835,-0.53062 5.06292,-0.0177 2.37354,-0.51129 2.86706,0.24328 3.7957,-0.39262 1.95463,-0.85205 4.67173,-1.36526 6.57618,-0.47586 2.05639,-0.80602 2.3989,-0.75752 4.78968,-0.19009 2.49002,-0.3208 2.11849,0.0648 4.41421,-0.59986 0.61505,-0.035 2.85549,0.50153 5.05074,1.24525 2.21637,0.70577 2.58707,-0.0689 4.93107,-0.67773 0.99627,-0.73333 3.8352,1.00508 4.81211,0.30226 1.43253,-0.91499 1.42033,0.72214 2.87282,-0.19372 0.65159,-0.21206 4.21259,0.45126 4.85116,0.37565 1.03463,0.75548 2.54639,-1.09273 5.11567,-1.02883 2.32166,-0.61926 4.84076,0.19684 6.28409,1.11242 2.56672,0.0937 1.40237,0.88901 3.8993,0.54266 0.69218,0.31372 4.48332,-1.56837 5.14051,-1.80312 0.96736,-0.69692 3.52982,0.84424 4.84855,1.73409 0.64876,-0.12145 3.16185,-1.27815 5.34683,-0.54543 2.37207,-0.57617 2.4668,-0.84081 4.85659,-0.3209 0.86237,0.58379 0.58081,-0.9398 2.99216,-0.45592 2.54549,-0.27518 5.58942,0.48151 6.41294,-0.0981 2.58639,-0.10578 2.1041,2.38356 3.79607,1.46253 0.66275,0.0833 3.95595,0.12544 5.97846,-0.69548 0.669,0.0844 3.84032,-0.006 4.55368,0.43797 1.95106,0.8795 3.42858,0.64335 4.09091,0.28448 1.19366,-0.81691 2.46837,-2.60484 4.30958,-1.72136 0.93627,0.60809 3.62443,0.63597 4.51255,1.33171 2.65961,-0.0702 4.18427,0.003 6.55247,-0.41912 1.05599,-0.66091 2.50213,-0.0909 3.67533,0.79555 2.68877,0.45345 4.58926,-2.49552 5.32675,-1.77528 4.02483,0.22663 2.89962,0.63997 3.58348,1.2976 1.91117,0.85332 3.6989,-0.24861 5.57894,0.80921 0.61126,0.59196 3.50588,-1.29037 3.91754,-0.73635 0.50538,0.25045 4.19113,3.23333 5.12171,3.07057 1.8687,1.50689 1.47098,1.16157 2.11967,2.94473 0.67838,1.81625 3.92549,2.73813 4.00972,3.29332 1.18944,0.34802 -0.19332,2.58361 1.21379,4.0024 1.0007,2.10535 0.82833,1.86761 1.63279,3.84529 0.28901,2.34559 -0.15769,3.18617 -0.4966,3.61452 -0.29038,2.27852 -2.50947,3.0618 -3.65797,3.39503 -0.14463,0.49618 -0.98735,2.82609 -1.81928,2.93066 -0.24992,0.46033 -4.03788,1.4697 -4.68417,2.88214 -1.54381,-0.17669 -3.47093,1.49013 -4.20779,2.61809 -0.90148,-0.33966 -2.63696,0.0808 -3.28811,-0.11005 -0.52799,0.54263 -4.98666,1.40494 -5.54892,1.37143 0.22394,-0.90264 -0.9405,0.17142 -3.1373,0.54475 -1.74573,-0.84618 -2.72158,-1.09992 -5.40206,-1.56642 -2.08012,-0.7125 -4.30661,-0.56512 -5.53946,0.22756 -1.78744,-0.88741 -3.83121,1.72283 -5.10846,0.88464 -1.98017,-0.82148 -3.24465,1.22011 -4.10622,0.70606 -1.55017,0.92771 -3.1768,-0.68837 -4.11086,-0.066 -0.67731,0.39147 -3.30341,-2.45138 -4.64918,-1.56817 -2.02416,0.81686 -2.64903,1.6717 -5.25306,1.65786 -1.47651,-0.9233 -3.62704,-2.58276 -4.70402,-1.81985 -0.85428,0.61917 -5.03204,0.0302 -5.71087,0.23796 -0.71083,0.41054 -2.66582,1.07861 -5.08564,0.55525 -0.90311,0.66054 -0.80973,1.28489 -2.96668,0.5152 -0.86992,-0.62432 -5.18239,-1.77882 -6.49568,-0.89637 -0.67676,-0.31118 -4.27231,0.60684 -4.91863,0.71067 -2.42964,0.46826 -1.66852,0.55463 -4.24183,0.63075 -0.73125,0.42053 -3.02963,0.86192 -4.17453,0.0453 -2.55499,-0.14513 -3.56877,0.71639 -5.58057,-0.12441 -2.55753,0.14399 -1.24879,-1.41687 -3.80137,-1.58825 -1.58431,-0.92757 -3.14868,1.25615 -5.60722,1.68257 -0.67264,0.2558 -4.61617,-0.23667 -5.42237,-0.77582 -2.5601,-0.17176 -3.41714,1.3553 -4.5461,0.5407 -0.9315,-0.66275 -2.29365,0.44213 -3.21779,-0.23195 -1.0194,-0.73415 -4.42548,-1.01692 -6.6391,-0.30916 -1.0445,-0.74949 -2.32829,1.53485 -4.33931,0.70187 -1.12022,-0.79521 -2.67898,1.05287 -4.37433,0.13166 -2.59268,-0.007 -3.48827,0.78033 -5.23064,-0.13358 -2.52392,-0.35551 -3.70298,-0.19207 -5.20225,-1.11727 -0.91992,-0.62698 -0.89779,-0.11624 -2.98925,0.66248 -2.01669,-0.85586 -5.26949,0.1704 -6.58329,-0.72782 -0.73762,-0.30525 -1.80567,0.62119 -3.27952,-0.30402 -2.29424,0.70864 -5.79316,0.30963 -6.40856,0.61893 -2.16097,-0.81244 -1.14884,-0.18743 -3.41612,-0.7604 -0.94252,-0.53262 -3.64901,-0.9848 -4.98792,-0.0642 -2.75065,-0.32601 -2.62023,2.06786 -4.09848,1.14846 -3.28897,-0.90689 -5.32217,-1.77878 -6.01956,-1.13428 -0.5646,-0.0776 -1.659,-0.0579 -4.06397,-0.38618 -0.55679,-0.0673 -3.20524,2.15319 -4.39291,0.77447 -1.33311,-1.41278 -3.58405,-0.86765 -5.05492,-2.48308 -0.49693,-0.24994 -2.55308,-3.32922 -3.43058,-3.37012 -0.3588,-0.41635 -1.4207,-1.58966 -2.82307,-2.03496 -1.20115,-0.35263 -0.87169,-3.08024 -1.94246,-5.14615 -1.01156,-2.09779 1.68287,-3.06929 0.76694,-4.2249 -0.88362,-1.07821 -1.72025,-0.89191 -0.49236,-2.77869 1.22409,-0.81689 2.30766,-5.13835 2.92882,-5.44037 0.0233,-0.62652 1.05116,-1.14382 3.12908,-1.98994 0.27001,-0.43061 1.33559,-2.91735 1.83243,-3.16735 2.20098,-0.92934 1.6518,-1.09268 4.06297,-1.59268 2.33168,-0.30727 3.87069,-0.53179 4.41109,-0.81749 2.32125,-0.6201 5.27979,-1.83635 5.91527,-1.48119 0.88267,-0.38384 -1.77529,1.39349 -1.49498,0.50538"
       style="fill:#666666;fill-opacity:1;fill-rule:evenodd;stroke:none" />
    <rect
       ry="30"
       rx="21.745657"
       y="404.50507"
       x="120.71428"
       height="30"
       width="210"
       id="rect3977"
       style="fill:#e6e6e6;fill-opacity:1;fill-rule:evenodd;stroke:none" />
    <path
       sodipodi:nodetypes="sssssssss"
       inkscape:connector-curvature="0"
       id="rect3972"
       d="M 26.031371,0.71429105 83.397209,1.2857194 C 104.14898,1.4924305 112.888,0.60711792 125.76454,16.882061 c 3.1893,4.031028 9.71512,29.276727 4.95692,51.207175 -4.4003,20.280936 -19.25921,14.319579 -40.007174,14.767912 L 24.6028,84.285722 C 3.854835,84.734056 -13.571428,72.578588 -13.571428,51.82578 l 0,-6.50869 c 0,-20.752808 18.8510204,-44.80951004 39.602799,-44.60279895 z"
       style="fill:#ff9955;fill-opacity:1;fill-rule:evenodd;stroke:none"
       transform="translate(304.28571,370.93363)" />
    <rect
       style="fill:#ffb380;fill-opacity:1;fill-rule:evenodd;stroke:none;filter:url(#filter4718)"
       id="rect4652"
       width="63.57143"
       height="63.57143"
       x="304.14285"
       y="388.64792"
       rx="18.266352"
       ry="25.200001"
       transform="matrix(0.76451592,0,0,0.76451592,78.398723,93.348573)" />
    <path
       style="fill:#000000;fill-opacity:1;fill-rule:evenodd;stroke:none"
       d="m 323.98485,384.55803 c -4.12479,0 -7.9208,1.86975 -10.96875,5.03125 1.22867,1.16785 2.58022,2.53651 3.96875,3.96875 2.51056,-2.51986 5.61234,-4 8.96875,-4 l 8.25,0 c -0.0375,-1.7078 -0.0819,-3.39808 -0.0937,-5 l -10.125,0 z m 13.375,0 c -0.0118,1.60192 -0.0562,3.2922 -0.0937,5 l 8.21875,0 c 3.36093,0 6.45043,1.50522 8.96875,4.03125 1.393,-1.43726 2.73571,-2.82726 3.96875,-4 -3.05409,-3.1615 -6.84395,-5.03125 -10.96875,-5.03125 l -10.09375,0 z m -26.375,7.53125 c -3.23582,4.5477 -5.25,10.78128 -5.25,17.6875 l 0,3.15625 c 1.60193,0.0118 3.2922,0.0562 5,0.0937 l 0,-2.46875 c 0,-5.65109 1.60556,-10.76388 4.21875,-14.53125 -1.41633,-1.37037 -2.7957,-2.71431 -3.96875,-3.9375 z m 49.5,0 c -1.17304,1.22319 -2.55242,2.56713 -3.96875,3.9375 2.61636,3.76635 4.21875,8.88554 4.21875,14.53125 l 0,2.46875 c 1.7078,-0.0375 3.39808,-0.0819 5,-0.0937 l 0,-3.15625 c 0,-6.90622 -2.00644,-13.1398 -5.25,-17.6875 z m -32.59375,2.46875 c -2.61281,0 -5.02475,1.1423 -7,3.0625 1.33713,1.39658 2.67747,2.76508 3.9375,4.03125 1.43993,-1.30967 3.16854,-2.09375 5.03125,-2.09375 l 4.46875,0 c 0.0191,-1.55003 -0.002,-3.25925 -0.0312,-5 l -6.40625,0 z m 9.28125,0 c -0.0295,1.74075 -0.0503,3.44997 -0.0312,5 l 4.4375,0 c 1.86944,0 3.61409,0.77538 5.0625,2.09375 1.25528,-1.26138 2.57426,-2.6401 3.90625,-4.03125 -1.98099,-1.9202 -4.38718,-3.0625 -7,-3.0625 l -6.375,0 z m -18.1875,5.34375 c -2.01708,2.99987 -3.25,7.03246 -3.25,11.46875 l 0,1.75 c 1.74076,0.0295 3.44997,0.0503 5,0.0312 l 0,-1 c 0,-3.20405 0.83398,-6.12639 2.25,-8.34375 -1.25113,-1.24881 -2.61177,-2.57635 -4,-3.90625 z m 33.5,0.0312 c -1.39438,1.33587 -2.7763,2.65287 -4.03125,3.90625 1.41469,2.21461 2.28125,5.11911 2.28125,8.3125 l 0,1 c 1.55003,0.0191 3.25924,-0.002 5,-0.0312 l 0,-1.75 c 0,-4.42306 -1.23621,-8.44047 -3.25,-11.4375 z m -34.90625,16.03125 c -0.5909,0.006 -1.23585,0.021 -1.84375,0.0312 l 0,1.78125 c 0,4.43628 1.23292,8.44505 3.25,11.4375 1.38823,-1.32991 2.74887,-2.65745 4,-3.90625 -1.41602,-2.21737 -2.25,-5.13971 -2.25,-8.34375 l 0,-1 c -1.00874,-0.0124 -2.05503,-0.0111 -3.15625,0 z m 33.15625,0 0,1 c 0,3.19338 -0.86656,6.09788 -2.28125,8.3125 1.25495,1.25337 2.63687,2.57037 4.03125,3.90625 2.01379,-2.98963 3.25,-6.9832 3.25,-11.40625 l 0,-1.78125 c -1.74076,-0.0295 -3.44997,-0.0503 -5,-0.0312 z m -40,0.125 c -1.7078,0.0375 -3.39807,0.0819 -5,0.0937 l 0,3.1875 c 0,6.90708 2.01346,13.14737 5.25,17.6875 1.17693,-1.22797 2.54575,-2.59193 3.96875,-3.96875 -2.61319,-3.76738 -4.21875,-8.88017 -4.21875,-14.53125 l 0,-2.46875 z m 50,0 0,2.46875 c 0,5.6457 -1.60239,10.76489 -4.21875,14.53125 1.42301,1.37682 2.79182,2.74078 3.96875,3.96875 3.24428,-4.54013 5.25,-10.78042 5.25,-17.6875 l 0,-3.1875 c -1.60192,-0.0118 -3.2922,-0.0562 -5,-0.0937 z m -35.90625,11.375 c -1.26496,1.27112 -2.59504,2.66029 -3.9375,4.0625 1.97525,1.91444 4.38719,3.03125 7,3.03125 l 6.40625,0 c 0.0295,-1.74076 0.0503,-3.44998 0.0312,-5 l -4.46875,0 c -1.86271,0 -3.59132,-0.78409 -5.03125,-2.09375 z m 21.8125,0 c -1.44841,1.31836 -3.19306,2.09375 -5.0625,2.09375 l -4.4375,0 c -0.0191,1.55002 0.002,3.25924 0.0312,5 l 6.375,0 c 2.62664,0 5.04443,-1.1295 7.03125,-3.0625 -1.33712,-1.39659 -2.67746,-2.76509 -3.9375,-4.03125 z m 7.8125,8.0625 c -2.51832,2.52602 -5.60782,4.03125 -8.96875,4.03125 l -8.21875,0 c 0.0375,1.7078 0.082,3.39807 0.0937,5 l 10.09375,0 c 4.1248,0 7.91466,-1.87591 10.96875,-5.03125 -1.23304,-1.17275 -2.57575,-2.56275 -3.96875,-4 z m -37.46875,0.0312 c -1.38853,1.43223 -2.74008,2.80089 -3.96875,3.96875 3.04795,3.15534 6.84396,5.03125 10.96875,5.03125 l 10.125,0 c 0.0118,-1.60193 0.0562,-3.2922 0.0937,-5 l -8.25,0 c -3.35641,0 -6.45819,-1.48015 -8.96875,-4 z"
       id="rect4634"
       inkscape:connector-curvature="0" />
    <path
       style="fill:#000000;fill-opacity:1;fill-rule:evenodd;stroke:none"
       d="m 403.61234,369.99216 c -1.06236,-0.49107 -2.58109,0.52388 -3.39535,2.2854 l -2.05382,4.44314 c -0.81425,1.76151 -0.60341,3.57597 0.45895,4.06704 l 6.4595,2.98588 -1.62491,3.51525 c -0.2392,0.51746 0.98579,1.58183 2.74731,2.39608 l 4.44314,2.05383 c 1.76151,0.81425 3.36593,1.05777 3.60512,0.54031 l 1.62492,-3.51525 6.26322,2.89515 c 1.06236,0.49108 2.56325,-0.53214 3.3775,-2.29365 l 2.05383,-4.44314 c 0.81425,-1.76152 0.62125,-3.56771 -0.44111,-4.05879 l -23.5183,-10.87125 z"
       id="rect4832"
       inkscape:connector-curvature="0"
       inkscape:transform-center-x="-2.1213203"
       inkscape:transform-center-y="-4.9497475" />
    <rect
       style="fill:#000000;fill-opacity:1;fill-rule:evenodd;stroke:none"
       id="rect4728"
       width="21.213203"
       height="3.1819808"
       x="371.1073"
       y="434.57956"
       rx="0"
       ry="3.1819808" />
    <rect
       ry="3.1819808"
       rx="0"
       y="434.57956"
       x="395.1073"
       height="3.1819808"
       width="21.213203"
       id="rect4730"
       style="fill:#000000;fill-opacity:1;fill-rule:evenodd;stroke:none" />
    <rect
       ry="3.1819808"
       rx="0"
       y="416.54831"
       x="374.64285"
       height="3.1819808"
       width="21.213203"
       id="rect4740"
       style="fill:#000000;fill-opacity:1;fill-rule:evenodd;stroke:none" />
    <rect
       style="fill:#000000;fill-opacity:1;fill-rule:evenodd;stroke:none"
       id="rect4742"
       width="21.213203"
       height="3.1819808"
       x="398.64285"
       y="416.54831"
       rx="0"
       ry="3.1819808" />
    <rect
       style="fill:#000000;fill-opacity:1;fill-rule:evenodd;stroke:none"
       id="rect4744"
       width="21.213203"
       height="3.1819808"
       x="373.22864"
       y="426.44781"
       rx="0"
       ry="3.1819808" />
    <rect
       ry="3.1819808"
       rx="0"
       y="426.44781"
       x="397.22864"
       height="3.1819808"
       width="21.213203"
       id="rect4746"
       style="fill:#000000;fill-opacity:1;fill-rule:evenodd;stroke:none" />
    <rect
       style="fill:#000000;fill-opacity:1;fill-rule:evenodd;stroke:none"
       id="rect4822"
       width="21.213203"
       height="3.1819808"
       x="372.52155"
       y="405.94171"
       rx="0"
       ry="3.1819808" />
    <rect
       ry="3.1819808"
       rx="0"
       y="405.94171"
       x="396.52155"
       height="3.1819808"
       width="21.213203"
       id="rect4824"
       style="fill:#000000;fill-opacity:1;fill-rule:evenodd;stroke:none" />
    <path
       style="fill:#ffb380;stroke:#000000;stroke-width:1px;stroke-linecap:butt;stroke-linejoin:miter;stroke-opacity:1"
       d="m 57.75,13.071434 10.5,16.25 48.25,-0.25 -0.5,-10 -11,-0.25 -6,-5.75 z"
       id="path4828"
       inkscape:connector-curvature="0"
       transform="translate(304.28571,370.93363)"
       sodipodi:nodetypes="ccccccc" />
    <path
       inkscape:connector-curvature="0"
       id="path4855"
       d="m 139.12837,400.7589 c -0.45073,0.95717 0.2382,-0.99013 4.18626,-0.30188 0.71966,0.7951 3.8974,-1.32554 4.79769,-1.33041 0.76629,-0.72272 5.21975,1.00583 6.15763,1.565 1.72265,1.05654 2.15456,0.62687 3.74979,-0.43315 0.59077,-0.17298 3.36453,-1.73274 6.07783,-1.5992 0.87928,-0.75019 2.82767,3.16905 4.60652,2.0997 0.63141,-0.24395 4.36116,-0.61329 5.22194,-0.0205 2.44809,-0.59096 2.95711,0.28118 3.91491,-0.4538 2.01603,-0.9848 4.81846,-1.57797 6.78273,-0.55 2.12098,-0.93159 2.47424,-0.87554 4.94011,-0.2197 2.56823,-0.37078 2.18504,0.0749 4.55285,-0.69331 0.63437,-0.0405 2.94519,0.57966 5.20938,1.43925 2.28599,0.81573 2.66832,-0.0796 5.08595,-0.78332 1.02756,-0.84758 3.95565,1.16167 4.96325,0.34935 1.47752,-1.05755 1.46494,0.83466 2.96305,-0.2239 0.67205,-0.2451 4.3449,0.52157 5.00352,0.43418 1.06713,0.87318 2.62637,-1.26298 5.27635,-1.18913 2.39458,-0.71574 4.9928,0.22751 6.48146,1.28574 2.64734,0.10838 1.44642,1.02752 4.02177,0.62721 0.71392,0.3626 4.62413,-1.81273 5.30197,-2.08405 0.99774,-0.8055 3.64068,0.97577 5.00083,2.00427 0.66913,-0.14038 3.26116,-1.47729 5.51476,-0.63042 2.44657,-0.66594 2.54428,-0.97181 5.00913,-0.37089 0.88945,0.67474 0.59905,-1.08623 3.08614,-0.52696 2.62544,-0.31805 5.76497,0.55654 6.61436,-0.11338 2.66762,-0.12226 2.17018,2.75493 3.91529,1.69039 0.68357,0.0964 4.08021,0.14499 6.16624,-0.80383 0.69001,0.0975 3.96093,-0.007 4.6967,0.50621 2.01234,1.01653 3.53627,0.74359 4.2194,0.3288 1.23115,-0.94419 2.5459,-3.01068 4.44494,-1.98955 0.96567,0.70283 3.73827,0.73505 4.65428,1.53919 2.74314,-0.0812 4.31568,0.003 6.75827,-0.48441 1.08915,-0.76389 2.58071,-0.10512 3.79076,0.91949 2.77323,0.5241 4.73341,-2.88433 5.49406,-2.05188 4.15124,0.26195 2.99069,0.73968 3.69603,1.49977 1.9712,0.98628 3.81508,-0.28734 5.75416,0.9353 0.63046,0.68418 3.61599,-1.49141 4.04058,-0.85108 0.52126,0.28947 4.32277,3.7371 5.28257,3.54898 1.9274,1.74166 1.51719,1.34253 2.18625,3.40352 0.69969,2.09922 4.04879,3.16473 4.13566,3.80642 1.2268,0.40225 -0.19939,2.98616 1.25191,4.62599 1.03214,2.43337 0.85435,2.15859 1.68408,4.4444 0.29808,2.71104 -0.16265,3.68258 -0.5122,4.17767 -0.2995,2.63352 -2.58829,3.53884 -3.77286,3.92398 -0.14917,0.57349 -1.01836,3.2664 -1.87642,3.38727 -0.25777,0.53205 -4.16471,1.69868 -4.83129,3.33118 -1.5923,-0.20422 -3.57995,1.72231 -4.33995,3.026 -0.92979,-0.39258 -2.71979,0.0934 -3.39139,-0.1272 -0.54457,0.62717 -5.14328,1.62383 -5.72319,1.58511 0.23096,-1.04328 -0.97004,0.19812 -3.23584,0.62962 -1.80056,-0.97802 -2.80707,-1.27129 -5.57173,-1.81048 -2.14546,-0.8235 -4.44188,-0.65315 -5.71345,0.26302 -1.84358,-1.02566 -3.95154,1.99126 -5.2689,1.02247 -2.04237,-0.94947 -3.34656,1.41021 -4.23519,0.81607 -1.59886,1.07226 -3.27658,-0.79563 -4.23998,-0.0763 -0.69858,0.45246 -3.40716,-2.83333 -4.7952,-1.8125 -2.08773,0.94413 -2.73223,1.93216 -5.41805,1.91616 -1.52289,-1.06715 -3.74096,-2.98516 -4.85176,-2.10339 -0.88111,0.71564 -5.19009,0.0349 -5.89024,0.27504 -0.73316,0.4745 -2.74955,1.24666 -5.24537,0.64175 -0.93147,0.76346 -0.83517,1.48508 -3.05986,0.59547 -0.89725,-0.72158 -5.34516,-2.05596 -6.6997,-1.03602 -0.69801,-0.35966 -4.40649,0.70139 -5.07312,0.82139 -2.50595,0.54122 -1.72092,0.64105 -4.37506,0.72902 -0.75421,0.48605 -3.12478,0.99621 -4.30564,0.0523 -2.63523,-0.16774 -3.68085,0.828 -5.75584,-0.1438 -2.63785,0.16643 -1.28801,-1.63762 -3.92077,-1.8357 -1.63407,-1.07209 -3.24757,1.45186 -5.78333,1.94472 -0.69377,0.29566 -4.76116,-0.27354 -5.59267,-0.8967 -2.64052,-0.19852 -3.52448,1.56646 -4.68889,0.62495 -0.96076,-0.76601 -2.36569,0.51101 -3.31885,-0.26809 -1.05143,-0.84853 -4.56448,-1.17536 -6.84763,-0.35733 -1.0773,-0.86626 -2.40142,1.77397 -4.4756,0.81123 -1.1554,-0.91911 -2.76311,1.2169 -4.51171,0.15217 -2.67412,-0.008 -3.59784,0.9019 -5.39493,-0.15441 -2.60319,-0.41088 -3.81928,-0.22198 -5.36565,-1.29133 -0.94881,-0.72467 -0.92598,-0.13435 -3.08313,0.7657 -2.08004,-0.98921 -5.435,0.19695 -6.79006,-0.84122 -0.76079,-0.35281 -1.86239,0.71797 -3.38252,-0.35138 -2.3663,0.81904 -5.97512,0.35787 -6.60985,0.71535 -2.22884,-0.93901 -1.18492,-0.21663 -3.52341,-0.87887 -0.97213,-0.6156 -3.76362,-1.13823 -5.14458,-0.0742 -2.83705,-0.3768 -2.70253,2.39004 -4.22721,1.3274 -3.39227,-1.04819 -5.48933,-2.05593 -6.20862,-1.31101 -0.58233,-0.0897 -1.71111,-0.0669 -4.19162,-0.44635 -0.57427,-0.0778 -3.30591,2.48866 -4.53088,0.89513 -1.37497,-1.63289 -3.69661,-1.00283 -5.21368,-2.86994 -0.51254,-0.28888 -2.63327,-3.84793 -3.53833,-3.8952 -0.37007,-0.48122 -1.46532,-1.83733 -2.91174,-2.35201 -1.23888,-0.40757 -0.89907,-3.56015 -2.00346,-5.94794 -1.04334,-2.42463 1.73572,-3.54749 0.79102,-4.88315 -0.91137,-1.24619 -1.77428,-1.03087 -0.50782,-3.21162 1.26254,-0.94416 2.38014,-5.93891 3.0208,-6.28799 0.024,-0.72413 1.08418,-1.32203 3.22736,-2.29997 0.2785,-0.4977 1.37755,-3.37189 1.88999,-3.66084 2.27011,-1.07413 1.70368,-1.26292 4.19058,-1.84082 2.40491,-0.35516 3.99226,-0.61464 4.54963,-0.94486 2.39416,-0.71671 5.44562,-2.12247 6.10106,-1.71196 0.91039,-0.44365 -1.83105,1.6106 -1.54193,0.58412"
       style="fill:#b3b3b3;fill-opacity:1;fill-rule:evenodd;stroke:none" />
    <path
       style="fill:#666666;fill-opacity:1;fill-rule:evenodd;stroke:none"
       d="m 141.41571,403.30802 c -0.437,0.82814 0.23095,-0.85666 4.05878,-0.26119 0.69775,0.68792 3.77872,-1.14686 4.6516,-1.15107 0.74295,-0.6253 5.06079,0.87025 5.97011,1.35404 1.67019,0.91412 2.08896,0.54237 3.63561,-0.37477 0.57278,-0.14966 3.26207,-1.49916 5.89274,-1.38362 0.85251,-0.64906 2.74157,2.74186 4.46625,1.81666 0.61218,-0.21106 4.22835,-0.53062 5.06292,-0.0177 2.37354,-0.51129 2.86706,0.24328 3.7957,-0.39262 1.95463,-0.85205 4.67173,-1.36526 6.57618,-0.47586 2.05639,-0.80602 2.3989,-0.75752 4.78968,-0.19009 2.49002,-0.3208 2.11849,0.0648 4.41421,-0.59986 0.61505,-0.035 2.85549,0.50153 5.05074,1.24525 2.21637,0.70577 2.58707,-0.0689 4.93107,-0.67773 0.99627,-0.73333 3.8352,1.00508 4.81211,0.30226 1.43253,-0.91499 1.42033,0.72214 2.87282,-0.19372 0.65159,-0.21206 4.21259,0.45126 4.85116,0.37565 1.03463,0.75548 2.54639,-1.09273 5.11567,-1.02883 2.32166,-0.61926 4.84076,0.19684 6.28409,1.11242 2.56672,0.0937 1.40237,0.88901 3.8993,0.54266 0.69218,0.31372 4.48332,-1.56837 5.14051,-1.80312 0.96736,-0.69692 3.52982,0.84424 4.84855,1.73409 0.64876,-0.12145 3.16185,-1.27815 5.34683,-0.54543 2.37207,-0.57617 2.4668,-0.84081 4.85659,-0.3209 0.86237,0.58379 0.58081,-0.9398 2.99216,-0.45592 2.54549,-0.27518 5.58942,0.48151 6.41294,-0.0981 2.58639,-0.10578 2.1041,2.38356 3.79607,1.46253 0.66275,0.0833 3.95595,0.12544 5.97846,-0.69548 0.669,0.0844 3.84032,-0.006 4.55368,0.43797 1.95106,0.8795 3.42858,0.64335 4.09091,0.28448 1.19366,-0.81691 2.46837,-2.60484 4.30958,-1.72136 0.93627,0.60809 3.62443,0.63597 4.51255,1.33171 2.65961,-0.0702 4.18427,0.003 6.55247,-0.41912 1.05599,-0.66091 2.50213,-0.0909 3.67533,0.79555 2.68877,0.45345 4.58926,-2.49552 5.32675,-1.77528 4.02483,0.22663 2.89962,0.63997 3.58348,1.2976 1.91117,0.85332 3.6989,-0.24861 5.57894,0.80921 0.61126,0.59196 3.50588,-1.29037 3.91754,-0.73635 0.50538,0.25045 4.19113,3.23333 5.12171,3.07057 1.8687,1.50689 1.47098,1.16157 2.11967,2.94473 0.67838,1.81625 3.92549,2.73813 4.00972,3.29332 1.18944,0.34802 -0.19332,2.58361 1.21379,4.0024 1.0007,2.10535 0.82833,1.86761 1.63279,3.84529 0.28901,2.34559 -0.15769,3.18617 -0.4966,3.61452 -0.29038,2.27852 -2.50947,3.0618 -3.65797,3.39503 -0.14463,0.49618 -0.98735,2.82609 -1.81928,2.93066 -0.24992,0.46033 -4.03788,1.4697 -4.68417,2.88214 -1.54381,-0.17669 -3.47093,1.49013 -4.20779,2.61809 -0.90148,-0.33966 -2.63696,0.0808 -3.28811,-0.11005 -0.52799,0.54263 -4.98666,1.40494 -5.54892,1.37143 0.22394,-0.90264 -0.9405,0.17142 -3.1373,0.54475 -1.74573,-0.84618 -2.72158,-1.09992 -5.40206,-1.56642 -2.08012,-0.7125 -4.30661,-0.56512 -5.53946,0.22756 -1.78744,-0.88741 -3.83121,1.72283 -5.10846,0.88464 -1.98017,-0.82148 -3.24465,1.22011 -4.10622,0.70606 -1.55017,0.92771 -3.1768,-0.68837 -4.11086,-0.066 -0.67731,0.39147 -3.30341,-2.45138 -4.64918,-1.56817 -2.02416,0.81686 -2.64903,1.6717 -5.25306,1.65786 -1.47651,-0.9233 -3.62704,-2.58276 -4.70402,-1.81985 -0.85428,0.61917 -5.03204,0.0302 -5.71087,0.23796 -0.71083,0.41054 -2.66582,1.07861 -5.08564,0.55525 -0.90311,0.66054 -0.80973,1.28489 -2.96668,0.5152 -0.86992,-0.62432 -5.18239,-1.77882 -6.49568,-0.89637 -0.67676,-0.31118 -4.27231,0.60684 -4.91863,0.71067 -2.42964,0.46826 -1.66852,0.55463 -4.24183,0.63075 -0.73125,0.42053 -3.02963,0.86192 -4.17453,0.0453 -2.55499,-0.14513 -3.56877,0.71639 -5.58057,-0.12441 -2.55753,0.14399 -1.24879,-1.41687 -3.80137,-1.58825 -1.58431,-0.92757 -3.14868,1.25615 -5.60722,1.68257 -0.67264,0.2558 -4.61617,-0.23667 -5.42237,-0.77582 -2.5601,-0.17176 -3.41714,1.3553 -4.5461,0.5407 -0.9315,-0.66275 -2.29365,0.44213 -3.21779,-0.23195 -1.0194,-0.73415 -4.42548,-1.01692 -6.6391,-0.30916 -1.0445,-0.74949 -2.32829,1.53485 -4.33931,0.70187 -1.12022,-0.79521 -2.67898,1.05287 -4.37433,0.13166 -2.59268,-0.007 -3.48827,0.78033 -5.23064,-0.13358 -2.52392,-0.35551 -3.70298,-0.19207 -5.20225,-1.11727 -0.91992,-0.62698 -0.89779,-0.11624 -2.98925,0.66248 -2.01669,-0.85586 -5.26949,0.1704 -6.58329,-0.72782 -0.73762,-0.30525 -1.80567,0.62119 -3.27952,-0.30402 -2.29424,0.70864 -5.79316,0.30963 -6.40856,0.61893 -2.16097,-0.81244 -1.14884,-0.18743 -3.41612,-0.7604 -0.94252,-0.53262 -3.64901,-0.9848 -4.98792,-0.0642 -2.75065,-0.32601 -2.62023,2.06786 -4.09848,1.14846 -3.28897,-0.90689 -5.32217,-1.77878 -6.01956,-1.13428 -0.5646,-0.0776 -1.659,-0.0579 -4.06397,-0.38618 -0.55679,-0.0673 -3.20524,2.15319 -4.39291,0.77447 -1.33311,-1.41278 -3.58405,-0.86765 -5.05492,-2.48308 -0.49693,-0.24994 -2.55308,-3.32922 -3.43058,-3.37012 -0.3588,-0.41635 -1.4207,-1.58966 -2.82307,-2.03496 -1.20115,-0.35263 -0.87169,-3.08024 -1.94246,-5.14615 -1.01156,-2.09779 1.68287,-3.06929 0.76694,-4.2249 -0.88362,-1.07821 -1.72025,-0.89191 -0.49236,-2.77869 1.22409,-0.81689 2.30766,-5.13835 2.92882,-5.44037 0.0233,-0.62652 1.05116,-1.14382 3.12908,-1.98994 0.27001,-0.43061 1.33559,-2.91735 1.83243,-3.16735 2.20098,-0.92934 1.6518,-1.09268 4.06297,-1.59268 2.33168,-0.30727 3.87069,-0.53179 4.41109,-0.81749 2.32125,-0.6201 5.27979,-1.83635 5.91527,-1.48119 0.88267,-0.38384 -1.77529,1.39349 -1.49498,0.50538"
       id="path4857"
       inkscape:connector-curvature="0" />
    <path
       style="fill:url(#linearGradient5018);fill-opacity:1;fill-rule:evenodd;stroke:none"
       d="m 142.45994,404.50507 166.50868,0 c 12.0471,0 21.74566,6.69 21.74566,15 0,8.31 -9.69856,15 -21.74566,15 l -166.50868,0 c -12.0471,0 -21.74566,-6.69 -21.74566,-15 0,-8.31 9.69856,-15 21.74566,-15 z"
       id="rect4859"
       inkscape:connector-curvature="0" />
    <path
       id="path5052"
       d="m 328.81921,371.65501 c -20.75178,-0.20671 -39.59375,23.84094 -39.59375,44.59375 l 0,6.5 c 0,20.75281 17.40829,32.91708 38.15625,32.46875 l 60.125,-1.3125 c 7.30783,0.17669 15.28194,0.28854 23.53125,0.34375 0.0206,1.4e-4 0.0419,-1.4e-4 0.0625,0 1.16279,0.0258 2.25415,0.0537 3.34375,0.0312 31.17992,0.1574 66.03673,-0.34375 88.125,-0.34375 1.99594,-10.41262 2.73263,-28.44446 0.34375,-38 -33.39839,-14.65598 -55.36542,-36.45847 -91.25,-41.5 -6.70338,-2.28772 -14.3554,-2.10805 -25.46875,-2.21875 l -57.375,-0.5625 z m 99.84375,16.375 c 24.97585,7.29554 42.45025,20.55017 61.03125,32.9375 1.02051,4.69372 -0.34375,19.03683 -0.34375,23.8125 -20.02724,4.1956 -38.23469,2.72701 -57.1875,-1.125 0.52559,-1.36971 0.96791,-2.89275 1.34375,-4.625 4.69568,-21.64228 -1.61232,-46.47593 -4.84375,-51 z"
       style="fill:#000000;stroke:none"
       inkscape:connector-curvature="0" />
    <path
       style="fill:#d45500;stroke:none"
       d="M 215.375 23.9375 C 194.62322 23.730789 175.78125 47.778442 175.78125 68.53125 L 175.78125 75.03125 C 175.78125 95.784058 193.18954 107.94833 213.9375 107.5 L 274.0625 106.1875 C 281.37033 106.36419 289.34444 106.47604 297.59375 106.53125 C 297.6144 106.53139 297.6356 106.53111 297.65625 106.53125 C 298.81904 106.55707 299.9104 106.585 301 106.5625 C 332.17992 106.7199 367.03673 106.21875 389.125 106.21875 C 391.12094 95.806132 391.85763 77.774294 389.46875 68.21875 C 356.07036 53.562774 334.10333 31.760281 298.21875 26.71875 C 291.51537 24.431027 283.86335 24.610701 272.75 24.5 L 215.375 23.9375 z M 315.21875 40.3125 C 340.1946 47.608037 357.669 60.86267 376.25 73.25 C 377.27051 77.943719 375.90625 92.286827 375.90625 97.0625 C 355.87901 101.2581 337.67156 99.789512 318.71875 95.9375 C 319.24434 94.567795 319.68666 93.044752 320.0625 91.3125 C 324.75818 69.670217 318.45018 44.836574 315.21875 40.3125 z "
       transform="translate(114.94421,347.71751)"
       id="path4851" />
    <path
       style="fill:#ff9955;stroke:none;filter:url(#filter5048)"
       d="m 328.50671,373.71751 c -19.48022,2.07297 -33.74706,21.33137 -35.65625,39.78125 -1.47637,12.00484 1.00355,25.85882 11.71875,32.84375 15.20963,10.94008 34.92372,5.54769 52.30582,6.2636 40.83579,-1.234 81.68929,0.27125 122.53752,-0.56506 7.56005,-0.32851 16.00518,0.45271 23.03166,-0.47979 1.56065,-11.22382 2.28073,-22.97792 0.25,-34.1875 -30.22159,-13.31158 -56.44247,-36.79264 -90.1875,-41.0625 -15.12106,-3.82317 -31.29619,-1.3306 -46.84269,-2.30954 -12.3845,-0.0601 -24.77672,-0.36088 -37.15731,-0.28421 z m 102.21875,12.40625 c 23.0217,6.40391 42.72304,20.34188 62.28125,33.65625 1.49074,8.79971 -0.31895,17.76543 -0.15625,26.625 -20.34094,4.71537 -41.58648,3.17517 -61.84375,-1.21875 6.01075,-17.25426 4.28694,-36.73937 -1.375,-53.875 -1.37412,-4.30696 -8.50469,-8.99261 1.09375,-5.1875 z"
       id="path5036"
       inkscape:connector-curvature="0" />
    <path
       transform="matrix(0.76451592,0,0,0.76451592,78.398723,93.348573)"
       style="fill:#ffb380;fill-opacity:1;fill-rule:evenodd;stroke:none;filter:url(#filter4718)"
       d="m 322.4092,388.64792 27.03873,0 c 10.11956,0 18.26635,11.2392 18.26635,25.2 l 0,13.17143 c 0,13.9608 -8.14679,25.2 -18.26635,25.2 l -27.03873,0 c -10.11955,0 -18.26635,-11.2392 -18.26635,-25.2 l 0,-13.17143 c 0,-13.9608 8.1468,-25.2 18.26635,-25.2 z"
       id="rect4863"
       inkscape:connector-curvature="0" />
    <path
       sodipodi:nodetypes="casscsacc"
       inkscape:connector-curvature="0"
       id="path4865"
       d="m 326.21541,371.48209 c 0.56794,-8.46072 -1.26775,-7.37557 -4.2326,-8.31003 -2.35214,-0.74135 -4.892,1.22218 -6.53132,3.47586 -18.89603,25.97758 7.38881,80.59032 13.42067,86.47165 4.48424,4.37234 -12.7381,9.25073 -13.58578,3.53553 -11.65759,-19.68231 -30.64298,-71.19933 -11.26346,-99.29289 4.85264,-7.03464 16.60113,-11.40331 24.39286,-7.89286 7.19239,3.24043 8.21273,8.28292 9.46075,21.69266 -4.98803,0.0606 -8.77587,-0.0323 -11.66112,0.32008 z"
       style="fill:#000000;stroke:#000000;stroke-width:1px;stroke-linecap:butt;stroke-linejoin:miter;stroke-opacity:1" />
    <path
       inkscape:connector-curvature="0"
       id="path4867"
       d="m 323.98485,384.55803 c -4.12479,0 -7.9208,1.86975 -10.96875,5.03125 1.22867,1.16785 2.58022,2.53651 3.96875,3.96875 2.51056,-2.51986 5.61234,-4 8.96875,-4 l 8.25,0 c -0.0375,-1.7078 -0.0819,-3.39808 -0.0937,-5 l -10.125,0 z m 13.375,0 c -0.0118,1.60192 -0.0562,3.2922 -0.0937,5 l 8.21875,0 c 3.36093,0 6.45043,1.50522 8.96875,4.03125 1.393,-1.43726 2.73571,-2.82726 3.96875,-4 -3.05409,-3.1615 -6.84395,-5.03125 -10.96875,-5.03125 l -10.09375,0 z m -26.375,7.53125 c -3.23582,4.5477 -5.25,10.78128 -5.25,17.6875 l 0,3.15625 c 1.60193,0.0118 3.2922,0.0562 5,0.0937 l 0,-2.46875 c 0,-5.65109 1.60556,-10.76388 4.21875,-14.53125 -1.41633,-1.37037 -2.7957,-2.71431 -3.96875,-3.9375 z m 49.5,0 c -1.17304,1.22319 -2.55242,2.56713 -3.96875,3.9375 2.61636,3.76635 4.21875,8.88554 4.21875,14.53125 l 0,2.46875 c 1.7078,-0.0375 3.39808,-0.0819 5,-0.0937 l 0,-3.15625 c 0,-6.90622 -2.00644,-13.1398 -5.25,-17.6875 z m -32.59375,2.46875 c -2.61281,0 -5.02475,1.1423 -7,3.0625 1.33713,1.39658 2.67747,2.76508 3.9375,4.03125 1.43993,-1.30967 3.16854,-2.09375 5.03125,-2.09375 l 4.46875,0 c 0.0191,-1.55003 -0.002,-3.25925 -0.0312,-5 l -6.40625,0 z m 9.28125,0 c -0.0295,1.74075 -0.0503,3.44997 -0.0312,5 l 4.4375,0 c 1.86944,0 3.61409,0.77538 5.0625,2.09375 1.25528,-1.26138 2.57426,-2.6401 3.90625,-4.03125 -1.98099,-1.9202 -4.38718,-3.0625 -7,-3.0625 l -6.375,0 z m -18.1875,5.34375 c -2.01708,2.99987 -3.25,7.03246 -3.25,11.46875 l 0,1.75 c 1.74076,0.0295 3.44997,0.0503 5,0.0312 l 0,-1 c 0,-3.20405 0.83398,-6.12639 2.25,-8.34375 -1.25113,-1.24881 -2.61177,-2.57635 -4,-3.90625 z m 33.5,0.0312 c -1.39438,1.33587 -2.7763,2.65287 -4.03125,3.90625 1.41469,2.21461 2.28125,5.11911 2.28125,8.3125 l 0,1 c 1.55003,0.0191 3.25924,-0.002 5,-0.0312 l 0,-1.75 c 0,-4.42306 -1.23621,-8.44047 -3.25,-11.4375 z m -34.90625,16.03125 c -0.5909,0.006 -1.23585,0.021 -1.84375,0.0312 l 0,1.78125 c 0,4.43628 1.23292,8.44505 3.25,11.4375 1.38823,-1.32991 2.74887,-2.65745 4,-3.90625 -1.41602,-2.21737 -2.25,-5.13971 -2.25,-8.34375 l 0,-1 c -1.00874,-0.0124 -2.05503,-0.0111 -3.15625,0 z m 33.15625,0 0,1 c 0,3.19338 -0.86656,6.09788 -2.28125,8.3125 1.25495,1.25337 2.63687,2.57037 4.03125,3.90625 2.01379,-2.98963 3.25,-6.9832 3.25,-11.40625 l 0,-1.78125 c -1.74076,-0.0295 -3.44997,-0.0503 -5,-0.0312 z m -40,0.125 c -1.7078,0.0375 -3.39807,0.0819 -5,0.0937 l 0,3.1875 c 0,6.90708 2.01346,13.14737 5.25,17.6875 1.17693,-1.22797 2.54575,-2.59193 3.96875,-3.96875 -2.61319,-3.76738 -4.21875,-8.88017 -4.21875,-14.53125 l 0,-2.46875 z m 50,0 0,2.46875 c 0,5.6457 -1.60239,10.76489 -4.21875,14.53125 1.42301,1.37682 2.79182,2.74078 3.96875,3.96875 3.24428,-4.54013 5.25,-10.78042 5.25,-17.6875 l 0,-3.1875 c -1.60192,-0.0118 -3.2922,-0.0562 -5,-0.0937 z m -35.90625,11.375 c -1.26496,1.27112 -2.59504,2.66029 -3.9375,4.0625 1.97525,1.91444 4.38719,3.03125 7,3.03125 l 6.40625,0 c 0.0295,-1.74076 0.0503,-3.44998 0.0312,-5 l -4.46875,0 c -1.86271,0 -3.59132,-0.78409 -5.03125,-2.09375 z m 21.8125,0 c -1.44841,1.31836 -3.19306,2.09375 -5.0625,2.09375 l -4.4375,0 c -0.0191,1.55002 0.002,3.25924 0.0312,5 l 6.375,0 c 2.62664,0 5.04443,-1.1295 7.03125,-3.0625 -1.33712,-1.39659 -2.67746,-2.76509 -3.9375,-4.03125 z m 7.8125,8.0625 c -2.51832,2.52602 -5.60782,4.03125 -8.96875,4.03125 l -8.21875,0 c 0.0375,1.7078 0.082,3.39807 0.0937,5 l 10.09375,0 c 4.1248,0 7.91466,-1.87591 10.96875,-5.03125 -1.23304,-1.17275 -2.57575,-2.56275 -3.96875,-4 z m -37.46875,0.0312 c -1.38853,1.43223 -2.74008,2.80089 -3.96875,3.96875 3.04795,3.15534 6.84396,5.03125 10.96875,5.03125 l 10.125,0 c 0.0118,-1.60193 0.0562,-3.2922 0.0937,-5 l -8.25,0 c -3.35641,0 -6.45819,-1.48015 -8.96875,-4 z"
       style="fill:#000000;fill-opacity:1;fill-rule:evenodd;stroke:none" />
    <path
       inkscape:transform-center-y="-4.9497475"
       inkscape:transform-center-x="-2.1213203"
       inkscape:connector-curvature="0"
       id="path4869"
       d="m 403.61234,369.99216 c -1.06236,-0.49107 -2.58109,0.52388 -3.39535,2.2854 l -2.05382,4.44314 c -0.81425,1.76151 -0.60341,3.57597 0.45895,4.06704 l 6.4595,2.98588 -1.62491,3.51525 c -0.2392,0.51746 0.98579,1.58183 2.74731,2.39608 l 4.44314,2.05383 c 1.76151,0.81425 3.36593,1.05777 3.60512,0.54031 l 1.62492,-3.51525 6.26322,2.89515 c 1.06236,0.49108 2.56325,-0.53214 3.3775,-2.29365 l 2.05383,-4.44314 c 0.81425,-1.76152 0.62125,-3.56771 -0.44111,-4.05879 l -23.5183,-10.87125 z"
       style="fill:#000000;fill-opacity:1;fill-rule:evenodd;stroke:none" />
    <path
       style="fill:#000000;fill-opacity:1;fill-rule:evenodd;stroke:none"
       d="m 371.1073,434.57956 21.2132,0 0,3.18198 -21.2132,0 z"
       id="rect4871"
       inkscape:connector-curvature="0" />
    <path
       style="fill:#000000;fill-opacity:1;fill-rule:evenodd;stroke:none"
       d="m 395.1073,434.57956 21.2132,0 0,3.18198 -21.2132,0 z"
       id="rect4873"
       inkscape:connector-curvature="0" />
    <path
       style="fill:#000000;fill-opacity:1;fill-rule:evenodd;stroke:none"
       d="m 374.64285,416.54831 21.21321,0 0,3.18198 -21.21321,0 z"
       id="rect4875"
       inkscape:connector-curvature="0" />
    <path
       style="fill:#000000;fill-opacity:1;fill-rule:evenodd;stroke:none"
       d="m 398.64285,416.54831 21.21321,0 0,3.18198 -21.21321,0 z"
       id="rect4877"
       inkscape:connector-curvature="0" />
    <path
       style="fill:#000000;fill-opacity:1;fill-rule:evenodd;stroke:none"
       d="m 373.22864,426.44781 21.2132,0 0,3.18199 -21.2132,0 z"
       id="rect4879"
       inkscape:connector-curvature="0" />
    <path
       style="fill:#000000;fill-opacity:1;fill-rule:evenodd;stroke:none"
       d="m 397.22864,426.44781 21.2132,0 0,3.18199 -21.2132,0 z"
       id="rect4881"
       inkscape:connector-curvature="0" />
    <path
       style="fill:#000000;fill-opacity:1;fill-rule:evenodd;stroke:none"
       d="m 372.52155,405.94171 21.2132,0 0,3.18198 -21.2132,0 z"
       id="rect4883"
       inkscape:connector-curvature="0" />
    <path
       style="fill:#000000;fill-opacity:1;fill-rule:evenodd;stroke:none"
       d="m 396.52155,405.94171 21.2132,0 0,3.18198 -21.2132,0 z"
       id="rect4885"
       inkscape:connector-curvature="0" />
    <path
       sodipodi:nodetypes="ccccccc"
       transform="translate(304.28571,370.93363)"
       inkscape:connector-curvature="0"
       id="path4887"
       d="m 57.75,13.071434 10.5,16.25 48.25,-0.25 -0.5,-10 -11,-0.25 -6,-5.75 z"
       style="fill:#ffb380;stroke:#000000;stroke-width:1px;stroke-linecap:butt;stroke-linejoin:miter;stroke-opacity:1" />
  </g>
</svg>
