<?xml version="1.0" encoding="UTF-8" standalone="no"?>
<!-- Created with Inkscape (http://www.inkscape.org/) -->

<svg
   xmlns:dc="http://purl.org/dc/elements/1.1/"
   xmlns:cc="http://creativecommons.org/ns#"
   xmlns:rdf="http://www.w3.org/1999/02/22-rdf-syntax-ns#"
   xmlns:svg="http://www.w3.org/2000/svg"
   xmlns="http://www.w3.org/2000/svg"
   xmlns:xlink="http://www.w3.org/1999/xlink"
   xmlns:sodipodi="http://sodipodi.sourceforge.net/DTD/sodipodi-0.dtd"
   xmlns:inkscape="http://www.inkscape.org/namespaces/inkscape"
   width="104.54577"
   height="49.563046"
   id="svg2"
   version="1.1"
   inkscape:version="0.48.4 r9939"
   sodipodi:docname="clownhat.svg">
  <defs
     id="defs4">
    <linearGradient
       inkscape:collect="always"
       id="linearGradient3869">
      <stop
         style="stop-color:#ffcc00;stop-opacity:1"
         offset="0"
         id="stop3871" />
      <stop
         style="stop-color:#ffff00;stop-opacity:1"
         offset="1"
         id="stop3873" />
    </linearGradient>
    <linearGradient
       inkscape:collect="always"
       id="linearGradient3861">
      <stop
         style="stop-color:#d40000;stop-opacity:1"
         offset="0"
         id="stop3863" />
      <stop
         style="stop-color:#ff2a2a;stop-opacity:1"
         offset="1"
         id="stop3865" />
    </linearGradient>
    <filter
       inkscape:collect="always"
       id="filter3793"
       x="-0.059676522"
       width="1.119353"
       y="-0.29253196"
       height="1.5850639">
      <feGaussianBlur
         inkscape:collect="always"
         stdDeviation="1.1736025"
         id="feGaussianBlur3795" />
    </filter>
    <filter
       inkscape:collect="always"
       id="filter3821"
       x="-0.053147791"
       width="1.1062956"
       y="-0.13089744"
       height="1.2617949">
      <feGaussianBlur
         inkscape:collect="always"
         stdDeviation="1.1311171"
         id="feGaussianBlur3823" />
    </filter>
    <filter
       inkscape:collect="always"
       id="filter3857"
       x="-0.18760568"
       width="1.3752114"
       y="-0.20694197"
       height="1.4138839">
      <feGaussianBlur
         inkscape:collect="always"
         stdDeviation="0.61245133"
         id="feGaussianBlur3859" />
    </filter>
    <linearGradient
       inkscape:collect="always"
       xlink:href="#linearGradient3861"
       id="linearGradient3867"
       x1="356.5903"
       y1="132.80861"
       x2="358.28943"
       y2="120.91456"
       gradientUnits="userSpaceOnUse" />
    <linearGradient
       inkscape:collect="always"
       xlink:href="#linearGradient3869"
       id="linearGradient3875"
       x1="363.76447"
       y1="147.34576"
       x2="365.46362"
       y2="133.18619"
       gradientUnits="userSpaceOnUse" />
    <clipPath
       clipPathUnits="userSpaceOnUse"
       id="clipPath3879">
      <path
         inkscape:export-ydpi="430.43347"
         inkscape:export-xdpi="430.43347"
         inkscape:export-filename="C:\Users\Cornix\Documents\Gamejams\FGJ14\path3775-8.png"
         sodipodi:nodetypes="cczsssssscc"
         inkscape:connector-curvature="0"
         id="path3881"
         d="m 89.64743,37.92934 c 0,0 0.069,-5.08 0.0478,-7.56271 9.61406,-4.32683 13.87104,-1.27433 13.92966,-0.70777 0.0586,0.56656 4.18417,7.65044 -14.86551,15.44337 -7.67336,3.13906 -35.27423,-1.96014 -43.7736,0.0392 -2.9115,0.68491 -2.64394,2.55175 -4.0669,3.54177 -1.47554,1.02659 -4.87119,-0.15933 -6.01366,-1.86096 -7.74345,-11.53348 13.88244,-9.07696 18.86461,-8.56413 6.26009,0.64437 25.56326,3.06386 32.65691,1.23477 4.36833,-1.12636 8.68391,-2.50861 8.68908,-5.95001 -0.94318,3.10874 -5.46838,4.38642 -5.46838,4.38642 z"
         style="fill:#ff0000;stroke:#000000;stroke-width:1px;stroke-linecap:butt;stroke-linejoin:miter;stroke-opacity:1" />
    </clipPath>
  </defs>
  <sodipodi:namedview
     id="base"
     pagecolor="#ffffff"
     bordercolor="#666666"
     borderopacity="1.0"
     inkscape:pageopacity="0.0"
     inkscape:pageshadow="2"
     inkscape:zoom="5.2967716"
     inkscape:cx="39.035825"
     inkscape:cy="23.369894"
     inkscape:document-units="px"
     inkscape:current-layer="layer1"
     showgrid="false"
     inkscape:window-width="1366"
     inkscape:window-height="705"
     inkscape:window-x="-8"
     inkscape:window-y="-8"
     inkscape:window-maximized="1"
     fit-margin-top="0"
     fit-margin-left="0"
     fit-margin-right="0"
     fit-margin-bottom="0" />
  <metadata
     id="metadata7">
    <rdf:RDF>
      <cc:Work
         rdf:about="">
        <dc:format>image/svg+xml</dc:format>
        <dc:type
           rdf:resource="http://purl.org/dc/dcmitype/StillImage" />
        <dc:title />
      </cc:Work>
    </rdf:RDF>
  </metadata>
  <g
     inkscape:label="Layer 1"
     inkscape:groupmode="layer"
     id="layer1"
     style="display:inline"
     transform="translate(-301.27357,-108.54399)">
    <path
       style="fill:none;stroke:#000000;stroke-width:1px;stroke-linecap:butt;stroke-linejoin:miter;stroke-opacity:1"
       d="m 342.03079,135.83522 c 0,0 0.40743,0.86659 -1.82243,-2.84744 -1.11493,-1.85701 -11.998,-6.78998 -22.55541,-4.2489 -1.29397,0.31145 -1.40463,0.46973 -1.40463,0.46973"
       id="path3890"
       inkscape:connector-curvature="0"
       sodipodi:nodetypes="ccsc"
       inkscape:export-filename="C:\Users\Cornix\Documents\Gamejams\FGJ14\path3775-8.png"
       inkscape:export-xdpi="430.43347"
       inkscape:export-ydpi="430.43347" />
    <path
       style="fill:#d99c5a;fill-opacity:1;stroke:#000000;stroke-width:0.73667634;stroke-opacity:1;display:inline"
       inkscape:transform-center-x="-4.4228149"
       inkscape:transform-center-y="-1.6727046"
       d="m 309.74883,122.28569 c 0.86291,2.44024 1.79684,6.18692 4.60651,4.89464 2.77431,-1.27603 1.53415,-1.38595 1.48148,-3.94221 -0.038,-1.84553 -2.92533,-4.63162 -4.60646,-4.89464 -1.68116,-0.26301 -2.34444,1.50198 -1.48153,3.94221 z"
       id="path3775-45"
       inkscape:connector-curvature="0"
       sodipodi:nodetypes="sssss"
       inkscape:export-filename="C:\Users\Cornix\Documents\Gamejams\FGJ14\path3775-8.png"
       inkscape:export-xdpi="430.43347"
       inkscape:export-ydpi="430.43347" />
    <path
       sodipodi:type="arc"
       style="fill:#e8e886;fill-opacity:1;stroke:#000000;stroke-opacity:1"
       id="path3873"
       sodipodi:cx="388.73904"
       sodipodi:cy="111.72643"
       sodipodi:rx="2.6396301"
       sodipodi:ry="2.9249954"
       d="m 391.37867,111.72643 c 0,1.61543 -1.1818,2.925 -2.63963,2.925 -1.45782,0 -2.63963,-1.30957 -2.63963,-2.925 0,-1.61543 1.18181,-2.92499 2.63963,-2.92499 1.45783,0 2.63963,1.30956 2.63963,2.92499 z"
       transform="matrix(-0.95057727,0.31048809,0.31048809,0.95057727,650.91327,-97.797554)"
       inkscape:export-filename="C:\Users\Cornix\Documents\Gamejams\FGJ14\path3775-8.png"
       inkscape:export-xdpi="430.43347"
       inkscape:export-ydpi="430.43347" />
    <path
       style="fill:url(#linearGradient3867);fill-opacity:1;stroke:#000000;stroke-width:1px;stroke-linecap:butt;stroke-linejoin:miter;stroke-opacity:1"
       d="m 389.69562,128.5426 c 0.18247,-1.63089 -0.53216,-6.0525 -2.30817,-8.31537 -4.70198,-5.99096 -12.2935,-10.83138 -19.93216,-11.1674 -7.63867,-0.33602 -18.00774,4.21427 -22.45147,8.33458 -4.44373,4.12031 -4.99642,8.01253 -5.18472,11.2767 -0.1883,3.26417 1.46281,4.78508 2.2374,6.84994 26.29231,-9.42215 47.63912,-6.97845 47.63912,-6.97845 z"
       id="path3773"
       inkscape:connector-curvature="0"
       sodipodi:nodetypes="cazzzcc"
       inkscape:export-filename="C:\Users\Cornix\Documents\Gamejams\FGJ14\path3775-8.png"
       inkscape:export-xdpi="430.43347"
       inkscape:export-ydpi="430.43347" />
    <path
       style="fill:url(#linearGradient3875);fill-opacity:1;stroke:#000000;stroke-width:1px;stroke-linecap:butt;stroke-linejoin:miter;stroke-opacity:1"
       d="m 389.57526,128.55887 c 1.66325,9.84038 1.74714,10.88626 1.43407,20.27337 -2.95301,0.99516 -38.46216,1.50216 -44.43557,0.56719 -2.45997,-6.27986 -4.08825,-12.70933 -4.54065,-14.02964 20.70573,-11.13857 40.43158,-8.24739 47.54215,-6.81092 z"
       id="path3771"
       inkscape:connector-curvature="0"
       sodipodi:nodetypes="ccccc"
       inkscape:export-filename="C:\Users\Cornix\Documents\Gamejams\FGJ14\path3775-8.png"
       inkscape:export-xdpi="430.43347"
       inkscape:export-ydpi="430.43347" />
    <path
       style="opacity:0.3;fill:#000000;fill-opacity:1;stroke:#000000;stroke-width:1px;stroke-linecap:butt;stroke-linejoin:miter;stroke-opacity:1;filter:url(#filter3821)"
       d="m 89.596338,29.621576 c -0.824361,0.04495 -0.513302,3.728172 -1.367235,3.837091 -4.86482,2.684499 -28.092715,6.618735 -39.933428,0.534674 -4.836379,-2.485055 -7.722164,-12.514812 -9.319618,-13.388026 3.406272,11.873864 5.205979,17.361398 6.336443,20.238435 5.548606,0.868479 36.528733,0.511664 43.28125,-0.34375 0.07407,-0.0094 0.144987,-0.02137 0.21875,-0.03125 0.02716,-0.0037 0.03626,0.0037 0.0625,0 0.383087,-0.05468 0.702268,-0.12929 0.875,-0.1875 0.240493,-7.210951 0.61031,-5.525386 -0.153662,-10.659674 z"
       transform="translate(301.27357,108.54399)"
       id="path2996"
       inkscape:connector-curvature="0"
       sodipodi:nodetypes="ccaccccscc" />
    <path
       style="fill:#ff0000;stroke:#000000;stroke-width:1px;stroke-linecap:butt;stroke-linejoin:miter;stroke-opacity:1"
       d="m 390.921,146.47333 c 0,0 0.069,-5.08 0.0478,-7.56271 9.61406,-4.32683 13.87104,-1.27433 13.92966,-0.70777 0.0586,0.56656 4.18417,7.65044 -14.86551,15.44337 -7.67336,3.13906 -35.27423,-1.96014 -43.7736,0.0392 -2.9115,0.68491 -2.64394,2.55175 -4.0669,3.54177 -1.47554,1.02659 -4.87119,-0.15933 -6.01366,-1.86096 -7.74345,-11.53348 13.88244,-9.07696 18.86461,-8.56413 6.26009,0.64437 25.56326,3.06386 32.65691,1.23477 4.36833,-1.12636 8.68391,-2.50861 8.68908,-5.95001 -0.94318,3.10874 -5.46838,4.38642 -5.46838,4.38642 z"
       id="path3001"
       inkscape:connector-curvature="0"
       sodipodi:nodetypes="cczsssssscc"
       inkscape:export-filename="C:\Users\Cornix\Documents\Gamejams\FGJ14\path3775-8.png"
       inkscape:export-xdpi="430.43347"
       inkscape:export-ydpi="430.43347" />
    <path
       style="fill:#d99c5a;fill-opacity:1;stroke:#000000;stroke-width:0.71890223;stroke-opacity:1"
       inkscape:transform-center-x="-3.6587749"
       inkscape:transform-center-y="0.3073835"
       d="m 318.14497,119.44433 c -1.26486,2.96922 -2.48198,5.65768 -0.91308,7.42668 0.90515,1.0206 1.8616,-0.65087 3.66737,-3.32578 1.30371,-1.9312 1.67366,-6.29426 0.91308,-7.4267 -0.76057,-1.13243 -2.40252,0.35658 -3.66737,3.3258 z"
       id="path3775"
       inkscape:connector-curvature="0"
       sodipodi:nodetypes="sssss"
       inkscape:export-xdpi="430.43347"
       inkscape:export-ydpi="430.43347" />
    <path
       style="fill:#d99c5a;fill-opacity:1;stroke:#000000;stroke-width:0.71890223;stroke-opacity:1"
       inkscape:transform-center-x="-2.0733471"
       inkscape:transform-center-y="3.2952627"
       d="m 324.60365,124.35693 c -3.13363,0.77227 -5.45344,2.85233 -5.90196,4.14063 -0.44851,1.2883 1.14411,1.29699 4.27775,0.52471 3.13364,-0.77229 6.03753,-2.44272 6.48605,-3.73102 0.44851,-1.2883 -1.7282,-1.70661 -4.86184,-0.93432 z"
       id="path3775-7"
       inkscape:connector-curvature="0"
       sodipodi:nodetypes="sssss"
       inkscape:export-filename="C:\Users\Cornix\Documents\Gamejams\FGJ14\path3775-8.png"
       inkscape:export-xdpi="430.43347"
       inkscape:export-ydpi="430.43347" />
    <path
       style="fill:#d99c5a;fill-opacity:1;stroke:#000000;stroke-width:0.71890223;stroke-opacity:1"
       inkscape:transform-center-x="-3.7782678"
       inkscape:transform-center-y="0.35418626"
       d="m 312.03581,134.75506 c -1.26486,2.96922 -1.67366,6.29426 -0.91308,7.42668 0.76058,1.13244 2.40251,-0.35657 3.66737,-3.32578 1.26486,-2.96922 1.48827,-5.4832 0.72769,-6.61564 -0.76058,-1.13243 -2.21713,-0.45448 -3.48198,2.51474 z"
       id="path3775-4"
       inkscape:connector-curvature="0"
       sodipodi:nodetypes="sssss"
       inkscape:export-filename="C:\Users\Cornix\Documents\Gamejams\FGJ14\path3775-8.png"
       inkscape:export-xdpi="430.43347"
       inkscape:export-ydpi="430.43347" />
    <path
       sodipodi:type="arc"
       style="fill:#d99c5a;fill-opacity:1;stroke:#000000;stroke-opacity:1"
       id="path3775-0"
       sodipodi:cx="377.68112"
       sodipodi:cy="99.384384"
       sodipodi:rx="3.5670676"
       sodipodi:ry="6.5634046"
       d="m 381.24819,99.384384 c 0,3.624866 -1.59703,6.563406 -3.56707,6.563406 -1.97004,0 -3.56707,-2.93854 -3.56707,-6.563406 0,-3.624868 1.59703,-6.563404 3.56707,-6.563404 1.97004,0 3.56707,2.938536 3.56707,6.563404 z"
       transform="matrix(-0.60204538,0.34208117,0.79078784,0.40911671,472.88281,-37.075023)"
       inkscape:transform-center-x="-0.60089803"
       inkscape:transform-center-y="-3.6927727"
       inkscape:export-filename="C:\Users\Cornix\Documents\Gamejams\FGJ14\path3775-8.png"
       inkscape:export-xdpi="430.43347"
       inkscape:export-ydpi="430.43347" />
    <path
       style="fill:#d99c5a;fill-opacity:1;stroke:#000000;stroke-width:0.71890223;stroke-opacity:1"
       inkscape:transform-center-x="-3.1281469"
       inkscape:transform-center-y="-1.995662"
       d="m 316.41385,135.99173 c 0.73323,3.143 2.36738,6.06747 3.65001,6.53199 1.28262,0.46451 1.72799,-1.70685 0.99476,-4.84984 -0.73323,-3.14301 -1.60336,-5.56653 -2.88597,-6.03104 -1.28263,-0.46451 -2.49203,1.20588 -1.7588,4.34889 z"
       id="path3775-9"
       inkscape:connector-curvature="0"
       sodipodi:nodetypes="sssss"
       inkscape:export-filename="C:\Users\Cornix\Documents\Gamejams\FGJ14\path3775-8.png"
       inkscape:export-xdpi="430.43347"
       inkscape:export-ydpi="430.43347" />
    <path
       sodipodi:type="arc"
       style="fill:#d99c5a;fill-opacity:1;stroke:#000000;stroke-opacity:1"
       id="path3775-48"
       sodipodi:cx="377.68112"
       sodipodi:cy="99.384384"
       sodipodi:rx="3.5670676"
       sodipodi:ry="6.5634046"
       d="m 381.24819,99.384384 c 0,3.624866 -1.59703,6.563406 -3.56707,6.563406 -1.97004,0 -3.56707,-2.93854 -3.56707,-6.563406 0,-3.624868 1.59703,-6.563404 3.56707,-6.563404 1.97004,0 3.56707,2.938536 3.56707,6.563404 z"
       transform="matrix(0.48618987,-0.49304926,-0.87229276,-0.1784018,210.81245,332.75979)"
       inkscape:transform-center-x="-0.42701175"
       inkscape:transform-center-y="3.7169007"
       inkscape:export-filename="C:\Users\Cornix\Documents\Gamejams\FGJ14\path3775-8.png"
       inkscape:export-xdpi="430.43347"
       inkscape:export-ydpi="430.43347" />
    <path
       style="fill:#d99c5a;fill-opacity:1;stroke:#000000;stroke-width:0.71890229;stroke-opacity:1"
       inkscape:transform-center-x="-2.4500017"
       inkscape:transform-center-y="2.9038805"
       d="m 309.37135,131.08661 c -3.15811,0.66522 -6.30847,3.65719 -5.68185,4.86889 0.70051,1.35458 2.71181,2.34118 4.95079,0.0167 2.85569,-2.96473 6.47853,-3.76156 5.68184,-4.86889 -0.74753,-1.03901 -3.05813,-0.41536 -4.95078,-0.0167 z"
       id="path3775-8"
       inkscape:connector-curvature="0"
       sodipodi:nodetypes="sssss"
       inkscape:export-xdpi="430.43347"
       inkscape:export-ydpi="430.43347" />
    <path
       style="opacity:0.29999999999999999;fill:#000000;stroke:none;filter:url(#filter3857)"
       d="m 89.488473,32.854755 c 2.468071,-0.452941 6.716862,-2.268999 7.834961,-0.471986 -1.152879,3.037089 -4.033778,4.778162 -7.174181,6.324607 z"
       id="path3785"
       inkscape:connector-curvature="0"
       transform="translate(301.27357,108.54399)"
       sodipodi:nodetypes="cccc" />
    <path
       style="opacity:0.3;fill:#000000;stroke:none;filter:url(#filter3793)"
       d="m 35.304524,39.368156 c -3.116,0.95515 0.402349,7.198558 4.491246,4.793293 6.470477,-3.806213 50.269823,-0.678945 55.450927,-2.716556 -3.714748,6.418222 -24.912159,5.215796 -47.953738,3.209502 l -4.719857,3.492694 -2.265531,2.926311 -3.775885,-0.471986 -3.209502,-3.587091 -0.566383,-3.964679 z"
       id="path3791"
       inkscape:connector-curvature="0"
       transform="translate(301.27357,108.54399)"
       sodipodi:nodetypes="cscccccccc"
       clip-path="url(#clipPath3879)" />
  </g>
  <g
     inkscape:groupmode="layer"
     id="layer2"
     inkscape:label="Layer"
     style="display:inline"
     transform="translate(-301.27357,-108.54399)" />
</svg>
