<?xml version="1.0" encoding="UTF-8" standalone="no"?>
<!-- Created with Inkscape (http://www.inkscape.org/) -->

<svg
   xmlns:dc="http://purl.org/dc/elements/1.1/"
   xmlns:cc="http://creativecommons.org/ns#"
   xmlns:rdf="http://www.w3.org/1999/02/22-rdf-syntax-ns#"
   xmlns:svg="http://www.w3.org/2000/svg"
   xmlns="http://www.w3.org/2000/svg"
   xmlns:xlink="http://www.w3.org/1999/xlink"
   xmlns:sodipodi="http://sodipodi.sourceforge.net/DTD/sodipodi-0.dtd"
   xmlns:inkscape="http://www.inkscape.org/namespaces/inkscape"
   width="523.68427"
   height="446.20941"
   id="svg2"
   version="1.1"
   inkscape:version="0.48.4 r9939"
   sodipodi:docname="football.svg">
  <defs
     id="defs4">
    <linearGradient
       id="linearGradient4239"
       inkscape:collect="always">
      <stop
         id="stop4241"
         offset="0"
         style="stop-color:#aa0000;stop-opacity:1" />
      <stop
         id="stop4243"
         offset="1"
         style="stop-color:#d40000;stop-opacity:1" />
    </linearGradient>
    <linearGradient
       inkscape:collect="always"
       id="linearGradient4223">
      <stop
         style="stop-color:#aa0000;stop-opacity:1;"
         offset="0"
         id="stop4225" />
      <stop
         style="stop-color:#d40000;stop-opacity:1"
         offset="1"
         id="stop4227" />
    </linearGradient>
    <linearGradient
       inkscape:collect="always"
       id="linearGradient4215">
      <stop
         style="stop-color:#ffffff;stop-opacity:1;"
         offset="0"
         id="stop4217" />
      <stop
         style="stop-color:#ffffff;stop-opacity:0;"
         offset="1"
         id="stop4219" />
    </linearGradient>
    <linearGradient
       id="linearGradient4132"
       inkscape:collect="always">
      <stop
         id="stop4134"
         offset="0"
         style="stop-color:#ffffff;stop-opacity:1" />
      <stop
         id="stop4136"
         offset="1"
         style="stop-color:#000000;stop-opacity:1" />
    </linearGradient>
    <linearGradient
       inkscape:collect="always"
       id="linearGradient4092">
      <stop
         style="stop-color:#000000;stop-opacity:1;"
         offset="0"
         id="stop4094" />
      <stop
         style="stop-color:#ffffff;stop-opacity:1"
         offset="1"
         id="stop4096" />
    </linearGradient>
    <linearGradient
       inkscape:collect="always"
       id="linearGradient4063">
      <stop
         style="stop-color:#666666;stop-opacity:1;"
         offset="0"
         id="stop4065" />
      <stop
         style="stop-color:#ffffff;stop-opacity:1"
         offset="1"
         id="stop4067" />
    </linearGradient>
    <linearGradient
       id="linearGradient4043">
      <stop
         id="stop4045"
         offset="0"
         style="stop-color:#cccccc;stop-opacity:1" />
      <stop
         style="stop-color:#e6e6e6;stop-opacity:1"
         offset="0.13990371"
         id="stop4047" />
      <stop
         style="stop-color:#cccccc;stop-opacity:1"
         offset="0.27980742"
         id="stop4049" />
      <stop
         style="stop-color:#e6e6e6;stop-opacity:1"
         offset="0.38685587"
         id="stop4051" />
      <stop
         style="stop-color:#cccccc;stop-opacity:1"
         offset="0.55742443"
         id="stop4053" />
      <stop
         style="stop-color:#e6e6e6;stop-opacity:1"
         offset="0.64991021"
         id="stop4055" />
      <stop
         style="stop-color:#cccccc;stop-opacity:1"
         offset="0.76658541"
         id="stop4057" />
      <stop
         style="stop-color:#e6e6e6;stop-opacity:1"
         offset="0.85994732"
         id="stop4059" />
      <stop
         id="stop4061"
         offset="1"
         style="stop-color:#e6e6e6;stop-opacity:1" />
    </linearGradient>
    <linearGradient
       id="linearGradient4014">
      <stop
         style="stop-color:#cccccc;stop-opacity:1"
         offset="0"
         id="stop4016" />
      <stop
         id="stop4034"
         offset="0.13990371"
         style="stop-color:#e6e6e6;stop-opacity:1" />
      <stop
         id="stop4032"
         offset="0.27980742"
         style="stop-color:#cccccc;stop-opacity:1" />
      <stop
         id="stop4030"
         offset="0.38685587"
         style="stop-color:#e6e6e6;stop-opacity:1" />
      <stop
         id="stop4028"
         offset="0.55742443"
         style="stop-color:#cccccc;stop-opacity:1" />
      <stop
         id="stop4026"
         offset="0.64991021"
         style="stop-color:#e6e6e6;stop-opacity:1" />
      <stop
         id="stop4024"
         offset="0.76658541"
         style="stop-color:#cccccc;stop-opacity:1" />
      <stop
         id="stop4022"
         offset="0.85994732"
         style="stop-color:#e6e6e6;stop-opacity:1" />
      <stop
         style="stop-color:#f2f2f2;stop-opacity:1"
         offset="1"
         id="stop4018" />
    </linearGradient>
    <filter
       inkscape:collect="always"
       id="filter3904"
       color-interpolation-filters="sRGB">
      <feGaussianBlur
         inkscape:collect="always"
         stdDeviation="8.5823437"
         id="feGaussianBlur3906" />
    </filter>
    <filter
       inkscape:collect="always"
       id="filter3922"
       color-interpolation-filters="sRGB">
      <feGaussianBlur
         inkscape:collect="always"
         stdDeviation="5.217002"
         id="feGaussianBlur3924" />
    </filter>
    <clipPath
       clipPathUnits="userSpaceOnUse"
       id="clipPath3930">
      <rect
         ry="157.14285"
         rx="157.14285"
         y="349.50504"
         x="171.42857"
         height="314.28571"
         width="314.28571"
         id="rect3932"
         style="fill:#999999;fill-opacity:1;fill-rule:evenodd;stroke:#000000;stroke-width:5;stroke-linejoin:miter;stroke-miterlimit:4;stroke-opacity:1;stroke-dasharray:none" />
    </clipPath>
    <clipPath
       clipPathUnits="userSpaceOnUse"
       id="clipPath3934">
      <rect
         ry="157.14285"
         rx="157.14285"
         y="349.50504"
         x="171.42857"
         height="314.28571"
         width="314.28571"
         id="rect3936"
         style="fill:#999999;fill-opacity:1;fill-rule:evenodd;stroke:#000000;stroke-width:5;stroke-linejoin:miter;stroke-miterlimit:4;stroke-opacity:1;stroke-dasharray:none" />
    </clipPath>
    <clipPath
       clipPathUnits="userSpaceOnUse"
       id="clipPath3938">
      <rect
         ry="157.14285"
         rx="157.14285"
         y="349.50504"
         x="171.42857"
         height="314.28571"
         width="314.28571"
         id="rect3940"
         style="fill:#999999;fill-opacity:1;fill-rule:evenodd;stroke:#000000;stroke-width:5;stroke-linejoin:miter;stroke-miterlimit:4;stroke-opacity:1;stroke-dasharray:none" />
    </clipPath>
    <clipPath
       clipPathUnits="userSpaceOnUse"
       id="clipPath3942">
      <rect
         ry="157.14285"
         rx="157.14285"
         y="349.50504"
         x="171.42857"
         height="314.28571"
         width="314.28571"
         id="rect3944"
         style="fill:#999999;fill-opacity:1;fill-rule:evenodd;stroke:#000000;stroke-width:5;stroke-linejoin:miter;stroke-miterlimit:4;stroke-opacity:1;stroke-dasharray:none" />
    </clipPath>
    <clipPath
       clipPathUnits="userSpaceOnUse"
       id="clipPath3946">
      <rect
         ry="157.14285"
         rx="157.14285"
         y="349.50504"
         x="171.42857"
         height="314.28571"
         width="314.28571"
         id="rect3948"
         style="fill:#999999;fill-opacity:1;fill-rule:evenodd;stroke:#000000;stroke-width:5;stroke-linejoin:miter;stroke-miterlimit:4;stroke-opacity:1;stroke-dasharray:none" />
    </clipPath>
    <clipPath
       clipPathUnits="userSpaceOnUse"
       id="clipPath3950">
      <rect
         ry="157.14285"
         rx="157.14285"
         y="349.50504"
         x="171.42857"
         height="314.28571"
         width="314.28571"
         id="rect3952"
         style="fill:#999999;fill-opacity:1;fill-rule:evenodd;stroke:#000000;stroke-width:5;stroke-linejoin:miter;stroke-miterlimit:4;stroke-opacity:1;stroke-dasharray:none" />
    </clipPath>
    <clipPath
       clipPathUnits="userSpaceOnUse"
       id="clipPath3954">
      <rect
         ry="157.14285"
         rx="157.14285"
         y="349.50504"
         x="171.42857"
         height="314.28571"
         width="314.28571"
         id="rect3956"
         style="fill:#999999;fill-opacity:1;fill-rule:evenodd;stroke:#000000;stroke-width:5;stroke-linejoin:miter;stroke-miterlimit:4;stroke-opacity:1;stroke-dasharray:none" />
    </clipPath>
    <clipPath
       clipPathUnits="userSpaceOnUse"
       id="clipPath3958">
      <rect
         ry="423.57196"
         rx="342.89651"
         y="-268.34412"
         x="-18.764364"
         height="847.14392"
         width="685.79303"
         id="rect3960"
         style="fill:#999999;fill-opacity:1;fill-rule:evenodd;stroke:#000000;stroke-width:12.12608242;stroke-linejoin:miter;stroke-miterlimit:4;stroke-opacity:1;stroke-dasharray:none"
         transform="matrix(0.97723331,0.21216754,-0.21216752,0.97723331,0,0)" />
    </clipPath>
    <clipPath
       clipPathUnits="userSpaceOnUse"
       id="clipPath3962">
      <rect
         ry="374.66769"
         rx="520.41925"
         y="193.22684"
         x="-615.0863"
         height="749.33539"
         width="1040.8385"
         id="rect3964"
         style="fill:#999999;fill-opacity:1;fill-rule:evenodd;stroke:#000000;stroke-width:14.049963;stroke-linejoin:miter;stroke-miterlimit:4;stroke-opacity:1;stroke-dasharray:none"
         transform="matrix(0.97711458,-0.21271367,0.05049605,0.99872426,0,0)" />
    </clipPath>
    <clipPath
       clipPathUnits="userSpaceOnUse"
       id="clipPath3966">
      <rect
         ry="317.55753"
         rx="317.55753"
         y="285.65048"
         x="-181.54955"
         height="635.11505"
         width="635.11505"
         id="rect3968"
         style="fill:#999999;fill-opacity:1;fill-rule:evenodd;stroke:#000000;stroke-width:10.10410404;stroke-linejoin:miter;stroke-miterlimit:4;stroke-opacity:1;stroke-dasharray:none"
         transform="matrix(0.90573841,-0.42383715,0.42383715,0.90573841,0,0)" />
    </clipPath>
    <clipPath
       clipPathUnits="userSpaceOnUse"
       id="clipPath3970">
      <rect
         ry="157.14285"
         rx="157.14285"
         y="349.50504"
         x="171.42857"
         height="314.28571"
         width="314.28571"
         id="rect3972"
         style="fill:#999999;fill-opacity:1;fill-rule:evenodd;stroke:#000000;stroke-width:5;stroke-linejoin:miter;stroke-miterlimit:4;stroke-opacity:1;stroke-dasharray:none" />
    </clipPath>
    <clipPath
       clipPathUnits="userSpaceOnUse"
       id="clipPath3974">
      <rect
         ry="142.86519"
         rx="142.86519"
         y="354.71802"
         x="191.80989"
         height="285.73038"
         width="285.73038"
         id="rect3976"
         style="fill:#999999;fill-opacity:1;fill-rule:evenodd;stroke:#000000;stroke-width:4.54571056;stroke-linejoin:miter;stroke-miterlimit:4;stroke-opacity:1;stroke-dasharray:none" />
    </clipPath>
    <clipPath
       clipPathUnits="userSpaceOnUse"
       id="clipPath3978">
      <rect
         ry="157.14285"
         rx="157.14285"
         y="349.50504"
         x="171.42857"
         height="314.28571"
         width="314.28571"
         id="rect3980"
         style="fill:#999999;fill-opacity:1;fill-rule:evenodd;stroke:#000000;stroke-width:5;stroke-linejoin:miter;stroke-miterlimit:4;stroke-opacity:1;stroke-dasharray:none" />
    </clipPath>
    <linearGradient
       inkscape:collect="always"
       xlink:href="#linearGradient4014"
       id="linearGradient4020"
       x1="62.837173"
       y1="520.34912"
       x2="374.46924"
       y2="307.20691"
       gradientUnits="userSpaceOnUse"
       gradientTransform="matrix(0.91331535,0,0,1,2.9904016,0)" />
    <linearGradient
       inkscape:collect="always"
       xlink:href="#linearGradient4063"
       id="linearGradient4069"
       x1="321.94131"
       y1="583.98871"
       x2="318.91086"
       y2="390.03943"
       gradientUnits="userSpaceOnUse" />
    <linearGradient
       inkscape:collect="always"
       xlink:href="#linearGradient4092"
       id="linearGradient4098"
       x1="106.42857"
       y1="227.14284"
       x2="173.57143"
       y2="71.428566"
       gradientUnits="userSpaceOnUse" />
    <radialGradient
       inkscape:collect="always"
       xlink:href="#linearGradient4132"
       id="radialGradient4130"
       cx="332.14285"
       cy="439.40424"
       fx="332.14285"
       fy="439.40424"
       r="97.041328"
       gradientTransform="matrix(-2.957657,0.34545903,-0.20044153,-1.7161044,1402.5824,1088.1125)"
       gradientUnits="userSpaceOnUse" />
    <linearGradient
       inkscape:collect="always"
       xlink:href="#linearGradient4063"
       id="linearGradient4152"
       gradientUnits="userSpaceOnUse"
       x1="321.94131"
       y1="583.98871"
       x2="318.91086"
       y2="390.03943"
       gradientTransform="matrix(0.14204374,0,0,1,262.9023,0)" />
    <radialGradient
       inkscape:collect="always"
       xlink:href="#linearGradient4132"
       id="radialGradient4154"
       gradientUnits="userSpaceOnUse"
       gradientTransform="matrix(-0.42011665,0.34545903,-0.02847146,-1.7161044,462.13035,1088.1125)"
       cx="332.14285"
       cy="439.40424"
       fx="332.14285"
       fy="439.40424"
       r="97.041328" />
    <linearGradient
       inkscape:collect="always"
       xlink:href="#linearGradient4092"
       id="linearGradient4156"
       gradientUnits="userSpaceOnUse"
       x1="106.42857"
       y1="227.14284"
       x2="173.57143"
       y2="71.428566"
       gradientTransform="matrix(0.14204374,0,0,1,287.25266,349.50504)" />
    <linearGradient
       inkscape:collect="always"
       xlink:href="#linearGradient4215"
       id="linearGradient4221"
       x1="402.75351"
       y1="580.95825"
       x2="230.01741"
       y2="743.59277"
       gradientUnits="userSpaceOnUse" />
    <linearGradient
       inkscape:collect="always"
       xlink:href="#linearGradient4223"
       id="linearGradient4229"
       x1="236.07832"
       y1="731.47095"
       x2="332.04285"
       y2="546.6131"
       gradientUnits="userSpaceOnUse" />
    <linearGradient
       inkscape:collect="always"
       xlink:href="#linearGradient4239"
       id="linearGradient4237"
       x1="-100.0051"
       y1="170.84404"
       x2="8.3647222e-007"
       y2="13.260248"
       gradientUnits="userSpaceOnUse" />
    <linearGradient
       inkscape:collect="always"
       xlink:href="#linearGradient4215"
       id="linearGradient4254"
       x1="52.527931"
       y1="-46.338753"
       x2="-161.62442"
       y2="165.79327"
       gradientUnits="userSpaceOnUse" />
    <linearGradient
       inkscape:collect="always"
       xlink:href="#linearGradient4092"
       id="linearGradient4267"
       x1="-91.923882"
       y1="421.36188"
       x2="-69.700523"
       y2="229.43289"
       gradientUnits="userSpaceOnUse" />
    <radialGradient
       inkscape:collect="always"
       xlink:href="#linearGradient4132"
       id="radialGradient4271"
       cx="-2.9508805"
       cy="241.25533"
       fx="-2.9508805"
       fy="241.25533"
       r="109.54688"
       gradientTransform="matrix(-1.8343982,0.06024903,-0.05749095,-1.7504237,-33.969498,718.57978)"
       gradientUnits="userSpaceOnUse" />
    <linearGradient
       inkscape:collect="always"
       xlink:href="#linearGradient4215"
       id="linearGradient4288"
       x1="22.223356"
       y1="221.35167"
       x2="-108.08632"
       y2="346.6106"
       gradientUnits="userSpaceOnUse" />
    <linearGradient
       inkscape:collect="always"
       xlink:href="#linearGradient4223"
       id="linearGradient4298"
       gradientUnits="userSpaceOnUse"
       x1="236.07832"
       y1="731.47095"
       x2="332.04285"
       y2="546.6131"
       gradientTransform="matrix(0.87743482,0,0,0.83543698,50.689455,94.072102)" />
    <filter
       inkscape:collect="always"
       id="filter4348"
       x="-0.024594318"
       width="1.0491886"
       y="-0.99317652"
       height="2.9863529"
       color-interpolation-filters="sRGB">
      <feGaussianBlur
         inkscape:collect="always"
         stdDeviation="4.7882165"
         id="feGaussianBlur4350" />
    </filter>
    <filter
       inkscape:collect="always"
       id="filter4362"
       x="-0.05543983"
       width="1.1108797"
       y="-0.72859037"
       height="2.4571807"
       color-interpolation-filters="sRGB">
      <feGaussianBlur
         inkscape:collect="always"
         stdDeviation="4.1310649"
         id="feGaussianBlur4364" />
    </filter>
  </defs>
  <sodipodi:namedview
     id="base"
     pagecolor="#ffffff"
     bordercolor="#666666"
     borderopacity="1.0"
     inkscape:pageopacity="0.0"
     inkscape:pageshadow="2"
     inkscape:zoom="0.35"
     inkscape:cx="235.32567"
     inkscape:cy="543.99523"
     inkscape:document-units="px"
     inkscape:current-layer="layer1"
     showgrid="false"
     fit-margin-top="0"
     fit-margin-left="0"
     fit-margin-right="0"
     fit-margin-bottom="0"
     inkscape:window-width="1366"
     inkscape:window-height="705"
     inkscape:window-x="-8"
     inkscape:window-y="-8"
     inkscape:window-maximized="1" />
  <metadata
     id="metadata7">
    <rdf:RDF>
      <cc:Work
         rdf:about="">
        <dc:format>image/svg+xml</dc:format>
        <dc:type
           rdf:resource="http://purl.org/dc/dcmitype/StillImage" />
        <dc:title></dc:title>
      </cc:Work>
    </rdf:RDF>
  </metadata>
  <g
     inkscape:label="Layer 1"
     inkscape:groupmode="layer"
     id="layer1"
     transform="translate(82.203569,-367.96597)">
    <path
       style="fill:#000000;fill-opacity:1;fill-rule:evenodd;stroke:none"
       d="m 317.9375,368 c -50.77406,0.73216 -101.69928,0.10158 -152.53125,0.3125 -41.91052,0.11878 -83.869524,-0.24124 -125.75,0.21875 -9.357888,2.27941 -10.074893,13.67248 -9.1875,21.5625 -0.398196,2.43337 2.242939,6.52563 -2.25,5.0625 -14.013335,0.24125 -28.34455911,-0.94657 -42.15625,0.71875 -8.2766,6.34646 -7.336648,18.24202 -6.59375,27.5625 3.359743,10.51092 7.832318,20.73139 11.4375,31.21875 11.3975907,29.34785 24.623533,57.72964 39.6875,85.375 -13.277421,0.7141 -27.5275976,-2.56679 -40.125,2.625 -9.201567,4.61897 -12.962805,18.15752 -5.4375,25.78125 2.061997,2.42366 4.805788,4.25546 7.75,5.34375 -10.971281,0.9071 -22.533714,-0.0925 -32.770697,4.93769 -29.221063,12.18937 -44.96006,45.71358 -41.819034,76.40385 2.254176,29.33952 22.746695,58.63704 52.714731,64.47096 5.559955,-0.73877 6.125787,3.15664 5.913973,7.8923 1.185025,11.79528 2.602725,23.66616 6.742277,34.76395 -11.9809,0.67103 -24.490628,-1.79074 -36.15625,1.375 -9.90792,4.71916 -10.648225,17.1867 -10.0625,26.78125 -0.976731,9.56234 3.531489,22.62298 14.587728,23.31134 27.206748,0.99799 54.4645529,-0.005 81.693522,0.37616 131.43163,-0.12244 262.91023,0.34449 394.3125,-0.28125 10.84903,-2.3605 14.63069,-15.21318 13.28125,-25.0625 1.08167,-9.96784 -1.48547,-23.25373 -12.65625,-26.09375 -5.53454,-1.35523 -11.26509,0.16479 -16.84375,-0.5625 6.88746,-37.38094 5.64868,-75.71154 5.62595,-113.5936 -0.46781,-24.70033 -1.02619,-49.74818 -6.3447,-73.87515 -2.51841,-4.21059 1.74701,-8.11185 1.65625,-12.53125 5.98545,-32.73293 4.74191,-66.32995 4.6201,-99.49924 -0.62772,-20.53414 -1.30374,-41.49573 -6.7451,-61.31326 -1.83648,-4.42984 -6.92852,-6.10414 -11.28122,-4.81996 -22.78099,-0.16953 -45.5663,0.35775 -68.34378,-0.21129 2.16458,-7.00878 1.83755,-15.22807 -0.6875,-22.0625 -2.3738,-4.286 -7.48935,-6.52919 -12.28125,-6.1875 z m -116.34375,36.0625 c -6.30995,25.0394 -5.49676,51.22663 -6.31856,76.90623 -0.13923,19.66007 0.35349,39.33944 1.97481,58.93752 -18.87485,-0.12816 -37.75172,0.22836 -56.625,-0.125 20.23836,-36.91333 37.0642,-75.84455 50.78125,-115.59375 1.43165,-6.63711 0.95989,-13.64434 -0.90625,-20.125 3.69792,0 7.39583,0 11.09375,0 z m 0.125,171.59375 c -1.56046,4.55823 -1.63553,10.74707 -3.21875,14.5625 -4.93295,-1.64891 -10.54975,-2.76914 -15.3125,-3.75 0.0966,-4.28684 -2.23482,-8.43993 -5.75,-10.8125 8.09375,0 16.1875,0 24.28125,0 z m -4.78125,35.0625 c -2.06369,47.55416 -3.37399,95.54508 2.67498,142.82561 -0.29463,2.91177 1.64583,6.1921 1.57502,8.70564 -5.98839,0.16521 -12.06591,-0.24156 -18.09375,-0.0625 8.61849,-26.40258 8.26386,-54.75601 8.98374,-82.28118 0.2797,-15.34318 -1.35029,-30.76723 -1.09825,-46.02507 1.79042,-8.96629 3.54039,-17.84405 6.17701,-26.6 -0.0729,1.14583 -0.14583,2.29167 -0.21875,3.4375 z m -216.46875,-2.8125 c -4.852078,20.70839 -5.235049,42.73864 -5.846052,64.12472 -1.102382,3.78034 1.793144,13.16486 -1.716448,13.62528 -21.761951,-7.37493 -30.156847,-35.37593 -21.46875,-55.3125 4.736066,-11.7998 15.936737,-21.95207 29.03125,-22.4375 z"
       id="path4477"
       inkscape:connector-curvature="0" />
    <path
       style="fill:url(#linearGradient4237);fill-opacity:1;fill-rule:evenodd;stroke:none"
       d="m -182.34375,49.59375 c -3.385,0 -6.125,7.443663 -6.125,16.6875 0,7.125458 1.64497,13.161635 3.9375,15.5625 7.2576,25.35723 33.35637,82.8977 48.625,109.34375 18.94938,32.82128 41.208262,17.71875 50.03125,17.71875 8.822988,0 31.081874,15.10253 50.03125,-17.71875 15.262632,-26.43566 41.3554441,-83.93995 48.625,-109.3125 2.308929,-2.378561 3.9375,-8.436195 3.9375,-15.59375 0,-9.243837 -2.708749,-16.6875 -6.09375,-16.6875 l -192.96875,0 z"
       transform="translate(171.42857,349.50504)"
       id="path3996"
       inkscape:connector-curvature="0" />
    <rect
       ry="83.861824"
       rx="8.9915915"
       y="400.47311"
       x="199.28571"
       height="171.17477"
       width="214.28571"
       id="rect4206"
       style="fill:#ffffff;fill-opacity:1;fill-rule:evenodd;stroke:none" />
    <path
       style="fill:#000000;fill-opacity:1;fill-rule:evenodd;stroke:none"
       d="m 290.64085,400.47379 c -0.80149,0 -1.45134,37.41555 -1.45134,83.875 l 0,3.4375 c 0,46.45945 0.64985,83.875 1.45134,83.875 l 31.57544,0 c 0.8015,0 1.45134,-37.41555 1.45134,-83.875 l 0,-3.4375 c 0,-46.45945 -0.64984,-83.875 -1.45134,-83.875 l -31.57544,0 z"
       id="rect4168"
       inkscape:connector-curvature="0" />
    <g
       id="g4158">
      <rect
         style="opacity:0.49038463;fill:url(#linearGradient4152);fill-opacity:1;fill-rule:evenodd;stroke:none"
         id="rect4140"
         width="30.437943"
         height="171.17477"
         x="291.20959"
         y="400.47311"
         rx="1.2771993"
         ry="83.861824" />
      <rect
         ry="75.955254"
         rx="1.1567837"
         y="408.54236"
         x="292.64444"
         height="155.03625"
         width="27.568226"
         id="rect4142"
         style="opacity:0.27038467;fill:url(#radialGradient4154);fill-opacity:1;fill-rule:evenodd;stroke:none" />
      <rect
         style="opacity:0.67038467;fill:#ffffff;fill-opacity:1;fill-rule:evenodd;stroke:none"
         id="rect4144"
         width="27.394148"
         height="4.131948"
         x="292.73148"
         y="561.08734"
         rx="1.1494793"
         ry="2.0243211" />
      <path
         inkscape:connector-curvature="0"
         style="opacity:0.63461537;fill:url(#linearGradient4156);fill-opacity:1;fill-rule:evenodd;stroke:none"
         d="m 293.3339,405.69254 c -0.66448,0 -1.19849,35.11985 -1.19849,78.75 l 0,3.25 c 0,43.63015 0.53401,78.75 1.19849,78.75 l 26.18932,0 c 0.66448,0 1.19849,-35.11985 1.19849,-78.75 l 0,-3.25 c 0,-43.63015 -0.53401,-78.75 -1.19849,-78.75 l -26.18932,0 z m 0.46608,2.84375 25.25716,0 c 0.64085,0 1.1541,33.88954 1.1541,75.96875 l 0,3.125 c 0,42.07921 -0.51325,75.9375 -1.1541,75.9375 l -25.25716,0 c -0.64085,0 -1.1541,-33.85829 -1.1541,-75.9375 l 0,-3.125 c 0,-42.07921 0.51325,-75.96875 1.1541,-75.96875 z"
         id="path4146" />
      <path
         inkscape:connector-curvature="0"
         style="opacity:0.78846154;fill:#ffffff;fill-opacity:1;fill-rule:evenodd;stroke:none"
         d="m 317.06852,408.53629 c 0.64086,0 1.15411,33.88954 1.15411,75.96875 l 0,3.125 c 0,42.07921 -0.51325,75.9375 -1.15411,75.9375 l 1.98862,0 c 0.64085,0 1.1541,-33.85829 1.1541,-75.9375 l 0,-3.125 c 0,-42.07921 -0.51325,-75.96875 -1.1541,-75.96875 l -1.98862,0 z"
         id="path4148" />
      <path
         inkscape:connector-curvature="0"
         style="opacity:0.6503847;fill:#ffffff;fill-opacity:1;fill-rule:evenodd;stroke:none"
         d="m 293.79998,408.53629 c -0.64085,0 -1.1541,33.88954 -1.1541,75.96875 l 0,3.125 c 0,1.03506 -6.2e-4,2.03774 0,3.0625 0.0248,-40.62058 0.52917,-72.875 1.1541,-72.875 l 25.25716,0 c 0.62493,0 1.12933,32.25442 1.1541,72.875 6.2e-4,-1.02476 0,-2.02744 0,-3.0625 l 0,-3.125 c 0,-42.07921 -0.51325,-75.96875 -1.1541,-75.96875 l -25.25716,0 z"
         id="path4150" />
    </g>
    <path
       style="fill:#000000;fill-opacity:1;fill-rule:evenodd;stroke:none"
       d="m -179.25,228.09375 c -1.44142,0 -2.79479,0.37789 -3.96875,1.0625 -2.03527,-0.23769 -4.09589,-0.34375 -6.1875,-0.34375 -33.29766,0 -60.09375,30.85322 -60.09375,69.1875 0,38.33428 26.79609,69.1875 60.09375,69.1875 33.29766,0 60.09375,-30.85322 60.09375,-69.1875 0,-20.93387 -8.01065,-39.6154 -20.6875,-52.28125 l 149.46875,0 c 4.5351787,0 8.1875,-3.87077 8.1875,-8.65625 l 0,-0.34375 c 0,-4.78548 -3.6523213,-8.625 -8.1875,-8.625 l -178.71875,0 z m -10.15625,26.28125 c 20.98592,0 37.875,19.46474 37.875,43.625 0,24.16026 -16.88908,43.625 -37.875,43.625 -20.98592,0 -37.875,-19.46474 -37.875,-43.625 0,-24.16026 16.88908,-43.625 37.875,-43.625 z"
       transform="translate(171.42857,349.50504)"
       id="rect4001"
       inkscape:connector-curvature="0" />
    <path
       id="path4273"
       transform="translate(171.42857,349.50504)"
       d="m 8.9375,241.09375 c -1.6962441,0.0246 -3.5438209,0.20711 -5.625,0.59375 -0.3570047,-0.15886 -0.6985469,-0.25 -1.0625,-0.25 l -180.71875,0 c -7.96435,0 -14.375,38.70196 -14.375,86.78125 l 0,3.5625 c 0,48.07928 6.41065,86.78125 14.375,86.78125 l 180.71875,0 c 7.96435,0 14.375,-38.70197 14.375,-86.78125 l 0,-3.5625 c 0,-14.9132 -0.598749,-28.92199 -1.6875,-41.15625 2.789526,-14.74718 6.208984,-30.94589 11.3125,-42.46875 -7.368302,-1.84208 -11.573347,-3.58327 -17.3125,-3.5 z"
       style="fill:#ffffff;fill-opacity:1;fill-rule:evenodd;stroke:none"
       inkscape:connector-curvature="0" />
    <rect
       style="opacity:0.66000001;fill:#000000;fill-opacity:1;fill-rule:evenodd;stroke:none"
       id="rect4290"
       width="141.55472"
       height="15.611283"
       x="11.354334"
       y="748.46521"
       rx="5.9397435"
       ry="7.6482692" />
    <path
       style="opacity:0.7;fill:url(#radialGradient4271);fill-opacity:1;fill-rule:evenodd;stroke:none"
       d="m 8.9375,241.09375 c -1.6962441,0.0246 -3.5438209,0.20711 -5.625,0.59375 -0.3570047,-0.15886 -0.6985469,-0.25 -1.0625,-0.25 l -180.71875,0 c -7.96435,0 -14.375,38.70196 -14.375,86.78125 l 0,3.5625 c 0,48.07928 6.41065,86.78125 14.375,86.78125 l 180.71875,0 c 7.96435,0 14.375,-38.70197 14.375,-86.78125 l 0,-3.5625 c 0,-14.9132 -0.598749,-28.92199 -1.6875,-41.15625 2.789526,-14.74718 6.208984,-30.94589 11.3125,-42.46875 -7.368302,-1.84208 -11.573347,-3.58327 -17.3125,-3.5 z"
       transform="translate(171.42857,349.50504)"
       id="rect3986"
       inkscape:connector-curvature="0" />
    <rect
       style="fill:#333333;fill-opacity:1;fill-rule:evenodd;stroke:none"
       id="rect4138"
       width="192.06235"
       height="196.42859"
       x="210.39738"
       y="555.64789"
       rx="8.059082"
       ry="96.234154" />
    <rect
       ry="96.234154"
       rx="8.9915915"
       y="571.64789"
       x="199.28571"
       height="196.42859"
       width="214.28571"
       id="rect3988"
       style="fill:url(#linearGradient4229);fill-opacity:1;fill-rule:evenodd;stroke:none" />
    <path
       style="fill:#000000;fill-opacity:1;fill-rule:evenodd;stroke:none"
       d="m -169.09375,194.40625 c -9.60735,0 -17.34375,6.06656 -17.34375,13.59375 l 0,0.5625 c 0,7.52719 7.7364,13.59375 17.34375,13.59375 l 205.9375,0 c -2.659398,0 -5.012861,-10.74234 -6.65625,-27.75 l -199.28125,0 z"
       transform="translate(171.42857,349.50504)"
       id="rect3992"
       inkscape:connector-curvature="0" />
    <rect
       style="opacity:0.49038463;fill:url(#linearGradient4069);fill-opacity:1;fill-rule:evenodd;stroke:none"
       id="rect3990"
       width="214.28571"
       height="171.17477"
       x="199.28571"
       y="400.47311"
       rx="8.9915915"
       ry="83.861824" />
    <rect
       style="fill:url(#linearGradient4020);fill-opacity:1;fill-rule:evenodd;stroke:none"
       id="rect3994"
       width="293.50473"
       height="27.733112"
       x="34.497475"
       y="372.33096"
       rx="7.1428571"
       ry="9.3012724" />
    <rect
       ry="75.955254"
       rx="8.143856"
       y="408.54236"
       x="209.38724"
       height="155.03625"
       width="194.08266"
       id="rect4071"
       style="opacity:0.27038467;fill:url(#radialGradient4130);fill-opacity:1;fill-rule:evenodd;stroke:none" />
    <rect
       style="opacity:0.67038467;fill:#ffffff;fill-opacity:1;fill-rule:evenodd;stroke:none"
       id="rect4079"
       width="192.85713"
       height="4.131948"
       x="209.99998"
       y="561.08734"
       rx="8.092432"
       ry="2.0243211" />
    <path
       style="opacity:0.63461537;fill:url(#linearGradient4098);fill-opacity:1;fill-rule:evenodd;stroke:none"
       d="m 42.8125,56.1875 c -4.677987,0 -8.4375,35.119846 -8.4375,78.75 l 0,3.25 c 0,43.63015 3.759513,78.75 8.4375,78.75 l 184.375,0 c 4.67799,0 8.4375,-35.11985 8.4375,-78.75 l 0,-3.25 c 0,-43.630154 -3.75951,-78.75 -8.4375,-78.75 l -184.375,0 z m 3.28125,2.84375 177.8125,0 c 4.5117,0 8.125,33.88954 8.125,75.96875 l 0,3.125 c 0,42.07921 -3.6133,75.9375 -8.125,75.9375 l -177.8125,0 c -4.511696,0 -8.125,-33.85829 -8.125,-75.9375 l 0,-3.125 c 0,-42.07921 3.613304,-75.96875 8.125,-75.96875 z"
       transform="translate(171.42857,349.50504)"
       id="rect4085"
       inkscape:connector-curvature="0" />
    <path
       style="opacity:0.78846154;fill:#ffffff;fill-opacity:1;fill-rule:evenodd;stroke:none"
       d="m 209.90625,59.03125 c 4.5117,0 8.125,33.88954 8.125,75.96875 l 0,3.125 c 0,42.07921 -3.6133,75.9375 -8.125,75.9375 l 14,0 c 4.5117,0 8.125,-33.85829 8.125,-75.9375 l 0,-3.125 c 0,-42.07921 -3.6133,-75.96875 -8.125,-75.96875 l -14,0 z"
       transform="translate(171.42857,349.50504)"
       id="rect4100"
       inkscape:connector-curvature="0" />
    <path
       style="opacity:0.6503847;fill:#ffffff;fill-opacity:1;fill-rule:evenodd;stroke:none"
       d="m 46.09375,59.03125 c -4.511696,0 -8.125,33.88954 -8.125,75.96875 l 0,3.125 c 0,1.03506 -0.0044,2.03774 0,3.0625 0.174368,-40.62058 3.725415,-72.875 8.125,-72.875 l 177.8125,0 c 4.39959,0 7.95063,32.25442 8.125,72.875 0.004,-1.02476 0,-2.02744 0,-3.0625 l 0,-3.125 c 0,-42.07921 -3.6133,-75.96875 -8.125,-75.96875 l -177.8125,0 z"
       transform="translate(171.42857,349.50504)"
       id="rect4109"
       inkscape:connector-curvature="0" />
    <rect
       style="fill:url(#linearGradient4298);fill-opacity:1;fill-rule:evenodd;stroke:none"
       id="rect4296"
       width="188.02174"
       height="164.10371"
       x="225.54967"
       y="571.64789"
       rx="7.8895354"
       ry="80.397568" />
    <path
       style="opacity:0.44846161;fill:url(#linearGradient4221);fill-opacity:1;fill-rule:evenodd;stroke:none"
       d="m 217.52232,576.56754 c -4.5117,0 -8.125,39.40998 -8.125,88.34368 l 0,3.63405 c 0,1.20366 -0.004,2.36967 0,3.56136 0.17437,-47.23747 3.72541,-84.74597 8.125,-84.74597 l 167.71875,0 c 2.52077,14.96816 4.21875,44.01096 4.21875,77.55056 l 0,3.63405 c 0,48.9337 -3.6133,88.30733 -8.125,88.30733 l 14,0 c 4.40072,0 7.95321,-37.49228 8.125,-84.74597 0.001,-0.38913 -2e-5,-0.77705 0,-1.16289 0.002,-0.80526 0,-1.58784 0,-2.39847 l 0,-3.63405 c 0,-33.64193 -1.71651,-62.76847 -4.25,-77.69592 -1.15159,-6.7852 -2.46509,-10.64776 -3.875,-10.64776 l -14,0 -163.8125,0 z"
       id="path4210"
       inkscape:connector-curvature="0" />
    <path
       style="fill:url(#linearGradient4254);fill-opacity:1;fill-rule:evenodd;stroke:none"
       d="m -171.5625,58.6875 c -2.3878,0 -4.423,4.170982 -5.15625,10 l 168.5625,0 c 3.00689,0 5.40625,6.6012 5.40625,14.8125 0,6.35805 -1.44898,11.76213 -3.5,13.875 -6.45754,22.53842 -29.62971,73.61096 -43.1875,97.09375 -0.33712,0.58391 -0.691891,1.10604 -1.03125,1.65625 3.045124,-2.7945 6.086433,-6.55568 9.03125,-11.65625 C -27.87971,160.98596 -4.70754,109.91342 1.75,87.375 3.80102,85.26213 5.25,79.85805 5.25,73.5 5.25,65.2887 2.85064,58.6875 -0.15625,58.6875 l -171.40625,0 z"
       transform="translate(171.42857,349.50504)"
       id="path4245"
       inkscape:connector-curvature="0" />
    <path
       style="opacity:0.37999998;fill:url(#linearGradient4267);fill-opacity:1;fill-rule:evenodd;stroke:none"
       d="m 2.625,247.15625 c -1.58038,0.0235 -3.27971,0.19346 -5.21875,0.5625 -0.33261,-0.15163 -0.66091,-0.25 -1,-0.25 l -168.375,0 c -7.42036,0 -13.40625,36.95377 -13.40625,82.84375 l 0,3.40625 c 0,45.88998 5.98589,82.8125 13.40625,82.8125 l 168.375,0 c 7.42036,0 13.40625,-36.92252 13.40625,-82.8125 l 0,-3.40625 c 0,-14.23411 -0.57937,-27.60409 -1.59375,-39.28125 C 10.81774,276.95558 14.02632,261.49817 18.78125,250.5 11.91622,248.7418 7.97215,247.07677 2.625,247.15625 z m -6.125,6.0625 c 4.9645,-0.0738 8.59499,1.46137 14.96875,3.09375 -4.41466,10.21112 -7.36825,24.55661 -9.78125,37.625 0.94179,10.84152 1.4375,23.2845 1.4375,36.5 l 0,3.15625 c 0,42.60602 -5.5169,76.875 -12.40625,76.875 l -156.34375,0 c -6.88935,0 -12.4375,-34.26898 -12.4375,-76.875 l 0,-3.15625 c 0,-42.60603 5.54815,-76.90625 12.4375,-76.90625 l 156.34375,0 c 0.31482,0 0.59744,0.078 0.90625,0.21875 1.80028,-0.34263 3.40771,-0.50945 4.875,-0.53125 z"
       transform="translate(171.42857,349.50504)"
       id="path4256"
       inkscape:connector-curvature="0" />
    <path
       style="fill:url(#linearGradient4288);fill-opacity:1;fill-rule:evenodd;stroke:none"
       d="m -2.96875,252.5625 c -1.47726,0.0214 -3.09375,0.16328 -4.90625,0.5 -0.31092,-0.13835 -0.58928,-0.21875 -0.90625,-0.21875 l -157.40625,0 c -3.28191,0 -6.24079,7.61335 -8.46875,20 l 149.875,0 c 0.31697,0 0.59533,0.0804 0.90625,0.21875 1.8125,-0.33672 3.42899,-0.4786 4.90625,-0.5 4.99825,-0.0725 8.64543,1.42697 15.0625,3.03125 -4.44466,10.0353 -7.41434,24.15664 -9.84375,37 0.9482,10.65486 1.46875,22.85579 1.46875,35.84375 l 0,3.09375 c 0,22.04386 -1.55371,41.77184 -4.03125,55.5625 l 7.53125,0 c 6.93618,0 12.5,-33.69009 12.5,-75.5625 l 0,-3.09375 c 0,-12.98796 -0.52055,-25.18889 -1.46875,-35.84375 2.42941,-12.84336 5.39909,-26.9647 9.84375,-37 -6.41707,-1.60428 -10.06425,-3.10377 -15.0625,-3.03125 z"
       transform="translate(171.42857,349.50504)"
       id="path4275"
       inkscape:connector-curvature="0" />
    <rect
       ry="2.6993368"
       rx="6.6179318"
       y="753.51599"
       x="3.2731135"
       height="5.509758"
       width="157.71716"
       id="rect4294"
       style="opacity:0.66000001;fill:#ffffff;fill-opacity:1;fill-rule:evenodd;stroke:none" />
    <rect
       ry="14.721914"
       rx="12.059558"
       y="766.1889"
       x="-58.436562"
       height="43.895554"
       width="495.53525"
       id="rect4334"
       style="fill:#000000;fill-opacity:1;fill-rule:evenodd;stroke:none" />
    <rect
       style="opacity:0.5;fill:#ffffff;fill-opacity:1;fill-rule:evenodd;stroke:none;filter:url(#filter4348)"
       id="rect4338"
       width="467.25098"
       height="11.570672"
       x="-44.294426"
       y="772.1889"
       rx="11.37122"
       ry="3.880631" />
    <path
       id="path4352"
       d="m 21.105702,543.91129 c -7.694896,0 -13.891276,2.97488 -13.891276,6.66601 l 0,0.27584 c 0,3.69113 6.19638,6.66601 13.891276,6.66601 l 164.943258,0 c -2.13001,0 -4.01499,-5.26775 -5.33124,-13.60786 l -159.612018,0 z"
       style="opacity:0.63999987;fill:#ffffff;fill-opacity:1;fill-rule:evenodd;stroke:none;filter:url(#filter4362)"
       inkscape:connector-curvature="0"
       transform="matrix(1,0,0,0.3349329,0,366.26258)" />
  </g>
</svg>
