<?xml version="1.0" encoding="UTF-8" standalone="no"?>
<!-- Created with Inkscape (http://www.inkscape.org/) -->

<svg
   xmlns:dc="http://purl.org/dc/elements/1.1/"
   xmlns:cc="http://creativecommons.org/ns#"
   xmlns:rdf="http://www.w3.org/1999/02/22-rdf-syntax-ns#"
   xmlns:svg="http://www.w3.org/2000/svg"
   xmlns="http://www.w3.org/2000/svg"
   xmlns:sodipodi="http://sodipodi.sourceforge.net/DTD/sodipodi-0.dtd"
   xmlns:inkscape="http://www.inkscape.org/namespaces/inkscape"
   width="188.61356"
   height="92.17952"
   id="svg2"
   version="1.1"
   inkscape:version="0.48.4 r9939"
   sodipodi:docname="grapplingHook.svg"
   inkscape:export-filename="C:\Users\Mira\Documents\GameJam\packageloss\Graphics\png2x\beerCrate.png"
   inkscape:export-xdpi="33.045109"
   inkscape:export-ydpi="33.045109">
  <sodipodi:namedview
     id="base"
     pagecolor="#ffffff"
     bordercolor="#666666"
     borderopacity="1.0"
     inkscape:pageopacity="0.0"
     inkscape:pageshadow="2"
     inkscape:zoom="1.4142136"
     inkscape:cx="31.205812"
     inkscape:cy="115.50394"
     inkscape:document-units="px"
     inkscape:current-layer="layer1"
     showgrid="false"
     fit-margin-top="0"
     fit-margin-left="0"
     fit-margin-right="0"
     fit-margin-bottom="0"
     inkscape:window-width="1366"
     inkscape:window-height="705"
     inkscape:window-x="-8"
     inkscape:window-y="-8"
     inkscape:window-maximized="1"
     inkscape:snap-grids="true">
    <inkscape:grid
       type="xygrid"
       id="grid4724"
       empspacing="5"
       visible="true"
       enabled="true"
       snapvisiblegridlinesonly="true"
       originx="127.75465px"
       originy="-104.87911px" />
  </sodipodi:namedview>
  <defs
     id="defs4">
    <linearGradient
       id="linearGradient5253">
      <stop
         style="stop-color:#a1a1a1;stop-opacity:1;"
         offset="0"
         id="stop5255" />
      <stop
         id="stop5279"
         offset="0.09326643"
         style="stop-color:#f2f2f2;stop-opacity:1" />
      <stop
         id="stop5277"
         offset="0.28016874"
         style="stop-color:#f9f9f9;stop-opacity:1" />
      <stop
         id="stop5275"
         offset="0.41136032"
         style="stop-color:#dcdcdc;stop-opacity:1;" />
      <stop
         id="stop5273"
         offset="0.56053966"
         style="stop-color:#f2f2f2;stop-opacity:1" />
      <stop
         id="stop5271"
         offset="0.71340966"
         style="stop-color:#ececec;stop-opacity:1" />
      <stop
         id="stop5269"
         offset="0.83397985"
         style="stop-color:#f2f2f2;stop-opacity:1" />
      <stop
         style="stop-color:#e6e6e6;stop-opacity:1"
         offset="1"
         id="stop5257" />
    </linearGradient>
    <linearGradient
       id="linearGradient5012">
      <stop
         style="stop-color:#b6b6b6;stop-opacity:1;"
         offset="0"
         id="stop5014" />
      <stop
         id="stop5034"
         offset="0.08083832"
         style="stop-color:#e6e6e6;stop-opacity:0.99607843;" />
      <stop
         id="stop5032"
         offset="0.18914835"
         style="stop-color:#b6b6b6;stop-opacity:1;" />
      <stop
         id="stop5030"
         offset="0.32335329"
         style="stop-color:#e6e6e6;stop-opacity:0.99607843;" />
      <stop
         id="stop5028"
         offset="0.44344622"
         style="stop-color:#b6b6b6;stop-opacity:1;" />
      <stop
         id="stop5026"
         offset="0.55158675"
         style="stop-color:#e6e6e6;stop-opacity:0.99607843;" />
      <stop
         id="stop5024"
         offset="0.65251696"
         style="stop-color:#b6b6b6;stop-opacity:1;" />
      <stop
         id="stop5022"
         offset="0.77196223"
         style="stop-color:#e6e6e6;stop-opacity:0.99607843;" />
      <stop
         id="stop5020"
         offset="0.87916976"
         style="stop-color:#b6b6b6;stop-opacity:1;" />
      <stop
         style="stop-color:#e6e6e6;stop-opacity:0.99607843;"
         offset="1"
         id="stop5016" />
    </linearGradient>
    <linearGradient
       id="linearGradient3909">
      <stop
         id="stop3911"
         offset="0"
         style="stop-color:#ffffff;stop-opacity:1;" />
      <stop
         id="stop3913"
         offset="1"
         style="stop-color:#aaf0ff;stop-opacity:1;" />
    </linearGradient>
    <clipPath
       id="clipPath3952"
       clipPathUnits="userSpaceOnUse">
      <rect
         style="fill:#d45500;fill-opacity:1;fill-rule:evenodd;stroke:#000000;stroke-width:3;stroke-linejoin:miter;stroke-miterlimit:4;stroke-opacity:1;stroke-dasharray:none"
         id="rect3954"
         width="360"
         height="360"
         x="168.57143"
         y="235.21933"
         rx="180"
         ry="180" />
    </clipPath>
    <clipPath
       id="clipPath3956"
       clipPathUnits="userSpaceOnUse">
      <rect
         style="fill:#d45500;fill-opacity:1;fill-rule:evenodd;stroke:#000000;stroke-width:3;stroke-linejoin:miter;stroke-miterlimit:4;stroke-opacity:1;stroke-dasharray:none"
         id="rect3958"
         width="360"
         height="360"
         x="168.57143"
         y="235.21933"
         rx="180"
         ry="180" />
    </clipPath>
    <clipPath
       id="clipPath3960"
       clipPathUnits="userSpaceOnUse">
      <rect
         style="fill:#d45500;fill-opacity:1;fill-rule:evenodd;stroke:#000000;stroke-width:3;stroke-linejoin:miter;stroke-miterlimit:4;stroke-opacity:1;stroke-dasharray:none"
         id="rect3962"
         width="360"
         height="360"
         x="168.57143"
         y="235.21933"
         rx="180"
         ry="180" />
    </clipPath>
    <clipPath
       id="clipPath3964"
       clipPathUnits="userSpaceOnUse">
      <rect
         style="fill:#d45500;fill-opacity:1;fill-rule:evenodd;stroke:#000000;stroke-width:3;stroke-linejoin:miter;stroke-miterlimit:4;stroke-opacity:1;stroke-dasharray:none"
         id="rect3966"
         width="360"
         height="360"
         x="168.57143"
         y="235.21933"
         rx="180"
         ry="180" />
    </clipPath>
    <filter
       inkscape:collect="always"
       id="filter7883"
       color-interpolation-filters="sRGB">
      <feGaussianBlur
         inkscape:collect="always"
         stdDeviation="0.20898118"
         id="feGaussianBlur7885" />
    </filter>
    <filter
       inkscape:collect="always"
       id="filter7895"
       color-interpolation-filters="sRGB">
      <feGaussianBlur
         inkscape:collect="always"
         stdDeviation="0.34850764"
         id="feGaussianBlur7897" />
    </filter>
    <filter
       inkscape:collect="always"
       id="filter7907"
       color-interpolation-filters="sRGB">
      <feGaussianBlur
         inkscape:collect="always"
         stdDeviation="0.4172769"
         id="feGaussianBlur7909" />
    </filter>
    <filter
       inkscape:collect="always"
       id="filter7919"
       color-interpolation-filters="sRGB">
      <feGaussianBlur
         inkscape:collect="always"
         stdDeviation="0.47229761"
         id="feGaussianBlur7921" />
    </filter>
    <filter
       inkscape:collect="always"
       id="filter7937"
       color-interpolation-filters="sRGB">
      <feGaussianBlur
         inkscape:collect="always"
         stdDeviation="0.2275"
         id="feGaussianBlur7939" />
    </filter>
  </defs>
  <metadata
     id="metadata7">
    <rdf:RDF>
      <cc:Work
         rdf:about="">
        <dc:format>image/svg+xml</dc:format>
        <dc:type
           rdf:resource="http://purl.org/dc/dcmitype/StillImage" />
        <dc:title />
      </cc:Work>
    </rdf:RDF>
  </metadata>
  <g
     transform="translate(-176.53105,-262.44643)"
     id="layer1"
     inkscape:groupmode="layer"
     inkscape:label="Layer 1">
    <path
       style="fill:none;stroke:#000000;stroke-width:2.5;stroke-linecap:butt;stroke-linejoin:miter;stroke-miterlimit:4;stroke-opacity:1;stroke-dasharray:none"
       d="m 256.62634,332.71416 c 6.54149,8.76572 -5.17336,14.50896 -6.64858,13.44606 8.65823,-2.36642 6.43264,-8.30715 6.64858,-13.44606 z"
       id="path7865"
       inkscape:connector-curvature="0"
       sodipodi:nodetypes="ccc" />
    <path
       style="fill:none;stroke:#000000;stroke-width:1.66921055;stroke-linecap:butt;stroke-linejoin:miter;stroke-miterlimit:4;stroke-opacity:1;stroke-dasharray:none"
       d="m 317.86786,322.98377 c 15.89576,0.41584 56.14951,17.48552 44.2874,23.67506 -2.80366,1.46293 -8.83807,3.00605 -13.32781,3.44131 -2.91129,0.28224 -7.86036,2.86336 -11.13786,2.54217 -8.45095,-0.82818 -18.06142,-3.37607 -27.18657,-3.21488 -22.49187,0.39729 -47.76528,3.86697 -70.66539,4.27147 -14.96778,0.26438 -53.22457,-22.41915 -55.46385,-27.46136 -2.1654,-4.87583 47.3762,-6.17846 55.71493,-6.47078 32.27263,-1.13138 54.14727,-0.32283 82.35007,4.03205 7.46424,1.15258 17.36489,1.01964 25.44028,2.126 18.92475,2.59277 2.32605,6.09166 15.76555,11.35022 1.65593,0.64793 -6.62021,3.54806 -10.49172,3.95018 -8.08622,0.83987 -7.13012,0.12489 -15.042,0.66628 -7.90466,0.54089 -9.53687,2.87374 -17.32638,3.7712 -13.55487,1.56173 -28.72373,2.29538 -42.87838,2.7729 -10.41176,0.35125 -62.72772,-2.26501 -70.35294,-4.69186 -6.31047,-2.0084 -9.20439,-5.73938 -13.27163,-8.27549 -4.63936,-2.89287 -11.05639,-6.46102 -8.40048,-9.81718 6.55753,-8.28652 41.30909,-15.04099 65.32854,-12.68713 12.90523,1.26469 21.6865,4.98086 34.36157,6.67127 20.11771,2.68302 66.19961,7.7587 67.56474,17.32936 0.28016,1.9641 2.47362,5.89896 -1.31228,7.37205 -18.88582,7.34845 -125.03345,11.38982 -141.05976,8.53217 -6.40539,-1.14215 -5.32532,-5.85309 -10.28765,-7.43243 -12.63266,-4.02054 -15.34047,-7.32063 -21.11164,-13.52367 -5.33328,-5.73238 -0.0105,-13.38747 16.16072,-14.49401 12.03196,-0.8233 23.82179,-1.56685 36.15068,-0.86249 8.09692,0.46257 14.84821,4.3286 22.23576,4.19811 15.79144,-0.27894 31.8146,-1.46084 48.49706,-1.30453 16.07424,0.15061 51.78048,11.68075 54.99814,17.50402 1.90729,3.45176 -24.29628,5.9738 -29.54549,7.01629 -20.42516,4.05645 -87.62706,12.25098 -105.4497,8.02113 -8.51681,-2.0213 -10.90503,-7.04453 -17.92221,-9.649 -9.33576,-3.46503 -17.62804,-7.38426 -13.29002,-12.86605 3.15215,-3.98327 14.64429,-9.11688 22.75037,-12.27095 5.27668,-2.05314 15.01504,-1.32983 21.35954,-1.9449 34.3382,-3.32895 85.06069,-4.45347 105.90317,8.54281 2.76563,1.72451 8.47853,5.35319 7.73261,7.36558 -2.6324,7.10212 -13.41344,5.95563 -28.847,7.45185 -8.70919,0.84432 -16.65438,2.52175 -24.91332,3.79924 -31.86069,4.92822 -58.72422,4.34031 -87.3315,-1.03278 -5.98144,-1.12344 -27.6377,-5.27693 -24.6164,-9.09484 1.07075,-1.35307 0.82943,-3.33803 2.53666,-4.52371 9.01359,-6.25995 27.62595,-14.51964 48.78824,-15.51821 20.34972,-0.96023 44.84782,3.21557 57.51641,8.38975 13.28062,5.42417 7.6091,10.96139 8.4679,16.98224 0.25666,1.79935 4.55478,4.79013 3.43128,6.20986 -1.65771,2.09478 -6.28868,2.42745 -10.09155,2.86559 -36.33626,4.18648 -27.12232,0.19458 -53.84615,-0.50452 -20.30357,-0.53115 -40.55572,1.16847 -52.43691,-6.24002 -3.43961,-2.14476 -11.03473,-8.20275 -5.30623,-10.4317 3.64205,-1.41711 6.42746,-3.63934 10.74102,-5.00455 13.3584,-4.22785 30.57783,-6.68195 43.969,-10.74222 6.79768,-2.06108 13.29344,-5.96946 22.22959,-6.99904 4.19756,-0.48362 11.55362,0.58249 14.79116,1.08241 8.74044,1.34964 19.11735,1.2326 27.5358,3.43266 24.58257,6.42434 46.1885,16.68243 18.64528,25.87225 -5.51632,1.84053 -18.60863,4.17379 -25.37286,5.03905 -3.66512,0.46884 -80.699,1.0856 -85.50557,0.61456 -2.7245,-0.26699 -8.12853,-3.80467 -9.88938,-4.64014 -14.79758,-7.021 -25.24066,-11.03733 -8.70687,-18.6576 33.52014,-15.44914 95.11743,-2.26201 108.66657,12.30107 2.40437,2.5843 13.55488,7.55046 10.06709,10.34761 -4.17031,3.34452 -15.67328,4.32321 -24.67436,5.4746 -34.01259,4.35082 -78.09398,3.7738 -88.7653,-11.08498 -1.27045,-1.76898 -6.2853,-5.89891 -4.90795,-7.63942 13.99302,-17.68247 74.10969,-19.8294 114.33418,-12.65696 5.59813,0.9982 9.1321,4.67673 12.06454,6.50525 5.81091,3.62338 9.42851,8.07621 7.48141,12.29681 -2.85827,6.19567 -27.28662,6.67656 -41.46297,8.23456 -45.23004,4.97084 -73.60301,7.85115 -84.8929,-10.7055 -7.31728,-12.02705 30.48281,-17.10651 55.0715,-22.13559 2.32083,-1.1576 5.5136,-1.0677 6.84955,0.26826 4.023,4.023 -4.63383,5.55154 -7.07107,6.36396 -7.9869,2.6623 -40.57305,7.60701 -43.13351,12.72792 -1.96812,3.93624 12.46048,-1.76777 15.9099,-1.76777 3.57747,0 21.70775,0.8481 22.98097,2.12132 0.31337,0.31337 6.49359,0.22393 6.71752,0 0.078,-0.078 -0.0598,-1.41421 0,-1.41421 1.86209,0 -6.54108,-1.2371 -8.13173,0.35355 -3.87192,3.87192 -4.57143,-6.38873 -7.77818,-3.18198 -0.33672,0.33673 -0.84749,5.51647 -0.35355,6.01041 5.8365,5.8365 8.18345,-4.19092 5.65685,-6.71751 -4.43178,-4.43179 -3.20634,9.19238 -7.07106,9.19238 -3.98489,0 -1.92795,-9.35256 -0.35356,-7.77817 0.78032,0.78031 0.70711,3.17699 0.70711,4.59619 0,9.27783 -8.59201,-2.36814 -5.65685,-5.3033 1.11747,-1.11747 2.73055,6.46184 1.41421,7.77818 -3.74565,3.74565 -9.33084,-3.75064 -6.71751,-6.36396 4.16257,-4.16258 5.18594,6.36396 4.24264,6.36396 -1.8252,0 1.19073,-10.34646 5.3033,-2.12132 0.0808,0.1616 0.69989,2.12853 0.35355,2.47487 -2.47692,2.47692 0.135,-10.11805 3.53553,-6.71751 3.55858,3.55857 -2.6449,4.05911 -3.88908,5.3033 -2.92822,2.92822 -11.39204,-3.31959 -15.2028,-1.41422 -1.54615,0.77308 -1.86191,2.65549 -3.18198,3.53554"
       id="path7861"
       inkscape:connector-curvature="0"
       sodipodi:nodetypes="csssssssssssssssssssssssssssssssssssssssssssssssssssssssssssssssssssssscsssssssscssssssssssssssc" />
    <g
       id="g3036"
       transform="matrix(0.72092342,0,0,0.72092342,70.575104,91.98666)">
      <path
         style="fill:#808080;stroke:#000000;stroke-width:0.74902356px;stroke-linecap:butt;stroke-linejoin:miter;stroke-opacity:1"
         d="m 370.88072,283.65268 c -2.20213,-26.6346 -31.99857,-30.59685 -40.32809,-30.17276 11.1883,2.32103 31.63295,13.26928 36.56385,28.86934 2.17671,1.0841 0.94021,0.60116 3.76424,1.30342 z"
         id="path7875"
         inkscape:connector-curvature="0"
         sodipodi:nodetypes="cccc" />
      <path
         transform="matrix(0.896404,0.44323794,-0.44323794,0.896404,77.437129,-95.540456)"
         sodipodi:nodetypes="cccc"
         inkscape:connector-curvature="0"
         id="path7877"
         d="m 434.36259,212.28068 c -20.21008,-23.6232 -37.17417,-15.62184 -41.87344,-12.99279 7.13933,-1.85842 27.49621,-2.21246 37.02382,13.71339 1.56999,0.004 3.01428,-0.31885 4.84962,-0.7206 z"
         style="fill:#999999;stroke:none;filter:url(#filter7883)" />
      <path
         sodipodi:nodetypes="csaccccssc"
         inkscape:connector-curvature="0"
         id="path7863"
         d="m 261.94265,324.18203 c -3.48623,-1.35326 -7.66969,-3.63267 -11.68066,4.4791 -1.85107,3.74362 5.89293,10.49158 10.79657,10.07145 6.21777,-0.53272 8.34056,-13.90588 11.3181,-14.9131 27.88696,-15.46652 69.01355,-30.1253 90.87473,-44.99204 2.56875,2.19063 2.46779,3.73187 4.29396,5.5419 -16.32308,9.47467 -81.2084,39.43726 -92.82392,44.46312 -0.14008,17.34495 -23.93978,19.70417 -28.59557,5.9408 -0.68584,-2.02748 1.51106,-5.46316 0.86165,-7.38292 -2.50148,-7.39485 15.83039,-13.64473 14.95513,-3.20833 z"
         style="fill:#808080;stroke:#000000;stroke-width:1px;stroke-linecap:butt;stroke-linejoin:miter;stroke-opacity:1" />
      <path
         sodipodi:nodetypes="ccssc"
         inkscape:connector-curvature="0"
         id="path7869"
         d="m 364.85118,281.9216 c -22.62794,-38.57388 -43.0454,-45.32055 -75.0639,-34.88512 27.9693,-21.92013 58.33907,-4.62639 74.76782,18.56299 1.38451,1.95425 7.54002,13.8717 5.65465,14.50947 -1.87125,0.633 -3.06362,0.6528 -5.35857,1.81266 z"
         style="fill:#808080;stroke:#000000;stroke-width:1px;stroke-linecap:butt;stroke-linejoin:miter;stroke-opacity:1" />
      <path
         style="fill:#808080;stroke:#000000;stroke-width:0.85820025px;stroke-linecap:butt;stroke-linejoin:miter;stroke-opacity:1"
         d="m 364.03203,280.06986 c 16.17373,34.36141 18.23206,50.95475 -4.04987,70.61134 28.35929,-11.46645 23.64643,-40.31331 15.24989,-63.11519 -0.7076,-1.92159 -6.09673,-11.90343 -7.42495,-10.75635 -1.31829,1.13849 -1.89166,2.03499 -3.77507,3.2602 z"
         id="path7871"
         inkscape:connector-curvature="0"
         sodipodi:nodetypes="ccssc" />
      <path
         transform="matrix(0.896404,0.44323794,-0.44323794,0.896404,77.437129,-95.540456)"
         inkscape:connector-curvature="0"
         id="path7899"
         d="m 426.40625,207.90625 c -0.60599,3.1725 5.03862,4.75556 6.88069,7.34243 12.52743,10.51903 26.04593,24.52829 24.30681,42.28257 -0.53643,4.98402 0.99007,-3.37162 0.71875,-5.21875 -0.73907,-16.63882 -12.78884,-29.9531 -24.3125,-40.53125 -2.16085,-1.13464 -5.95738,-5.26274 -7.59375,-3.875 z"
         style="fill:#999999;stroke:none;filter:url(#filter7907)" />
      <path
         sodipodi:nodetypes="cccc"
         inkscape:connector-curvature="0"
         id="path7873"
         d="m 370.52896,280.05087 c 3.46947,39.24232 -38.16974,52.50433 -50.53796,54.36918 15.88477,-6.69274 43.22141,-28.63929 46.54915,-52.70753 2.93113,-2.21835 0.009,0.1963 3.98881,-1.66165 z"
         style="fill:#808080;stroke:#000000;stroke-width:1.11290145px;stroke-linecap:butt;stroke-linejoin:miter;stroke-opacity:1" />
      <path
         transform="matrix(0.896404,0.44323794,-0.44323794,0.896404,77.437129,-95.540456)"
         sodipodi:nodetypes="ccccccc"
         inkscape:connector-curvature="0"
         id="path7911"
         d="m 376.47586,188.92217 c -7.67021,0.20171 -15.67419,5.47685 -21.0625,11.15625 11.81574,-8.68626 27.03568,-14.01116 40.03125,-7.96875 10.32408,4.25022 20.22038,12.31714 29.65533,18.30882 2.45054,-1.45601 1.49366,-5.07657 -0.90533,-6.43382 -11.77744,-9.72117 -26.83974,-15.61614 -41.6477,-18.00545 -2.42678,-0.2911 -3.62735,2.84395 -6.07105,2.94295 z"
         style="fill:#999999;stroke:none;filter:url(#filter7919)" />
      <path
         transform="matrix(0.896404,0.44323794,-0.44323794,0.896404,77.437129,-95.540456)"
         inkscape:connector-curvature="0"
         id="path7887"
         d="m 428.5625,210.15625 c 5.18951,18.40984 -0.9494,38.34741 -9.53125,54.75 12.40533,-13.497 19.81425,-34.36831 11.25,-51.84375 -0.6097,-0.43936 -0.88184,-3.09955 -1.71875,-2.90625 z"
         style="fill:#999999;stroke:none;filter:url(#filter7895)" />
      <path
         transform="matrix(0.896404,0.44323794,-0.44323794,0.896404,71.891452,308.11584)"
         inkscape:connector-curvature="0"
         id="path7923"
         d="m 250.625,-161.45648 8.125,6.5 -7.125,4.875 -4.25,-2.625 2.625,-4.875 z"
         style="fill:#808080;stroke:none;filter:url(#filter7937)" />
    </g>
    <path
       style="fill:none;stroke:#000000;stroke-width:1px;stroke-linecap:butt;stroke-linejoin:miter;stroke-opacity:1"
       d="m 81.670833,-35.541421 c 3.176979,2.595373 -16.602616,1.598187 -14.142135,2.828428 2.605443,1.302721 10.392609,-1.98176 12.374368,0 0.482649,0.482648 -12.374368,3.300551 -12.374368,2.12132 0,-0.824958 1.649915,0 2.474873,0 2.85556,0 5.198904,-0.672308 7.424622,-1.414214"
       id="path3048"
       inkscape:connector-curvature="0"
       transform="translate(173.94461,364.29717)" />
  </g>
</svg>
