<?xml version="1.0" encoding="UTF-8" standalone="no"?>
<!-- Created with Inkscape (http://www.inkscape.org/) -->

<svg
   xmlns:dc="http://purl.org/dc/elements/1.1/"
   xmlns:cc="http://creativecommons.org/ns#"
   xmlns:rdf="http://www.w3.org/1999/02/22-rdf-syntax-ns#"
   xmlns:svg="http://www.w3.org/2000/svg"
   xmlns="http://www.w3.org/2000/svg"
   xmlns:xlink="http://www.w3.org/1999/xlink"
   xmlns:sodipodi="http://sodipodi.sourceforge.net/DTD/sodipodi-0.dtd"
   xmlns:inkscape="http://www.inkscape.org/namespaces/inkscape"
   width="549.29822"
   height="674.35742"
   id="svg2"
   version="1.1"
   inkscape:version="0.48.4 r9939"
   sodipodi:docname="nunchaku.svg">
  <defs
     id="defs4">
    <linearGradient
       id="linearGradient4001">
      <stop
         style="stop-color:#666666;stop-opacity:1"
         offset="0"
         id="stop4003" />
      <stop
         id="stop4013"
         offset="0.27236387"
         style="stop-color:#cccccc;stop-opacity:1" />
      <stop
         id="stop4011"
         offset="0.5153414"
         style="stop-color:#b3b3b3;stop-opacity:1" />
      <stop
         id="stop4009"
         offset="0.73336214"
         style="stop-color:#cccccc;stop-opacity:1" />
      <stop
         style="stop-color:#4d4d4d;stop-opacity:1"
         offset="1"
         id="stop4005" />
    </linearGradient>
    <linearGradient
       inkscape:collect="always"
       id="linearGradient3786">
      <stop
         style="stop-color:#ffffff;stop-opacity:1"
         offset="0"
         id="stop3788" />
      <stop
         style="stop-color:#999999;stop-opacity:1"
         offset="1"
         id="stop3790" />
    </linearGradient>
    <filter
       inkscape:collect="always"
       id="filter3761"
       x="-0.58285707"
       width="2.1657143"
       y="-0.025030674"
       height="1.0500613"
       color-interpolation-filters="sRGB">
      <feGaussianBlur
         inkscape:collect="always"
         stdDeviation="4.857143"
         id="feGaussianBlur3763" />
    </filter>
    <linearGradient
       inkscape:collect="always"
       xlink:href="#linearGradient3786"
       id="linearGradient3792"
       x1="-363.65491"
       y1="300.80869"
       x2="-414.16254"
       y2="431.11838"
       gradientUnits="userSpaceOnUse"
       gradientTransform="matrix(0.32482178,0,0,0.32482178,-22.061759,24.943987)" />
    <linearGradient
       inkscape:collect="always"
       xlink:href="#linearGradient3786"
       id="linearGradient3798"
       gradientUnits="userSpaceOnUse"
       gradientTransform="matrix(0.32482178,0,0,0.32482178,-24.012828,6.0836393)"
       x1="-363.65491"
       y1="300.80869"
       x2="-414.16254"
       y2="431.11838" />
    <linearGradient
       inkscape:collect="always"
       xlink:href="#linearGradient3786"
       id="linearGradient3810"
       gradientUnits="userSpaceOnUse"
       gradientTransform="matrix(0.71350232,0,0,0.71350232,124.41946,-218.1512)"
       x1="-363.65491"
       y1="300.80869"
       x2="-414.16254"
       y2="431.11838" />
    <linearGradient
       inkscape:collect="always"
       xlink:href="#linearGradient3786"
       id="linearGradient3818"
       gradientUnits="userSpaceOnUse"
       gradientTransform="matrix(0.71350232,0,0,0.71350232,124.41946,-218.1512)"
       x1="-363.65491"
       y1="300.80869"
       x2="-414.16254"
       y2="431.11838" />
    <linearGradient
       inkscape:collect="always"
       xlink:href="#linearGradient3786"
       id="linearGradient3871"
       gradientUnits="userSpaceOnUse"
       gradientTransform="matrix(0.32482178,0,0,0.32482178,-22.061759,24.943987)"
       x1="-363.65491"
       y1="300.80869"
       x2="-414.16254"
       y2="431.11838" />
    <linearGradient
       inkscape:collect="always"
       xlink:href="#linearGradient3786"
       id="linearGradient3873"
       gradientUnits="userSpaceOnUse"
       gradientTransform="matrix(0.32482178,0,0,0.32482178,-24.012828,6.0836393)"
       x1="-363.65491"
       y1="300.80869"
       x2="-414.16254"
       y2="431.11838" />
    <linearGradient
       inkscape:collect="always"
       xlink:href="#linearGradient3786"
       id="linearGradient3875"
       gradientUnits="userSpaceOnUse"
       gradientTransform="matrix(0.71350232,0,0,0.71350232,124.41946,-218.1512)"
       x1="-363.65491"
       y1="300.80869"
       x2="-414.16254"
       y2="431.11838" />
    <linearGradient
       inkscape:collect="always"
       xlink:href="#linearGradient3786"
       id="linearGradient3877"
       gradientUnits="userSpaceOnUse"
       gradientTransform="matrix(0.71350232,0,0,0.71350232,124.41946,-218.1512)"
       x1="-363.65491"
       y1="300.80869"
       x2="-414.16254"
       y2="431.11838" />
    <linearGradient
       inkscape:collect="always"
       xlink:href="#linearGradient3786"
       id="linearGradient3879"
       gradientUnits="userSpaceOnUse"
       gradientTransform="matrix(0.71350232,0,0,0.71350232,124.41946,-218.1512)"
       x1="-363.65491"
       y1="300.80869"
       x2="-414.16254"
       y2="431.11838" />
    <linearGradient
       inkscape:collect="always"
       xlink:href="#linearGradient3786"
       id="linearGradient3909"
       gradientUnits="userSpaceOnUse"
       gradientTransform="matrix(0.32482178,0,0,0.32482178,-22.061759,24.943987)"
       x1="-363.65491"
       y1="300.80869"
       x2="-414.16254"
       y2="431.11838" />
    <linearGradient
       inkscape:collect="always"
       xlink:href="#linearGradient3786"
       id="linearGradient3911"
       gradientUnits="userSpaceOnUse"
       gradientTransform="matrix(0.32482178,0,0,0.32482178,-24.012828,6.0836393)"
       x1="-363.65491"
       y1="300.80869"
       x2="-414.16254"
       y2="431.11838" />
    <linearGradient
       inkscape:collect="always"
       xlink:href="#linearGradient3786"
       id="linearGradient3913"
       gradientUnits="userSpaceOnUse"
       gradientTransform="matrix(0.71350232,0,0,0.71350232,124.41946,-218.1512)"
       x1="-363.65491"
       y1="300.80869"
       x2="-414.16254"
       y2="431.11838" />
    <linearGradient
       inkscape:collect="always"
       xlink:href="#linearGradient3786"
       id="linearGradient3915"
       gradientUnits="userSpaceOnUse"
       gradientTransform="matrix(0.71350232,0,0,0.71350232,124.41946,-218.1512)"
       x1="-363.65491"
       y1="300.80869"
       x2="-414.16254"
       y2="431.11838" />
    <linearGradient
       inkscape:collect="always"
       xlink:href="#linearGradient3786"
       id="linearGradient3917"
       gradientUnits="userSpaceOnUse"
       gradientTransform="matrix(0.71350232,0,0,0.71350232,124.41946,-218.1512)"
       x1="-363.65491"
       y1="300.80869"
       x2="-414.16254"
       y2="431.11838" />
    <linearGradient
       inkscape:collect="always"
       xlink:href="#linearGradient3786"
       id="linearGradient3947"
       gradientUnits="userSpaceOnUse"
       gradientTransform="matrix(0.32482178,0,0,0.32482178,-22.061759,24.943987)"
       x1="-363.65491"
       y1="300.80869"
       x2="-414.16254"
       y2="431.11838" />
    <linearGradient
       inkscape:collect="always"
       xlink:href="#linearGradient3786"
       id="linearGradient3949"
       gradientUnits="userSpaceOnUse"
       gradientTransform="matrix(0.32482178,0,0,0.32482178,-24.012828,6.0836393)"
       x1="-363.65491"
       y1="300.80869"
       x2="-414.16254"
       y2="431.11838" />
    <linearGradient
       inkscape:collect="always"
       xlink:href="#linearGradient3786"
       id="linearGradient3951"
       gradientUnits="userSpaceOnUse"
       gradientTransform="matrix(0.71350232,0,0,0.71350232,124.41946,-218.1512)"
       x1="-363.65491"
       y1="300.80869"
       x2="-414.16254"
       y2="431.11838" />
    <linearGradient
       inkscape:collect="always"
       xlink:href="#linearGradient3786"
       id="linearGradient3953"
       gradientUnits="userSpaceOnUse"
       gradientTransform="matrix(0.71350232,0,0,0.71350232,124.41946,-218.1512)"
       x1="-363.65491"
       y1="300.80869"
       x2="-414.16254"
       y2="431.11838" />
    <linearGradient
       inkscape:collect="always"
       xlink:href="#linearGradient3786"
       id="linearGradient3955"
       gradientUnits="userSpaceOnUse"
       gradientTransform="matrix(0.71350232,0,0,0.71350232,124.41946,-218.1512)"
       x1="-363.65491"
       y1="300.80869"
       x2="-414.16254"
       y2="431.11838" />
    <linearGradient
       inkscape:collect="always"
       xlink:href="#linearGradient3786"
       id="linearGradient3957"
       gradientUnits="userSpaceOnUse"
       gradientTransform="matrix(0.71350232,0,0,0.71350232,124.41946,-218.1512)"
       x1="-363.65491"
       y1="300.80869"
       x2="-414.16254"
       y2="431.11838" />
    <linearGradient
       inkscape:collect="always"
       xlink:href="#linearGradient3786"
       id="linearGradient3987"
       gradientUnits="userSpaceOnUse"
       gradientTransform="matrix(0.32482178,0,0,0.32482178,-22.061759,24.943987)"
       x1="-363.65491"
       y1="300.80869"
       x2="-414.16254"
       y2="431.11838" />
    <linearGradient
       inkscape:collect="always"
       xlink:href="#linearGradient3786"
       id="linearGradient3989"
       gradientUnits="userSpaceOnUse"
       gradientTransform="matrix(0.32482178,0,0,0.32482178,-24.012828,6.0836393)"
       x1="-363.65491"
       y1="300.80869"
       x2="-414.16254"
       y2="431.11838" />
    <linearGradient
       inkscape:collect="always"
       xlink:href="#linearGradient3786"
       id="linearGradient3991"
       gradientUnits="userSpaceOnUse"
       gradientTransform="matrix(0.71350232,0,0,0.71350232,124.41946,-218.1512)"
       x1="-363.65491"
       y1="300.80869"
       x2="-414.16254"
       y2="431.11838" />
    <linearGradient
       inkscape:collect="always"
       xlink:href="#linearGradient3786"
       id="linearGradient3993"
       gradientUnits="userSpaceOnUse"
       gradientTransform="matrix(0.71350232,0,0,0.71350232,124.41946,-218.1512)"
       x1="-363.65491"
       y1="300.80869"
       x2="-414.16254"
       y2="431.11838" />
    <linearGradient
       inkscape:collect="always"
       xlink:href="#linearGradient3786"
       id="linearGradient3995"
       gradientUnits="userSpaceOnUse"
       gradientTransform="matrix(0.71350232,0,0,0.71350232,124.41946,-218.1512)"
       x1="-363.65491"
       y1="300.80869"
       x2="-414.16254"
       y2="431.11838" />
    <linearGradient
       inkscape:collect="always"
       xlink:href="#linearGradient4001"
       id="linearGradient4007"
       x1="-172.14285"
       y1="189.50504"
       x2="-123.57143"
       y2="188.07646"
       gradientUnits="userSpaceOnUse"
       gradientTransform="translate(56.556898,54.596604)" />
    <linearGradient
       inkscape:collect="always"
       xlink:href="#linearGradient4001"
       id="linearGradient4017"
       gradientUnits="userSpaceOnUse"
       gradientTransform="translate(124.49568,-48.073273)"
       x1="-172.14285"
       y1="189.50504"
       x2="-123.57143"
       y2="188.07646" />
  </defs>
  <sodipodi:namedview
     id="base"
     pagecolor="#ffffff"
     bordercolor="#666666"
     borderopacity="1.0"
     inkscape:pageopacity="0.0"
     inkscape:pageshadow="2"
     inkscape:zoom="0.35"
     inkscape:cx="-14.787826"
     inkscape:cy="467.86624"
     inkscape:document-units="px"
     inkscape:current-layer="layer1"
     showgrid="false"
     inkscape:window-width="1366"
     inkscape:window-height="705"
     inkscape:window-x="-8"
     inkscape:window-y="-8"
     inkscape:window-maximized="1"
     fit-margin-top="0"
     fit-margin-left="0"
     fit-margin-right="0"
     fit-margin-bottom="0" />
  <metadata
     id="metadata7">
    <rdf:RDF>
      <cc:Work
         rdf:about="">
        <dc:format>image/svg+xml</dc:format>
        <dc:type
           rdf:resource="http://purl.org/dc/dcmitype/StillImage" />
        <dc:title></dc:title>
      </cc:Work>
    </rdf:RDF>
  </metadata>
  <g
     inkscape:label="Layer 1"
     inkscape:groupmode="layer"
     id="layer1"
     transform="translate(378.50718,7.2391209)">
    <g
       transform="matrix(-0.98351043,-0.1808514,0.1808514,-0.98351043,-317.48697,217.85154)"
       id="g3959">
      <path
         style="fill:#999999;fill-opacity:1;fill-rule:evenodd;stroke:none"
         d="m -150.275,125.60829 c -6.95458,0 -12.54625,8.0501 -12.54625,18.04791 0,9.9978 5.59167,18.0479 12.54625,18.0479 l 0.8222,0 c 6.95457,0 12.54624,-8.0501 12.54624,-18.0479 0,-9.99781 -5.59167,-18.04791 -12.54624,-18.04791 l -0.8222,0 z m 0.15225,6.39492 0.51769,0 c 4.48967,0 8.11039,5.19871 8.11039,11.65299 0,6.45427 -3.62072,11.64282 -8.11039,11.64282 l -0.51769,0 c -4.48966,0 -8.11039,-5.18855 -8.11039,-11.64282 0,-6.45428 3.62073,-11.65299 8.11039,-11.65299 z"
         id="path3961"
         inkscape:connector-curvature="0" />
      <path
         style="fill:url(#linearGradient3987);fill-opacity:1;fill-rule:evenodd;stroke:none"
         d="m -150.06184,126.87712 c -6.06414,0.1159 -9.83914,6.19633 -10.88153,11.54133 -1.59457,7.26004 -0.0251,16.06279 6.21222,20.64648 4.35571,2.85385 10.71194,1.01311 13.15528,-3.53244 4.70254,-7.20285 4.48903,-17.22775 -0.31467,-24.28043 -1.88512,-2.53689 -4.86082,-4.59525 -8.1713,-4.37494 z m 0.37557,3.79635 c 5.31782,0.11023 8.7632,5.5105 9.28652,10.36007 0.93359,5.69883 -1.10555,12.75783 -6.74884,15.13844 -4.37536,1.65992 -9.34585,-1.28339 -10.89169,-5.51182 -2.85396,-6.18089 -1.79582,-14.78048 4.05013,-18.83966 1.28719,-0.80979 2.78575,-1.16603 4.30388,-1.14703 z"
         id="path3963"
         inkscape:connector-curvature="0" />
      <path
         inkscape:connector-curvature="0"
         id="path3965"
         d="m -152.22607,106.74794 c -6.95458,0 -12.54625,8.0501 -12.54625,18.04791 0,9.9978 5.59167,18.04791 12.54625,18.04791 l 0.8222,0 c 6.95457,0 12.54624,-8.05011 12.54624,-18.04791 0,-9.99781 -5.59167,-18.04791 -12.54624,-18.04791 l -0.8222,0 z m 0.15226,6.39492 0.51768,0 c 4.48967,0 8.1104,5.19871 8.1104,11.65299 0,6.45427 -3.62073,11.64283 -8.1104,11.64283 l -0.51768,0 c -4.48967,0 -8.1104,-5.18856 -8.1104,-11.64283 0,-6.45428 3.62073,-11.65299 8.1104,-11.65299 z"
         style="fill:#999999;fill-opacity:1;fill-rule:evenodd;stroke:none" />
      <path
         inkscape:connector-curvature="0"
         id="path3967"
         d="m -152.01291,108.01678 c -6.06414,0.11589 -9.83914,6.19633 -10.88153,11.54132 -1.59457,7.26004 -0.0251,16.0628 6.21222,20.64648 4.35571,2.85385 10.71194,1.01312 13.15528,-3.53243 4.70254,-7.20285 4.48903,-17.22776 -0.31467,-24.28043 -1.88512,-2.5369 -4.86082,-4.59526 -8.1713,-4.37494 z m 0.37557,3.79635 c 5.31782,0.11023 8.7632,5.51049 9.28652,10.36006 0.93359,5.69884 -1.10554,12.75783 -6.74884,15.13845 -4.37535,1.65992 -9.34585,-1.2834 -10.89169,-5.51182 -2.85396,-6.18089 -1.79582,-14.78049 4.05013,-18.83967 1.28719,-0.80978 2.78575,-1.16603 4.30388,-1.14702 z"
         style="fill:url(#linearGradient3989);fill-opacity:1;fill-rule:evenodd;stroke:none" />
      <g
         id="g3969"
         transform="matrix(0.41683935,0.18302275,-0.18302275,0.41683935,-76.258383,114.83057)">
        <path
           inkscape:connector-curvature="0"
           id="path3971"
           d="m -157.21328,2.9676373 c -15.27639,0 -27.55903,17.6828257 -27.55903,39.6439657 0,21.961141 12.28264,39.643971 27.55903,39.643971 l 1.80605,0 c 15.27639,0 27.55903,-17.68283 27.55903,-39.643971 0,-21.96114 -12.28264,-39.6439657 -27.55903,-39.6439657 l -1.80605,0 z m 0.33445,14.0470657 1.13715,0 c 9.86198,0 17.81526,11.41946 17.81526,25.5969 0,14.177441 -7.95328,25.574601 -17.81526,25.574601 l -1.13715,0 c -9.86198,0 -17.81526,-11.39716 -17.81526,-25.574601 0,-14.17744 7.95328,-25.5969 17.81526,-25.5969 z"
           style="fill:#999999;fill-opacity:1;fill-rule:evenodd;stroke:none" />
        <path
           inkscape:connector-curvature="0"
           id="path3973"
           d="m -156.74505,5.7547573 c -13.32046,0.25457 -21.61262,13.6108357 -23.90232,25.3516257 -3.50263,15.94739 -0.0551,35.283481 13.64573,45.351991 9.56775,6.26876 23.52981,2.22541 28.89684,-7.75934 10.32958,-15.821741 9.8606,-37.842421 -0.6912,-53.334301 -4.14085,-5.5725357 -10.67725,-10.0939257 -17.94905,-9.6099757 z m 0.82499,8.3390457 c 11.6811,0.24213 19.2492,12.10433 20.39872,22.75689 2.05072,12.51803 -2.42843,28.023801 -14.82448,33.253051 -9.61088,3.64617 -20.52905,-2.8191 -23.92463,-12.10725 -6.26901,-13.576911 -3.94469,-32.466751 8.89649,-41.383131 2.82744,-1.77878 6.11918,-2.5613 9.4539,-2.51956 z"
           style="fill:url(#linearGradient3991);fill-opacity:1;fill-rule:evenodd;stroke:none" />
      </g>
      <g
         transform="matrix(0.41683935,0.18302275,-0.18302275,0.41683935,-65.202317,103.12415)"
         id="g3975">
        <path
           style="fill:#999999;fill-opacity:1;fill-rule:evenodd;stroke:none"
           d="m -157.21328,2.9676373 c -15.27639,0 -27.55903,17.6828257 -27.55903,39.6439657 0,21.961141 12.28264,39.643971 27.55903,39.643971 l 1.80605,0 c 15.27639,0 27.55903,-17.68283 27.55903,-39.643971 0,-21.96114 -12.28264,-39.6439657 -27.55903,-39.6439657 l -1.80605,0 z m 0.33445,14.0470657 1.13715,0 c 9.86198,0 17.81526,11.41946 17.81526,25.5969 0,14.177441 -7.95328,25.574601 -17.81526,25.574601 l -1.13715,0 c -9.86198,0 -17.81526,-11.39716 -17.81526,-25.574601 0,-14.17744 7.95328,-25.5969 17.81526,-25.5969 z"
           id="path3977"
           inkscape:connector-curvature="0" />
        <path
           style="fill:url(#linearGradient3993);fill-opacity:1;fill-rule:evenodd;stroke:none"
           d="m -156.74505,5.7547573 c -13.32046,0.25457 -21.61262,13.6108357 -23.90232,25.3516257 -3.50263,15.94739 -0.0551,35.283481 13.64573,45.351991 9.56775,6.26876 23.52981,2.22541 28.89684,-7.75934 10.32958,-15.821741 9.8606,-37.842421 -0.6912,-53.334301 -4.14085,-5.5725357 -10.67725,-10.0939257 -17.94905,-9.6099757 z m 0.82499,8.3390457 c 11.6811,0.24213 19.2492,12.10433 20.39872,22.75689 2.05072,12.51803 -2.42843,28.023801 -14.82448,33.253051 -9.61088,3.64617 -20.52905,-2.8191 -23.92463,-12.10725 -6.26901,-13.576911 -3.94469,-32.466751 8.89649,-41.383131 2.82744,-1.77878 6.11918,-2.5613 9.4539,-2.51956 z"
           id="path3979"
           inkscape:connector-curvature="0" />
      </g>
      <g
         id="g3981"
         transform="matrix(0.41683935,0.18302275,-0.18302275,0.41683935,-65.202317,103.12415)">
        <path
           inkscape:connector-curvature="0"
           id="path3983"
           d="m -157.21328,2.9676373 c -15.27639,0 -27.55903,17.6828257 -27.55903,39.6439657 0,21.961141 12.28264,39.643971 27.55903,39.643971 l 1.80605,0 c 15.27639,0 27.55903,-17.68283 27.55903,-39.643971 0,-21.96114 -12.28264,-39.6439657 -27.55903,-39.6439657 l -1.80605,0 z m 0.33445,14.0470657 1.13715,0 c 9.86198,0 17.81526,11.41946 17.81526,25.5969 0,14.177441 -7.95328,25.574601 -17.81526,25.574601 l -1.13715,0 c -9.86198,0 -17.81526,-11.39716 -17.81526,-25.574601 0,-14.17744 7.95328,-25.5969 17.81526,-25.5969 z"
           style="fill:#999999;fill-opacity:1;fill-rule:evenodd;stroke:none" />
        <path
           inkscape:connector-curvature="0"
           id="path3985"
           d="m -156.74505,5.7547573 c -13.32046,0.25457 -21.61262,13.6108357 -23.90232,25.3516257 -3.50263,15.94739 -0.0551,35.283481 13.64573,45.351991 9.56775,6.26876 23.52981,2.22541 28.89684,-7.75934 10.32958,-15.821741 9.8606,-37.842421 -0.6912,-53.334301 -4.14085,-5.5725357 -10.67725,-10.0939257 -17.94905,-9.6099757 z m 0.82499,8.3390457 c 11.6811,0.24213 19.2492,12.10433 20.39872,22.75689 2.05072,12.51803 -2.42843,28.023801 -14.82448,33.253051 -9.61088,3.64617 -20.52905,-2.8191 -23.92463,-12.10725 -6.26901,-13.576911 -3.94469,-32.466751 8.89649,-41.383131 2.82744,-1.77878 6.11918,-2.5613 9.4539,-2.51956 z"
           style="fill:url(#linearGradient3995);fill-opacity:1;fill-rule:evenodd;stroke:none" />
      </g>
    </g>
    <rect
       style="fill:url(#linearGradient4007);fill-opacity:1;fill-rule:evenodd;stroke:none"
       id="rect3997"
       width="42.857143"
       height="60.981312"
       x="-113.44311"
       y="212.67305"
       rx="12.092181"
       ry="22.633512"
       transform="matrix(0.93260364,0.36090228,-0.36090228,0.93260364,0,0)" />
    <g
       id="g3765"
       transform="matrix(0.93499401,0.3546635,-0.3546635,0.93499401,42.663592,151.72849)">
      <rect
         ry="20.262518"
         rx="54.548233"
         y="118.07647"
         x="-222.85715"
         height="500"
         width="71.428574"
         id="rect2985"
         style="fill:#000000;fill-opacity:1;fill-rule:evenodd;stroke:none" />
      <rect
         style="fill:#666666;fill-opacity:1;fill-rule:evenodd;stroke:none;filter:url(#filter3761)"
         id="rect2987"
         width="20.000002"
         height="465.71429"
         x="-197.14287"
         y="135.21933"
         rx="15.273506"
         ry="18.873089" />
    </g>
    <g
       id="g3919"
       transform="matrix(-0.96181015,-0.27371742,-0.27371742,0.96181015,-92.73014,-79.231469)">
      <path
         style="fill:#999999;fill-opacity:1;fill-rule:evenodd;stroke:none"
         d="m -150.275,125.60829 c -6.95458,0 -12.54625,8.0501 -12.54625,18.04791 0,9.9978 5.59167,18.0479 12.54625,18.0479 l 0.8222,0 c 6.95457,0 12.54624,-8.0501 12.54624,-18.0479 0,-9.99781 -5.59167,-18.04791 -12.54624,-18.04791 l -0.8222,0 z m 0.15225,6.39492 0.51769,0 c 4.48967,0 8.11039,5.19871 8.11039,11.65299 0,6.45427 -3.62072,11.64282 -8.11039,11.64282 l -0.51769,0 c -4.48966,0 -8.11039,-5.18855 -8.11039,-11.64282 0,-6.45428 3.62073,-11.65299 8.11039,-11.65299 z"
         id="path3921"
         inkscape:connector-curvature="0" />
      <path
         style="fill:url(#linearGradient3947);fill-opacity:1;fill-rule:evenodd;stroke:none"
         d="m -150.06184,126.87712 c -6.06414,0.1159 -9.83914,6.19633 -10.88153,11.54133 -1.59457,7.26004 -0.0251,16.06279 6.21222,20.64648 4.35571,2.85385 10.71194,1.01311 13.15528,-3.53244 4.70254,-7.20285 4.48903,-17.22775 -0.31467,-24.28043 -1.88512,-2.53689 -4.86082,-4.59525 -8.1713,-4.37494 z m 0.37557,3.79635 c 5.31782,0.11023 8.7632,5.5105 9.28652,10.36007 0.93359,5.69883 -1.10555,12.75783 -6.74884,15.13844 -4.37536,1.65992 -9.34585,-1.28339 -10.89169,-5.51182 -2.85396,-6.18089 -1.79582,-14.78048 4.05013,-18.83966 1.28719,-0.80979 2.78575,-1.16603 4.30388,-1.14703 z"
         id="path3923"
         inkscape:connector-curvature="0" />
      <path
         inkscape:connector-curvature="0"
         id="path3925"
         d="m -152.22607,106.74794 c -6.95458,0 -12.54625,8.0501 -12.54625,18.04791 0,9.9978 5.59167,18.04791 12.54625,18.04791 l 0.8222,0 c 6.95457,0 12.54624,-8.05011 12.54624,-18.04791 0,-9.99781 -5.59167,-18.04791 -12.54624,-18.04791 l -0.8222,0 z m 0.15226,6.39492 0.51768,0 c 4.48967,0 8.1104,5.19871 8.1104,11.65299 0,6.45427 -3.62073,11.64283 -8.1104,11.64283 l -0.51768,0 c -4.48967,0 -8.1104,-5.18856 -8.1104,-11.64283 0,-6.45428 3.62073,-11.65299 8.1104,-11.65299 z"
         style="fill:#999999;fill-opacity:1;fill-rule:evenodd;stroke:none" />
      <path
         inkscape:connector-curvature="0"
         id="path3927"
         d="m -152.01291,108.01678 c -6.06414,0.11589 -9.83914,6.19633 -10.88153,11.54132 -1.59457,7.26004 -0.0251,16.0628 6.21222,20.64648 4.35571,2.85385 10.71194,1.01312 13.15528,-3.53243 4.70254,-7.20285 4.48903,-17.22776 -0.31467,-24.28043 -1.88512,-2.5369 -4.86082,-4.59526 -8.1713,-4.37494 z m 0.37557,3.79635 c 5.31782,0.11023 8.7632,5.51049 9.28652,10.36006 0.93359,5.69884 -1.10554,12.75783 -6.74884,15.13845 -4.37535,1.65992 -9.34585,-1.2834 -10.89169,-5.51182 -2.85396,-6.18089 -1.79582,-14.78049 4.05013,-18.83967 1.28719,-0.80978 2.78575,-1.16603 4.30388,-1.14702 z"
         style="fill:url(#linearGradient3949);fill-opacity:1;fill-rule:evenodd;stroke:none" />
      <g
         id="g3929"
         transform="matrix(0.41683935,0.18302275,-0.18302275,0.41683935,-76.258383,114.83057)">
        <path
           inkscape:connector-curvature="0"
           id="path3931"
           d="m -157.21328,2.9676373 c -15.27639,0 -27.55903,17.6828257 -27.55903,39.6439657 0,21.961141 12.28264,39.643971 27.55903,39.643971 l 1.80605,0 c 15.27639,0 27.55903,-17.68283 27.55903,-39.643971 0,-21.96114 -12.28264,-39.6439657 -27.55903,-39.6439657 l -1.80605,0 z m 0.33445,14.0470657 1.13715,0 c 9.86198,0 17.81526,11.41946 17.81526,25.5969 0,14.177441 -7.95328,25.574601 -17.81526,25.574601 l -1.13715,0 c -9.86198,0 -17.81526,-11.39716 -17.81526,-25.574601 0,-14.17744 7.95328,-25.5969 17.81526,-25.5969 z"
           style="fill:#999999;fill-opacity:1;fill-rule:evenodd;stroke:none" />
        <path
           inkscape:connector-curvature="0"
           id="path3933"
           d="m -156.74505,5.7547573 c -13.32046,0.25457 -21.61262,13.6108357 -23.90232,25.3516257 -3.50263,15.94739 -0.0551,35.283481 13.64573,45.351991 9.56775,6.26876 23.52981,2.22541 28.89684,-7.75934 10.32958,-15.821741 9.8606,-37.842421 -0.6912,-53.334301 -4.14085,-5.5725357 -10.67725,-10.0939257 -17.94905,-9.6099757 z m 0.82499,8.3390457 c 11.6811,0.24213 19.2492,12.10433 20.39872,22.75689 2.05072,12.51803 -2.42843,28.023801 -14.82448,33.253051 -9.61088,3.64617 -20.52905,-2.8191 -23.92463,-12.10725 -6.26901,-13.576911 -3.94469,-32.466751 8.89649,-41.383131 2.82744,-1.77878 6.11918,-2.5613 9.4539,-2.51956 z"
           style="fill:url(#linearGradient3951);fill-opacity:1;fill-rule:evenodd;stroke:none" />
      </g>
      <g
         transform="matrix(0.41683935,0.18302275,-0.18302275,0.41683935,-65.202317,103.12415)"
         id="g3935">
        <path
           style="fill:#999999;fill-opacity:1;fill-rule:evenodd;stroke:none"
           d="m -157.21328,2.9676373 c -15.27639,0 -27.55903,17.6828257 -27.55903,39.6439657 0,21.961141 12.28264,39.643971 27.55903,39.643971 l 1.80605,0 c 15.27639,0 27.55903,-17.68283 27.55903,-39.643971 0,-21.96114 -12.28264,-39.6439657 -27.55903,-39.6439657 l -1.80605,0 z m 0.33445,14.0470657 1.13715,0 c 9.86198,0 17.81526,11.41946 17.81526,25.5969 0,14.177441 -7.95328,25.574601 -17.81526,25.574601 l -1.13715,0 c -9.86198,0 -17.81526,-11.39716 -17.81526,-25.574601 0,-14.17744 7.95328,-25.5969 17.81526,-25.5969 z"
           id="path3937"
           inkscape:connector-curvature="0" />
        <path
           style="fill:url(#linearGradient3953);fill-opacity:1;fill-rule:evenodd;stroke:none"
           d="m -156.74505,5.7547573 c -13.32046,0.25457 -21.61262,13.6108357 -23.90232,25.3516257 -3.50263,15.94739 -0.0551,35.283481 13.64573,45.351991 9.56775,6.26876 23.52981,2.22541 28.89684,-7.75934 10.32958,-15.821741 9.8606,-37.842421 -0.6912,-53.334301 -4.14085,-5.5725357 -10.67725,-10.0939257 -17.94905,-9.6099757 z m 0.82499,8.3390457 c 11.6811,0.24213 19.2492,12.10433 20.39872,22.75689 2.05072,12.51803 -2.42843,28.023801 -14.82448,33.253051 -9.61088,3.64617 -20.52905,-2.8191 -23.92463,-12.10725 -6.26901,-13.576911 -3.94469,-32.466751 8.89649,-41.383131 2.82744,-1.77878 6.11918,-2.5613 9.4539,-2.51956 z"
           id="path3939"
           inkscape:connector-curvature="0" />
      </g>
      <g
         id="g3941"
         transform="matrix(0.41683935,0.18302275,-0.18302275,0.41683935,-65.202317,103.12415)">
        <path
           inkscape:connector-curvature="0"
           id="path3943"
           d="m -157.21328,2.9676373 c -15.27639,0 -27.55903,17.6828257 -27.55903,39.6439657 0,21.961141 12.28264,39.643971 27.55903,39.643971 l 1.80605,0 c 15.27639,0 27.55903,-17.68283 27.55903,-39.643971 0,-21.96114 -12.28264,-39.6439657 -27.55903,-39.6439657 l -1.80605,0 z m 0.33445,14.0470657 1.13715,0 c 9.86198,0 17.81526,11.41946 17.81526,25.5969 0,14.177441 -7.95328,25.574601 -17.81526,25.574601 l -1.13715,0 c -9.86198,0 -17.81526,-11.39716 -17.81526,-25.574601 0,-14.17744 7.95328,-25.5969 17.81526,-25.5969 z"
           style="fill:#999999;fill-opacity:1;fill-rule:evenodd;stroke:none" />
        <path
           inkscape:connector-curvature="0"
           id="path3945"
           d="m -156.74505,5.7547573 c -13.32046,0.25457 -21.61262,13.6108357 -23.90232,25.3516257 -3.50263,15.94739 -0.0551,35.283481 13.64573,45.351991 9.56775,6.26876 23.52981,2.22541 28.89684,-7.75934 10.32958,-15.821741 9.8606,-37.842421 -0.6912,-53.334301 -4.14085,-5.5725357 -10.67725,-10.0939257 -17.94905,-9.6099757 z m 0.82499,8.3390457 c 11.6811,0.24213 19.2492,12.10433 20.39872,22.75689 2.05072,12.51803 -2.42843,28.023801 -14.82448,33.253051 -9.61088,3.64617 -20.52905,-2.8191 -23.92463,-12.10725 -6.26901,-13.576911 -3.94469,-32.466751 8.89649,-41.383131 2.82744,-1.77878 6.11918,-2.5613 9.4539,-2.51956 z"
           style="fill:url(#linearGradient3955);fill-opacity:1;fill-rule:evenodd;stroke:none" />
      </g>
    </g>
    <rect
       transform="matrix(0.97014857,-0.24251135,0.24251135,0.97014857,0,0)"
       ry="22.633512"
       rx="12.092181"
       y="110.00317"
       x="-45.504326"
       height="60.981312"
       width="42.857143"
       id="rect4015"
       style="fill:url(#linearGradient4017);fill-opacity:1;fill-rule:evenodd;stroke:none" />
    <g
       id="g3769"
       transform="matrix(0.96592583,-0.25881905,0.25881905,0.96592583,161.92949,-20.894235)">
      <rect
         style="fill:#000000;fill-opacity:1;fill-rule:evenodd;stroke:none"
         id="rect3771"
         width="71.428574"
         height="500"
         x="-222.85715"
         y="118.07647"
         rx="54.548233"
         ry="20.262518" />
      <rect
         ry="18.873089"
         rx="15.273506"
         y="135.21933"
         x="-197.14287"
         height="465.71429"
         width="20.000002"
         id="rect3773"
         style="fill:#666666;fill-opacity:1;fill-rule:evenodd;stroke:none;filter:url(#filter3761)" />
    </g>
    <g
       id="g3828"
       transform="matrix(0.98351043,0.1808514,-0.1808514,0.98351043,34.12099,-17.540991)">
      <path
         inkscape:connector-curvature="0"
         id="rect3775"
         d="m -150.275,125.60829 c -6.95458,0 -12.54625,8.0501 -12.54625,18.04791 0,9.9978 5.59167,18.0479 12.54625,18.0479 l 0.8222,0 c 6.95457,0 12.54624,-8.0501 12.54624,-18.0479 0,-9.99781 -5.59167,-18.04791 -12.54624,-18.04791 l -0.8222,0 z m 0.15225,6.39492 0.51769,0 c 4.48967,0 8.11039,5.19871 8.11039,11.65299 0,6.45427 -3.62072,11.64282 -8.11039,11.64282 l -0.51769,0 c -4.48966,0 -8.11039,-5.18855 -8.11039,-11.64282 0,-6.45428 3.62073,-11.65299 8.11039,-11.65299 z"
         style="fill:#999999;fill-opacity:1;fill-rule:evenodd;stroke:none" />
      <path
         inkscape:connector-curvature="0"
         id="path3780"
         d="m -150.06184,126.87712 c -6.06414,0.1159 -9.83914,6.19633 -10.88153,11.54133 -1.59457,7.26004 -0.0251,16.06279 6.21222,20.64648 4.35571,2.85385 10.71194,1.01311 13.15528,-3.53244 4.70254,-7.20285 4.48903,-17.22775 -0.31467,-24.28043 -1.88512,-2.53689 -4.86082,-4.59525 -8.1713,-4.37494 z m 0.37557,3.79635 c 5.31782,0.11023 8.7632,5.5105 9.28652,10.36007 0.93359,5.69883 -1.10555,12.75783 -6.74884,15.13844 -4.37536,1.65992 -9.34585,-1.28339 -10.89169,-5.51182 -2.85396,-6.18089 -1.79582,-14.78048 4.05013,-18.83966 1.28719,-0.80979 2.78575,-1.16603 4.30388,-1.14703 z"
         style="fill:url(#linearGradient3792);fill-opacity:1;fill-rule:evenodd;stroke:none" />
      <path
         style="fill:#999999;fill-opacity:1;fill-rule:evenodd;stroke:none"
         d="m -152.22607,106.74794 c -6.95458,0 -12.54625,8.0501 -12.54625,18.04791 0,9.9978 5.59167,18.04791 12.54625,18.04791 l 0.8222,0 c 6.95457,0 12.54624,-8.05011 12.54624,-18.04791 0,-9.99781 -5.59167,-18.04791 -12.54624,-18.04791 l -0.8222,0 z m 0.15226,6.39492 0.51768,0 c 4.48967,0 8.1104,5.19871 8.1104,11.65299 0,6.45427 -3.62073,11.64283 -8.1104,11.64283 l -0.51768,0 c -4.48967,0 -8.1104,-5.18856 -8.1104,-11.64283 0,-6.45428 3.62073,-11.65299 8.1104,-11.65299 z"
         id="path3794"
         inkscape:connector-curvature="0" />
      <path
         style="fill:url(#linearGradient3798);fill-opacity:1;fill-rule:evenodd;stroke:none"
         d="m -152.01291,108.01678 c -6.06414,0.11589 -9.83914,6.19633 -10.88153,11.54132 -1.59457,7.26004 -0.0251,16.0628 6.21222,20.64648 4.35571,2.85385 10.71194,1.01312 13.15528,-3.53243 4.70254,-7.20285 4.48903,-17.22776 -0.31467,-24.28043 -1.88512,-2.5369 -4.86082,-4.59526 -8.1713,-4.37494 z m 0.37557,3.79635 c 5.31782,0.11023 8.7632,5.51049 9.28652,10.36006 0.93359,5.69884 -1.10554,12.75783 -6.74884,15.13845 -4.37535,1.65992 -9.34585,-1.2834 -10.89169,-5.51182 -2.85396,-6.18089 -1.79582,-14.78049 4.05013,-18.83967 1.28719,-0.80978 2.78575,-1.16603 4.30388,-1.14702 z"
         id="path3796"
         inkscape:connector-curvature="0" />
      <g
         transform="matrix(0.41683935,0.18302275,-0.18302275,0.41683935,-76.258383,114.83057)"
         id="g3806">
        <path
           style="fill:#999999;fill-opacity:1;fill-rule:evenodd;stroke:none"
           d="m -157.21328,2.9676373 c -15.27639,0 -27.55903,17.6828257 -27.55903,39.6439657 0,21.961141 12.28264,39.643971 27.55903,39.643971 l 1.80605,0 c 15.27639,0 27.55903,-17.68283 27.55903,-39.643971 0,-21.96114 -12.28264,-39.6439657 -27.55903,-39.6439657 l -1.80605,0 z m 0.33445,14.0470657 1.13715,0 c 9.86198,0 17.81526,11.41946 17.81526,25.5969 0,14.177441 -7.95328,25.574601 -17.81526,25.574601 l -1.13715,0 c -9.86198,0 -17.81526,-11.39716 -17.81526,-25.574601 0,-14.17744 7.95328,-25.5969 17.81526,-25.5969 z"
           id="path3800"
           inkscape:connector-curvature="0" />
        <path
           style="fill:url(#linearGradient3810);fill-opacity:1;fill-rule:evenodd;stroke:none"
           d="m -156.74505,5.7547573 c -13.32046,0.25457 -21.61262,13.6108357 -23.90232,25.3516257 -3.50263,15.94739 -0.0551,35.283481 13.64573,45.351991 9.56775,6.26876 23.52981,2.22541 28.89684,-7.75934 10.32958,-15.821741 9.8606,-37.842421 -0.6912,-53.334301 -4.14085,-5.5725357 -10.67725,-10.0939257 -17.94905,-9.6099757 z m 0.82499,8.3390457 c 11.6811,0.24213 19.2492,12.10433 20.39872,22.75689 2.05072,12.51803 -2.42843,28.023801 -14.82448,33.253051 -9.61088,3.64617 -20.52905,-2.8191 -23.92463,-12.10725 -6.26901,-13.576911 -3.94469,-32.466751 8.89649,-41.383131 2.82744,-1.77878 6.11918,-2.5613 9.4539,-2.51956 z"
           id="path3802"
           inkscape:connector-curvature="0" />
      </g>
      <g
         id="g3812"
         transform="matrix(0.41683935,0.18302275,-0.18302275,0.41683935,-65.202317,103.12415)">
        <path
           inkscape:connector-curvature="0"
           id="path3814"
           d="m -157.21328,2.9676373 c -15.27639,0 -27.55903,17.6828257 -27.55903,39.6439657 0,21.961141 12.28264,39.643971 27.55903,39.643971 l 1.80605,0 c 15.27639,0 27.55903,-17.68283 27.55903,-39.643971 0,-21.96114 -12.28264,-39.6439657 -27.55903,-39.6439657 l -1.80605,0 z m 0.33445,14.0470657 1.13715,0 c 9.86198,0 17.81526,11.41946 17.81526,25.5969 0,14.177441 -7.95328,25.574601 -17.81526,25.574601 l -1.13715,0 c -9.86198,0 -17.81526,-11.39716 -17.81526,-25.574601 0,-14.17744 7.95328,-25.5969 17.81526,-25.5969 z"
           style="fill:#999999;fill-opacity:1;fill-rule:evenodd;stroke:none" />
        <path
           inkscape:connector-curvature="0"
           id="path3816"
           d="m -156.74505,5.7547573 c -13.32046,0.25457 -21.61262,13.6108357 -23.90232,25.3516257 -3.50263,15.94739 -0.0551,35.283481 13.64573,45.351991 9.56775,6.26876 23.52981,2.22541 28.89684,-7.75934 10.32958,-15.821741 9.8606,-37.842421 -0.6912,-53.334301 -4.14085,-5.5725357 -10.67725,-10.0939257 -17.94905,-9.6099757 z m 0.82499,8.3390457 c 11.6811,0.24213 19.2492,12.10433 20.39872,22.75689 2.05072,12.51803 -2.42843,28.023801 -14.82448,33.253051 -9.61088,3.64617 -20.52905,-2.8191 -23.92463,-12.10725 -6.26901,-13.576911 -3.94469,-32.466751 8.89649,-41.383131 2.82744,-1.77878 6.11918,-2.5613 9.4539,-2.51956 z"
           style="fill:url(#linearGradient3957);fill-opacity:1;fill-rule:evenodd;stroke:none" />
      </g>
      <g
         transform="matrix(0.41683935,0.18302275,-0.18302275,0.41683935,-65.202317,103.12415)"
         id="g3820">
        <path
           style="fill:#999999;fill-opacity:1;fill-rule:evenodd;stroke:none"
           d="m -157.21328,2.9676373 c -15.27639,0 -27.55903,17.6828257 -27.55903,39.6439657 0,21.961141 12.28264,39.643971 27.55903,39.643971 l 1.80605,0 c 15.27639,0 27.55903,-17.68283 27.55903,-39.643971 0,-21.96114 -12.28264,-39.6439657 -27.55903,-39.6439657 l -1.80605,0 z m 0.33445,14.0470657 1.13715,0 c 9.86198,0 17.81526,11.41946 17.81526,25.5969 0,14.177441 -7.95328,25.574601 -17.81526,25.574601 l -1.13715,0 c -9.86198,0 -17.81526,-11.39716 -17.81526,-25.574601 0,-14.17744 7.95328,-25.5969 17.81526,-25.5969 z"
           id="path3822"
           inkscape:connector-curvature="0" />
        <path
           style="fill:url(#linearGradient3818);fill-opacity:1;fill-rule:evenodd;stroke:none"
           d="m -156.74505,5.7547573 c -13.32046,0.25457 -21.61262,13.6108357 -23.90232,25.3516257 -3.50263,15.94739 -0.0551,35.283481 13.64573,45.351991 9.56775,6.26876 23.52981,2.22541 28.89684,-7.75934 10.32958,-15.821741 9.8606,-37.842421 -0.6912,-53.334301 -4.14085,-5.5725357 -10.67725,-10.0939257 -17.94905,-9.6099757 z m 0.82499,8.3390457 c 11.6811,0.24213 19.2492,12.10433 20.39872,22.75689 2.05072,12.51803 -2.42843,28.023801 -14.82448,33.253051 -9.61088,3.64617 -20.52905,-2.8191 -23.92463,-12.10725 -6.26901,-13.576911 -3.94469,-32.466751 8.89649,-41.383131 2.82744,-1.77878 6.11918,-2.5613 9.4539,-2.51956 z"
           id="path3824"
           inkscape:connector-curvature="0" />
      </g>
    </g>
    <g
       id="g3843"
       transform="matrix(-0.76484254,-0.64421727,0.64421727,-0.76484254,-264.27141,22.616079)">
      <path
         style="fill:#999999;fill-opacity:1;fill-rule:evenodd;stroke:none"
         d="m -150.275,125.60829 c -6.95458,0 -12.54625,8.0501 -12.54625,18.04791 0,9.9978 5.59167,18.0479 12.54625,18.0479 l 0.8222,0 c 6.95457,0 12.54624,-8.0501 12.54624,-18.0479 0,-9.99781 -5.59167,-18.04791 -12.54624,-18.04791 l -0.8222,0 z m 0.15225,6.39492 0.51769,0 c 4.48967,0 8.11039,5.19871 8.11039,11.65299 0,6.45427 -3.62072,11.64282 -8.11039,11.64282 l -0.51769,0 c -4.48966,0 -8.11039,-5.18855 -8.11039,-11.64282 0,-6.45428 3.62073,-11.65299 8.11039,-11.65299 z"
         id="path3845"
         inkscape:connector-curvature="0" />
      <path
         style="fill:url(#linearGradient3871);fill-opacity:1;fill-rule:evenodd;stroke:none"
         d="m -150.06184,126.87712 c -6.06414,0.1159 -9.83914,6.19633 -10.88153,11.54133 -1.59457,7.26004 -0.0251,16.06279 6.21222,20.64648 4.35571,2.85385 10.71194,1.01311 13.15528,-3.53244 4.70254,-7.20285 4.48903,-17.22775 -0.31467,-24.28043 -1.88512,-2.53689 -4.86082,-4.59525 -8.1713,-4.37494 z m 0.37557,3.79635 c 5.31782,0.11023 8.7632,5.5105 9.28652,10.36007 0.93359,5.69883 -1.10555,12.75783 -6.74884,15.13844 -4.37536,1.65992 -9.34585,-1.28339 -10.89169,-5.51182 -2.85396,-6.18089 -1.79582,-14.78048 4.05013,-18.83966 1.28719,-0.80979 2.78575,-1.16603 4.30388,-1.14703 z"
         id="path3847"
         inkscape:connector-curvature="0" />
      <path
         inkscape:connector-curvature="0"
         id="path3849"
         d="m -152.22607,106.74794 c -6.95458,0 -12.54625,8.0501 -12.54625,18.04791 0,9.9978 5.59167,18.04791 12.54625,18.04791 l 0.8222,0 c 6.95457,0 12.54624,-8.05011 12.54624,-18.04791 0,-9.99781 -5.59167,-18.04791 -12.54624,-18.04791 l -0.8222,0 z m 0.15226,6.39492 0.51768,0 c 4.48967,0 8.1104,5.19871 8.1104,11.65299 0,6.45427 -3.62073,11.64283 -8.1104,11.64283 l -0.51768,0 c -4.48967,0 -8.1104,-5.18856 -8.1104,-11.64283 0,-6.45428 3.62073,-11.65299 8.1104,-11.65299 z"
         style="fill:#999999;fill-opacity:1;fill-rule:evenodd;stroke:none" />
      <path
         inkscape:connector-curvature="0"
         id="path3851"
         d="m -152.01291,108.01678 c -6.06414,0.11589 -9.83914,6.19633 -10.88153,11.54132 -1.59457,7.26004 -0.0251,16.0628 6.21222,20.64648 4.35571,2.85385 10.71194,1.01312 13.15528,-3.53243 4.70254,-7.20285 4.48903,-17.22776 -0.31467,-24.28043 -1.88512,-2.5369 -4.86082,-4.59526 -8.1713,-4.37494 z m 0.37557,3.79635 c 5.31782,0.11023 8.7632,5.51049 9.28652,10.36006 0.93359,5.69884 -1.10554,12.75783 -6.74884,15.13845 -4.37535,1.65992 -9.34585,-1.2834 -10.89169,-5.51182 -2.85396,-6.18089 -1.79582,-14.78049 4.05013,-18.83967 1.28719,-0.80978 2.78575,-1.16603 4.30388,-1.14702 z"
         style="fill:url(#linearGradient3873);fill-opacity:1;fill-rule:evenodd;stroke:none" />
      <g
         id="g3853"
         transform="matrix(0.41683935,0.18302275,-0.18302275,0.41683935,-76.258383,114.83057)">
        <path
           inkscape:connector-curvature="0"
           id="path3855"
           d="m -157.21328,2.9676373 c -15.27639,0 -27.55903,17.6828257 -27.55903,39.6439657 0,21.961141 12.28264,39.643971 27.55903,39.643971 l 1.80605,0 c 15.27639,0 27.55903,-17.68283 27.55903,-39.643971 0,-21.96114 -12.28264,-39.6439657 -27.55903,-39.6439657 l -1.80605,0 z m 0.33445,14.0470657 1.13715,0 c 9.86198,0 17.81526,11.41946 17.81526,25.5969 0,14.177441 -7.95328,25.574601 -17.81526,25.574601 l -1.13715,0 c -9.86198,0 -17.81526,-11.39716 -17.81526,-25.574601 0,-14.17744 7.95328,-25.5969 17.81526,-25.5969 z"
           style="fill:#999999;fill-opacity:1;fill-rule:evenodd;stroke:none" />
        <path
           inkscape:connector-curvature="0"
           id="path3857"
           d="m -156.74505,5.7547573 c -13.32046,0.25457 -21.61262,13.6108357 -23.90232,25.3516257 -3.50263,15.94739 -0.0551,35.283481 13.64573,45.351991 9.56775,6.26876 23.52981,2.22541 28.89684,-7.75934 10.32958,-15.821741 9.8606,-37.842421 -0.6912,-53.334301 -4.14085,-5.5725357 -10.67725,-10.0939257 -17.94905,-9.6099757 z m 0.82499,8.3390457 c 11.6811,0.24213 19.2492,12.10433 20.39872,22.75689 2.05072,12.51803 -2.42843,28.023801 -14.82448,33.253051 -9.61088,3.64617 -20.52905,-2.8191 -23.92463,-12.10725 -6.26901,-13.576911 -3.94469,-32.466751 8.89649,-41.383131 2.82744,-1.77878 6.11918,-2.5613 9.4539,-2.51956 z"
           style="fill:url(#linearGradient3875);fill-opacity:1;fill-rule:evenodd;stroke:none" />
      </g>
      <g
         transform="matrix(0.41683935,0.18302275,-0.18302275,0.41683935,-65.202317,103.12415)"
         id="g3859">
        <path
           style="fill:#999999;fill-opacity:1;fill-rule:evenodd;stroke:none"
           d="m -157.21328,2.9676373 c -15.27639,0 -27.55903,17.6828257 -27.55903,39.6439657 0,21.961141 12.28264,39.643971 27.55903,39.643971 l 1.80605,0 c 15.27639,0 27.55903,-17.68283 27.55903,-39.643971 0,-21.96114 -12.28264,-39.6439657 -27.55903,-39.6439657 l -1.80605,0 z m 0.33445,14.0470657 1.13715,0 c 9.86198,0 17.81526,11.41946 17.81526,25.5969 0,14.177441 -7.95328,25.574601 -17.81526,25.574601 l -1.13715,0 c -9.86198,0 -17.81526,-11.39716 -17.81526,-25.574601 0,-14.17744 7.95328,-25.5969 17.81526,-25.5969 z"
           id="path3861"
           inkscape:connector-curvature="0" />
        <path
           style="fill:url(#linearGradient3877);fill-opacity:1;fill-rule:evenodd;stroke:none"
           d="m -156.74505,5.7547573 c -13.32046,0.25457 -21.61262,13.6108357 -23.90232,25.3516257 -3.50263,15.94739 -0.0551,35.283481 13.64573,45.351991 9.56775,6.26876 23.52981,2.22541 28.89684,-7.75934 10.32958,-15.821741 9.8606,-37.842421 -0.6912,-53.334301 -4.14085,-5.5725357 -10.67725,-10.0939257 -17.94905,-9.6099757 z m 0.82499,8.3390457 c 11.6811,0.24213 19.2492,12.10433 20.39872,22.75689 2.05072,12.51803 -2.42843,28.023801 -14.82448,33.253051 -9.61088,3.64617 -20.52905,-2.8191 -23.92463,-12.10725 -6.26901,-13.576911 -3.94469,-32.466751 8.89649,-41.383131 2.82744,-1.77878 6.11918,-2.5613 9.4539,-2.51956 z"
           id="path3863"
           inkscape:connector-curvature="0" />
      </g>
      <g
         id="g3865"
         transform="matrix(0.41683935,0.18302275,-0.18302275,0.41683935,-65.202317,103.12415)">
        <path
           inkscape:connector-curvature="0"
           id="path3867"
           d="m -157.21328,2.9676373 c -15.27639,0 -27.55903,17.6828257 -27.55903,39.6439657 0,21.961141 12.28264,39.643971 27.55903,39.643971 l 1.80605,0 c 15.27639,0 27.55903,-17.68283 27.55903,-39.643971 0,-21.96114 -12.28264,-39.6439657 -27.55903,-39.6439657 l -1.80605,0 z m 0.33445,14.0470657 1.13715,0 c 9.86198,0 17.81526,11.41946 17.81526,25.5969 0,14.177441 -7.95328,25.574601 -17.81526,25.574601 l -1.13715,0 c -9.86198,0 -17.81526,-11.39716 -17.81526,-25.574601 0,-14.17744 7.95328,-25.5969 17.81526,-25.5969 z"
           style="fill:#999999;fill-opacity:1;fill-rule:evenodd;stroke:none" />
        <path
           inkscape:connector-curvature="0"
           id="path3869"
           d="m -156.74505,5.7547573 c -13.32046,0.25457 -21.61262,13.6108357 -23.90232,25.3516257 -3.50263,15.94739 -0.0551,35.283481 13.64573,45.351991 9.56775,6.26876 23.52981,2.22541 28.89684,-7.75934 10.32958,-15.821741 9.8606,-37.842421 -0.6912,-53.334301 -4.14085,-5.5725357 -10.67725,-10.0939257 -17.94905,-9.6099757 z m 0.82499,8.3390457 c 11.6811,0.24213 19.2492,12.10433 20.39872,22.75689 2.05072,12.51803 -2.42843,28.023801 -14.82448,33.253051 -9.61088,3.64617 -20.52905,-2.8191 -23.92463,-12.10725 -6.26901,-13.576911 -3.94469,-32.466751 8.89649,-41.383131 2.82744,-1.77878 6.11918,-2.5613 9.4539,-2.51956 z"
           style="fill:url(#linearGradient3879);fill-opacity:1;fill-rule:evenodd;stroke:none" />
      </g>
    </g>
    <g
       transform="matrix(-0.64509629,0.76410128,0.76410128,0.64509629,-201.18996,53.174055)"
       id="g3881">
      <path
         inkscape:connector-curvature="0"
         id="path3883"
         d="m -150.275,125.60829 c -6.95458,0 -12.54625,8.0501 -12.54625,18.04791 0,9.9978 5.59167,18.0479 12.54625,18.0479 l 0.8222,0 c 6.95457,0 12.54624,-8.0501 12.54624,-18.0479 0,-9.99781 -5.59167,-18.04791 -12.54624,-18.04791 l -0.8222,0 z m 0.15225,6.39492 0.51769,0 c 4.48967,0 8.11039,5.19871 8.11039,11.65299 0,6.45427 -3.62072,11.64282 -8.11039,11.64282 l -0.51769,0 c -4.48966,0 -8.11039,-5.18855 -8.11039,-11.64282 0,-6.45428 3.62073,-11.65299 8.11039,-11.65299 z"
         style="fill:#999999;fill-opacity:1;fill-rule:evenodd;stroke:none" />
      <path
         inkscape:connector-curvature="0"
         id="path3885"
         d="m -150.06184,126.87712 c -6.06414,0.1159 -9.83914,6.19633 -10.88153,11.54133 -1.59457,7.26004 -0.0251,16.06279 6.21222,20.64648 4.35571,2.85385 10.71194,1.01311 13.15528,-3.53244 4.70254,-7.20285 4.48903,-17.22775 -0.31467,-24.28043 -1.88512,-2.53689 -4.86082,-4.59525 -8.1713,-4.37494 z m 0.37557,3.79635 c 5.31782,0.11023 8.7632,5.5105 9.28652,10.36007 0.93359,5.69883 -1.10555,12.75783 -6.74884,15.13844 -4.37536,1.65992 -9.34585,-1.28339 -10.89169,-5.51182 -2.85396,-6.18089 -1.79582,-14.78048 4.05013,-18.83966 1.28719,-0.80979 2.78575,-1.16603 4.30388,-1.14703 z"
         style="fill:url(#linearGradient3909);fill-opacity:1;fill-rule:evenodd;stroke:none" />
      <path
         style="fill:#999999;fill-opacity:1;fill-rule:evenodd;stroke:none"
         d="m -152.22607,106.74794 c -6.95458,0 -12.54625,8.0501 -12.54625,18.04791 0,9.9978 5.59167,18.04791 12.54625,18.04791 l 0.8222,0 c 6.95457,0 12.54624,-8.05011 12.54624,-18.04791 0,-9.99781 -5.59167,-18.04791 -12.54624,-18.04791 l -0.8222,0 z m 0.15226,6.39492 0.51768,0 c 4.48967,0 8.1104,5.19871 8.1104,11.65299 0,6.45427 -3.62073,11.64283 -8.1104,11.64283 l -0.51768,0 c -4.48967,0 -8.1104,-5.18856 -8.1104,-11.64283 0,-6.45428 3.62073,-11.65299 8.1104,-11.65299 z"
         id="path3887"
         inkscape:connector-curvature="0" />
      <path
         style="fill:url(#linearGradient3911);fill-opacity:1;fill-rule:evenodd;stroke:none"
         d="m -152.01291,108.01678 c -6.06414,0.11589 -9.83914,6.19633 -10.88153,11.54132 -1.59457,7.26004 -0.0251,16.0628 6.21222,20.64648 4.35571,2.85385 10.71194,1.01312 13.15528,-3.53243 4.70254,-7.20285 4.48903,-17.22776 -0.31467,-24.28043 -1.88512,-2.5369 -4.86082,-4.59526 -8.1713,-4.37494 z m 0.37557,3.79635 c 5.31782,0.11023 8.7632,5.51049 9.28652,10.36006 0.93359,5.69884 -1.10554,12.75783 -6.74884,15.13845 -4.37535,1.65992 -9.34585,-1.2834 -10.89169,-5.51182 -2.85396,-6.18089 -1.79582,-14.78049 4.05013,-18.83967 1.28719,-0.80978 2.78575,-1.16603 4.30388,-1.14702 z"
         id="path3889"
         inkscape:connector-curvature="0" />
      <g
         transform="matrix(0.41683935,0.18302275,-0.18302275,0.41683935,-76.258383,114.83057)"
         id="g3891">
        <path
           style="fill:#999999;fill-opacity:1;fill-rule:evenodd;stroke:none"
           d="m -157.21328,2.9676373 c -15.27639,0 -27.55903,17.6828257 -27.55903,39.6439657 0,21.961141 12.28264,39.643971 27.55903,39.643971 l 1.80605,0 c 15.27639,0 27.55903,-17.68283 27.55903,-39.643971 0,-21.96114 -12.28264,-39.6439657 -27.55903,-39.6439657 l -1.80605,0 z m 0.33445,14.0470657 1.13715,0 c 9.86198,0 17.81526,11.41946 17.81526,25.5969 0,14.177441 -7.95328,25.574601 -17.81526,25.574601 l -1.13715,0 c -9.86198,0 -17.81526,-11.39716 -17.81526,-25.574601 0,-14.17744 7.95328,-25.5969 17.81526,-25.5969 z"
           id="path3893"
           inkscape:connector-curvature="0" />
        <path
           style="fill:url(#linearGradient3913);fill-opacity:1;fill-rule:evenodd;stroke:none"
           d="m -156.74505,5.7547573 c -13.32046,0.25457 -21.61262,13.6108357 -23.90232,25.3516257 -3.50263,15.94739 -0.0551,35.283481 13.64573,45.351991 9.56775,6.26876 23.52981,2.22541 28.89684,-7.75934 10.32958,-15.821741 9.8606,-37.842421 -0.6912,-53.334301 -4.14085,-5.5725357 -10.67725,-10.0939257 -17.94905,-9.6099757 z m 0.82499,8.3390457 c 11.6811,0.24213 19.2492,12.10433 20.39872,22.75689 2.05072,12.51803 -2.42843,28.023801 -14.82448,33.253051 -9.61088,3.64617 -20.52905,-2.8191 -23.92463,-12.10725 -6.26901,-13.576911 -3.94469,-32.466751 8.89649,-41.383131 2.82744,-1.77878 6.11918,-2.5613 9.4539,-2.51956 z"
           id="path3895"
           inkscape:connector-curvature="0" />
      </g>
      <g
         id="g3897"
         transform="matrix(0.41683935,0.18302275,-0.18302275,0.41683935,-65.202317,103.12415)">
        <path
           inkscape:connector-curvature="0"
           id="path3899"
           d="m -157.21328,2.9676373 c -15.27639,0 -27.55903,17.6828257 -27.55903,39.6439657 0,21.961141 12.28264,39.643971 27.55903,39.643971 l 1.80605,0 c 15.27639,0 27.55903,-17.68283 27.55903,-39.643971 0,-21.96114 -12.28264,-39.6439657 -27.55903,-39.6439657 l -1.80605,0 z m 0.33445,14.0470657 1.13715,0 c 9.86198,0 17.81526,11.41946 17.81526,25.5969 0,14.177441 -7.95328,25.574601 -17.81526,25.574601 l -1.13715,0 c -9.86198,0 -17.81526,-11.39716 -17.81526,-25.574601 0,-14.17744 7.95328,-25.5969 17.81526,-25.5969 z"
           style="fill:#999999;fill-opacity:1;fill-rule:evenodd;stroke:none" />
        <path
           inkscape:connector-curvature="0"
           id="path3901"
           d="m -156.74505,5.7547573 c -13.32046,0.25457 -21.61262,13.6108357 -23.90232,25.3516257 -3.50263,15.94739 -0.0551,35.283481 13.64573,45.351991 9.56775,6.26876 23.52981,2.22541 28.89684,-7.75934 10.32958,-15.821741 9.8606,-37.842421 -0.6912,-53.334301 -4.14085,-5.5725357 -10.67725,-10.0939257 -17.94905,-9.6099757 z m 0.82499,8.3390457 c 11.6811,0.24213 19.2492,12.10433 20.39872,22.75689 2.05072,12.51803 -2.42843,28.023801 -14.82448,33.253051 -9.61088,3.64617 -20.52905,-2.8191 -23.92463,-12.10725 -6.26901,-13.576911 -3.94469,-32.466751 8.89649,-41.383131 2.82744,-1.77878 6.11918,-2.5613 9.4539,-2.51956 z"
           style="fill:url(#linearGradient3915);fill-opacity:1;fill-rule:evenodd;stroke:none" />
      </g>
      <g
         transform="matrix(0.41683935,0.18302275,-0.18302275,0.41683935,-65.202317,103.12415)"
         id="g3903">
        <path
           style="fill:#999999;fill-opacity:1;fill-rule:evenodd;stroke:none"
           d="m -157.21328,2.9676373 c -15.27639,0 -27.55903,17.6828257 -27.55903,39.6439657 0,21.961141 12.28264,39.643971 27.55903,39.643971 l 1.80605,0 c 15.27639,0 27.55903,-17.68283 27.55903,-39.643971 0,-21.96114 -12.28264,-39.6439657 -27.55903,-39.6439657 l -1.80605,0 z m 0.33445,14.0470657 1.13715,0 c 9.86198,0 17.81526,11.41946 17.81526,25.5969 0,14.177441 -7.95328,25.574601 -17.81526,25.574601 l -1.13715,0 c -9.86198,0 -17.81526,-11.39716 -17.81526,-25.574601 0,-14.17744 7.95328,-25.5969 17.81526,-25.5969 z"
           id="path3905"
           inkscape:connector-curvature="0" />
        <path
           style="fill:url(#linearGradient3917);fill-opacity:1;fill-rule:evenodd;stroke:none"
           d="m -156.74505,5.7547573 c -13.32046,0.25457 -21.61262,13.6108357 -23.90232,25.3516257 -3.50263,15.94739 -0.0551,35.283481 13.64573,45.351991 9.56775,6.26876 23.52981,2.22541 28.89684,-7.75934 10.32958,-15.821741 9.8606,-37.842421 -0.6912,-53.334301 -4.14085,-5.5725357 -10.67725,-10.0939257 -17.94905,-9.6099757 z m 0.82499,8.3390457 c 11.6811,0.24213 19.2492,12.10433 20.39872,22.75689 2.05072,12.51803 -2.42843,28.023801 -14.82448,33.253051 -9.61088,3.64617 -20.52905,-2.8191 -23.92463,-12.10725 -6.26901,-13.576911 -3.94469,-32.466751 8.89649,-41.383131 2.82744,-1.77878 6.11918,-2.5613 9.4539,-2.51956 z"
           id="path3907"
           inkscape:connector-curvature="0" />
      </g>
    </g>
  </g>
</svg>
