<?xml version="1.0" encoding="UTF-8" standalone="no"?>
<!-- Created with Inkscape (http://www.inkscape.org/) -->

<svg
   xmlns:dc="http://purl.org/dc/elements/1.1/"
   xmlns:cc="http://creativecommons.org/ns#"
   xmlns:rdf="http://www.w3.org/1999/02/22-rdf-syntax-ns#"
   xmlns:svg="http://www.w3.org/2000/svg"
   xmlns="http://www.w3.org/2000/svg"
   xmlns:xlink="http://www.w3.org/1999/xlink"
   xmlns:sodipodi="http://sodipodi.sourceforge.net/DTD/sodipodi-0.dtd"
   xmlns:inkscape="http://www.inkscape.org/namespaces/inkscape"
   inkscape:export-ydpi="90"
   inkscape:export-xdpi="90"
   inkscape:export-filename="C:\Users\Mira\Documents\GameJam\packageloss\Graphics\ground\flat01.png"
   sodipodi:docname="porcelain01.svg"
   inkscape:version="0.48.4 r9939"
   version="1.1"
   id="svg4223"
   height="212.58224"
   width="211.85832">
  <defs
     id="defs4225">
    <linearGradient
       id="linearGradient4177"
       inkscape:collect="always">
      <stop
         id="stop4179"
         offset="0"
         style="stop-color:#ffffff;stop-opacity:1" />
      <stop
         id="stop4181"
         offset="1"
         style="stop-color:#ececec;stop-opacity:1" />
    </linearGradient>
    <linearGradient
       inkscape:collect="always"
       id="linearGradient4125">
      <stop
         style="stop-color:#ffffff;stop-opacity:1"
         offset="0"
         id="stop4127" />
      <stop
         style="stop-color:#000000;stop-opacity:1"
         offset="1"
         id="stop4129" />
    </linearGradient>
    <clipPath
       clipPathUnits="userSpaceOnUse"
       id="clipPath4027">
      <path
         style="fill:none;stroke:#000000;stroke-width:5.85147333px;stroke-linecap:butt;stroke-linejoin:miter;stroke-opacity:1"
         d="m 641.19069,121.87784 c -70.46738,0.17127 -152.27382,0.99444 -197.79876,3.03067 -110.085,30.26759 -234.67183,83.01175 -288.95301,171.40127 -87.949551,143.21389 -62.580031,331.90569 0,484.4022 64.57089,157.34795 366.00715,391.79842 366.00715,391.79842 l 244.07096,0 6.15639,0 244.26958,0 c 0,0 301.2376,-234.45047 365.8085,-391.79842 62.5801,-152.49651 87.9496,-341.18827 0,-484.4022 -54.2812,-88.3895 -178.8679,-141.13367 -288.953,-171.40127 -87.3938,-3.90894 -303.49733,-2.95596 -321.12508,-2.8623 0,0 -5.41894,0.004 -6.15639,0 -8.44515,-0.0449 -58.5181,-0.32588 -123.32634,-0.16837 z"
         id="path4029"
         inkscape:connector-curvature="0" />
    </clipPath>
    <clipPath
       clipPathUnits="userSpaceOnUse"
       id="clipPath4031">
      <path
         style="fill:none;stroke:#000000;stroke-width:7.1911397px;stroke-linecap:butt;stroke-linejoin:miter;stroke-opacity:1"
         d="m -1189.0142,121.87784 c -106.4273,0.17127 -229.9801,0.99444 -298.7367,3.03067 -166.262,30.26759 -354.4263,83.01175 -436.4075,171.40127 -132.8308,143.21389 -94.515,331.90569 0,484.4022 97.5218,157.34795 552.7829,391.79842 552.7829,391.79842 l 368.6218,0 9.29807,0 368.92183,0 c 0,0 454.96106,-234.45047 552.482924,-391.79842 94.515012,-152.49651 132.830764,-341.18827 0,-484.4022 C -154.0321,207.92028 -342.19629,155.17611 -508.4584,124.90851 c -131.99142,-3.90894 -458.37393,-2.95596 -484.99723,-2.8623 0,0 -8.18427,0.004 -9.29807,0 -12.7547,-0.0449 -88.3802,-0.32588 -186.2605,-0.16837 z"
         id="path4033"
         inkscape:connector-curvature="0" />
    </clipPath>
    <clipPath
       clipPathUnits="userSpaceOnUse"
       id="clipPath4035">
      <path
         style="fill:none;stroke:#000000;stroke-width:5.91425419px;stroke-linecap:butt;stroke-linejoin:miter;stroke-opacity:1"
         d="m -599.01681,89.550689 c -71.9876,0.171264 -155.55887,0.994437 -202.06593,3.030671 -112.45989,30.26759 -239.73446,83.01175 -295.18666,171.40127 -89.8469,143.21388 -63.9301,331.90569 0,484.4022 65.9639,157.34795 373.90311,391.79837 373.90311,391.79837 l 249.33636,0 6.2892,0 249.53924,0 c 0,0 307.736307,-234.45042 373.70023,-391.79837 63.93009,-152.49651 89.84692,-341.18828 0,-484.4022 -55.45221,-88.3895 -182.726734,-141.13368 -295.18666,-171.40127 -89.27919,-3.90894 -310.04477,-2.955968 -328.05281,-2.8623 0,0 -5.53584,0.0039 -6.2892,0 -8.62734,-0.04488 -59.78052,-0.325879 -125.98688,-0.168371 z"
         id="path4037"
         inkscape:connector-curvature="0" />
    </clipPath>
    <clipPath
       clipPathUnits="userSpaceOnUse"
       id="clipPath4039">
      <path
         style="fill:none;stroke:#000000;stroke-width:5.48699331px;stroke-linecap:butt;stroke-linejoin:miter;stroke-opacity:1"
         d="m -242.86578,67.999253 c -61.96216,0.171264 -133.89479,0.994437 -173.92499,3.030671 -96.79804,30.267586 -206.34757,83.011746 -254.07716,171.401266 -77.33428,143.21389 -55.02679,331.90569 0,484.4022 56.77736,157.34795 321.83107,391.79841 321.83107,391.79841 l 214.61226,0 5.41333,0 214.786883,0 c 0,0 264.879067,-234.45046 321.656447,-391.79841 55.0268,-152.49651 77.33429,-341.18827 0,-484.4022 C 359.70247,154.04169 250.15297,101.29751 153.3549,71.029924 c -76.845619,-3.90894 -266.86604,-2.955968 -282.36617,-2.8623 0,0 -4.76489,0.0039 -5.41333,0 -7.42584,-0.04488 -51.45512,-0.32588 -108.44118,-0.168371 z"
         id="path4041"
         inkscape:connector-curvature="0" />
    </clipPath>
    <clipPath
       clipPathUnits="userSpaceOnUse"
       id="clipPath4043">
      <path
         style="fill:none;stroke:#000000;stroke-width:5.48699331px;stroke-linecap:butt;stroke-linejoin:miter;stroke-opacity:1"
         d="m 65.269843,67.999253 c -61.9621613,0.171264 -133.894787,0.994437 -173.924983,3.030671 -96.79805,30.267586 -206.34758,83.011746 -254.07717,171.401266 -77.33428,143.21389 -55.02679,331.90569 0,484.4022 56.77736,157.34795 321.831076,391.79841 321.831076,391.79841 l 214.612254,0 5.41333,0 214.78688,0 c 0,0 264.87907,-234.45046 321.65646,-391.79841 55.02679,-152.49651 77.33428,-341.18827 0,-484.4022 -47.7296,-88.3895 -157.2791,-141.13368 -254.07717,-171.401266 -76.84562,-3.90894 -266.86604,-2.955968 -282.36617,-2.8623 0,0 -4.76489,0.0039 -5.41333,0 -7.42584,-0.04488 -51.45512,-0.32588 -108.441177,-0.168371 z"
         id="path4045"
         inkscape:connector-curvature="0" />
    </clipPath>
    <clipPath
       clipPathUnits="userSpaceOnUse"
       id="clipPath4047">
      <path
         style="fill:none;stroke:#000000;stroke-width:5.85147333px;stroke-linecap:butt;stroke-linejoin:miter;stroke-opacity:1"
         d="M 386.99148,89.550689 C 316.5241,89.721953 234.71766,90.545126 189.19272,92.58136 79.107716,122.84895 -45.479113,175.59311 -99.76029,263.98263 c -87.94955,143.21388 -62.58003,331.90569 0,484.4022 64.57089,157.34795 366.00715,391.79837 366.00715,391.79837 l 244.07096,0 6.15639,0 244.26955,0 c 0,0 301.23764,-234.45042 365.80854,-391.79837 62.58,-152.49651 87.9496,-341.18828 0,-484.4022 -54.2812,-88.3895 -178.86796,-141.13368 -288.953,-171.40127 -87.39381,-3.90894 -303.49734,-2.955968 -321.12509,-2.8623 0,0 -5.41895,0.0039 -6.15639,0 -8.44515,-0.04488 -58.5181,-0.325879 -123.32634,-0.168371 z"
         id="path4049"
         inkscape:connector-curvature="0" />
    </clipPath>
    <clipPath
       clipPathUnits="userSpaceOnUse"
       id="clipPath4051">
      <path
         style="fill:none;stroke:#000000;stroke-width:7.39730024px;stroke-linecap:butt;stroke-linejoin:miter;stroke-opacity:1"
         d="m 597.91225,-1050.345 c -89.08327,0.2165 -192.50113,1.2572 -250.05272,3.8313 -139.16697,38.2636 -296.666826,104.94159 -365.287863,216.68162 -111.183837,181.04777 -79.112263,419.58768 0,612.37032 81.629059,198.915722 462.697963,495.30265 462.697963,495.30265 l 308.54899,0 7.78276,0 308.80002,0 c 0,0 380.8178,-296.386928 462.4469,-495.30265 79.1123,-192.78264 111.1839,-431.32251 0,-612.37032 -68.621,-111.74 -226.1208,-178.41802 -365.2878,-216.68162 -110.4813,-4.9416 -383.67452,-3.7369 -405.95912,-3.6184 0,0 -6.8505,0 -7.78276,0 -10.67617,-0.057 -73.97726,-0.412 -155.90637,-0.2129 z"
         id="path4053"
         inkscape:connector-curvature="0" />
    </clipPath>
    <clipPath
       clipPathUnits="userSpaceOnUse"
       id="clipPath4055">
      <path
         style="fill:none;stroke:#000000;stroke-width:9.09087563px;stroke-linecap:butt;stroke-linejoin:miter;stroke-opacity:1"
         d="m -1254.3779,-1050.345 c -134.543,0.2165 -290.7356,1.2572 -377.6562,3.8313 -210.1847,38.2636 -448.0577,104.94159 -551.6964,216.68162 -167.9217,181.04777 -119.4838,419.58768 0,612.37032 123.2848,198.915722 698.8155,495.30265 698.8155,495.30265 l 466.0034,0 11.7544,0 466.38259,0 c 0,0 575.151451,-296.386928 698.43638,-495.30265 119.48373,-192.78264 167.92163,-431.32251 0,-612.37032 -103.638801,-111.74 -341.5117,-178.41802 -551.69649,-216.68162 -166.86056,-4.9416 -579.46592,-3.7369 -613.12248,-3.6184 0,0 -10.3464,0 -11.7544,0 -16.1242,-0.057 -111.7283,-0.412 -235.4663,-0.2129 z"
         id="path4057"
         inkscape:connector-curvature="0" />
    </clipPath>
    <clipPath
       clipPathUnits="userSpaceOnUse"
       id="clipPath4059">
      <path
         style="fill:none;stroke:#000000;stroke-width:7.47666597px;stroke-linecap:butt;stroke-linejoin:miter;stroke-opacity:1"
         d="m -643.22891,-1082.6721 c -91.00509,0.2165 -196.654,1.2571 -255.44716,3.8313 -142.16923,38.2636 -303.06693,104.94153 -373.16833,216.68156 -113.5824,181.04777 -80.8189,419.58768 0,612.37032 83.3901,198.915723 472.67987,495.30265 472.67987,495.30265 l 315.20538,0 7.95067,0 315.46185,0 c 0,0 389.03326,-296.386927 472.42336,-495.30265 80.81897,-192.78264 113.58243,-431.32251 0,-612.37032 -70.10143,-111.74 -230.999,-178.41796 -373.168291,-216.68156 -112.864719,-4.9416 -391.951569,-3.7369 -414.716919,-3.6185 0,0 -6.9983,0 -7.95067,0 -10.90649,-0.057 -75.57319,-0.412 -159.26976,-0.2128 z"
         id="path4061"
         inkscape:connector-curvature="0" />
    </clipPath>
    <clipPath
       clipPathUnits="userSpaceOnUse"
       id="clipPath4063">
      <path
         style="fill:none;stroke:#000000;stroke-width:6.93653297px;stroke-linecap:butt;stroke-linejoin:miter;stroke-opacity:1"
         d="m -280.92067,-1104.2236 c -78.33116,0.2165 -169.26676,1.2572 -219.87203,3.8313 -122.3699,38.2636 -260.85995,104.94162 -321.19862,216.68165 -97.76424,181.04776 -69.56362,419.58767 0,612.37031 71.77666,198.915726 406.85158,495.30265 406.85158,495.30265 l 271.30796,0 6.84341,0 271.52872,0 c 0,0 334.85413,-296.386924 406.63082,-495.30265 69.56363,-192.78264 97.76426,-431.3225 0,-612.37031 -60.33868,-111.74001 -198.82868,-178.41805 -321.19861,-216.68165 -97.14649,-4.9416 -337.36602,-3.7368 -356.96093,-3.6184 0,0 -6.02367,0 -6.84341,0 -9.38758,-0.057 -65.0484,-0.412 -137.08889,-0.2129 z"
         id="path4065"
         inkscape:connector-curvature="0" />
    </clipPath>
    <clipPath
       clipPathUnits="userSpaceOnUse"
       id="clipPath4067">
      <path
         style="fill:none;stroke:#000000;stroke-width:6.93653297px;stroke-linecap:butt;stroke-linejoin:miter;stroke-opacity:1"
         d="m 27.214966,-1104.2236 c -78.331164,0.2165 -169.266766,1.2572 -219.872036,3.8313 -122.3699,38.2636 -260.85995,104.94162 -321.19861,216.68165 -97.76425,181.04776 -69.56363,419.58767 0,612.37031 71.77665,198.915726 406.85157,495.30265 406.85157,495.30265 l 271.30797,0 6.8434,0 271.52873,0 c 0,0 334.85413,-296.386924 406.63081,-495.30265 69.56363,-192.78264 97.76426,-431.3225 0,-612.37031 -60.33868,-111.74001 -198.82867,-178.41805 -321.19861,-216.68165 -97.14649,-4.9416 -337.36601,-3.7368 -356.96093,-3.6184 0,0 -6.02366,0 -6.8434,0 -9.38759,-0.057 -65.048409,-0.412 -137.088894,-0.2129 z"
         id="path4069"
         inkscape:connector-curvature="0" />
    </clipPath>
    <clipPath
       clipPathUnits="userSpaceOnUse"
       id="clipPath4071">
      <path
         style="fill:none;stroke:#000000;stroke-width:7.39730024px;stroke-linecap:butt;stroke-linejoin:miter;stroke-opacity:1"
         d="m 343.71303,-1082.6721 c -89.08327,0.2165 -192.50112,1.2571 -250.05272,3.8313 -139.166973,38.2636 -296.66682,104.94153 -365.28786,216.68156 -111.18384,181.04777 -79.11226,419.58768 0,612.37032 81.62906,198.915723 462.69796,495.30265 462.69796,495.30265 l 308.54899,0 7.78276,0 308.80005,0 c 0,0 380.81779,-296.386927 462.44689,-495.30265 79.1123,-192.78264 111.1839,-431.32251 0,-612.37032 -68.621,-111.74 -226.1208,-178.41796 -365.28785,-216.68156 -110.48129,-4.9416 -383.67448,-3.7369 -405.95909,-3.6185 0,0 -6.8505,0 -7.78276,0 -10.67617,-0.057 -73.97726,-0.412 -155.90637,-0.2128 z"
         id="path4073"
         inkscape:connector-curvature="0" />
    </clipPath>
    <clipPath
       clipPathUnits="userSpaceOnUse"
       id="clipPath4075">
      <path
         style="fill:none;stroke:#000000;stroke-width:5.85147333px;stroke-linecap:butt;stroke-linejoin:miter;stroke-opacity:1"
         d="m 641.19069,-352.25375 c -70.46738,0.17126 -152.27382,0.99443 -197.79876,3.03067 -110.085,30.26758 -234.67183,83.01174 -288.95301,171.40126 -87.949551,143.213893 -62.580031,331.9057 0,484.40221 64.57089,157.34795 366.00715,391.79837 366.00715,391.79837 l 244.07096,0 6.15639,0 244.26958,0 c 0,0 301.2376,-234.45042 365.8085,-391.79837 62.5801,-152.49651 87.9496,-341.188279 0,-484.40221 -54.2812,-88.38949 -178.8679,-141.13367 -288.953,-171.40126 -87.3938,-3.90894 -303.49733,-2.95597 -321.12508,-2.8623 0,0 -5.41894,0.004 -6.15639,0 -8.44515,-0.0449 -58.5181,-0.32588 -123.32634,-0.16837 z"
         id="path4077"
         inkscape:connector-curvature="0" />
    </clipPath>
    <clipPath
       clipPathUnits="userSpaceOnUse"
       id="clipPath4079">
      <path
         style="fill:none;stroke:#000000;stroke-width:7.1911397px;stroke-linecap:butt;stroke-linejoin:miter;stroke-opacity:1"
         d="m -1189.0142,-352.25375 c -106.4273,0.17126 -229.9801,0.99443 -298.7367,3.03067 -166.262,30.26758 -354.4263,83.01174 -436.4075,171.40126 -132.8308,143.213893 -94.515,331.9057 0,484.40221 97.5218,157.34795 552.7829,391.79837 552.7829,391.79837 l 368.6218,0 9.29807,0 368.92183,0 c 0,0 454.96106,-234.45042 552.482924,-391.79837 94.515012,-152.49651 132.830764,-341.188279 0,-484.40221 -81.981224,-88.38949 -270.145414,-141.13367 -436.407524,-171.40126 -131.99142,-3.90894 -458.37393,-2.95597 -484.99723,-2.8623 0,0 -8.18427,0.004 -9.29807,0 -12.7547,-0.0449 -88.3802,-0.32588 -186.2605,-0.16837 z"
         id="path4081"
         inkscape:connector-curvature="0" />
    </clipPath>
    <clipPath
       clipPathUnits="userSpaceOnUse"
       id="clipPath4083">
      <path
         style="fill:none;stroke:#000000;stroke-width:5.91425419px;stroke-linecap:butt;stroke-linejoin:miter;stroke-opacity:1"
         d="m -599.01681,-384.58091 c -71.9876,0.17127 -155.55887,0.99444 -202.06593,3.03067 -112.45989,30.26759 -239.73446,83.01175 -295.18666,171.40127 -89.8469,143.213889 -63.9301,331.90569 0,484.4022 65.9639,157.34795 373.90311,391.79838 373.90311,391.79838 l 249.33636,0 6.2892,0 249.53924,0 c 0,0 307.736307,-234.45043 373.70023,-391.79838 63.93009,-152.49651 89.84692,-341.188273 0,-484.4022 -55.45221,-88.3895 -182.726734,-141.13367 -295.18666,-171.40127 -89.27919,-3.90894 -310.04477,-2.95596 -328.05281,-2.8623 0,0 -5.53584,0.004 -6.2892,0 -8.62734,-0.0449 -59.78052,-0.32588 -125.98688,-0.16837 z"
         id="path4085"
         inkscape:connector-curvature="0" />
    </clipPath>
    <clipPath
       clipPathUnits="userSpaceOnUse"
       id="clipPath4087">
      <path
         style="fill:none;stroke:#000000;stroke-width:5.48699331px;stroke-linecap:butt;stroke-linejoin:miter;stroke-opacity:1"
         d="m -242.86578,-406.13234 c -61.96216,0.17126 -133.89479,0.99443 -173.92499,3.03067 -96.79804,30.26758 -206.34757,83.01174 -254.07716,171.40126 -77.33428,143.213893 -55.02679,331.9057 0,484.40221 56.77736,157.34795 321.83107,391.79837 321.83107,391.79837 l 214.61226,0 5.41333,0 214.786883,0 c 0,0 264.879067,-234.45042 321.656447,-391.79837 55.0268,-152.49651 77.33429,-341.188279 0,-484.40221 -47.72959,-88.38949 -157.27909,-141.13367 -254.07716,-171.40126 -76.845619,-3.90894 -266.86604,-2.95597 -282.36617,-2.8623 0,0 -4.76489,0.004 -5.41333,0 -7.42584,-0.0449 -51.45512,-0.32588 -108.44118,-0.16837 z"
         id="path4089"
         inkscape:connector-curvature="0" />
    </clipPath>
    <clipPath
       clipPathUnits="userSpaceOnUse"
       id="clipPath4091">
      <path
         style="fill:none;stroke:#000000;stroke-width:5.48699331px;stroke-linecap:butt;stroke-linejoin:miter;stroke-opacity:1"
         d="m 65.269843,-406.13234 c -61.9621613,0.17126 -133.894787,0.99443 -173.924983,3.03067 -96.79805,30.26758 -206.34758,83.01174 -254.07717,171.40126 -77.33428,143.213893 -55.02679,331.9057 0,484.40221 56.77736,157.34795 321.831076,391.79837 321.831076,391.79837 l 214.612254,0 5.41333,0 214.78688,0 c 0,0 264.87907,-234.45042 321.65646,-391.79837 55.02679,-152.49651 77.33428,-341.188279 0,-484.40221 -47.7296,-88.38949 -157.2791,-141.13367 -254.07717,-171.40126 -76.84562,-3.90894 -266.86604,-2.95597 -282.36617,-2.8623 0,0 -4.76489,0.004 -5.41333,0 -7.42584,-0.0449 -51.45512,-0.32588 -108.441177,-0.16837 z"
         id="path4093"
         inkscape:connector-curvature="0" />
    </clipPath>
    <clipPath
       clipPathUnits="userSpaceOnUse"
       id="clipPath4095">
      <path
         style="fill:none;stroke:#000000;stroke-width:5.85147333px;stroke-linecap:butt;stroke-linejoin:miter;stroke-opacity:1"
         d="m 386.99148,-384.58091 c -70.46738,0.17127 -152.27382,0.99444 -197.79876,3.03067 -110.085004,30.26759 -234.671833,83.01175 -288.95301,171.40127 -87.94955,143.213889 -62.58003,331.90569 0,484.4022 64.57089,157.34795 366.00715,391.79838 366.00715,391.79838 l 244.07096,0 6.15639,0 244.26955,0 c 0,0 301.23764,-234.45043 365.80854,-391.79838 62.58,-152.49651 87.9496,-341.188273 0,-484.4022 -54.2812,-88.3895 -178.86796,-141.13367 -288.953,-171.40127 -87.39381,-3.90894 -303.49734,-2.95596 -321.12509,-2.8623 0,0 -5.41895,0.004 -6.15639,0 -8.44515,-0.0449 -58.5181,-0.32588 -123.32634,-0.16837 z"
         id="path4097"
         inkscape:connector-curvature="0" />
    </clipPath>
    <radialGradient
       inkscape:collect="always"
       xlink:href="#linearGradient4125"
       id="radialGradient4131"
       cx="142.13202"
       cy="77.850815"
       fx="142.13202"
       fy="77.850815"
       r="105.92916"
       gradientTransform="matrix(-2.4252845,0.53148304,-0.27099205,-1.2366036,507.93956,102.9633)"
       gradientUnits="userSpaceOnUse" />
    <radialGradient
       inkscape:collect="always"
       xlink:href="#linearGradient4177"
       id="radialGradient4175"
       gradientUnits="userSpaceOnUse"
       gradientTransform="matrix(-1.5246039,0.21712635,-0.17848073,-1.2533036,367.50086,150.71373)"
       cx="147.58562"
       cy="81.192192"
       fx="147.58562"
       fy="81.192192"
       r="105.92916" />
    <linearGradient
       inkscape:collect="always"
       xlink:href="#linearGradient4125"
       id="linearGradient4191"
       x1="134.75"
       y1="32.5"
       x2="49.5"
       y2="43.25"
       gradientUnits="userSpaceOnUse" />
  </defs>
  <sodipodi:namedview
     id="base"
     pagecolor="#ffffff"
     bordercolor="#666666"
     borderopacity="1.0"
     inkscape:pageopacity="0.0"
     inkscape:pageshadow="2"
     inkscape:zoom="1"
     inkscape:cx="-68.307584"
     inkscape:cy="185.97209"
     inkscape:document-units="px"
     inkscape:current-layer="layer1"
     showgrid="false"
     fit-margin-top="0"
     fit-margin-left="0"
     fit-margin-right="0"
     fit-margin-bottom="0"
     inkscape:window-width="1366"
     inkscape:window-height="705"
     inkscape:window-x="-8"
     inkscape:window-y="-8"
     inkscape:window-maximized="1" />
  <metadata
     id="metadata4228">
    <rdf:RDF>
      <cc:Work
         rdf:about="">
        <dc:format>image/svg+xml</dc:format>
        <dc:type
           rdf:resource="http://purl.org/dc/dcmitype/StillImage" />
        <dc:title></dc:title>
      </cc:Work>
    </rdf:RDF>
  </metadata>
  <g
     inkscape:label="Layer 1"
     inkscape:groupmode="layer"
     id="layer1"
     transform="translate(-557.56071,-286.41653)">
    <path
       id="path3768"
       transform="translate(576.09924,264.56127)"
       d="M 67.5,38.9375 C 56.411471,38.969287 43.538663,39.12207 36.375,39.5 19.052365,45.117739 -0.55223216,54.907186 -9.09375,71.3125 c -13.839469,26.580853 -9.8474,61.60252 0,89.90625 C 1.0669251,190.42292 48.5,233.9375 48.5,233.9375 l 38.40625,0 0.96875,0 38.4375,0 c 0,0 47.40182,-43.51458 57.5625,-72.71875 9.8474,-28.30373 13.83947,-63.32539 0,-89.90625 C 175.33348,54.90719 155.72889,45.11774 138.40625,39.5 124.65423,38.774491 90.648848,38.951365 87.875,38.96875 c 0,0 -0.852708,7.27e-4 -0.96875,0 C 85.577347,38.960421 77.698023,38.908266 67.5,38.9375 z"
       style="fill:#ffffff;stroke:#000000;stroke-width:1px;stroke-linecap:butt;stroke-linejoin:miter;stroke-opacity:1"
       inkscape:connector-curvature="0" />
    <path
       style="fill:url(#radialGradient4175);fill-opacity:1;stroke:#000000;stroke-width:1px;stroke-linecap:butt;stroke-linejoin:miter;stroke-opacity:1"
       d="M 67.5,38.9375 C 56.411471,38.969287 43.538663,39.12207 36.375,39.5 19.052365,45.117739 -0.55223216,54.907186 -9.09375,71.3125 c -13.839469,26.580853 -9.8474,61.60252 0,89.90625 C 1.0669251,190.42292 48.5,233.9375 48.5,233.9375 l 38.40625,0 0.96875,0 38.4375,0 c 0,0 47.40182,-43.51458 57.5625,-72.71875 9.8474,-28.30373 13.83947,-63.32539 0,-89.90625 C 175.33348,54.90719 155.72889,45.11774 138.40625,39.5 124.65423,38.774491 90.648848,38.951365 87.875,38.96875 c 0,0 -0.852708,7.27e-4 -0.96875,0 C 85.577347,38.960421 77.698023,38.908266 67.5,38.9375 z"
       transform="translate(576.09924,264.56127)"
       id="path2983"
       inkscape:connector-curvature="0" />
    <path
       sodipodi:type="star"
       style="fill:#0044aa;fill-opacity:1;fill-rule:evenodd;stroke:none"
       id="path2988"
       sodipodi:sides="18"
       sodipodi:cx="6.5659914"
       sodipodi:cy="97.568489"
       sodipodi:r1="71.656776"
       sodipodi:r2="2.5079873"
       sodipodi:arg1="0.86522815"
       sodipodi:arg2="1.0397611"
       inkscape:flatsided="false"
       inkscape:rounded="10"
       inkscape:randomized="0"
       d="M 53.033007,152.11673 C -473.65796,600.77938 604.4349,-250.65646 7.836102,99.731085 -588.76269,450.11863 679.95339,-76.746346 31.574108,164.71972 -616.80518,406.18578 687.47894,-25.172721 7.0198538,100.03507 -673.43923,225.24286 698.96235,164.07818 7.0988604,169.22328 -684.76463,174.36839 688.39483,215.11542 6.148863,100.04154 -676.0971,-15.032334 634.45808,396.88066 -17.440659,165.08422 -669.3394,-66.71221 607.0721,441.22567 5.3281841,99.749735 -596.41573,-241.7262 494.22077,593.58167 -39.084622,152.80177 -572.39001,-287.97813 453.31947,625.88579 4.656803,99.194835 -444.00587,-427.49612 295.16509,730.45617 -55.222447,133.85736 -405.60998,-462.74144 245.68178,746.82305 4.2156982,98.443773 -237.25038,-549.93551 61.300097,790.99508 -63.907675,110.53599 -189.11545,-569.9231 9.2031945,789.45063 4.0580735,97.587139 -1.0870476,-594.27635 -179.16663,767.8965 -64.092738,85.650538 50.981158,-596.59543 -227.59348,748.627 4.2029406,96.728256 235.99936,-555.17049 -397.23127,663.94648 -55.755316,62.20257 285.72064,-539.54134 -436.14706,629.27612 4.6328266,95.970718 445.41271,-437.33468 -566.592,491.68291 -39.901024,43.020253 486.78995,-405.6424 -591.30291,445.79344 5.2958808,95.405894 601.89468,-254.98166 -666.82141,271.88332 -18.442125,30.417259 629.93716,-211.04881 -674.34696,220.3097 6.112129,95.101911 686.57121,-30.105878 -685.83036,31.058798 6.0331224,25.913694 697.89661,20.76859 -675.26285,-19.978445 6.9831198,95.095433 689.22909,210.16931 -621.3261,-201.74368 30.572642,30.052755 682.47138,261.84919 -593.94012,-246.08869 7.8037987,95.387243 609.54771,436.86318 -481.08878,-398.44469 52.216605,42.33521 585.52199,483.11511 -440.18749,-430.74882 8.4751798,95.942144 457.13785,622.6331 -282.0331,-535.31919 68.35443,61.279613 418.74196,657.87842 -232.5498,-551.68607 8.9162846,96.693205 250.38237,745.07248 -48.168115,-595.8581 77.039657,84.600991 202.24743,765.06008 3.9287883,-594.31365 9.0739093,97.549839 14.21903,789.41333 192.29862,-572.75952 77.224721,109.48644 -37.849175,791.7324 240.72546,-553.49003 8.9290422,98.408722 -222.86737,750.30747 410.36325,-468.8095 68.887299,132.93441 -272.58865,734.67832 449.27904,-434.13914 8.4991562,99.166261 -432.28073,632.47166 579.72398,-296.54593 53.033007,152.11673 z"
       transform="matrix(0.1573569,0,0,0.18560248,582.70346,374.87794)"
       clip-path="url(#clipPath4095)" />
    <path
       transform="matrix(0.17895646,0,0,0.18560248,631.91878,378.87794)"
       d="M 53.033007,152.11673 C -473.65796,600.77938 604.4349,-250.65646 7.836102,99.731085 -588.76269,450.11863 679.95339,-76.746346 31.574108,164.71972 -616.80518,406.18578 687.47894,-25.172721 7.0198538,100.03507 -673.43923,225.24286 698.96235,164.07818 7.0988604,169.22328 -684.76463,174.36839 688.39483,215.11542 6.148863,100.04154 -676.0971,-15.032334 634.45808,396.88066 -17.440659,165.08422 -669.3394,-66.71221 607.0721,441.22567 5.3281841,99.749735 -596.41573,-241.7262 494.22077,593.58167 -39.084622,152.80177 -572.39001,-287.97813 453.31947,625.88579 4.656803,99.194835 -444.00587,-427.49612 295.16509,730.45617 -55.222447,133.85736 -405.60998,-462.74144 245.68178,746.82305 4.2156982,98.443773 -237.25038,-549.93551 61.300097,790.99508 -63.907675,110.53599 -189.11545,-569.9231 9.2031945,789.45063 4.0580735,97.587139 -1.0870476,-594.27635 -179.16663,767.8965 -64.092738,85.650538 50.981158,-596.59543 -227.59348,748.627 4.2029406,96.728256 235.99936,-555.17049 -397.23127,663.94648 -55.755316,62.20257 285.72064,-539.54134 -436.14706,629.27612 4.6328266,95.970718 445.41271,-437.33468 -566.592,491.68291 -39.901024,43.020253 486.78995,-405.6424 -591.30291,445.79344 5.2958808,95.405894 601.89468,-254.98166 -666.82141,271.88332 -18.442125,30.417259 629.93716,-211.04881 -674.34696,220.3097 6.112129,95.101911 686.57121,-30.105878 -685.83036,31.058798 6.0331224,25.913694 697.89661,20.76859 -675.26285,-19.978445 6.9831198,95.095433 689.22909,210.16931 -621.3261,-201.74368 30.572642,30.052755 682.47138,261.84919 -593.94012,-246.08869 7.8037987,95.387243 609.54771,436.86318 -481.08878,-398.44469 52.216605,42.33521 585.52199,483.11511 -440.18749,-430.74882 8.4751798,95.942144 457.13785,622.6331 -282.0331,-535.31919 68.35443,61.279613 418.74196,657.87842 -232.5498,-551.68607 8.9162846,96.693205 250.38237,745.07248 -48.168115,-595.8581 77.039657,84.600991 202.24743,765.06008 3.9287883,-594.31365 9.0739093,97.549839 14.21903,789.41333 192.29862,-572.75952 77.224721,109.48644 -37.849175,791.7324 240.72546,-553.49003 8.9290422,98.408722 -222.86737,750.30747 410.36325,-468.8095 68.887299,132.93441 -272.58865,734.67832 449.27904,-434.13914 8.4991562,99.166261 -432.28073,632.47166 579.72398,-296.54593 53.033007,152.11673 z"
       inkscape:randomized="0"
       inkscape:rounded="10"
       inkscape:flatsided="false"
       sodipodi:arg2="1.0397611"
       sodipodi:arg1="0.86522815"
       sodipodi:r2="2.5079873"
       sodipodi:r1="71.656776"
       sodipodi:cy="97.568489"
       sodipodi:cx="6.5659914"
       sodipodi:sides="18"
       id="path3758"
       style="fill:#0044aa;fill-opacity:1;fill-rule:evenodd;stroke:none"
       sodipodi:type="star"
       clip-path="url(#clipPath4091)" />
    <path
       sodipodi:type="star"
       style="fill:#0044aa;fill-opacity:1;fill-rule:evenodd;stroke:none"
       id="path3760"
       sodipodi:sides="18"
       sodipodi:cx="6.5659914"
       sodipodi:cy="97.568489"
       sodipodi:r1="71.656776"
       sodipodi:r2="2.5079873"
       sodipodi:arg1="0.86522815"
       sodipodi:arg2="1.0397611"
       inkscape:flatsided="false"
       inkscape:rounded="10"
       inkscape:randomized="0"
       d="M 53.033007,152.11673 C -473.65796,600.77938 604.4349,-250.65646 7.836102,99.731085 -588.76269,450.11863 679.95339,-76.746346 31.574108,164.71972 -616.80518,406.18578 687.47894,-25.172721 7.0198538,100.03507 -673.43923,225.24286 698.96235,164.07818 7.0988604,169.22328 -684.76463,174.36839 688.39483,215.11542 6.148863,100.04154 -676.0971,-15.032334 634.45808,396.88066 -17.440659,165.08422 -669.3394,-66.71221 607.0721,441.22567 5.3281841,99.749735 -596.41573,-241.7262 494.22077,593.58167 -39.084622,152.80177 -572.39001,-287.97813 453.31947,625.88579 4.656803,99.194835 -444.00587,-427.49612 295.16509,730.45617 -55.222447,133.85736 -405.60998,-462.74144 245.68178,746.82305 4.2156982,98.443773 -237.25038,-549.93551 61.300097,790.99508 -63.907675,110.53599 -189.11545,-569.9231 9.2031945,789.45063 4.0580735,97.587139 -1.0870476,-594.27635 -179.16663,767.8965 -64.092738,85.650538 50.981158,-596.59543 -227.59348,748.627 4.2029406,96.728256 235.99936,-555.17049 -397.23127,663.94648 -55.755316,62.20257 285.72064,-539.54134 -436.14706,629.27612 4.6328266,95.970718 445.41271,-437.33468 -566.592,491.68291 -39.901024,43.020253 486.78995,-405.6424 -591.30291,445.79344 5.2958808,95.405894 601.89468,-254.98166 -666.82141,271.88332 -18.442125,30.417259 629.93716,-211.04881 -674.34696,220.3097 6.112129,95.101911 686.57121,-30.105878 -685.83036,31.058798 6.0331224,25.913694 697.89661,20.76859 -675.26285,-19.978445 6.9831198,95.095433 689.22909,210.16931 -621.3261,-201.74368 30.572642,30.052755 682.47138,261.84919 -593.94012,-246.08869 7.8037987,95.387243 609.54771,436.86318 -481.08878,-398.44469 52.216605,42.33521 585.52199,483.11511 -440.18749,-430.74882 8.4751798,95.942144 457.13785,622.6331 -282.0331,-535.31919 68.35443,61.279613 418.74196,657.87842 -232.5498,-551.68607 8.9162846,96.693205 250.38237,745.07248 -48.168115,-595.8581 77.039657,84.600991 202.24743,765.06008 3.9287883,-594.31365 9.0739093,97.549839 14.21903,789.41333 192.29862,-572.75952 77.224721,109.48644 -37.849175,791.7324 240.72546,-553.49003 8.9290422,98.408722 -222.86737,750.30747 410.36325,-468.8095 68.887299,132.93441 -272.58865,734.67832 449.27904,-434.13914 8.4991562,99.166261 -432.28073,632.47166 579.72398,-296.54593 53.033007,152.11673 z"
       transform="matrix(0.17895646,0,0,0.18560248,687.06164,378.87794)"
       clip-path="url(#clipPath4087)" />
    <path
       transform="matrix(0.15403389,0,0,0.18560248,735.86813,374.87794)"
       d="M 53.033007,152.11673 C -473.65796,600.77938 604.4349,-250.65646 7.836102,99.731085 -588.76269,450.11863 679.95339,-76.746346 31.574108,164.71972 -616.80518,406.18578 687.47894,-25.172721 7.0198538,100.03507 -673.43923,225.24286 698.96235,164.07818 7.0988604,169.22328 -684.76463,174.36839 688.39483,215.11542 6.148863,100.04154 -676.0971,-15.032334 634.45808,396.88066 -17.440659,165.08422 -669.3394,-66.71221 607.0721,441.22567 5.3281841,99.749735 -596.41573,-241.7262 494.22077,593.58167 -39.084622,152.80177 -572.39001,-287.97813 453.31947,625.88579 4.656803,99.194835 -444.00587,-427.49612 295.16509,730.45617 -55.222447,133.85736 -405.60998,-462.74144 245.68178,746.82305 4.2156982,98.443773 -237.25038,-549.93551 61.300097,790.99508 -63.907675,110.53599 -189.11545,-569.9231 9.2031945,789.45063 4.0580735,97.587139 -1.0870476,-594.27635 -179.16663,767.8965 -64.092738,85.650538 50.981158,-596.59543 -227.59348,748.627 4.2029406,96.728256 235.99936,-555.17049 -397.23127,663.94648 -55.755316,62.20257 285.72064,-539.54134 -436.14706,629.27612 4.6328266,95.970718 445.41271,-437.33468 -566.592,491.68291 -39.901024,43.020253 486.78995,-405.6424 -591.30291,445.79344 5.2958808,95.405894 601.89468,-254.98166 -666.82141,271.88332 -18.442125,30.417259 629.93716,-211.04881 -674.34696,220.3097 6.112129,95.101911 686.57121,-30.105878 -685.83036,31.058798 6.0331224,25.913694 697.89661,20.76859 -675.26285,-19.978445 6.9831198,95.095433 689.22909,210.16931 -621.3261,-201.74368 30.572642,30.052755 682.47138,261.84919 -593.94012,-246.08869 7.8037987,95.387243 609.54771,436.86318 -481.08878,-398.44469 52.216605,42.33521 585.52199,483.11511 -440.18749,-430.74882 8.4751798,95.942144 457.13785,622.6331 -282.0331,-535.31919 68.35443,61.279613 418.74196,657.87842 -232.5498,-551.68607 8.9162846,96.693205 250.38237,745.07248 -48.168115,-595.8581 77.039657,84.600991 202.24743,765.06008 3.9287883,-594.31365 9.0739093,97.549839 14.21903,789.41333 192.29862,-572.75952 77.224721,109.48644 -37.849175,791.7324 240.72546,-553.49003 8.9290422,98.408722 -222.86737,750.30747 410.36325,-468.8095 68.887299,132.93441 -272.58865,734.67832 449.27904,-434.13914 8.4991562,99.166261 -432.28073,632.47166 579.72398,-296.54593 53.033007,152.11673 z"
       inkscape:randomized="0"
       inkscape:rounded="10"
       inkscape:flatsided="false"
       sodipodi:arg2="1.0397611"
       sodipodi:arg1="0.86522815"
       sodipodi:r2="2.5079873"
       sodipodi:r1="71.656776"
       sodipodi:cy="97.568489"
       sodipodi:cx="6.5659914"
       sodipodi:sides="18"
       id="path3762"
       style="fill:#0044aa;fill-opacity:1;fill-rule:evenodd;stroke:none"
       sodipodi:type="star"
       clip-path="url(#clipPath4083)" />
    <path
       sodipodi:type="star"
       style="fill:#0044aa;fill-opacity:1;fill-rule:evenodd;stroke:none"
       id="path3764"
       sodipodi:sides="18"
       sodipodi:cx="6.5659914"
       sodipodi:cy="97.568489"
       sodipodi:r1="71.656776"
       sodipodi:r2="2.5079873"
       sodipodi:arg1="0.86522815"
       sodipodi:arg2="1.0397611"
       inkscape:flatsided="false"
       inkscape:rounded="10"
       inkscape:randomized="0"
       d="M 53.033007,152.11673 C -473.65796,600.77938 604.4349,-250.65646 7.836102,99.731085 -588.76269,450.11863 679.95339,-76.746346 31.574108,164.71972 -616.80518,406.18578 687.47894,-25.172721 7.0198538,100.03507 -673.43923,225.24286 698.96235,164.07818 7.0988604,169.22328 -684.76463,174.36839 688.39483,215.11542 6.148863,100.04154 -676.0971,-15.032334 634.45808,396.88066 -17.440659,165.08422 -669.3394,-66.71221 607.0721,441.22567 5.3281841,99.749735 -596.41573,-241.7262 494.22077,593.58167 -39.084622,152.80177 -572.39001,-287.97813 453.31947,625.88579 4.656803,99.194835 -444.00587,-427.49612 295.16509,730.45617 -55.222447,133.85736 -405.60998,-462.74144 245.68178,746.82305 4.2156982,98.443773 -237.25038,-549.93551 61.300097,790.99508 -63.907675,110.53599 -189.11545,-569.9231 9.2031945,789.45063 4.0580735,97.587139 -1.0870476,-594.27635 -179.16663,767.8965 -64.092738,85.650538 50.981158,-596.59543 -227.59348,748.627 4.2029406,96.728256 235.99936,-555.17049 -397.23127,663.94648 -55.755316,62.20257 285.72064,-539.54134 -436.14706,629.27612 4.6328266,95.970718 445.41271,-437.33468 -566.592,491.68291 -39.901024,43.020253 486.78995,-405.6424 -591.30291,445.79344 5.2958808,95.405894 601.89468,-254.98166 -666.82141,271.88332 -18.442125,30.417259 629.93716,-211.04881 -674.34696,220.3097 6.112129,95.101911 686.57121,-30.105878 -685.83036,31.058798 6.0331224,25.913694 697.89661,20.76859 -675.26285,-19.978445 6.9831198,95.095433 689.22909,210.16931 -621.3261,-201.74368 30.572642,30.052755 682.47138,261.84919 -593.94012,-246.08869 7.8037987,95.387243 609.54771,436.86318 -481.08878,-398.44469 52.216605,42.33521 585.52199,483.11511 -440.18749,-430.74882 8.4751798,95.942144 457.13785,622.6331 -282.0331,-535.31919 68.35443,61.279613 418.74196,657.87842 -232.5498,-551.68607 8.9162846,96.693205 250.38237,745.07248 -48.168115,-595.8581 77.039657,84.600991 202.24743,765.06008 3.9287883,-594.31365 9.0739093,97.549839 14.21903,789.41333 192.29862,-572.75952 77.224721,109.48644 -37.849175,791.7324 240.72546,-553.49003 8.9290422,98.408722 -222.86737,750.30747 410.36325,-468.8095 68.887299,132.93441 -272.58865,734.67832 449.27904,-434.13914 8.4991562,99.166261 -432.28073,632.47166 579.72398,-296.54593 53.033007,152.11673 z"
       transform="matrix(0.10418874,0,0,0.18560248,767.48113,368.87794)"
       clip-path="url(#clipPath4079)" />
    <path
       transform="matrix(0.1573569,0,0,0.18560248,542.70346,368.87794)"
       d="M 53.033007,152.11673 C -473.65796,600.77938 604.4349,-250.65646 7.836102,99.731085 -588.76269,450.11863 679.95339,-76.746346 31.574108,164.71972 -616.80518,406.18578 687.47894,-25.172721 7.0198538,100.03507 -673.43923,225.24286 698.96235,164.07818 7.0988604,169.22328 -684.76463,174.36839 688.39483,215.11542 6.148863,100.04154 -676.0971,-15.032334 634.45808,396.88066 -17.440659,165.08422 -669.3394,-66.71221 607.0721,441.22567 5.3281841,99.749735 -596.41573,-241.7262 494.22077,593.58167 -39.084622,152.80177 -572.39001,-287.97813 453.31947,625.88579 4.656803,99.194835 -444.00587,-427.49612 295.16509,730.45617 -55.222447,133.85736 -405.60998,-462.74144 245.68178,746.82305 4.2156982,98.443773 -237.25038,-549.93551 61.300097,790.99508 -63.907675,110.53599 -189.11545,-569.9231 9.2031945,789.45063 4.0580735,97.587139 -1.0870476,-594.27635 -179.16663,767.8965 -64.092738,85.650538 50.981158,-596.59543 -227.59348,748.627 4.2029406,96.728256 235.99936,-555.17049 -397.23127,663.94648 -55.755316,62.20257 285.72064,-539.54134 -436.14706,629.27612 4.6328266,95.970718 445.41271,-437.33468 -566.592,491.68291 -39.901024,43.020253 486.78995,-405.6424 -591.30291,445.79344 5.2958808,95.405894 601.89468,-254.98166 -666.82141,271.88332 -18.442125,30.417259 629.93716,-211.04881 -674.34696,220.3097 6.112129,95.101911 686.57121,-30.105878 -685.83036,31.058798 6.0331224,25.913694 697.89661,20.76859 -675.26285,-19.978445 6.9831198,95.095433 689.22909,210.16931 -621.3261,-201.74368 30.572642,30.052755 682.47138,261.84919 -593.94012,-246.08869 7.8037987,95.387243 609.54771,436.86318 -481.08878,-398.44469 52.216605,42.33521 585.52199,483.11511 -440.18749,-430.74882 8.4751798,95.942144 457.13785,622.6331 -282.0331,-535.31919 68.35443,61.279613 418.74196,657.87842 -232.5498,-551.68607 8.9162846,96.693205 250.38237,745.07248 -48.168115,-595.8581 77.039657,84.600991 202.24743,765.06008 3.9287883,-594.31365 9.0739093,97.549839 14.21903,789.41333 192.29862,-572.75952 77.224721,109.48644 -37.849175,791.7324 240.72546,-553.49003 8.9290422,98.408722 -222.86737,750.30747 410.36325,-468.8095 68.887299,132.93441 -272.58865,734.67832 449.27904,-434.13914 8.4991562,99.166261 -432.28073,632.47166 579.72398,-296.54593 53.033007,152.11673 z"
       inkscape:randomized="0"
       inkscape:rounded="10"
       inkscape:flatsided="false"
       sodipodi:arg2="1.0397611"
       sodipodi:arg1="0.86522815"
       sodipodi:r2="2.5079873"
       sodipodi:r1="71.656776"
       sodipodi:cy="97.568489"
       sodipodi:cx="6.5659914"
       sodipodi:sides="18"
       id="path3766"
       style="fill:#0044aa;fill-opacity:1;fill-rule:evenodd;stroke:none"
       sodipodi:type="star"
       clip-path="url(#clipPath4075)" />
    <path
       transform="matrix(0.12447375,0,0,0.1468168,600.81599,462.45323)"
       d="M 53.033007,152.11673 C -473.65796,600.77938 604.4349,-250.65646 7.836102,99.731085 -588.76269,450.11863 679.95339,-76.746346 31.574108,164.71972 -616.80518,406.18578 687.47894,-25.172721 7.0198538,100.03507 -673.43923,225.24286 698.96235,164.07818 7.0988604,169.22328 -684.76463,174.36839 688.39483,215.11542 6.148863,100.04154 -676.0971,-15.032334 634.45808,396.88066 -17.440659,165.08422 -669.3394,-66.71221 607.0721,441.22567 5.3281841,99.749735 -596.41573,-241.7262 494.22077,593.58167 -39.084622,152.80177 -572.39001,-287.97813 453.31947,625.88579 4.656803,99.194835 -444.00587,-427.49612 295.16509,730.45617 -55.222447,133.85736 -405.60998,-462.74144 245.68178,746.82305 4.2156982,98.443773 -237.25038,-549.93551 61.300097,790.99508 -63.907675,110.53599 -189.11545,-569.9231 9.2031945,789.45063 4.0580735,97.587139 -1.0870476,-594.27635 -179.16663,767.8965 -64.092738,85.650538 50.981158,-596.59543 -227.59348,748.627 4.2029406,96.728256 235.99936,-555.17049 -397.23127,663.94648 -55.755316,62.20257 285.72064,-539.54134 -436.14706,629.27612 4.6328266,95.970718 445.41271,-437.33468 -566.592,491.68291 -39.901024,43.020253 486.78995,-405.6424 -591.30291,445.79344 5.2958808,95.405894 601.89468,-254.98166 -666.82141,271.88332 -18.442125,30.417259 629.93716,-211.04881 -674.34696,220.3097 6.112129,95.101911 686.57121,-30.105878 -685.83036,31.058798 6.0331224,25.913694 697.89661,20.76859 -675.26285,-19.978445 6.9831198,95.095433 689.22909,210.16931 -621.3261,-201.74368 30.572642,30.052755 682.47138,261.84919 -593.94012,-246.08869 7.8037987,95.387243 609.54771,436.86318 -481.08878,-398.44469 52.216605,42.33521 585.52199,483.11511 -440.18749,-430.74882 8.4751798,95.942144 457.13785,622.6331 -282.0331,-535.31919 68.35443,61.279613 418.74196,657.87842 -232.5498,-551.68607 8.9162846,96.693205 250.38237,745.07248 -48.168115,-595.8581 77.039657,84.600991 202.24743,765.06008 3.9287883,-594.31365 9.0739093,97.549839 14.21903,789.41333 192.29862,-572.75952 77.224721,109.48644 -37.849175,791.7324 240.72546,-553.49003 8.9290422,98.408722 -222.86737,750.30747 410.36325,-468.8095 68.887299,132.93441 -272.58865,734.67832 449.27904,-434.13914 8.4991562,99.166261 -432.28073,632.47166 579.72398,-296.54593 53.033007,152.11673 z"
       inkscape:randomized="0"
       inkscape:rounded="10"
       inkscape:flatsided="false"
       sodipodi:arg2="1.0397611"
       sodipodi:arg1="0.86522815"
       sodipodi:r2="2.5079873"
       sodipodi:r1="71.656776"
       sodipodi:cy="97.568489"
       sodipodi:cx="6.5659914"
       sodipodi:sides="18"
       id="path4001"
       style="fill:#0044aa;fill-opacity:1;fill-rule:evenodd;stroke:none"
       sodipodi:type="star"
       clip-path="url(#clipPath4071)" />
    <path
       sodipodi:type="star"
       style="fill:#0044aa;fill-opacity:1;fill-rule:evenodd;stroke:none"
       id="path4003"
       sodipodi:sides="18"
       sodipodi:cx="6.5659914"
       sodipodi:cy="97.568489"
       sodipodi:r1="71.656776"
       sodipodi:r2="2.5079873"
       sodipodi:arg1="0.86522815"
       sodipodi:arg2="1.0397611"
       inkscape:flatsided="false"
       inkscape:rounded="10"
       inkscape:randomized="0"
       d="M 53.033007,152.11673 C -473.65796,600.77938 604.4349,-250.65646 7.836102,99.731085 -588.76269,450.11863 679.95339,-76.746346 31.574108,164.71972 -616.80518,406.18578 687.47894,-25.172721 7.0198538,100.03507 -673.43923,225.24286 698.96235,164.07818 7.0988604,169.22328 -684.76463,174.36839 688.39483,215.11542 6.148863,100.04154 -676.0971,-15.032334 634.45808,396.88066 -17.440659,165.08422 -669.3394,-66.71221 607.0721,441.22567 5.3281841,99.749735 -596.41573,-241.7262 494.22077,593.58167 -39.084622,152.80177 -572.39001,-287.97813 453.31947,625.88579 4.656803,99.194835 -444.00587,-427.49612 295.16509,730.45617 -55.222447,133.85736 -405.60998,-462.74144 245.68178,746.82305 4.2156982,98.443773 -237.25038,-549.93551 61.300097,790.99508 -63.907675,110.53599 -189.11545,-569.9231 9.2031945,789.45063 4.0580735,97.587139 -1.0870476,-594.27635 -179.16663,767.8965 -64.092738,85.650538 50.981158,-596.59543 -227.59348,748.627 4.2029406,96.728256 235.99936,-555.17049 -397.23127,663.94648 -55.755316,62.20257 285.72064,-539.54134 -436.14706,629.27612 4.6328266,95.970718 445.41271,-437.33468 -566.592,491.68291 -39.901024,43.020253 486.78995,-405.6424 -591.30291,445.79344 5.2958808,95.405894 601.89468,-254.98166 -666.82141,271.88332 -18.442125,30.417259 629.93716,-211.04881 -674.34696,220.3097 6.112129,95.101911 686.57121,-30.105878 -685.83036,31.058798 6.0331224,25.913694 697.89661,20.76859 -675.26285,-19.978445 6.9831198,95.095433 689.22909,210.16931 -621.3261,-201.74368 30.572642,30.052755 682.47138,261.84919 -593.94012,-246.08869 7.8037987,95.387243 609.54771,436.86318 -481.08878,-398.44469 52.216605,42.33521 585.52199,483.11511 -440.18749,-430.74882 8.4751798,95.942144 457.13785,622.6331 -282.0331,-535.31919 68.35443,61.279613 418.74196,657.87842 -232.5498,-551.68607 8.9162846,96.693205 250.38237,745.07248 -48.168115,-595.8581 77.039657,84.600991 202.24743,765.06008 3.9287883,-594.31365 9.0739093,97.549839 14.21903,789.41333 192.29862,-572.75952 77.224721,109.48644 -37.849175,791.7324 240.72546,-553.49003 8.9290422,98.408722 -222.86737,750.30747 410.36325,-468.8095 68.887299,132.93441 -272.58865,734.67832 449.27904,-434.13914 8.4991562,99.166261 -432.28073,632.47166 579.72398,-296.54593 53.033007,152.11673 z"
       transform="matrix(0.14155961,0,0,0.1468168,639.7467,471.61734)"
       clip-path="url(#clipPath4067)" />
    <path
       transform="matrix(0.14155961,0,0,0.1468168,683.36626,471.61734)"
       d="M 53.033007,152.11673 C -473.65796,600.77938 604.4349,-250.65646 7.836102,99.731085 -588.76269,450.11863 679.95339,-76.746346 31.574108,164.71972 -616.80518,406.18578 687.47894,-25.172721 7.0198538,100.03507 -673.43923,225.24286 698.96235,164.07818 7.0988604,169.22328 -684.76463,174.36839 688.39483,215.11542 6.148863,100.04154 -676.0971,-15.032334 634.45808,396.88066 -17.440659,165.08422 -669.3394,-66.71221 607.0721,441.22567 5.3281841,99.749735 -596.41573,-241.7262 494.22077,593.58167 -39.084622,152.80177 -572.39001,-287.97813 453.31947,625.88579 4.656803,99.194835 -444.00587,-427.49612 295.16509,730.45617 -55.222447,133.85736 -405.60998,-462.74144 245.68178,746.82305 4.2156982,98.443773 -237.25038,-549.93551 61.300097,790.99508 -63.907675,110.53599 -189.11545,-569.9231 9.2031945,789.45063 4.0580735,97.587139 -1.0870476,-594.27635 -179.16663,767.8965 -64.092738,85.650538 50.981158,-596.59543 -227.59348,748.627 4.2029406,96.728256 235.99936,-555.17049 -397.23127,663.94648 -55.755316,62.20257 285.72064,-539.54134 -436.14706,629.27612 4.6328266,95.970718 445.41271,-437.33468 -566.592,491.68291 -39.901024,43.020253 486.78995,-405.6424 -591.30291,445.79344 5.2958808,95.405894 601.89468,-254.98166 -666.82141,271.88332 -18.442125,30.417259 629.93716,-211.04881 -674.34696,220.3097 6.112129,95.101911 686.57121,-30.105878 -685.83036,31.058798 6.0331224,25.913694 697.89661,20.76859 -675.26285,-19.978445 6.9831198,95.095433 689.22909,210.16931 -621.3261,-201.74368 30.572642,30.052755 682.47138,261.84919 -593.94012,-246.08869 7.8037987,95.387243 609.54771,436.86318 -481.08878,-398.44469 52.216605,42.33521 585.52199,483.11511 -440.18749,-430.74882 8.4751798,95.942144 457.13785,622.6331 -282.0331,-535.31919 68.35443,61.279613 418.74196,657.87842 -232.5498,-551.68607 8.9162846,96.693205 250.38237,745.07248 -48.168115,-595.8581 77.039657,84.600991 202.24743,765.06008 3.9287883,-594.31365 9.0739093,97.549839 14.21903,789.41333 192.29862,-572.75952 77.224721,109.48644 -37.849175,791.7324 240.72546,-553.49003 8.9290422,98.408722 -222.86737,750.30747 410.36325,-468.8095 68.887299,132.93441 -272.58865,734.67832 449.27904,-434.13914 8.4991562,99.166261 -432.28073,632.47166 579.72398,-296.54593 53.033007,152.11673 z"
       inkscape:randomized="0"
       inkscape:rounded="10"
       inkscape:flatsided="false"
       sodipodi:arg2="1.0397611"
       sodipodi:arg1="0.86522815"
       sodipodi:r2="2.5079873"
       sodipodi:r1="71.656776"
       sodipodi:cy="97.568489"
       sodipodi:cx="6.5659914"
       sodipodi:sides="18"
       id="path4005"
       style="fill:#0044aa;fill-opacity:1;fill-rule:evenodd;stroke:none"
       sodipodi:type="star"
       clip-path="url(#clipPath4063)" />
    <path
       sodipodi:type="star"
       style="fill:#0044aa;fill-opacity:1;fill-rule:evenodd;stroke:none"
       id="path4007"
       sodipodi:sides="18"
       sodipodi:cx="6.5659914"
       sodipodi:cy="97.568489"
       sodipodi:r1="71.656776"
       sodipodi:r2="2.5079873"
       sodipodi:arg1="0.86522815"
       sodipodi:arg2="1.0397611"
       inkscape:flatsided="false"
       inkscape:rounded="10"
       inkscape:randomized="0"
       d="M 53.033007,152.11673 C -473.65796,600.77938 604.4349,-250.65646 7.836102,99.731085 -588.76269,450.11863 679.95339,-76.746346 31.574108,164.71972 -616.80518,406.18578 687.47894,-25.172721 7.0198538,100.03507 -673.43923,225.24286 698.96235,164.07818 7.0988604,169.22328 -684.76463,174.36839 688.39483,215.11542 6.148863,100.04154 -676.0971,-15.032334 634.45808,396.88066 -17.440659,165.08422 -669.3394,-66.71221 607.0721,441.22567 5.3281841,99.749735 -596.41573,-241.7262 494.22077,593.58167 -39.084622,152.80177 -572.39001,-287.97813 453.31947,625.88579 4.656803,99.194835 -444.00587,-427.49612 295.16509,730.45617 -55.222447,133.85736 -405.60998,-462.74144 245.68178,746.82305 4.2156982,98.443773 -237.25038,-549.93551 61.300097,790.99508 -63.907675,110.53599 -189.11545,-569.9231 9.2031945,789.45063 4.0580735,97.587139 -1.0870476,-594.27635 -179.16663,767.8965 -64.092738,85.650538 50.981158,-596.59543 -227.59348,748.627 4.2029406,96.728256 235.99936,-555.17049 -397.23127,663.94648 -55.755316,62.20257 285.72064,-539.54134 -436.14706,629.27612 4.6328266,95.970718 445.41271,-437.33468 -566.592,491.68291 -39.901024,43.020253 486.78995,-405.6424 -591.30291,445.79344 5.2958808,95.405894 601.89468,-254.98166 -666.82141,271.88332 -18.442125,30.417259 629.93716,-211.04881 -674.34696,220.3097 6.112129,95.101911 686.57121,-30.105878 -685.83036,31.058798 6.0331224,25.913694 697.89661,20.76859 -675.26285,-19.978445 6.9831198,95.095433 689.22909,210.16931 -621.3261,-201.74368 30.572642,30.052755 682.47138,261.84919 -593.94012,-246.08869 7.8037987,95.387243 609.54771,436.86318 -481.08878,-398.44469 52.216605,42.33521 585.52199,483.11511 -440.18749,-430.74882 8.4751798,95.942144 457.13785,622.6331 -282.0331,-535.31919 68.35443,61.279613 418.74196,657.87842 -232.5498,-551.68607 8.9162846,96.693205 250.38237,745.07248 -48.168115,-595.8581 77.039657,84.600991 202.24743,765.06008 3.9287883,-594.31365 9.0739093,97.549839 14.21903,789.41333 192.29862,-572.75952 77.224721,109.48644 -37.849175,791.7324 240.72546,-553.49003 8.9290422,98.408722 -222.86737,750.30747 410.36325,-468.8095 68.887299,132.93441 -272.58865,734.67832 449.27904,-434.13914 8.4991562,99.166261 -432.28073,632.47166 579.72398,-296.54593 53.033007,152.11673 z"
       transform="matrix(0.12184516,0,0,0.1468168,721.97357,462.45323)"
       clip-path="url(#clipPath4059)" />
    <path
       transform="matrix(0.08241624,0,0,0.1468168,746.98035,457.70706)"
       d="M 53.033007,152.11673 C -473.65796,600.77938 604.4349,-250.65646 7.836102,99.731085 -588.76269,450.11863 679.95339,-76.746346 31.574108,164.71972 -616.80518,406.18578 687.47894,-25.172721 7.0198538,100.03507 -673.43923,225.24286 698.96235,164.07818 7.0988604,169.22328 -684.76463,174.36839 688.39483,215.11542 6.148863,100.04154 -676.0971,-15.032334 634.45808,396.88066 -17.440659,165.08422 -669.3394,-66.71221 607.0721,441.22567 5.3281841,99.749735 -596.41573,-241.7262 494.22077,593.58167 -39.084622,152.80177 -572.39001,-287.97813 453.31947,625.88579 4.656803,99.194835 -444.00587,-427.49612 295.16509,730.45617 -55.222447,133.85736 -405.60998,-462.74144 245.68178,746.82305 4.2156982,98.443773 -237.25038,-549.93551 61.300097,790.99508 -63.907675,110.53599 -189.11545,-569.9231 9.2031945,789.45063 4.0580735,97.587139 -1.0870476,-594.27635 -179.16663,767.8965 -64.092738,85.650538 50.981158,-596.59543 -227.59348,748.627 4.2029406,96.728256 235.99936,-555.17049 -397.23127,663.94648 -55.755316,62.20257 285.72064,-539.54134 -436.14706,629.27612 4.6328266,95.970718 445.41271,-437.33468 -566.592,491.68291 -39.901024,43.020253 486.78995,-405.6424 -591.30291,445.79344 5.2958808,95.405894 601.89468,-254.98166 -666.82141,271.88332 -18.442125,30.417259 629.93716,-211.04881 -674.34696,220.3097 6.112129,95.101911 686.57121,-30.105878 -685.83036,31.058798 6.0331224,25.913694 697.89661,20.76859 -675.26285,-19.978445 6.9831198,95.095433 689.22909,210.16931 -621.3261,-201.74368 30.572642,30.052755 682.47138,261.84919 -593.94012,-246.08869 7.8037987,95.387243 609.54771,436.86318 -481.08878,-398.44469 52.216605,42.33521 585.52199,483.11511 -440.18749,-430.74882 8.4751798,95.942144 457.13785,622.6331 -282.0331,-535.31919 68.35443,61.279613 418.74196,657.87842 -232.5498,-551.68607 8.9162846,96.693205 250.38237,745.07248 -48.168115,-595.8581 77.039657,84.600991 202.24743,765.06008 3.9287883,-594.31365 9.0739093,97.549839 14.21903,789.41333 192.29862,-572.75952 77.224721,109.48644 -37.849175,791.7324 240.72546,-553.49003 8.9290422,98.408722 -222.86737,750.30747 410.36325,-468.8095 68.887299,132.93441 -272.58865,734.67832 449.27904,-434.13914 8.4991562,99.166261 -432.28073,632.47166 579.72398,-296.54593 53.033007,152.11673 z"
       inkscape:randomized="0"
       inkscape:rounded="10"
       inkscape:flatsided="false"
       sodipodi:arg2="1.0397611"
       sodipodi:arg1="0.86522815"
       sodipodi:r2="2.5079873"
       sodipodi:r1="71.656776"
       sodipodi:cy="97.568489"
       sodipodi:cx="6.5659914"
       sodipodi:sides="18"
       id="path4009"
       style="fill:#0044aa;fill-opacity:1;fill-rule:evenodd;stroke:none"
       sodipodi:type="star"
       clip-path="url(#clipPath4055)" />
    <path
       sodipodi:type="star"
       style="fill:#0044aa;fill-opacity:1;fill-rule:evenodd;stroke:none"
       id="path4011"
       sodipodi:sides="18"
       sodipodi:cx="6.5659914"
       sodipodi:cy="97.568489"
       sodipodi:r1="71.656776"
       sodipodi:r2="2.5079873"
       sodipodi:arg1="0.86522815"
       sodipodi:arg2="1.0397611"
       inkscape:flatsided="false"
       inkscape:rounded="10"
       inkscape:randomized="0"
       d="M 53.033007,152.11673 C -473.65796,600.77938 604.4349,-250.65646 7.836102,99.731085 -588.76269,450.11863 679.95339,-76.746346 31.574108,164.71972 -616.80518,406.18578 687.47894,-25.172721 7.0198538,100.03507 -673.43923,225.24286 698.96235,164.07818 7.0988604,169.22328 -684.76463,174.36839 688.39483,215.11542 6.148863,100.04154 -676.0971,-15.032334 634.45808,396.88066 -17.440659,165.08422 -669.3394,-66.71221 607.0721,441.22567 5.3281841,99.749735 -596.41573,-241.7262 494.22077,593.58167 -39.084622,152.80177 -572.39001,-287.97813 453.31947,625.88579 4.656803,99.194835 -444.00587,-427.49612 295.16509,730.45617 -55.222447,133.85736 -405.60998,-462.74144 245.68178,746.82305 4.2156982,98.443773 -237.25038,-549.93551 61.300097,790.99508 -63.907675,110.53599 -189.11545,-569.9231 9.2031945,789.45063 4.0580735,97.587139 -1.0870476,-594.27635 -179.16663,767.8965 -64.092738,85.650538 50.981158,-596.59543 -227.59348,748.627 4.2029406,96.728256 235.99936,-555.17049 -397.23127,663.94648 -55.755316,62.20257 285.72064,-539.54134 -436.14706,629.27612 4.6328266,95.970718 445.41271,-437.33468 -566.592,491.68291 -39.901024,43.020253 486.78995,-405.6424 -591.30291,445.79344 5.2958808,95.405894 601.89468,-254.98166 -666.82141,271.88332 -18.442125,30.417259 629.93716,-211.04881 -674.34696,220.3097 6.112129,95.101911 686.57121,-30.105878 -685.83036,31.058798 6.0331224,25.913694 697.89661,20.76859 -675.26285,-19.978445 6.9831198,95.095433 689.22909,210.16931 -621.3261,-201.74368 30.572642,30.052755 682.47138,261.84919 -593.94012,-246.08869 7.8037987,95.387243 609.54771,436.86318 -481.08878,-398.44469 52.216605,42.33521 585.52199,483.11511 -440.18749,-430.74882 8.4751798,95.942144 457.13785,622.6331 -282.0331,-535.31919 68.35443,61.279613 418.74196,657.87842 -232.5498,-551.68607 8.9162846,96.693205 250.38237,745.07248 -48.168115,-595.8581 77.039657,84.600991 202.24743,765.06008 3.9287883,-594.31365 9.0739093,97.549839 14.21903,789.41333 192.29862,-572.75952 77.224721,109.48644 -37.849175,791.7324 240.72546,-553.49003 8.9290422,98.408722 -222.86737,750.30747 410.36325,-468.8095 68.887299,132.93441 -272.58865,734.67832 449.27904,-434.13914 8.4991562,99.166261 -432.28073,632.47166 579.72398,-296.54593 53.033007,152.11673 z"
       transform="matrix(0.12447375,0,0,0.1468168,569.17486,457.70706)"
       clip-path="url(#clipPath4051)" />
    <path
       transform="matrix(0.1573569,0,0,0.18560248,582.70346,286.87794)"
       d="M 53.033007,152.11673 C -473.65796,600.77938 604.4349,-250.65646 7.836102,99.731085 -588.76269,450.11863 679.95339,-76.746346 31.574108,164.71972 -616.80518,406.18578 687.47894,-25.172721 7.0198538,100.03507 -673.43923,225.24286 698.96235,164.07818 7.0988604,169.22328 -684.76463,174.36839 688.39483,215.11542 6.148863,100.04154 -676.0971,-15.032334 634.45808,396.88066 -17.440659,165.08422 -669.3394,-66.71221 607.0721,441.22567 5.3281841,99.749735 -596.41573,-241.7262 494.22077,593.58167 -39.084622,152.80177 -572.39001,-287.97813 453.31947,625.88579 4.656803,99.194835 -444.00587,-427.49612 295.16509,730.45617 -55.222447,133.85736 -405.60998,-462.74144 245.68178,746.82305 4.2156982,98.443773 -237.25038,-549.93551 61.300097,790.99508 -63.907675,110.53599 -189.11545,-569.9231 9.2031945,789.45063 4.0580735,97.587139 -1.0870476,-594.27635 -179.16663,767.8965 -64.092738,85.650538 50.981158,-596.59543 -227.59348,748.627 4.2029406,96.728256 235.99936,-555.17049 -397.23127,663.94648 -55.755316,62.20257 285.72064,-539.54134 -436.14706,629.27612 4.6328266,95.970718 445.41271,-437.33468 -566.592,491.68291 -39.901024,43.020253 486.78995,-405.6424 -591.30291,445.79344 5.2958808,95.405894 601.89468,-254.98166 -666.82141,271.88332 -18.442125,30.417259 629.93716,-211.04881 -674.34696,220.3097 6.112129,95.101911 686.57121,-30.105878 -685.83036,31.058798 6.0331224,25.913694 697.89661,20.76859 -675.26285,-19.978445 6.9831198,95.095433 689.22909,210.16931 -621.3261,-201.74368 30.572642,30.052755 682.47138,261.84919 -593.94012,-246.08869 7.8037987,95.387243 609.54771,436.86318 -481.08878,-398.44469 52.216605,42.33521 585.52199,483.11511 -440.18749,-430.74882 8.4751798,95.942144 457.13785,622.6331 -282.0331,-535.31919 68.35443,61.279613 418.74196,657.87842 -232.5498,-551.68607 8.9162846,96.693205 250.38237,745.07248 -48.168115,-595.8581 77.039657,84.600991 202.24743,765.06008 3.9287883,-594.31365 9.0739093,97.549839 14.21903,789.41333 192.29862,-572.75952 77.224721,109.48644 -37.849175,791.7324 240.72546,-553.49003 8.9290422,98.408722 -222.86737,750.30747 410.36325,-468.8095 68.887299,132.93441 -272.58865,734.67832 449.27904,-434.13914 8.4991562,99.166261 -432.28073,632.47166 579.72398,-296.54593 53.033007,152.11673 z"
       inkscape:randomized="0"
       inkscape:rounded="10"
       inkscape:flatsided="false"
       sodipodi:arg2="1.0397611"
       sodipodi:arg1="0.86522815"
       sodipodi:r2="2.5079873"
       sodipodi:r1="71.656776"
       sodipodi:cy="97.568489"
       sodipodi:cx="6.5659914"
       sodipodi:sides="18"
       id="path4013"
       style="fill:#0044aa;fill-opacity:1;fill-rule:evenodd;stroke:none"
       sodipodi:type="star"
       clip-path="url(#clipPath4047)" />
    <path
       sodipodi:type="star"
       style="fill:#0044aa;fill-opacity:1;fill-rule:evenodd;stroke:none"
       id="path4015"
       sodipodi:sides="18"
       sodipodi:cx="6.5659914"
       sodipodi:cy="97.568489"
       sodipodi:r1="71.656776"
       sodipodi:r2="2.5079873"
       sodipodi:arg1="0.86522815"
       sodipodi:arg2="1.0397611"
       inkscape:flatsided="false"
       inkscape:rounded="10"
       inkscape:randomized="0"
       d="M 53.033007,152.11673 C -473.65796,600.77938 604.4349,-250.65646 7.836102,99.731085 -588.76269,450.11863 679.95339,-76.746346 31.574108,164.71972 -616.80518,406.18578 687.47894,-25.172721 7.0198538,100.03507 -673.43923,225.24286 698.96235,164.07818 7.0988604,169.22328 -684.76463,174.36839 688.39483,215.11542 6.148863,100.04154 -676.0971,-15.032334 634.45808,396.88066 -17.440659,165.08422 -669.3394,-66.71221 607.0721,441.22567 5.3281841,99.749735 -596.41573,-241.7262 494.22077,593.58167 -39.084622,152.80177 -572.39001,-287.97813 453.31947,625.88579 4.656803,99.194835 -444.00587,-427.49612 295.16509,730.45617 -55.222447,133.85736 -405.60998,-462.74144 245.68178,746.82305 4.2156982,98.443773 -237.25038,-549.93551 61.300097,790.99508 -63.907675,110.53599 -189.11545,-569.9231 9.2031945,789.45063 4.0580735,97.587139 -1.0870476,-594.27635 -179.16663,767.8965 -64.092738,85.650538 50.981158,-596.59543 -227.59348,748.627 4.2029406,96.728256 235.99936,-555.17049 -397.23127,663.94648 -55.755316,62.20257 285.72064,-539.54134 -436.14706,629.27612 4.6328266,95.970718 445.41271,-437.33468 -566.592,491.68291 -39.901024,43.020253 486.78995,-405.6424 -591.30291,445.79344 5.2958808,95.405894 601.89468,-254.98166 -666.82141,271.88332 -18.442125,30.417259 629.93716,-211.04881 -674.34696,220.3097 6.112129,95.101911 686.57121,-30.105878 -685.83036,31.058798 6.0331224,25.913694 697.89661,20.76859 -675.26285,-19.978445 6.9831198,95.095433 689.22909,210.16931 -621.3261,-201.74368 30.572642,30.052755 682.47138,261.84919 -593.94012,-246.08869 7.8037987,95.387243 609.54771,436.86318 -481.08878,-398.44469 52.216605,42.33521 585.52199,483.11511 -440.18749,-430.74882 8.4751798,95.942144 457.13785,622.6331 -282.0331,-535.31919 68.35443,61.279613 418.74196,657.87842 -232.5498,-551.68607 8.9162846,96.693205 250.38237,745.07248 -48.168115,-595.8581 77.039657,84.600991 202.24743,765.06008 3.9287883,-594.31365 9.0739093,97.549839 14.21903,789.41333 192.29862,-572.75952 77.224721,109.48644 -37.849175,791.7324 240.72546,-553.49003 8.9290422,98.408722 -222.86737,750.30747 410.36325,-468.8095 68.887299,132.93441 -272.58865,734.67832 449.27904,-434.13914 8.4991562,99.166261 -432.28073,632.47166 579.72398,-296.54593 53.033007,152.11673 z"
       transform="matrix(0.17895646,0,0,0.18560248,631.91878,290.87794)"
       clip-path="url(#clipPath4043)" />
    <path
       transform="matrix(0.17895646,0,0,0.18560248,687.06164,290.87794)"
       d="M 53.033007,152.11673 C -473.65796,600.77938 604.4349,-250.65646 7.836102,99.731085 -588.76269,450.11863 679.95339,-76.746346 31.574108,164.71972 -616.80518,406.18578 687.47894,-25.172721 7.0198538,100.03507 -673.43923,225.24286 698.96235,164.07818 7.0988604,169.22328 -684.76463,174.36839 688.39483,215.11542 6.148863,100.04154 -676.0971,-15.032334 634.45808,396.88066 -17.440659,165.08422 -669.3394,-66.71221 607.0721,441.22567 5.3281841,99.749735 -596.41573,-241.7262 494.22077,593.58167 -39.084622,152.80177 -572.39001,-287.97813 453.31947,625.88579 4.656803,99.194835 -444.00587,-427.49612 295.16509,730.45617 -55.222447,133.85736 -405.60998,-462.74144 245.68178,746.82305 4.2156982,98.443773 -237.25038,-549.93551 61.300097,790.99508 -63.907675,110.53599 -189.11545,-569.9231 9.2031945,789.45063 4.0580735,97.587139 -1.0870476,-594.27635 -179.16663,767.8965 -64.092738,85.650538 50.981158,-596.59543 -227.59348,748.627 4.2029406,96.728256 235.99936,-555.17049 -397.23127,663.94648 -55.755316,62.20257 285.72064,-539.54134 -436.14706,629.27612 4.6328266,95.970718 445.41271,-437.33468 -566.592,491.68291 -39.901024,43.020253 486.78995,-405.6424 -591.30291,445.79344 5.2958808,95.405894 601.89468,-254.98166 -666.82141,271.88332 -18.442125,30.417259 629.93716,-211.04881 -674.34696,220.3097 6.112129,95.101911 686.57121,-30.105878 -685.83036,31.058798 6.0331224,25.913694 697.89661,20.76859 -675.26285,-19.978445 6.9831198,95.095433 689.22909,210.16931 -621.3261,-201.74368 30.572642,30.052755 682.47138,261.84919 -593.94012,-246.08869 7.8037987,95.387243 609.54771,436.86318 -481.08878,-398.44469 52.216605,42.33521 585.52199,483.11511 -440.18749,-430.74882 8.4751798,95.942144 457.13785,622.6331 -282.0331,-535.31919 68.35443,61.279613 418.74196,657.87842 -232.5498,-551.68607 8.9162846,96.693205 250.38237,745.07248 -48.168115,-595.8581 77.039657,84.600991 202.24743,765.06008 3.9287883,-594.31365 9.0739093,97.549839 14.21903,789.41333 192.29862,-572.75952 77.224721,109.48644 -37.849175,791.7324 240.72546,-553.49003 8.9290422,98.408722 -222.86737,750.30747 410.36325,-468.8095 68.887299,132.93441 -272.58865,734.67832 449.27904,-434.13914 8.4991562,99.166261 -432.28073,632.47166 579.72398,-296.54593 53.033007,152.11673 z"
       inkscape:randomized="0"
       inkscape:rounded="10"
       inkscape:flatsided="false"
       sodipodi:arg2="1.0397611"
       sodipodi:arg1="0.86522815"
       sodipodi:r2="2.5079873"
       sodipodi:r1="71.656776"
       sodipodi:cy="97.568489"
       sodipodi:cx="6.5659914"
       sodipodi:sides="18"
       id="path4017"
       style="fill:#0044aa;fill-opacity:1;fill-rule:evenodd;stroke:none"
       sodipodi:type="star"
       clip-path="url(#clipPath4039)" />
    <path
       sodipodi:type="star"
       style="fill:#0044aa;fill-opacity:1;fill-rule:evenodd;stroke:none"
       id="path4019"
       sodipodi:sides="18"
       sodipodi:cx="6.5659914"
       sodipodi:cy="97.568489"
       sodipodi:r1="71.656776"
       sodipodi:r2="2.5079873"
       sodipodi:arg1="0.86522815"
       sodipodi:arg2="1.0397611"
       inkscape:flatsided="false"
       inkscape:rounded="10"
       inkscape:randomized="0"
       d="M 53.033007,152.11673 C -473.65796,600.77938 604.4349,-250.65646 7.836102,99.731085 -588.76269,450.11863 679.95339,-76.746346 31.574108,164.71972 -616.80518,406.18578 687.47894,-25.172721 7.0198538,100.03507 -673.43923,225.24286 698.96235,164.07818 7.0988604,169.22328 -684.76463,174.36839 688.39483,215.11542 6.148863,100.04154 -676.0971,-15.032334 634.45808,396.88066 -17.440659,165.08422 -669.3394,-66.71221 607.0721,441.22567 5.3281841,99.749735 -596.41573,-241.7262 494.22077,593.58167 -39.084622,152.80177 -572.39001,-287.97813 453.31947,625.88579 4.656803,99.194835 -444.00587,-427.49612 295.16509,730.45617 -55.222447,133.85736 -405.60998,-462.74144 245.68178,746.82305 4.2156982,98.443773 -237.25038,-549.93551 61.300097,790.99508 -63.907675,110.53599 -189.11545,-569.9231 9.2031945,789.45063 4.0580735,97.587139 -1.0870476,-594.27635 -179.16663,767.8965 -64.092738,85.650538 50.981158,-596.59543 -227.59348,748.627 4.2029406,96.728256 235.99936,-555.17049 -397.23127,663.94648 -55.755316,62.20257 285.72064,-539.54134 -436.14706,629.27612 4.6328266,95.970718 445.41271,-437.33468 -566.592,491.68291 -39.901024,43.020253 486.78995,-405.6424 -591.30291,445.79344 5.2958808,95.405894 601.89468,-254.98166 -666.82141,271.88332 -18.442125,30.417259 629.93716,-211.04881 -674.34696,220.3097 6.112129,95.101911 686.57121,-30.105878 -685.83036,31.058798 6.0331224,25.913694 697.89661,20.76859 -675.26285,-19.978445 6.9831198,95.095433 689.22909,210.16931 -621.3261,-201.74368 30.572642,30.052755 682.47138,261.84919 -593.94012,-246.08869 7.8037987,95.387243 609.54771,436.86318 -481.08878,-398.44469 52.216605,42.33521 585.52199,483.11511 -440.18749,-430.74882 8.4751798,95.942144 457.13785,622.6331 -282.0331,-535.31919 68.35443,61.279613 418.74196,657.87842 -232.5498,-551.68607 8.9162846,96.693205 250.38237,745.07248 -48.168115,-595.8581 77.039657,84.600991 202.24743,765.06008 3.9287883,-594.31365 9.0739093,97.549839 14.21903,789.41333 192.29862,-572.75952 77.224721,109.48644 -37.849175,791.7324 240.72546,-553.49003 8.9290422,98.408722 -222.86737,750.30747 410.36325,-468.8095 68.887299,132.93441 -272.58865,734.67832 449.27904,-434.13914 8.4991562,99.166261 -432.28073,632.47166 579.72398,-296.54593 53.033007,152.11673 z"
       transform="matrix(0.15403389,0,0,0.18560248,735.86813,286.87794)"
       clip-path="url(#clipPath4035)" />
    <path
       transform="matrix(0.10418874,0,0,0.18560248,767.48113,280.87794)"
       d="M 53.033007,152.11673 C -473.65796,600.77938 604.4349,-250.65646 7.836102,99.731085 -588.76269,450.11863 679.95339,-76.746346 31.574108,164.71972 -616.80518,406.18578 687.47894,-25.172721 7.0198538,100.03507 -673.43923,225.24286 698.96235,164.07818 7.0988604,169.22328 -684.76463,174.36839 688.39483,215.11542 6.148863,100.04154 -676.0971,-15.032334 634.45808,396.88066 -17.440659,165.08422 -669.3394,-66.71221 607.0721,441.22567 5.3281841,99.749735 -596.41573,-241.7262 494.22077,593.58167 -39.084622,152.80177 -572.39001,-287.97813 453.31947,625.88579 4.656803,99.194835 -444.00587,-427.49612 295.16509,730.45617 -55.222447,133.85736 -405.60998,-462.74144 245.68178,746.82305 4.2156982,98.443773 -237.25038,-549.93551 61.300097,790.99508 -63.907675,110.53599 -189.11545,-569.9231 9.2031945,789.45063 4.0580735,97.587139 -1.0870476,-594.27635 -179.16663,767.8965 -64.092738,85.650538 50.981158,-596.59543 -227.59348,748.627 4.2029406,96.728256 235.99936,-555.17049 -397.23127,663.94648 -55.755316,62.20257 285.72064,-539.54134 -436.14706,629.27612 4.6328266,95.970718 445.41271,-437.33468 -566.592,491.68291 -39.901024,43.020253 486.78995,-405.6424 -591.30291,445.79344 5.2958808,95.405894 601.89468,-254.98166 -666.82141,271.88332 -18.442125,30.417259 629.93716,-211.04881 -674.34696,220.3097 6.112129,95.101911 686.57121,-30.105878 -685.83036,31.058798 6.0331224,25.913694 697.89661,20.76859 -675.26285,-19.978445 6.9831198,95.095433 689.22909,210.16931 -621.3261,-201.74368 30.572642,30.052755 682.47138,261.84919 -593.94012,-246.08869 7.8037987,95.387243 609.54771,436.86318 -481.08878,-398.44469 52.216605,42.33521 585.52199,483.11511 -440.18749,-430.74882 8.4751798,95.942144 457.13785,622.6331 -282.0331,-535.31919 68.35443,61.279613 418.74196,657.87842 -232.5498,-551.68607 8.9162846,96.693205 250.38237,745.07248 -48.168115,-595.8581 77.039657,84.600991 202.24743,765.06008 3.9287883,-594.31365 9.0739093,97.549839 14.21903,789.41333 192.29862,-572.75952 77.224721,109.48644 -37.849175,791.7324 240.72546,-553.49003 8.9290422,98.408722 -222.86737,750.30747 410.36325,-468.8095 68.887299,132.93441 -272.58865,734.67832 449.27904,-434.13914 8.4991562,99.166261 -432.28073,632.47166 579.72398,-296.54593 53.033007,152.11673 z"
       inkscape:randomized="0"
       inkscape:rounded="10"
       inkscape:flatsided="false"
       sodipodi:arg2="1.0397611"
       sodipodi:arg1="0.86522815"
       sodipodi:r2="2.5079873"
       sodipodi:r1="71.656776"
       sodipodi:cy="97.568489"
       sodipodi:cx="6.5659914"
       sodipodi:sides="18"
       id="path4021"
       style="fill:#0044aa;fill-opacity:1;fill-rule:evenodd;stroke:none"
       sodipodi:type="star"
       clip-path="url(#clipPath4031)" />
    <path
       sodipodi:type="star"
       style="fill:#0044aa;fill-opacity:1;fill-rule:evenodd;stroke:none"
       id="path4023"
       sodipodi:sides="18"
       sodipodi:cx="6.5659914"
       sodipodi:cy="97.568489"
       sodipodi:r1="71.656776"
       sodipodi:r2="2.5079873"
       sodipodi:arg1="0.86522815"
       sodipodi:arg2="1.0397611"
       inkscape:flatsided="false"
       inkscape:rounded="10"
       inkscape:randomized="0"
       d="M 53.033007,152.11673 C -473.65796,600.77938 604.4349,-250.65646 7.836102,99.731085 -588.76269,450.11863 679.95339,-76.746346 31.574108,164.71972 -616.80518,406.18578 687.47894,-25.172721 7.0198538,100.03507 -673.43923,225.24286 698.96235,164.07818 7.0988604,169.22328 -684.76463,174.36839 688.39483,215.11542 6.148863,100.04154 -676.0971,-15.032334 634.45808,396.88066 -17.440659,165.08422 -669.3394,-66.71221 607.0721,441.22567 5.3281841,99.749735 -596.41573,-241.7262 494.22077,593.58167 -39.084622,152.80177 -572.39001,-287.97813 453.31947,625.88579 4.656803,99.194835 -444.00587,-427.49612 295.16509,730.45617 -55.222447,133.85736 -405.60998,-462.74144 245.68178,746.82305 4.2156982,98.443773 -237.25038,-549.93551 61.300097,790.99508 -63.907675,110.53599 -189.11545,-569.9231 9.2031945,789.45063 4.0580735,97.587139 -1.0870476,-594.27635 -179.16663,767.8965 -64.092738,85.650538 50.981158,-596.59543 -227.59348,748.627 4.2029406,96.728256 235.99936,-555.17049 -397.23127,663.94648 -55.755316,62.20257 285.72064,-539.54134 -436.14706,629.27612 4.6328266,95.970718 445.41271,-437.33468 -566.592,491.68291 -39.901024,43.020253 486.78995,-405.6424 -591.30291,445.79344 5.2958808,95.405894 601.89468,-254.98166 -666.82141,271.88332 -18.442125,30.417259 629.93716,-211.04881 -674.34696,220.3097 6.112129,95.101911 686.57121,-30.105878 -685.83036,31.058798 6.0331224,25.913694 697.89661,20.76859 -675.26285,-19.978445 6.9831198,95.095433 689.22909,210.16931 -621.3261,-201.74368 30.572642,30.052755 682.47138,261.84919 -593.94012,-246.08869 7.8037987,95.387243 609.54771,436.86318 -481.08878,-398.44469 52.216605,42.33521 585.52199,483.11511 -440.18749,-430.74882 8.4751798,95.942144 457.13785,622.6331 -282.0331,-535.31919 68.35443,61.279613 418.74196,657.87842 -232.5498,-551.68607 8.9162846,96.693205 250.38237,745.07248 -48.168115,-595.8581 77.039657,84.600991 202.24743,765.06008 3.9287883,-594.31365 9.0739093,97.549839 14.21903,789.41333 192.29862,-572.75952 77.224721,109.48644 -37.849175,791.7324 240.72546,-553.49003 8.9290422,98.408722 -222.86737,750.30747 410.36325,-468.8095 68.887299,132.93441 -272.58865,734.67832 449.27904,-434.13914 8.4991562,99.166261 -432.28073,632.47166 579.72398,-296.54593 53.033007,152.11673 z"
       transform="matrix(0.1573569,0,0,0.18560248,542.70346,280.87794)"
       clip-path="url(#clipPath4027)" />
    <path
       id="path4173"
       transform="translate(576.09924,264.56127)"
       d="M 67.5,38.9375 C 56.411471,38.969287 43.538663,39.12207 36.375,39.5 19.052365,45.117739 -0.55223216,54.907186 -9.09375,71.3125 c -13.839469,26.580853 -9.8474,61.60252 0,89.90625 C 1.0669251,190.42292 48.5,233.9375 48.5,233.9375 l 38.40625,0 0.96875,0 38.4375,0 c 0,0 47.40182,-43.51458 57.5625,-72.71875 9.8474,-28.30373 13.83947,-63.32539 0,-89.90625 C 175.33348,54.90719 155.72889,45.11774 138.40625,39.5 124.65423,38.774491 90.648848,38.951365 87.875,38.96875 c 0,0 -0.852708,7.27e-4 -0.96875,0 C 85.577347,38.960421 77.698023,38.908266 67.5,38.9375 z"
       style="opacity:0.26000007;fill:url(#radialGradient4131);fill-opacity:1;stroke:#000000;stroke-width:1px;stroke-linecap:butt;stroke-linejoin:miter;stroke-opacity:1"
       inkscape:connector-curvature="0" />
    <path
       transform="translate(576.09924,264.56127)"
       style="fill:#ffffff;fill-opacity:1;fill-rule:evenodd;stroke:#000000;stroke-width:0.89999998;stroke-linejoin:miter;stroke-miterlimit:4;stroke-opacity:1;stroke-dasharray:none"
       d="m 81.015247,23.959335 14.923867,0 c 23.622336,0 42.639606,1.426295 42.639606,3.197971 l 0,16.34518 c 0,1.771676 -19.01727,5.329951 -42.639606,5.329951 l -14.923867,0 c -23.62234,0 -42.639602,-3.558275 -42.639602,-5.329951 l 0,-16.34518 c 0,-1.771676 19.017262,-3.197971 42.639602,-3.197971 z"
       id="rect4135"
       inkscape:connector-curvature="0"
       sodipodi:nodetypes="sssssssss" />
    <path
       style="fill:#999999;fill-opacity:1;fill-rule:evenodd;stroke:#000000;stroke-width:1.00654089;stroke-opacity:1"
       d="m 658.12457,286.9198 12.25592,0 c 23.96388,0 43.2561,1.10788 43.2561,2.48404 l 0,0 c 4.59619,4.20459 -19.29222,4.48404 -43.2561,4.48404 l -12.25592,0 c -23.96388,0 -46.08453,-0.63301 -43.2561,-4.48404 l 0,0 c 0,-1.37616 19.29222,-2.48404 43.2561,-2.48404 z"
       id="rect4133"
       inkscape:connector-curvature="0"
       sodipodi:nodetypes="ssccssccs" />
    <path
       sodipodi:type="star"
       style="fill:#0044aa;fill-opacity:1;fill-rule:evenodd;stroke:none"
       id="path4138"
       sodipodi:sides="12"
       sodipodi:cx="51.522858"
       sodipodi:cy="33.553246"
       sodipodi:r1="17.338505"
       sodipodi:r2="0.43346262"
       sodipodi:arg1="0.78539816"
       sodipodi:arg2="1.0471975"
       inkscape:flatsided="false"
       inkscape:rounded="7.45"
       inkscape:randomized="0"
       d="M 63.783032,45.81342 C -25.351571,134.94803 160.90674,-29.099051 51.739589,33.928635 -57.427564,96.956321 177.77053,17.675418 56.010393,50.300955 -65.749743,82.926492 177.57823,33.986708 51.522858,33.986708 -74.532513,33.986709 168.79546,82.92648 47.035322,50.300955 -74.724817,17.675431 160.47328,96.95632 51.306126,33.928635 -57.861027,-29.09905 128.3973,134.94802 39.262683,45.81342 -49.871929,-43.321183 114.17515,142.93713 51.147468,33.769977 -11.880218,-75.397176 67.400685,159.80092 34.775148,38.040781 2.1496112,-83.719356 51.089395,159.60862 51.089395,33.553246 51.089395,-92.502125 2.1496236,150.82585 34.775148,29.06571 67.400673,-92.694429 -11.880217,142.50367 51.147468,33.336514 114.17515,-75.830639 -49.87192,110.42768 39.262683,21.293071 128.39729,-67.841541 -57.861027,96.205542 51.306126,33.177856 160.47328,-29.84983 -74.724814,49.431073 47.035322,16.805536 168.79546,-15.820001 -74.532513,33.119783 51.522858,33.119783 177.57823,33.119782 -65.749747,-15.819988 56.010393,16.805536 177.77053,49.43106 -57.427565,-29.849829 51.739589,33.177856 160.90674,96.205541 -25.35158,-67.841532 63.783032,21.293071 152.91764,110.42767 -11.129438,-75.830639 51.898247,33.336514 114.92593,142.50367 35.64503,-92.694426 68.270567,29.06571 100.8961,150.82585 51.95632,-92.502125 51.95632,33.553246 c 1e-6,126.055374 48.93977,-117.272605 16.314247,4.487535 C 35.645043,159.80092 114.92593,-75.397177 51.898247,33.769977 -11.129438,142.93713 152.91763,-43.321192 63.783032,45.81342 z"
       transform="matrix(0.14754344,0,0,0.14754344,612.55831,295.29593)" />
    <path
       transform="matrix(0.14754344,0,0,0.14754344,621.08445,296.71725)"
       d="M 63.783032,45.81342 C -25.351571,134.94803 160.90674,-29.099051 51.739589,33.928635 -57.427564,96.956321 177.77053,17.675418 56.010393,50.300955 -65.749743,82.926492 177.57823,33.986708 51.522858,33.986708 -74.532513,33.986709 168.79546,82.92648 47.035322,50.300955 -74.724817,17.675431 160.47328,96.95632 51.306126,33.928635 -57.861027,-29.09905 128.3973,134.94802 39.262683,45.81342 -49.871929,-43.321183 114.17515,142.93713 51.147468,33.769977 -11.880218,-75.397176 67.400685,159.80092 34.775148,38.040781 2.1496112,-83.719356 51.089395,159.60862 51.089395,33.553246 51.089395,-92.502125 2.1496236,150.82585 34.775148,29.06571 67.400673,-92.694429 -11.880217,142.50367 51.147468,33.336514 114.17515,-75.830639 -49.87192,110.42768 39.262683,21.293071 128.39729,-67.841541 -57.861027,96.205542 51.306126,33.177856 160.47328,-29.84983 -74.724814,49.431073 47.035322,16.805536 168.79546,-15.820001 -74.532513,33.119783 51.522858,33.119783 177.57823,33.119782 -65.749747,-15.819988 56.010393,16.805536 177.77053,49.43106 -57.427565,-29.849829 51.739589,33.177856 160.90674,96.205541 -25.35158,-67.841532 63.783032,21.293071 152.91764,110.42767 -11.129438,-75.830639 51.898247,33.336514 114.92593,142.50367 35.64503,-92.694426 68.270567,29.06571 100.8961,150.82585 51.95632,-92.502125 51.95632,33.553246 c 1e-6,126.055374 48.93977,-117.272605 16.314247,4.487535 C 35.645043,159.80092 114.92593,-75.397177 51.898247,33.769977 -11.129438,142.93713 152.91763,-43.321192 63.783032,45.81342 z"
       inkscape:randomized="0"
       inkscape:rounded="7.45"
       inkscape:flatsided="false"
       sodipodi:arg2="1.0471975"
       sodipodi:arg1="0.78539816"
       sodipodi:r2="0.43346262"
       sodipodi:r1="17.338505"
       sodipodi:cy="33.553246"
       sodipodi:cx="51.522858"
       sodipodi:sides="12"
       id="path4140"
       style="fill:#0044aa;fill-opacity:1;fill-rule:evenodd;stroke:none"
       sodipodi:type="star" />
    <path
       sodipodi:type="star"
       style="fill:#0044aa;fill-opacity:1;fill-rule:evenodd;stroke:none"
       id="path4142"
       sodipodi:sides="12"
       sodipodi:cx="51.522858"
       sodipodi:cy="33.553246"
       sodipodi:r1="17.338505"
       sodipodi:r2="0.43346262"
       sodipodi:arg1="0.78539816"
       sodipodi:arg2="1.0471975"
       inkscape:flatsided="false"
       inkscape:rounded="7.45"
       inkscape:randomized="0"
       d="M 63.783032,45.81342 C -25.351571,134.94803 160.90674,-29.099051 51.739589,33.928635 -57.427564,96.956321 177.77053,17.675418 56.010393,50.300955 -65.749743,82.926492 177.57823,33.986708 51.522858,33.986708 -74.532513,33.986709 168.79546,82.92648 47.035322,50.300955 -74.724817,17.675431 160.47328,96.95632 51.306126,33.928635 -57.861027,-29.09905 128.3973,134.94802 39.262683,45.81342 -49.871929,-43.321183 114.17515,142.93713 51.147468,33.769977 -11.880218,-75.397176 67.400685,159.80092 34.775148,38.040781 2.1496112,-83.719356 51.089395,159.60862 51.089395,33.553246 51.089395,-92.502125 2.1496236,150.82585 34.775148,29.06571 67.400673,-92.694429 -11.880217,142.50367 51.147468,33.336514 114.17515,-75.830639 -49.87192,110.42768 39.262683,21.293071 128.39729,-67.841541 -57.861027,96.205542 51.306126,33.177856 160.47328,-29.84983 -74.724814,49.431073 47.035322,16.805536 168.79546,-15.820001 -74.532513,33.119783 51.522858,33.119783 177.57823,33.119782 -65.749747,-15.819988 56.010393,16.805536 177.77053,49.43106 -57.427565,-29.849829 51.739589,33.177856 160.90674,96.205541 -25.35158,-67.841532 63.783032,21.293071 152.91764,110.42767 -11.129438,-75.830639 51.898247,33.336514 114.92593,142.50367 35.64503,-92.694426 68.270567,29.06571 100.8961,150.82585 51.95632,-92.502125 51.95632,33.553246 c 1e-6,126.055374 48.93977,-117.272605 16.314247,4.487535 C 35.645043,159.80092 114.92593,-75.397177 51.898247,33.769977 -11.129438,142.93713 152.91763,-43.321192 63.783032,45.81342 z"
       transform="matrix(0.14754344,0,0,0.14754344,629.96593,297.78502)" />
    <path
       transform="matrix(0.14754344,0,0,0.14754344,638.85273,298.4939)"
       d="M 63.783032,45.81342 C -25.351571,134.94803 160.90674,-29.099051 51.739589,33.928635 -57.427564,96.956321 177.77053,17.675418 56.010393,50.300955 -65.749743,82.926492 177.57823,33.986708 51.522858,33.986708 -74.532513,33.986709 168.79546,82.92648 47.035322,50.300955 -74.724817,17.675431 160.47328,96.95632 51.306126,33.928635 -57.861027,-29.09905 128.3973,134.94802 39.262683,45.81342 -49.871929,-43.321183 114.17515,142.93713 51.147468,33.769977 -11.880218,-75.397176 67.400685,159.80092 34.775148,38.040781 2.1496112,-83.719356 51.089395,159.60862 51.089395,33.553246 51.089395,-92.502125 2.1496236,150.82585 34.775148,29.06571 67.400673,-92.694429 -11.880217,142.50367 51.147468,33.336514 114.17515,-75.830639 -49.87192,110.42768 39.262683,21.293071 128.39729,-67.841541 -57.861027,96.205542 51.306126,33.177856 160.47328,-29.84983 -74.724814,49.431073 47.035322,16.805536 168.79546,-15.820001 -74.532513,33.119783 51.522858,33.119783 177.57823,33.119782 -65.749747,-15.819988 56.010393,16.805536 177.77053,49.43106 -57.427565,-29.849829 51.739589,33.177856 160.90674,96.205541 -25.35158,-67.841532 63.783032,21.293071 152.91764,110.42767 -11.129438,-75.830639 51.898247,33.336514 114.92593,142.50367 35.64503,-92.694426 68.270567,29.06571 100.8961,150.82585 51.95632,-92.502125 51.95632,33.553246 c 1e-6,126.055374 48.93977,-117.272605 16.314247,4.487535 C 35.645043,159.80092 114.92593,-75.397177 51.898247,33.769977 -11.129438,142.93713 152.91763,-43.321192 63.783032,45.81342 z"
       inkscape:randomized="0"
       inkscape:rounded="7.45"
       inkscape:flatsided="false"
       sodipodi:arg2="1.0471975"
       sodipodi:arg1="0.78539816"
       sodipodi:r2="0.43346262"
       sodipodi:r1="17.338505"
       sodipodi:cy="33.553246"
       sodipodi:cx="51.522858"
       sodipodi:sides="12"
       id="path4144"
       style="fill:#0044aa;fill-opacity:1;fill-rule:evenodd;stroke:none"
       sodipodi:type="star" />
    <path
       sodipodi:type="star"
       style="fill:#0044aa;fill-opacity:1;fill-rule:evenodd;stroke:none"
       id="path4146"
       sodipodi:sides="12"
       sodipodi:cx="51.522858"
       sodipodi:cy="33.553246"
       sodipodi:r1="17.338505"
       sodipodi:r2="0.43346262"
       sodipodi:arg1="0.78539816"
       sodipodi:arg2="1.0471975"
       inkscape:flatsided="false"
       inkscape:rounded="7.45"
       inkscape:randomized="0"
       d="M 63.783032,45.81342 C -25.351571,134.94803 160.90674,-29.099051 51.739589,33.928635 -57.427564,96.956321 177.77053,17.675418 56.010393,50.300955 -65.749743,82.926492 177.57823,33.986708 51.522858,33.986708 -74.532513,33.986709 168.79546,82.92648 47.035322,50.300955 -74.724817,17.675431 160.47328,96.95632 51.306126,33.928635 -57.861027,-29.09905 128.3973,134.94802 39.262683,45.81342 -49.871929,-43.321183 114.17515,142.93713 51.147468,33.769977 -11.880218,-75.397176 67.400685,159.80092 34.775148,38.040781 2.1496112,-83.719356 51.089395,159.60862 51.089395,33.553246 51.089395,-92.502125 2.1496236,150.82585 34.775148,29.06571 67.400673,-92.694429 -11.880217,142.50367 51.147468,33.336514 114.17515,-75.830639 -49.87192,110.42768 39.262683,21.293071 128.39729,-67.841541 -57.861027,96.205542 51.306126,33.177856 160.47328,-29.84983 -74.724814,49.431073 47.035322,16.805536 168.79546,-15.820001 -74.532513,33.119783 51.522858,33.119783 177.57823,33.119782 -65.749747,-15.819988 56.010393,16.805536 177.77053,49.43106 -57.427565,-29.849829 51.739589,33.177856 160.90674,96.205541 -25.35158,-67.841532 63.783032,21.293071 152.91764,110.42767 -11.129438,-75.830639 51.898247,33.336514 114.92593,142.50367 35.64503,-92.694426 68.270567,29.06571 100.8961,150.82585 51.95632,-92.502125 51.95632,33.553246 c 1e-6,126.055374 48.93977,-117.272605 16.314247,4.487535 C 35.645043,159.80092 114.92593,-75.397177 51.898247,33.769977 -11.129438,142.93713 152.91763,-43.321192 63.783032,45.81342 z"
       transform="matrix(0.14754344,0,0,0.14754344,647.91365,298.31623)" />
    <path
       transform="matrix(-0.14754344,0,0,0.14754344,716.94987,295.65126)"
       d="M 63.783032,45.81342 C -25.351571,134.94803 160.90674,-29.099051 51.739589,33.928635 -57.427564,96.956321 177.77053,17.675418 56.010393,50.300955 -65.749743,82.926492 177.57823,33.986708 51.522858,33.986708 -74.532513,33.986709 168.79546,82.92648 47.035322,50.300955 -74.724817,17.675431 160.47328,96.95632 51.306126,33.928635 -57.861027,-29.09905 128.3973,134.94802 39.262683,45.81342 -49.871929,-43.321183 114.17515,142.93713 51.147468,33.769977 -11.880218,-75.397176 67.400685,159.80092 34.775148,38.040781 2.1496112,-83.719356 51.089395,159.60862 51.089395,33.553246 51.089395,-92.502125 2.1496236,150.82585 34.775148,29.06571 67.400673,-92.694429 -11.880217,142.50367 51.147468,33.336514 114.17515,-75.830639 -49.87192,110.42768 39.262683,21.293071 128.39729,-67.841541 -57.861027,96.205542 51.306126,33.177856 160.47328,-29.84983 -74.724814,49.431073 47.035322,16.805536 168.79546,-15.820001 -74.532513,33.119783 51.522858,33.119783 177.57823,33.119782 -65.749747,-15.819988 56.010393,16.805536 177.77053,49.43106 -57.427565,-29.849829 51.739589,33.177856 160.90674,96.205541 -25.35158,-67.841532 63.783032,21.293071 152.91764,110.42767 -11.129438,-75.830639 51.898247,33.336514 114.92593,142.50367 35.64503,-92.694426 68.270567,29.06571 100.8961,150.82585 51.95632,-92.502125 51.95632,33.553246 c 1e-6,126.055374 48.93977,-117.272605 16.314247,4.487535 C 35.645043,159.80092 114.92593,-75.397177 51.898247,33.769977 -11.129438,142.93713 152.91763,-43.321192 63.783032,45.81342 z"
       inkscape:randomized="0"
       inkscape:rounded="7.45"
       inkscape:flatsided="false"
       sodipodi:arg2="1.0471975"
       sodipodi:arg1="0.78539816"
       sodipodi:r2="0.43346262"
       sodipodi:r1="17.338505"
       sodipodi:cy="33.553246"
       sodipodi:cx="51.522858"
       sodipodi:sides="12"
       id="path4148"
       style="fill:#0044aa;fill-opacity:1;fill-rule:evenodd;stroke:none"
       sodipodi:type="star" />
    <path
       sodipodi:type="star"
       style="fill:#0044aa;fill-opacity:1;fill-rule:evenodd;stroke:none"
       id="path4150"
       sodipodi:sides="12"
       sodipodi:cx="51.522858"
       sodipodi:cy="33.553246"
       sodipodi:r1="17.338505"
       sodipodi:r2="0.43346262"
       sodipodi:arg1="0.78539816"
       sodipodi:arg2="1.0471975"
       inkscape:flatsided="false"
       inkscape:rounded="7.45"
       inkscape:randomized="0"
       d="M 63.783032,45.81342 C -25.351571,134.94803 160.90674,-29.099051 51.739589,33.928635 -57.427564,96.956321 177.77053,17.675418 56.010393,50.300955 -65.749743,82.926492 177.57823,33.986708 51.522858,33.986708 -74.532513,33.986709 168.79546,82.92648 47.035322,50.300955 -74.724817,17.675431 160.47328,96.95632 51.306126,33.928635 -57.861027,-29.09905 128.3973,134.94802 39.262683,45.81342 -49.871929,-43.321183 114.17515,142.93713 51.147468,33.769977 -11.880218,-75.397176 67.400685,159.80092 34.775148,38.040781 2.1496112,-83.719356 51.089395,159.60862 51.089395,33.553246 51.089395,-92.502125 2.1496236,150.82585 34.775148,29.06571 67.400673,-92.694429 -11.880217,142.50367 51.147468,33.336514 114.17515,-75.830639 -49.87192,110.42768 39.262683,21.293071 128.39729,-67.841541 -57.861027,96.205542 51.306126,33.177856 160.47328,-29.84983 -74.724814,49.431073 47.035322,16.805536 168.79546,-15.820001 -74.532513,33.119783 51.522858,33.119783 177.57823,33.119782 -65.749747,-15.819988 56.010393,16.805536 177.77053,49.43106 -57.427565,-29.849829 51.739589,33.177856 160.90674,96.205541 -25.35158,-67.841532 63.783032,21.293071 152.91764,110.42767 -11.129438,-75.830639 51.898247,33.336514 114.92593,142.50367 35.64503,-92.694426 68.270567,29.06571 100.8961,150.82585 51.95632,-92.502125 51.95632,33.553246 c 1e-6,126.055374 48.93977,-117.272605 16.314247,4.487535 C 35.645043,159.80092 114.92593,-75.397177 51.898247,33.769977 -11.129438,142.93713 152.91763,-43.321192 63.783032,45.81342 z"
       transform="matrix(-0.14754344,0,0,0.14754344,708.77728,297.07258)" />
    <path
       transform="matrix(-0.14754344,0,0,0.14754344,700.24936,297.60557)"
       d="M 63.783032,45.81342 C -25.351571,134.94803 160.90674,-29.099051 51.739589,33.928635 -57.427564,96.956321 177.77053,17.675418 56.010393,50.300955 -65.749743,82.926492 177.57823,33.986708 51.522858,33.986708 -74.532513,33.986709 168.79546,82.92648 47.035322,50.300955 -74.724817,17.675431 160.47328,96.95632 51.306126,33.928635 -57.861027,-29.09905 128.3973,134.94802 39.262683,45.81342 -49.871929,-43.321183 114.17515,142.93713 51.147468,33.769977 -11.880218,-75.397176 67.400685,159.80092 34.775148,38.040781 2.1496112,-83.719356 51.089395,159.60862 51.089395,33.553246 51.089395,-92.502125 2.1496236,150.82585 34.775148,29.06571 67.400673,-92.694429 -11.880217,142.50367 51.147468,33.336514 114.17515,-75.830639 -49.87192,110.42768 39.262683,21.293071 128.39729,-67.841541 -57.861027,96.205542 51.306126,33.177856 160.47328,-29.84983 -74.724814,49.431073 47.035322,16.805536 168.79546,-15.820001 -74.532513,33.119783 51.522858,33.119783 177.57823,33.119782 -65.749747,-15.819988 56.010393,16.805536 177.77053,49.43106 -57.427565,-29.849829 51.739589,33.177856 160.90674,96.205541 -25.35158,-67.841532 63.783032,21.293071 152.91764,110.42767 -11.129438,-75.830639 51.898247,33.336514 114.92593,142.50367 35.64503,-92.694426 68.270567,29.06571 100.8961,150.82585 51.95632,-92.502125 51.95632,33.553246 c 1e-6,126.055374 48.93977,-117.272605 16.314247,4.487535 C 35.645043,159.80092 114.92593,-75.397177 51.898247,33.769977 -11.129438,142.93713 152.91763,-43.321192 63.783032,45.81342 z"
       inkscape:randomized="0"
       inkscape:rounded="7.45"
       inkscape:flatsided="false"
       sodipodi:arg2="1.0471975"
       sodipodi:arg1="0.78539816"
       sodipodi:r2="0.43346262"
       sodipodi:r1="17.338505"
       sodipodi:cy="33.553246"
       sodipodi:cx="51.522858"
       sodipodi:sides="12"
       id="path4152"
       style="fill:#0044aa;fill-opacity:1;fill-rule:evenodd;stroke:none"
       sodipodi:type="star" />
    <path
       sodipodi:type="star"
       style="fill:#0044aa;fill-opacity:1;fill-rule:evenodd;stroke:none"
       id="path4154"
       sodipodi:sides="12"
       sodipodi:cx="51.522858"
       sodipodi:cy="33.553246"
       sodipodi:r1="17.338505"
       sodipodi:r2="0.43346262"
       sodipodi:arg1="0.78539816"
       sodipodi:arg2="1.0471975"
       inkscape:flatsided="false"
       inkscape:rounded="7.45"
       inkscape:randomized="0"
       d="M 63.783032,45.81342 C -25.351571,134.94803 160.90674,-29.099051 51.739589,33.928635 -57.427564,96.956321 177.77053,17.675418 56.010393,50.300955 -65.749743,82.926492 177.57823,33.986708 51.522858,33.986708 -74.532513,33.986709 168.79546,82.92648 47.035322,50.300955 -74.724817,17.675431 160.47328,96.95632 51.306126,33.928635 -57.861027,-29.09905 128.3973,134.94802 39.262683,45.81342 -49.871929,-43.321183 114.17515,142.93713 51.147468,33.769977 -11.880218,-75.397176 67.400685,159.80092 34.775148,38.040781 2.1496112,-83.719356 51.089395,159.60862 51.089395,33.553246 51.089395,-92.502125 2.1496236,150.82585 34.775148,29.06571 67.400673,-92.694429 -11.880217,142.50367 51.147468,33.336514 114.17515,-75.830639 -49.87192,110.42768 39.262683,21.293071 128.39729,-67.841541 -57.861027,96.205542 51.306126,33.177856 160.47328,-29.84983 -74.724814,49.431073 47.035322,16.805536 168.79546,-15.820001 -74.532513,33.119783 51.522858,33.119783 177.57823,33.119782 -65.749747,-15.819988 56.010393,16.805536 177.77053,49.43106 -57.427565,-29.849829 51.739589,33.177856 160.90674,96.205541 -25.35158,-67.841532 63.783032,21.293071 152.91764,110.42767 -11.129438,-75.830639 51.898247,33.336514 114.92593,142.50367 35.64503,-92.694426 68.270567,29.06571 100.8961,150.82585 51.95632,-92.502125 51.95632,33.553246 c 1e-6,126.055374 48.93977,-117.272605 16.314247,4.487535 C 35.645043,159.80092 114.92593,-75.397177 51.898247,33.769977 -11.129438,142.93713 152.91763,-43.321192 63.783032,45.81342 z"
       transform="matrix(-0.14754344,0,0,0.14754344,691.36611,297.9609)" />
    <path
       transform="matrix(-0.14754344,0,0,0.14754344,681.7722,298.49389)"
       d="M 63.783032,45.81342 C -25.351571,134.94803 160.90674,-29.099051 51.739589,33.928635 -57.427564,96.956321 177.77053,17.675418 56.010393,50.300955 -65.749743,82.926492 177.57823,33.986708 51.522858,33.986708 -74.532513,33.986709 168.79546,82.92648 47.035322,50.300955 -74.724817,17.675431 160.47328,96.95632 51.306126,33.928635 -57.861027,-29.09905 128.3973,134.94802 39.262683,45.81342 -49.871929,-43.321183 114.17515,142.93713 51.147468,33.769977 -11.880218,-75.397176 67.400685,159.80092 34.775148,38.040781 2.1496112,-83.719356 51.089395,159.60862 51.089395,33.553246 51.089395,-92.502125 2.1496236,150.82585 34.775148,29.06571 67.400673,-92.694429 -11.880217,142.50367 51.147468,33.336514 114.17515,-75.830639 -49.87192,110.42768 39.262683,21.293071 128.39729,-67.841541 -57.861027,96.205542 51.306126,33.177856 160.47328,-29.84983 -74.724814,49.431073 47.035322,16.805536 168.79546,-15.820001 -74.532513,33.119783 51.522858,33.119783 177.57823,33.119782 -65.749747,-15.819988 56.010393,16.805536 177.77053,49.43106 -57.427565,-29.849829 51.739589,33.177856 160.90674,96.205541 -25.35158,-67.841532 63.783032,21.293071 152.91764,110.42767 -11.129438,-75.830639 51.898247,33.336514 114.92593,142.50367 35.64503,-92.694426 68.270567,29.06571 100.8961,150.82585 51.95632,-92.502125 51.95632,33.553246 c 1e-6,126.055374 48.93977,-117.272605 16.314247,4.487535 C 35.645043,159.80092 114.92593,-75.397177 51.898247,33.769977 -11.129438,142.93713 152.91763,-43.321192 63.783032,45.81342 z"
       inkscape:randomized="0"
       inkscape:rounded="7.45"
       inkscape:flatsided="false"
       sodipodi:arg2="1.0471975"
       sodipodi:arg1="0.78539816"
       sodipodi:r2="0.43346262"
       sodipodi:r1="17.338505"
       sodipodi:cy="33.553246"
       sodipodi:cx="51.522858"
       sodipodi:sides="12"
       id="path4156"
       style="fill:#0044aa;fill-opacity:1;fill-rule:evenodd;stroke:none"
       sodipodi:type="star" />
    <path
       sodipodi:type="star"
       style="fill:#0044aa;fill-opacity:1;fill-rule:evenodd;stroke:none"
       id="path4158"
       sodipodi:sides="12"
       sodipodi:cx="51.522858"
       sodipodi:cy="33.553246"
       sodipodi:r1="17.338505"
       sodipodi:r2="0.43346262"
       sodipodi:arg1="0.78539816"
       sodipodi:arg2="1.0471975"
       inkscape:flatsided="false"
       inkscape:rounded="7.45"
       inkscape:randomized="0"
       d="M 63.783032,45.81342 C -25.351571,134.94803 160.90674,-29.099051 51.739589,33.928635 -57.427564,96.956321 177.77053,17.675418 56.010393,50.300955 -65.749743,82.926492 177.57823,33.986708 51.522858,33.986708 -74.532513,33.986709 168.79546,82.92648 47.035322,50.300955 -74.724817,17.675431 160.47328,96.95632 51.306126,33.928635 -57.861027,-29.09905 128.3973,134.94802 39.262683,45.81342 -49.871929,-43.321183 114.17515,142.93713 51.147468,33.769977 -11.880218,-75.397176 67.400685,159.80092 34.775148,38.040781 2.1496112,-83.719356 51.089395,159.60862 51.089395,33.553246 51.089395,-92.502125 2.1496236,150.82585 34.775148,29.06571 67.400673,-92.694429 -11.880217,142.50367 51.147468,33.336514 114.17515,-75.830639 -49.87192,110.42768 39.262683,21.293071 128.39729,-67.841541 -57.861027,96.205542 51.306126,33.177856 160.47328,-29.84983 -74.724814,49.431073 47.035322,16.805536 168.79546,-15.820001 -74.532513,33.119783 51.522858,33.119783 177.57823,33.119782 -65.749747,-15.819988 56.010393,16.805536 177.77053,49.43106 -57.427565,-29.849829 51.739589,33.177856 160.90674,96.205541 -25.35158,-67.841532 63.783032,21.293071 152.91764,110.42767 -11.129438,-75.830639 51.898247,33.336514 114.92593,142.50367 35.64503,-92.694426 68.270567,29.06571 100.8961,150.82585 51.95632,-92.502125 51.95632,33.553246 c 1e-6,126.055374 48.93977,-117.272605 16.314247,4.487535 C 35.645043,159.80092 114.92593,-75.397177 51.898247,33.769977 -11.129438,142.93713 152.91763,-43.321192 63.783032,45.81342 z"
       transform="matrix(-0.12999341,0,0,0.14754344,671.45172,298.4939)" />
    <path
       sodipodi:nodetypes="sssssssss"
       inkscape:connector-curvature="0"
       id="path4183"
       d="m 81.015247,29.959335 14.923867,0 c 23.622336,0 42.639606,-4.573705 42.639606,-2.802029 l 0,16.34518 c 0,1.771676 -19.01727,5.329951 -42.639606,5.329951 l -14.923867,0 c -23.62234,0 -42.639602,-3.558275 -42.639602,-5.329951 l 0,-16.34518 c 0,-1.771676 19.017262,2.802029 42.639602,2.802029 z"
       style="opacity:0.26000007;fill:url(#linearGradient4191);fill-opacity:1;fill-rule:evenodd;stroke:none"
       transform="translate(576.09924,264.56127)" />
  </g>
</svg>
