<?xml version="1.0" encoding="UTF-8" standalone="no"?>
<!-- Created with Inkscape (http://www.inkscape.org/) -->

<svg
   xmlns:dc="http://purl.org/dc/elements/1.1/"
   xmlns:cc="http://creativecommons.org/ns#"
   xmlns:rdf="http://www.w3.org/1999/02/22-rdf-syntax-ns#"
   xmlns:svg="http://www.w3.org/2000/svg"
   xmlns="http://www.w3.org/2000/svg"
   xmlns:xlink="http://www.w3.org/1999/xlink"
   xmlns:sodipodi="http://sodipodi.sourceforge.net/DTD/sodipodi-0.dtd"
   xmlns:inkscape="http://www.inkscape.org/namespaces/inkscape"
   width="814.85846"
   height="770.89911"
   id="svg2"
   version="1.1"
   inkscape:version="0.48.4 r9939"
   sodipodi:docname="shuriken.svg"
   inkscape:export-filename="C:\Users\Mira\Documents\GameJam\packageloss\Graphics\png2x\shuriken.png"
   inkscape:export-xdpi="2.218189"
   inkscape:export-ydpi="2.218189">
  <defs
     id="defs4">
    <linearGradient
       id="linearGradient4126">
      <stop
         style="stop-color:#b3b3b3;stop-opacity:1;"
         offset="0"
         id="stop4128" />
      <stop
         id="stop4152"
         offset="0.07908254"
         style="stop-color:#999999;stop-opacity:1" />
      <stop
         id="stop4150"
         offset="0.1541336"
         style="stop-color:#b3b3b3;stop-opacity:0.99607843;" />
      <stop
         id="stop4148"
         offset="0.23678358"
         style="stop-color:#999999;stop-opacity:1" />
      <stop
         id="stop4146"
         offset="0.31428412"
         style="stop-color:#b3b3b3;stop-opacity:0.99215686;" />
      <stop
         id="stop4144"
         offset="0.3966513"
         style="stop-color:#999999;stop-opacity:1" />
      <stop
         id="stop4142"
         offset="0.4779081"
         style="stop-color:#b3b3b3;stop-opacity:0.96862745;" />
      <stop
         id="stop4140"
         offset="0.56423658"
         style="stop-color:#999999;stop-opacity:1" />
      <stop
         id="stop4138"
         offset="0.68257439"
         style="stop-color:#b3b3b3;stop-opacity:0.8745098;" />
      <stop
         id="stop4136"
         offset="0.78617734"
         style="stop-color:#999999;stop-opacity:1" />
      <stop
         id="stop4134"
         offset="0.87478364"
         style="stop-color:#b3b3b3;stop-opacity:0.49803922;" />
      <stop
         style="stop-color:#999999;stop-opacity:1"
         offset="1"
         id="stop4130" />
    </linearGradient>
    <linearGradient
       id="linearGradient4032">
      <stop
         id="stop4034"
         offset="0"
         style="stop-color:#e6e6e6;stop-opacity:1" />
      <stop
         id="stop4036"
         offset="1"
         style="stop-color:#999999;stop-opacity:1" />
    </linearGradient>
    <linearGradient
       id="linearGradient3981">
      <stop
         id="stop3983"
         offset="0"
         style="stop-color:#ffffff;stop-opacity:1" />
      <stop
         id="stop3985"
         offset="1"
         style="stop-color:#000000;stop-opacity:1" />
    </linearGradient>
    <linearGradient
       id="linearGradient3929">
      <stop
         style="stop-color:#d5d5d5;stop-opacity:1;"
         offset="0"
         id="stop3931" />
      <stop
         style="stop-color:#999999;stop-opacity:1"
         offset="1"
         id="stop3933" />
    </linearGradient>
    <linearGradient
       inkscape:collect="always"
       xlink:href="#linearGradient3981"
       id="linearGradient4094"
       gradientUnits="userSpaceOnUse"
       gradientTransform="matrix(-0.99862769,-0.05237103,0.05237103,-0.99862769,1000.1092,459.36005)"
       x1="584.23779"
       y1="-56.688824"
       x2="619.38989"
       y2="95.971405" />
    <radialGradient
       inkscape:collect="always"
       xlink:href="#linearGradient3929"
       id="radialGradient4097"
       gradientUnits="userSpaceOnUse"
       gradientTransform="matrix(-6.3660267,-0.28931521,0.0450389,-0.99104617,1388.2213,449.41178)"
       cx="139.40105"
       cy="-14.297208"
       fx="139.40105"
       fy="-14.297208"
       r="66.984375" />
    <radialGradient
       inkscape:collect="always"
       xlink:href="#linearGradient3929"
       id="radialGradient4100"
       gradientUnits="userSpaceOnUse"
       gradientTransform="matrix(-0.3305729,-5.5979586,1.0258411,-0.06057768,346.08095,1194.4478)"
       cx="150.51273"
       cy="107.48905"
       fx="150.51273"
       fy="107.48905"
       r="66.734375" />
    <radialGradient
       inkscape:collect="always"
       xlink:href="#linearGradient3929"
       id="radialGradient4103"
       gradientUnits="userSpaceOnUse"
       gradientTransform="matrix(-0.02542638,-4.145793,0.98407925,-0.00602919,440.09545,1685.0085)"
       cx="278.46689"
       cy="-30.883841"
       fx="278.46689"
       fy="-30.883841"
       r="67.796875" />
    <radialGradient
       inkscape:collect="always"
       xlink:href="#linearGradient3929"
       id="radialGradient4106"
       gradientUnits="userSpaceOnUse"
       gradientTransform="matrix(-3.1910382,-0.17915109,0.05625364,-1.0023263,1172.496,588.79328)"
       cx="270.72089"
       cy="116.09956"
       fx="270.72089"
       fy="116.09956"
       r="68.046875" />
    <linearGradient
       inkscape:collect="always"
       xlink:href="#linearGradient4032"
       id="linearGradient4109"
       gradientUnits="userSpaceOnUse"
       gradientTransform="matrix(-0.70726245,0.70695108,-0.70695108,-0.70726245,588.66641,314.6227)"
       x1="351.53308"
       y1="-84.959549"
       x2="163.64471"
       y2="85.756233" />
    <linearGradient
       inkscape:collect="always"
       xlink:href="#linearGradient3981"
       id="linearGradient4118"
       gradientUnits="userSpaceOnUse"
       gradientTransform="matrix(-1.1693362,-0.0613235,0.0613235,-1.1693362,1849.2209,359.73338)"
       x1="584.23779"
       y1="-56.688824"
       x2="619.38989"
       y2="95.971405" />
    <linearGradient
       inkscape:collect="always"
       xlink:href="#linearGradient4126"
       id="linearGradient4132"
       x1="360.10437"
       y1="11.655609"
       x2="1022.9615"
       y2="-528.34442"
       gradientUnits="userSpaceOnUse"
       gradientTransform="translate(-188.67579,-393.2372)" />
    <filter
       inkscape:collect="always"
       id="filter4178"
       color-interpolation-filters="sRGB">
      <feGaussianBlur
         inkscape:collect="always"
         stdDeviation="4.2157615"
         id="feGaussianBlur4180" />
    </filter>
    <linearGradient
       inkscape:collect="always"
       xlink:href="#linearGradient4126"
       id="linearGradient4189"
       gradientUnits="userSpaceOnUse"
       gradientTransform="translate(557.6042,557.6042)"
       x1="360.10437"
       y1="11.655609"
       x2="1022.9615"
       y2="-528.34442" />
    <linearGradient
       inkscape:collect="always"
       xlink:href="#linearGradient4126"
       id="linearGradient4208"
       gradientUnits="userSpaceOnUse"
       gradientTransform="translate(557.6042,557.6042)"
       x1="360.10437"
       y1="11.655609"
       x2="1022.9615"
       y2="-528.34442" />
    <linearGradient
       inkscape:collect="always"
       xlink:href="#linearGradient3981"
       id="linearGradient4210"
       gradientUnits="userSpaceOnUse"
       gradientTransform="matrix(-1.1693362,-0.0613235,0.0613235,-1.1693362,1849.2209,359.73338)"
       x1="584.23779"
       y1="-56.688824"
       x2="619.38989"
       y2="95.971405" />
  </defs>
  <sodipodi:namedview
     id="base"
     pagecolor="#ffffff"
     bordercolor="#666666"
     borderopacity="1.0"
     inkscape:pageopacity="0.0"
     inkscape:pageshadow="2"
     inkscape:zoom="0.24748737"
     inkscape:cx="149.24589"
     inkscape:cy="385.38928"
     inkscape:document-units="px"
     inkscape:current-layer="layer1"
     showgrid="false"
     inkscape:window-width="1366"
     inkscape:window-height="705"
     inkscape:window-x="-8"
     inkscape:window-y="-8"
     inkscape:window-maximized="1"
     fit-margin-top="0"
     fit-margin-left="0"
     fit-margin-right="0"
     fit-margin-bottom="0" />
  <metadata
     id="metadata7">
    <rdf:RDF>
      <cc:Work
         rdf:about="">
        <dc:format>image/svg+xml</dc:format>
        <dc:type
           rdf:resource="http://purl.org/dc/dcmitype/StillImage" />
        <dc:title></dc:title>
      </cc:Work>
    </rdf:RDF>
  </metadata>
  <g
     inkscape:label="Layer 1"
     inkscape:groupmode="layer"
     id="layer1"
     transform="translate(-740.57497,103.15935)">
    <path
       style="fill:#000000;fill-opacity:1;fill-rule:evenodd;stroke:none"
       d="M 400.22009,626.43741 472.61782,491.24127 607.53658,418.37269 472.38464,345.97497 399.49396,211.0341 l -72.39773,135.19614 -134.94086,72.84649 135.17404,72.41982 72.89068,134.94086 z m 32.01302,-175.02398 c -8.86874,8.78933 -21.27478,13.91485 -34.78372,13.2064 -25.4286,-1.33356 -44.83209,-22.86313 -43.49854,-48.29172 1.33356,-25.42858 22.88522,-44.80998 48.31381,-43.47643 25.42859,1.33356 44.83208,22.86312 43.49853,48.29172 -0.6251,11.91964 -5.70472,22.51473 -13.53008,30.27003 z"
       id="path3997"
       inkscape:connector-curvature="0" />
    <path
       style="fill:url(#linearGradient4109);fill-opacity:1;fill-rule:evenodd;stroke:none"
       d="M 400.19925,620.71426 470.62952,489.2521 601.85762,418.39353 470.39546,347.96327 399.4927,216.73515 l -70.40817,131.48427 -131.22811,70.85856 131.46217,70.43027 70.88066,131.20601 z m 32.03386,-169.30083 c -8.86874,8.78933 -21.27478,13.91485 -34.78372,13.2064 -25.4286,-1.33356 -44.83209,-22.86313 -43.49854,-48.29172 1.33356,-25.42858 22.88522,-44.80998 48.31381,-43.47643 25.42859,1.33356 44.83208,22.86312 43.49853,48.29172 -0.6251,11.91964 -5.70472,22.51473 -13.53008,30.27003 z"
       id="path3903"
       inkscape:connector-curvature="0" />
    <path
       style="fill:url(#radialGradient4106);fill-opacity:1;stroke:none"
       d="m 334.26882,487.29963 34.50119,-34.66274 c -9.75257,-8.93998 -15.56929,-22.0052 -14.81916,-36.30878 0.64178,-12.23757 5.98706,-23.06097 14.17103,-30.86651 l -34.41968,-34.43484 -0.61897,1.14892 -123.80261,66.88272 124.03842,66.45115 0.94978,1.79008 z"
       id="path3909"
       inkscape:connector-curvature="0" />
    <path
       style="fill:url(#radialGradient4103);fill-opacity:1;stroke:none"
       d="m 400.17966,609.33426 66.42906,-124.06053 0.83979,-0.44175 -34.33131,-34.34643 c -8.91813,9.34151 -21.69993,14.86679 -35.66781,14.13428 -11.2271,-0.58879 -21.26757,-5.11852 -28.87821,-12.18186 l -34.54532,34.35337 66.1538,122.54292 z"
       id="path3911"
       inkscape:connector-curvature="0" />
    <path
       style="fill:url(#radialGradient4100);fill-opacity:1;stroke:none"
       d="m 468.51607,353.11147 -2.12106,-1.14951 -66.86062,-123.8247 -65.85429,122.9116 34.41968,34.43484 c 8.82345,-8.42699 20.96252,-13.32439 34.16488,-12.63202 12.56891,0.65916 23.66035,6.24868 31.50719,14.81199 l 34.74422,-34.5522 z"
       id="path3913"
       inkscape:connector-curvature="0" />
    <path
       style="fill:url(#radialGradient4097);fill-opacity:1;stroke:none"
       d="M 590.43343,418.41311 468.03,352.8462 433.59512,387.44266 c 8.14509,8.78093 12.84776,20.74009 12.16807,33.70074 -0.60162,11.47189 -5.33849,21.69702 -12.66809,29.36424 l 34.30922,34.32433 123.02911,-66.41886 z"
       id="path3915"
       inkscape:connector-curvature="0" />
    <path
       style="opacity:0.27403846;fill:url(#linearGradient4094);fill-opacity:1;fill-rule:evenodd;stroke:none"
       d="m 441.46764,460.74043 c 10.05911,-9.969 16.59543,-23.58705 17.39897,-38.90914 1.71421,-32.68713 -23.22694,-60.36882 -55.91406,-62.08303 -32.68712,-1.71421 -60.3909,23.20483 -62.10512,55.89196 -1.71421,32.68713 23.22694,60.36881 55.91406,62.08303 17.36503,0.91067 33.30584,-5.68459 44.70615,-16.98282 z m -9.23453,-9.327 c -8.86874,8.78933 -21.27478,13.91485 -34.78372,13.2064 -25.4286,-1.33356 -44.83209,-22.86313 -43.49854,-48.29172 1.33356,-25.42858 22.88522,-44.80998 48.31381,-43.47643 25.42859,1.33356 44.83208,22.86312 43.49853,48.29172 -0.6251,11.91964 -5.70472,22.51473 -13.53008,30.27003 z"
       id="rect3975"
       inkscape:connector-curvature="0" />
    <path
       style="fill:#000000;fill-opacity:1;fill-rule:evenodd;stroke:none"
       d="m 434.36599,453.56618 c 8.34086,-8.26621 13.75512,-19.55925 14.4214,-32.26413 1.42141,-27.10375 -19.26033,-50.05162 -46.36408,-51.47303 -27.10374,-1.4214 -50.07517,19.23678 -51.49657,46.34053 -1.42141,27.10375 19.26034,50.05162 46.36408,51.47303 14.39887,0.75511 27.62218,-4.70806 37.07517,-14.0764 z m -4.54468,-4.59379 c -8.20767,8.13406 -19.6739,12.896 -32.17579,12.24036 -23.53295,-1.23414 -41.49953,-21.17907 -40.26541,-44.71204 1.23414,-23.53296 21.15552,-41.47599 44.68848,-40.24185 23.53297,1.23415 41.49954,21.17907 40.26541,44.71204 -0.57851,11.03107 -5.27068,20.82433 -12.51269,28.00149 z"
       id="rect3987"
       inkscape:connector-curvature="0" />
    <path
       style="fill:#cccccc;fill-opacity:1;fill-rule:evenodd;stroke:none"
       d="m 438.63984,457.86719 c 9.37177,-9.2879 15.43441,-21.96048 16.18305,-36.23566 1.59709,-30.45374 -21.63847,-56.26457 -52.09219,-57.86165 -30.45374,-1.59708 -56.24246,21.61637 -57.83954,52.0701 -1.59709,30.45374 21.63845,56.26456 52.09219,57.86165 16.17854,0.84845 31.03513,-5.30819 41.65649,-15.83444 z m -6.40677,-6.45373 c -8.86874,8.78934 -21.27478,13.91485 -34.78372,13.2064 -25.42859,-1.33356 -44.83208,-22.86312 -43.49853,-48.29171 1.33355,-25.42859 22.88521,-44.80998 48.3138,-43.47643 25.42859,1.33355 44.83208,22.86312 43.49854,48.29171 -0.62511,11.91965 -5.70472,22.51474 -13.53009,30.27003 z"
       id="rect3977"
       inkscape:connector-curvature="0" />
    <g
       id="g4199"
       transform="matrix(0.98830948,0.15246102,-0.15246102,0.98830948,58.895767,-168.93341)">
      <path
         inkscape:connector-curvature="0"
         id="path4120"
         d="m 1073.1862,-99.002396 -0.5312,6.0938 c -5.8876,66.85304 -11.8309,133.70135 -17.625,200.562496 2.2381,-1.86222 5.0343,-2.60241 5.4062,0.90625 5.5111,9.96584 13.9312,18.18197 19.3125,28.40625 9.0688,14.13066 11.3886,32.11718 4.8438,47.78125 -8.826,22.03104 -26.4951,38.99187 -44.7813,53.34375 -15.8012,11.89211 -37.2476,18.75181 -56.28121,10.9375 -14.38752,-5.69371 -26.35324,-16.87499 -39.125,-24.9375 0.87225,-5.28723 -6.03781,-4.30712 -9.0625,-3.15625 -60.89376,8.6056 -121.796,17.84543 -182.71875,26.5625 -8.04565,1.18143 -16.10624,2.37971 -24.15625,3.53125 63.44254,31.82319 126.9102,63.59644 190.34375,95.4375 -1.17928,-5.32839 4.60777,-1.68352 7.1875,-3.5 20.83916,-5.52343 43.01569,-16.91914 64.59375,-8.375 23.60431,9.39863 37.01721,33.12096 47.12501,55.125 8.9431,19.7501 14.0249,44.35444 1.9375,63.90625 -9.9279,16.11826 -27.5066,24.43617 -41.12501,36.65625 -1.29064,3.65713 -6.13636,3.07856 -6.65625,7.21875 -7.18127,42.67138 -15.35339,85.64192 -22.84375,128.4375 -4.3136,24.0793 -8.61989,48.14016 -12.9375,72.21875 51.09151,-49.42873 102.16901,-98.872 153.21871,-148.34375 -2.6159,-0.13039 -4.2613,-0.95986 -2.625,-3.3125 2.2027,-16.43884 -1.0134,-33.76235 3.6563,-49.9375 5.6361,-22.07625 27.285,-35.23521 48.2812,-40.25 24.01,-5.78096 51.1105,-9.75817 74.1875,1.34375 17.5124,8.40805 25.597,27.43996 30.7188,45.09375 2.5848,7.59222 4.8751,15.91614 9.5312,22.28125 -0.6197,5.96767 7.6814,6.46644 11.5,8.53125 60.3275,29.36925 121.3116,57.84775 181.9375,86.78125 -35.6894,-62.42593 -71.3151,-124.88858 -107.0625,-187.28125 -2.5883,4.42458 -5.7092,-1.8246 -8.9687,-1.59375 -19.8242,-6.71458 -43.4878,-11.88136 -54.9063,-31.3125 -13.6797,-23.58123 -9.0722,-52.43352 -3.3125,-77.65625 5.1665,-20.21063 17.2145,-41.23712 38.4063,-47.625 17.5728,-6.14378 37.2875,-0.7242 55.2812,-5.15625 3.1335,1.41898 4.4861,2.04707 8.625,-3.5 46.3425,-46.97767 92.6499,-93.9986 139,-140.96875 -69.6378,11.1308 -139.27,22.29692 -208.9062,33.4375 2.2493,1.7193 3.759,3.56939 0.625,4.90625 -11.9307,13.85222 -20.7437,31.71227 -37.1563,40.96875 -19.8611,11.20449 -44.3913,5.58606 -63.9375,-3.53125 -22.2036,-10.27868 -46.2757,-24.5061 -54.5,-48.96875 -7.298,-22.38505 5.5304,-44.14293 9.9688,-65.749996 -1.7953,-4.01129 2.1619,-3.71411 2.5937,-4.6875 -36.3105,-60.22712 -72.6969,-120.43107 -109.0625,-180.62505 z m 76.5,358.125046 c 30.2198,0 54.5313,24.34278 54.5313,54.5625 0,30.21972 -24.3115,54.53125 -54.5313,54.53125 -30.2197,0 -54.5625,-24.31153 -54.5625,-54.53125 0,-30.21972 24.3428,-54.5625 54.5625,-54.5625 z"
         style="fill:#000000;fill-opacity:1;fill-rule:evenodd;stroke:none" />
      <path
         inkscape:connector-curvature="0"
         id="path4059"
         d="m 1076.1237,-86.439796 -16.5937,188.374946 2.0625,-0.40625 c 6.7464,22.19091 66.1908,56.74669 -0.5625,123.5 -64.64923,64.64922 -99.07929,10.89368 -121.34376,1.3125 l 0.4375,-2.125 -5.375,0.78125 c -1.57455,-0.13829 -3.107,0.0513 -4.5625,0.65625 l -188.5625,27.5 174.0625,87.25 0.25,-1.25 c 21.1206,6.33166 75.62257,-49.53398 120.81246,39.15625 44.7557,87.83786 -30.5583,99.72147 -39.09371,120.15625 l -1.59375,-0.8125 -33.84375,189 139.78121,-135.3125 -1.0625,-0.53125 c 11.1112,-19.22427 -22.8925,-86.67012 74.0938,-102.03125 100.0151,-15.84083 84.6923,64.03215 103.6562,75.34375 l -1.625,1.75 179.625,85.40625 -98.1875,-171.8125 -0.5937,0.625 c -16.8623,-15.11715 -88.175,-6.04076 -73.125,-101.0625 16.0149,-101.11412 88.6448,-59.86183 104.2187,-75.78125 l 1.0313,1.8125 132.0937,-133.9375 -190.4375,30.5 0.6563,1.1875 c -19.2277,12.57499 -33.3091,81.10559 -118.0313,37.9375 -89.644,-45.67592 -31.6304,-100.851596 -39.4062,-121.468746 l 1.125,-0.21875 -99.9063,-165.49995 z m 73.5625,345.562446 c 30.2198,0 54.5313,24.34278 54.5313,54.5625 0,30.21972 -24.3115,54.53125 -54.5313,54.53125 -30.2197,0 -54.5625,-24.31153 -54.5625,-54.53125 0,-30.21972 24.3428,-54.5625 54.5625,-54.5625 z"
         style="fill:#e6e6e6;fill-opacity:1;fill-rule:evenodd;stroke:none" />
      <path
         inkscape:connector-curvature="0"
         id="path4081"
         d="M 1083.3737,-47.689846 1069.655,107.8414 c 2.6982,5.15638 5.028,10.43073 9.1875,14.65625 12.4582,16.42208 19.2583,37.85941 15.2187,59.4375 -4.4231,27.76657 -25.4165,48.86302 -46.0312,66.15625 -17.569,14.15802 -36.1851,21.54562 -58.34376,13.46875 -16.50758,-5.64259 -28.8345,-18.60904 -44.03125,-26.71875 -54.82264,7.73951 -109.56608,16.03508 -164.375,23.875 48.57871,24.17482 97.04332,49.08559 145.71875,72.75 12.75029,0.77255 23.98822,-6.97769 36.375,-8.9375 16.77509,-4.49204 31.39748,1.38281 45.71876,11.75 21.7061,14.93017 34.0544,39.71156 43,63.71875 7.0896,20.58126 11.097,41.35306 -3.3438,58.6875 -10.5189,13.65662 -26.8246,20.93779 -38.4375,33.40625 -5.4348,8.28147 -3.8573,18.74858 -6.6562,28 -7.94678,43.80785 -15.66087,87.65275 -23.56251,131.46875 38.97651,-37.80673 78.24531,-75.32506 116.90621,-113.46875 4.6889,-14.64104 -0.4979,-30.73501 3.5313,-45.65625 3.1243,-18.72459 16.9399,-26.93846 34.25,-34.75 23.3766,-11.95489 50.6945,-15.25458 76.7187,-13.09375 21.7666,2.66894 40.6426,8.49196 48.4375,29.3125 5.0269,11.19251 6.6541,24.39473 13.5,34.65625 3.5859,2.49764 5.1046,6.93569 10,7.65625 l 141.7813,67.40625 c -27.2809,-47.77254 -54.5454,-95.55444 -81.9063,-143.28125 -13.2848,-9.52487 -30.7863,-9.45407 -44.2812,-18.46875 -19.1364,-11.12792 -21.5527,-31.50138 -21.25,-53.34375 -0.9845,-25.05015 4.2122,-50.64642 16.2812,-72.65625 11.2581,-18.71586 24.0814,-31.12375 45.8125,-30.625 10.2453,-0.31853 21.1595,1.23258 30.9063,-1.78125 2.4603,-3.53107 7.4025,-2.38982 9.3437,-6.5625 L 1484.9675,148.5914 1326.28,173.99765 c -14.786,13.54285 -22.4488,34.17777 -40.75,43.6875 -18.7959,10.84043 -35.1721,4.5568 -54.625,-3.5625 -22.071,-8.37327 -43.4778,-21.00566 -57.7813,-40.1875 -11.9207,-17.27501 -19.8495,-35.83005 -12.4375,-55.09375 2.7174,-9.23823 8.4012,-19.015226 5.4063,-28.749996 -6.0318,-12.25779 -14.3401,-23.17179 -20.7813,-35.21875 l -61.9375,-102.5625 z m 66.3125,306.812496 c 1.8888,0 3.7557,0.0956 5.5938,0.28125 0.9293,0.0938 1.8353,0.20424 2.75,0.34375 1.8094,0.27512 3.5672,0.64648 5.3125,1.09375 1.7453,0.44727 3.4529,0.98335 5.125,1.59375 3.345,1.22018 6.5324,2.7441 9.5312,4.5625 1.1913,0.72289 2.3402,1.50308 3.4688,2.3125 3.8419,2.75528 7.3426,5.98254 10.3437,9.625 1.1099,1.34599 2.1467,2.76821 3.125,4.21875 0.9779,1.45095 1.8815,2.95354 2.7188,4.5 1.6756,3.09215 3.0656,6.36096 4.125,9.78125 0.5297,1.71015 0.9816,3.44007 1.3437,5.21875 0.7238,3.55774 1.0938,7.25378 1.0938,11.03125 0,1.88873 -0.096,3.75567 -0.2813,5.59375 -0.1855,1.83821 -0.4503,3.65882 -0.8125,5.4375 -0.3621,1.77868 -0.814,3.5086 -1.3437,5.21875 -1.0594,3.42029 -2.4494,6.6891 -4.125,9.78125 -0.8373,1.54562 -1.7409,3.04996 -2.7188,4.5 -0.9783,1.45054 -2.0151,2.84151 -3.125,4.1875 -2.2187,2.69094 -4.7153,5.18749 -7.4062,7.40625 -1.346,1.1099 -2.737,2.14665 -4.1875,3.125 -1.45,0.97785 -2.9544,1.88141 -4.5,2.71875 -3.0922,1.6756 -6.361,3.06562 -9.7813,4.125 -1.7101,0.52969 -3.44,0.98162 -5.2187,1.34375 -3.5574,0.72426 -7.2538,1.09375 -11.0313,1.09375 -3.7774,0 -7.4739,-0.36949 -11.0312,-1.09375 -1.7787,-0.36213 -3.5086,-0.81406 -5.2188,-1.34375 -3.4202,-1.05938 -6.6891,-2.4494 -9.7812,-4.125 -1.5461,-0.8378 -3.0495,-1.7404 -4.5,-2.71875 -1.4505,-0.97835 -2.8728,-2.0151 -4.2188,-3.125 -1.3459,-1.1099 -2.6113,-2.2988 -3.8437,-3.53125 -0.622,-0.62101 -1.2211,-1.22454 -1.8125,-1.875 -1.178,-1.29665 -2.294,-2.65576 -3.3438,-4.0625 -0.2146,-0.28714 -0.4159,-0.58349 -0.625,-0.875 -0.8094,-1.12864 -1.5896,-2.27748 -2.3125,-3.46875 -1.8184,-2.99886 -3.3423,-6.18624 -4.5625,-9.53125 -0.6104,-1.67214 -1.1464,-3.37974 -1.5937,-5.125 -0.4473,-1.74526 -0.8186,-3.50311 -1.0938,-5.3125 0,-0.0101 0,-0.0211 0,-0.0312 -0.1374,-0.90478 -0.2509,-1.79965 -0.3437,-2.71875 -0.1857,-1.83808 -0.2813,-3.70502 -0.2813,-5.59375 0,-1.88873 0.096,-3.75544 0.2813,-5.59375 0.093,-0.9191 0.2063,-1.84522 0.3437,-2.75 0.2752,-1.80972 0.6465,-3.56673 1.0938,-5.3125 0.392,-1.52996 0.8573,-3.02565 1.375,-4.5 0.072,-0.20643 0.144,-0.41973 0.2187,-0.625 0,-0.009 0,-0.0222 0,-0.0312 1.2202,-3.34501 2.7441,-6.53239 4.5625,-9.53125 0.9096,-1.49983 1.8919,-2.94393 2.9375,-4.34375 1.0453,-1.39939 2.1715,-2.7409 3.3438,-4.03125 0.5915,-0.65104 1.1904,-1.28467 1.8125,-1.90625 0.6113,-0.6108 1.2352,-1.20001 1.875,-1.78125 1.2903,-1.1723 2.6319,-2.2985 4.0312,-3.34375 1.3999,-1.04568 2.844,-2.0279 4.3438,-2.9375 2.9989,-1.8184 6.2175,-3.34232 9.5625,-4.5625 1.6728,-0.6104 3.3792,-1.14648 5.125,-1.59375 1.7458,-0.44727 3.5028,-0.81863 5.3125,-1.09375 0.9048,-0.13749 1.8309,-0.25097 2.75,-0.34375 1.8383,-0.18567 3.705,-0.28125 5.5937,-0.28125 z"
         style="fill:url(#linearGradient4208);fill-opacity:1;fill-rule:evenodd;stroke:none" />
      <path
         inkscape:connector-curvature="0"
         id="path4089"
         d="m 1103.1237,-11.877346 32.9688,272.718746 c 4.346,-1.1078 8.8933,-1.71875 13.5937,-1.71875 1.6874,0 3.3527,0.10152 5,0.25 l -51.5625,-271.249996 z m 343,176.062496 -252.4687,117.125 c 3.6995,5.02574 6.5363,10.72884 8.3437,16.875 l 244.125,-134 z m -616.43746,95.71875 265.49996,52.15625 c 0.1841,-6.32866 1.416,-12.39835 3.5625,-18 L 829.68624,259.9039 z m 366.62496,82.125 c -3.2718,5.3862 -7.435,10.18282 -12.3125,14.125 l 200.6563,188.625 -188.3438,-202.75 z m -77.1562,16.90625 -115.4688,245 132.2188,-237.4375 c -6.0621,-1.56784 -11.7077,-4.1616 -16.75,-7.5625 z"
         style="fill:#cccccc;fill-opacity:1;fill-rule:evenodd;stroke:none;filter:url(#filter4178)" />
      <path
         style="opacity:0.27403846;fill:url(#linearGradient4210);fill-opacity:1;fill-rule:evenodd;stroke:none"
         d="m 1195.0834,361.34973 c 11.7787,-11.67313 19.4323,-27.61909 20.3732,-45.56039 2.0073,-38.27477 -27.1974,-70.68845 -65.4722,-72.6957 -38.2747,-2.00724 -70.7143,27.17154 -72.7215,65.44631 -2.0073,38.27477 27.1974,70.68844 65.4722,72.6957 20.3334,1.06634 38.9992,-6.65634 52.3483,-19.88592 z m -10.8131,-10.92139 c -10.3848,10.29181 -24.9115,16.2935 -40.7297,15.46395 -29.7755,-1.56153 -52.4959,-26.77143 -50.9344,-56.54686 1.5616,-29.77542 26.7973,-52.46994 56.5728,-50.90843 29.7754,1.56153 52.4958,26.77142 50.9343,56.54686 -0.732,13.95722 -6.6799,26.36347 -15.843,35.44448 z"
         id="path4112"
         inkscape:connector-curvature="0" />
      <path
         style="fill:#000000;fill-opacity:1;fill-rule:evenodd;stroke:none"
         d="m 1186.7678,352.94909 c 9.7667,-9.67926 16.1065,-22.90277 16.8866,-37.77946 1.6644,-31.73695 -22.5527,-58.6076 -54.2897,-60.27199 -31.7369,-1.66438 -58.6351,22.52518 -60.2995,54.26213 -1.6644,31.73694 22.5527,58.60759 54.2897,60.27198 16.8602,0.8842 32.344,-5.51287 43.4129,-16.48266 z m -5.3216,-5.37907 c -9.6107,9.52453 -23.037,15.10049 -37.676,14.33277 -27.5557,-1.44511 -48.5936,-24.79949 -47.1485,-52.35526 1.4451,-27.55575 24.7719,-48.56602 52.3277,-47.12091 27.5557,1.44512 48.5936,24.79948 47.1485,52.35525 -0.6774,12.91676 -6.1717,24.38411 -14.6517,32.78815 z"
         id="path4114"
         inkscape:connector-curvature="0" />
      <path
         style="fill:#cccccc;fill-opacity:1;fill-rule:evenodd;stroke:none"
         d="m 1191.7722,357.98533 c 10.9738,-10.8756 18.0728,-25.71447 18.9495,-42.4299 1.8701,-35.65959 -25.3375,-65.88261 -60.997,-67.7527 -35.6596,-1.87009 -65.8567,25.31154 -67.7268,60.97113 -1.8701,35.65959 25.3374,65.8826 60.997,67.7527 18.9441,0.99348 36.3403,-6.21559 48.7773,-18.54123 z m -7.5019,-7.55695 c -10.3848,10.29182 -24.9116,16.2935 -40.7298,15.46394 -29.7754,-1.56152 -52.4958,-26.77141 -50.9343,-56.54684 1.5615,-29.77544 26.7973,-52.46994 56.5727,-50.90843 29.7754,1.56151 52.4958,26.77141 50.9343,56.54685 -0.7319,13.95723 -6.6799,26.36348 -15.8429,35.44448 z"
         id="path4116"
         inkscape:connector-curvature="0" />
    </g>
  </g>
</svg>
