<?xml version="1.0" encoding="UTF-8" standalone="no"?>
<!-- Created with Inkscape (http://www.inkscape.org/) -->

<svg
   xmlns:dc="http://purl.org/dc/elements/1.1/"
   xmlns:cc="http://creativecommons.org/ns#"
   xmlns:rdf="http://www.w3.org/1999/02/22-rdf-syntax-ns#"
   xmlns:svg="http://www.w3.org/2000/svg"
   xmlns="http://www.w3.org/2000/svg"
   xmlns:xlink="http://www.w3.org/1999/xlink"
   xmlns:sodipodi="http://sodipodi.sourceforge.net/DTD/sodipodi-0.dtd"
   xmlns:inkscape="http://www.inkscape.org/namespaces/inkscape"
   width="663.40625"
   height="481.34375"
   id="svg2"
   version="1.1"
   inkscape:version="0.48.4 r9939"
   sodipodi:docname="washingMachine.svg">
  <sodipodi:namedview
     id="base"
     pagecolor="#ffffff"
     bordercolor="#666666"
     borderopacity="1.0"
     inkscape:pageopacity="0.0"
     inkscape:pageshadow="2"
     inkscape:zoom="0.5"
     inkscape:cx="86.777478"
     inkscape:cy="439.59587"
     inkscape:document-units="px"
     inkscape:current-layer="layer1"
     showgrid="false"
     fit-margin-top="0"
     fit-margin-left="0"
     fit-margin-right="0"
     fit-margin-bottom="0"
     inkscape:window-width="1366"
     inkscape:window-height="705"
     inkscape:window-x="-8"
     inkscape:window-y="-8"
     inkscape:window-maximized="1"
     inkscape:snap-grids="true"
     showguides="true"
     inkscape:guide-bbox="true">
    <inkscape:grid
       type="xygrid"
       id="grid4724"
       empspacing="5"
       visible="true"
       enabled="true"
       snapvisiblegridlinesonly="true"
       originx="915.42435px"
       originy="534.29121px" />
  </sodipodi:namedview>
  <defs
     id="defs4">
    <linearGradient
       id="linearGradient6129">
      <stop
         style="stop-color:#000000;stop-opacity:1;"
         offset="0"
         id="stop6131" />
      <stop
         id="stop6141"
         offset="0.2019012"
         style="stop-color:#4d4d4d;stop-opacity:1" />
      <stop
         id="stop6139"
         offset="0.53399926"
         style="stop-color:#333333;stop-opacity:1" />
      <stop
         id="stop6137"
         offset="0.76406729"
         style="stop-color:#000000;stop-opacity:1" />
      <stop
         style="stop-color:#333333;stop-opacity:1"
         offset="1"
         id="stop6133" />
    </linearGradient>
    <linearGradient
       inkscape:collect="always"
       id="linearGradient6013">
      <stop
         style="stop-color:#ffffff;stop-opacity:1"
         offset="0"
         id="stop6015" />
      <stop
         style="stop-color:#000000;stop-opacity:0;"
         offset="1"
         id="stop6017" />
    </linearGradient>
    <linearGradient
       id="linearGradient5576">
      <stop
         style="stop-color:#ffffff;stop-opacity:1"
         offset="0"
         id="stop5578" />
      <stop
         style="stop-color:#e6e6e6;stop-opacity:1"
         offset="1"
         id="stop5580" />
    </linearGradient>
    <linearGradient
       id="linearGradient5570">
      <stop
         id="stop5572"
         offset="0"
         style="stop-color:#ffffff;stop-opacity:1" />
      <stop
         id="stop5574"
         offset="1"
         style="stop-color:#cccccc;stop-opacity:1" />
    </linearGradient>
    <linearGradient
       id="linearGradient5526">
      <stop
         id="stop5528"
         offset="0"
         style="stop-color:#000000;stop-opacity:1" />
      <stop
         id="stop5530"
         offset="1"
         style="stop-color:#000000;stop-opacity:0" />
    </linearGradient>
    <linearGradient
       id="linearGradient5498">
      <stop
         style="stop-color:#000000;stop-opacity:0.5321101;"
         offset="0"
         id="stop5500" />
      <stop
         style="stop-color:#4d4d4d;stop-opacity:0;"
         offset="1"
         id="stop5502" />
    </linearGradient>
    <linearGradient
       id="linearGradient5253">
      <stop
         style="stop-color:#a1a1a1;stop-opacity:1;"
         offset="0"
         id="stop5255" />
      <stop
         id="stop5279"
         offset="0.09326643"
         style="stop-color:#f2f2f2;stop-opacity:1" />
      <stop
         id="stop5277"
         offset="0.28016874"
         style="stop-color:#f9f9f9;stop-opacity:1" />
      <stop
         id="stop5275"
         offset="0.41136032"
         style="stop-color:#dcdcdc;stop-opacity:1;" />
      <stop
         id="stop5273"
         offset="0.56053966"
         style="stop-color:#f2f2f2;stop-opacity:1" />
      <stop
         id="stop5271"
         offset="0.71340966"
         style="stop-color:#ececec;stop-opacity:1" />
      <stop
         id="stop5269"
         offset="0.83397985"
         style="stop-color:#f2f2f2;stop-opacity:1" />
      <stop
         style="stop-color:#e6e6e6;stop-opacity:1"
         offset="1"
         id="stop5257" />
    </linearGradient>
    <linearGradient
       id="linearGradient5012">
      <stop
         style="stop-color:#b6b6b6;stop-opacity:1;"
         offset="0"
         id="stop5014" />
      <stop
         id="stop5034"
         offset="0.08083832"
         style="stop-color:#e6e6e6;stop-opacity:0.99607843;" />
      <stop
         id="stop5032"
         offset="0.18914835"
         style="stop-color:#b6b6b6;stop-opacity:1;" />
      <stop
         id="stop5030"
         offset="0.32335329"
         style="stop-color:#e6e6e6;stop-opacity:0.99607843;" />
      <stop
         id="stop5028"
         offset="0.44344622"
         style="stop-color:#b6b6b6;stop-opacity:1;" />
      <stop
         id="stop5026"
         offset="0.55158675"
         style="stop-color:#e6e6e6;stop-opacity:0.99607843;" />
      <stop
         id="stop5024"
         offset="0.65251696"
         style="stop-color:#b6b6b6;stop-opacity:1;" />
      <stop
         id="stop5022"
         offset="0.77196223"
         style="stop-color:#e6e6e6;stop-opacity:0.99607843;" />
      <stop
         id="stop5020"
         offset="0.87916976"
         style="stop-color:#b6b6b6;stop-opacity:1;" />
      <stop
         style="stop-color:#e6e6e6;stop-opacity:0.99607843;"
         offset="1"
         id="stop5016" />
    </linearGradient>
    <linearGradient
       id="linearGradient3909">
      <stop
         id="stop3911"
         offset="0"
         style="stop-color:#ffffff;stop-opacity:1;" />
      <stop
         id="stop3913"
         offset="1"
         style="stop-color:#aaf0ff;stop-opacity:1;" />
    </linearGradient>
    <clipPath
       id="clipPath3952"
       clipPathUnits="userSpaceOnUse">
      <rect
         style="fill:#d45500;fill-opacity:1;fill-rule:evenodd;stroke:#000000;stroke-width:3;stroke-linejoin:miter;stroke-miterlimit:4;stroke-opacity:1;stroke-dasharray:none"
         id="rect3954"
         width="360"
         height="360"
         x="168.57143"
         y="235.21933"
         rx="180"
         ry="180" />
    </clipPath>
    <clipPath
       id="clipPath3956"
       clipPathUnits="userSpaceOnUse">
      <rect
         style="fill:#d45500;fill-opacity:1;fill-rule:evenodd;stroke:#000000;stroke-width:3;stroke-linejoin:miter;stroke-miterlimit:4;stroke-opacity:1;stroke-dasharray:none"
         id="rect3958"
         width="360"
         height="360"
         x="168.57143"
         y="235.21933"
         rx="180"
         ry="180" />
    </clipPath>
    <clipPath
       id="clipPath3960"
       clipPathUnits="userSpaceOnUse">
      <rect
         style="fill:#d45500;fill-opacity:1;fill-rule:evenodd;stroke:#000000;stroke-width:3;stroke-linejoin:miter;stroke-miterlimit:4;stroke-opacity:1;stroke-dasharray:none"
         id="rect3962"
         width="360"
         height="360"
         x="168.57143"
         y="235.21933"
         rx="180"
         ry="180" />
    </clipPath>
    <clipPath
       id="clipPath3964"
       clipPathUnits="userSpaceOnUse">
      <rect
         style="fill:#d45500;fill-opacity:1;fill-rule:evenodd;stroke:#000000;stroke-width:3;stroke-linejoin:miter;stroke-miterlimit:4;stroke-opacity:1;stroke-dasharray:none"
         id="rect3966"
         width="360"
         height="360"
         x="168.57143"
         y="235.21933"
         rx="180"
         ry="180" />
    </clipPath>
    <filter
       inkscape:collect="always"
       id="filter5402"
       x="-0.16384333"
       width="1.3276867"
       y="-0.44844219"
       height="1.8968844"
       color-interpolation-filters="sRGB">
      <feGaussianBlur
         inkscape:collect="always"
         stdDeviation="9.5434352"
         id="feGaussianBlur5404" />
    </filter>
    <clipPath
       clipPathUnits="userSpaceOnUse"
       id="clipPath5430">
      <path
         sodipodi:nodetypes="ccccccccccccc"
         inkscape:connector-curvature="0"
         id="path5432"
         d="m -155.6342,234.30177 c -9.08921,0.15974 -17.6156,-1.32846 -25.47151,-1.92089 -2.77973,10.63268 -4.45267,11.13025 2.83018,15.36711 -12.80821,25.34592 8.34275,50.30635 29.71675,67.23111 -0.38541,5.64912 4.38228,9.66662 5.66033,12.48579 15.36644,1.54111 26.08101,-1.73864 35.37709,-3.84179 64.06306,4.56069 132.98755,-1.06258 189.62118,-9.60444 9.26728,2.56443 9.9014,0 19.81117,0 1.32901,-9.39091 -1.16852,-10.52972 -8.4905,-16.32756 -9.65878,-19.1714 -7.11194,-47.08282 -33.962,-62.42889 0,-4.48207 -2.83017,-4.16192 -2.83017,-8.644 -8.26508,-1.00749 -14.54664,1.12685 -19.81117,1.9209 -69.5973,-7.05817 -146.65513,-8.11325 -192.45135,5.76266 z"
         style="fill:#ebf6ff;fill-opacity:1;stroke:#000000;stroke-width:0.82435101px;stroke-linecap:butt;stroke-linejoin:miter;stroke-opacity:1" />
    </clipPath>
    <clipPath
       clipPathUnits="userSpaceOnUse"
       id="clipPath5434">
      <path
         sodipodi:nodetypes="ccccccccccccc"
         inkscape:connector-curvature="0"
         id="path5436"
         d="m -155.6342,234.30177 c -9.08921,0.15974 -17.6156,-1.32846 -25.47151,-1.92089 -2.77973,10.63268 -4.45267,11.13025 2.83018,15.36711 -12.80821,25.34592 8.34275,50.30635 29.71675,67.23111 -0.38541,5.64912 4.38228,9.66662 5.66033,12.48579 15.36644,1.54111 26.08101,-1.73864 35.37709,-3.84179 64.06306,4.56069 132.98755,-1.06258 189.62118,-9.60444 9.26728,2.56443 9.9014,0 19.81117,0 1.32901,-9.39091 -1.16852,-10.52972 -8.4905,-16.32756 -9.65878,-19.1714 -7.11194,-47.08282 -33.962,-62.42889 0,-4.48207 -2.83017,-4.16192 -2.83017,-8.644 -8.26508,-1.00749 -14.54664,1.12685 -19.81117,1.9209 -69.5973,-7.05817 -146.65513,-8.11325 -192.45135,5.76266 z"
         style="fill:#ebf6ff;fill-opacity:1;stroke:#000000;stroke-width:0.82435101px;stroke-linecap:butt;stroke-linejoin:miter;stroke-opacity:1" />
    </clipPath>
    <clipPath
       clipPathUnits="userSpaceOnUse"
       id="clipPath5438">
      <path
         sodipodi:nodetypes="ccccccccccccc"
         inkscape:connector-curvature="0"
         id="path5440"
         d="m -155.6342,234.30177 c -9.08921,0.15974 -17.6156,-1.32846 -25.47151,-1.92089 -2.77973,10.63268 -4.45267,11.13025 2.83018,15.36711 -12.80821,25.34592 8.34275,50.30635 29.71675,67.23111 -0.38541,5.64912 4.38228,9.66662 5.66033,12.48579 15.36644,1.54111 26.08101,-1.73864 35.37709,-3.84179 64.06306,4.56069 132.98755,-1.06258 189.62118,-9.60444 9.26728,2.56443 9.9014,0 19.81117,0 1.32901,-9.39091 -1.16852,-10.52972 -8.4905,-16.32756 -9.65878,-19.1714 -7.11194,-47.08282 -33.962,-62.42889 0,-4.48207 -2.83017,-4.16192 -2.83017,-8.644 -8.26508,-1.00749 -14.54664,1.12685 -19.81117,1.9209 -69.5973,-7.05817 -146.65513,-8.11325 -192.45135,5.76266 z"
         style="fill:#ebf6ff;fill-opacity:1;stroke:#000000;stroke-width:0.82435101px;stroke-linecap:butt;stroke-linejoin:miter;stroke-opacity:1" />
    </clipPath>
    <clipPath
       clipPathUnits="userSpaceOnUse"
       id="clipPath5442">
      <path
         sodipodi:nodetypes="ccccccccccccc"
         inkscape:connector-curvature="0"
         id="path5444"
         d="m 133.81878,413.29406 c -10.02946,0.17627 -19.43788,-1.46588 -28.10646,-2.1196 -3.06728,11.7326 -4.91329,12.28165 3.12295,16.9568 -14.133178,27.96788 9.20579,55.51039 32.79087,74.18597 -0.42528,6.23351 4.83561,10.6666 6.24587,13.77741 16.95605,1.70053 28.77902,-1.9185 39.03675,-4.23921 70.6902,5.03248 146.74472,-1.1725 209.23694,-10.59799 10.22595,2.82971 10.92567,0 21.86058,0 1.46649,-10.36238 -1.2894,-11.61899 -9.36882,-18.0166 -10.65795,-21.15463 -7.84765,-51.9534 -37.47527,-68.88698 0,-4.94573 -3.12294,-4.59246 -3.12294,-9.5382 -9.12008,-1.11171 -16.05145,1.24342 -21.86058,2.11961 -76.79694,-7.78831 -161.82618,-8.95254 -212.35989,6.35879 z"
         style="fill:#ebf6ff;fill-opacity:1;stroke:#000000;stroke-width:0.90962774px;stroke-linecap:butt;stroke-linejoin:miter;stroke-opacity:1" />
    </clipPath>
    <clipPath
       clipPathUnits="userSpaceOnUse"
       id="clipPath5446">
      <path
         sodipodi:nodetypes="ccccccccccccc"
         inkscape:connector-curvature="0"
         id="path5448"
         d="m 143.46427,413.27547 c -8.62629,0.1687 -16.71843,-1.40292 -24.17424,-2.02856 -2.63816,11.2287 -4.22589,11.75416 2.68604,16.22852 -12.15588,26.7667 7.91785,53.1263 28.20327,70.99979 -0.36578,5.96578 4.15909,10.20848 5.37204,13.18568 14.58383,1.6275 24.7527,-1.8361 33.57533,-4.05714 60.80031,4.81634 126.21445,-1.12214 179.96371,-10.14282 8.7953,2.70818 9.39712,0 18.80218,0 1.26133,-9.91732 -1.109,-11.11997 -8.05807,-17.24281 -9.16686,-20.24607 -6.74973,-49.72208 -32.23231,-65.92838 0,-4.73331 -2.68602,-4.39522 -2.68602,-9.12854 -7.84414,-1.06397 -13.80578,1.19001 -18.80219,2.02857 -66.05268,-7.45382 -139.18594,-8.56804 -182.64974,6.08569 z"
         style="fill:#ebf6ff;fill-opacity:1;stroke:#000000;stroke-width:0.82528627px;stroke-linecap:butt;stroke-linejoin:miter;stroke-opacity:1" />
    </clipPath>
    <clipPath
       clipPathUnits="userSpaceOnUse"
       id="clipPath5450">
      <path
         sodipodi:nodetypes="ccccccccccccc"
         inkscape:connector-curvature="0"
         id="path5452"
         d="m 137.70802,412.2709 c -9.08921,0.15974 -17.6156,-1.32846 -25.47151,-1.92089 -2.77973,10.63268 -4.45267,11.13025 2.83018,15.36711 -12.80821,25.34592 8.34275,50.30635 29.71675,67.23111 -0.38541,5.64912 4.38228,9.66662 5.66033,12.48579 15.36644,1.54111 26.08101,-1.73864 35.37709,-3.84179 64.06306,4.56069 132.98755,-1.06258 189.62118,-9.60444 9.26728,2.56443 9.9014,0 19.81117,0 1.32901,-9.39091 -1.16852,-10.52972 -8.4905,-16.32756 -9.65878,-19.1714 -7.11194,-47.08282 -33.962,-62.42889 0,-4.48207 -2.83017,-4.16192 -2.83017,-8.644 -8.26508,-1.00749 -14.54664,1.12685 -19.81117,1.9209 -69.5973,-7.05817 -146.65513,-8.11325 -192.45135,5.76266 z"
         style="fill:#ebf6ff;fill-opacity:1;stroke:#000000;stroke-width:0.82435101px;stroke-linecap:butt;stroke-linejoin:miter;stroke-opacity:1" />
    </clipPath>
    <filter
       inkscape:collect="always"
       id="filter5464"
       x="-0.055519998"
       width="1.11104"
       y="-0.15195926"
       height="1.3039185"
       color-interpolation-filters="sRGB">
      <feGaussianBlur
         inkscape:collect="always"
         stdDeviation="5.721448"
         id="feGaussianBlur5466" />
    </filter>
    <linearGradient
       inkscape:collect="always"
       xlink:href="#linearGradient6013"
       id="linearGradient6019"
       x1="-202.75049"
       y1="955.09833"
       x2="-199.92206"
       y2="677.91248"
       gradientUnits="userSpaceOnUse" />
    <filter
       inkscape:collect="always"
       id="filter6049"
       color-interpolation-filters="sRGB">
      <feGaussianBlur
         inkscape:collect="always"
         stdDeviation="8.555694"
         id="feGaussianBlur6051" />
    </filter>
    <clipPath
       clipPathUnits="userSpaceOnUse"
       id="clipPath6121">
      <path
         inkscape:connector-curvature="0"
         id="path6123"
         d="m -173.13822,472.73276 c -141.824,0 -256,114.176 -256,256.00001 0,141.824 114.176,256 256,256 83.1405,0 156.763059,-39.23831 203.468749,-100.28125 C 11.983749,845.69865 0.86177853,794.72384 0.86177853,738.73276 l 0,-19.99999 c 0,-55.9837 11.12630147,-106.9365 29.46875047,-145.6875 C -16.375161,512.00231 -89.99772,472.73276 -173.13822,472.73276 z"
         style="fill:#666666;fill-opacity:1;fill-rule:evenodd;stroke:none" />
    </clipPath>
    <linearGradient
       inkscape:collect="always"
       xlink:href="#linearGradient6129"
       id="linearGradient6135"
       x1="-555.13861"
       y1="262.46671"
       x2="-515.13861"
       y2="902.46674"
       gradientUnits="userSpaceOnUse" />
    <filter
       inkscape:collect="always"
       id="filter6168"
       x="-0.012646669"
       width="1.0252934"
       y="-0.23467946"
       height="1.4693589"
       color-interpolation-filters="sRGB">
      <feGaussianBlur
         inkscape:collect="always"
         stdDeviation="3.1840625"
         id="feGaussianBlur6170" />
    </filter>
    <filter
       inkscape:collect="always"
       id="filter6211"
       x="-0.026463123"
       width="1.0529262"
       y="-0.25784951"
       height="1.515699"
       color-interpolation-filters="sRGB">
      <feGaussianBlur
         inkscape:collect="always"
         stdDeviation="1.2762132"
         id="feGaussianBlur6213" />
    </filter>
    <filter
       inkscape:collect="always"
       id="filter6249"
       x="-0.51017815"
       width="2.0203564"
       y="-0.046379834"
       height="1.0927597"
       color-interpolation-filters="sRGB">
      <feGaussianBlur
         inkscape:collect="always"
         stdDeviation="0.85029694"
         id="feGaussianBlur6251" />
    </filter>
    <clipPath
       clipPathUnits="userSpaceOnUse"
       id="clipPath6258">
      <path
         style="fill:#000000;fill-opacity:1;fill-rule:evenodd;stroke:none"
         d="m -95.90625,155.4375 c -32.17618,0 -58.09375,13.42957 -58.09375,30.09375 l 0,349.84375 c 0,16.66418 25.91757,30.0625 58.09375,30.0625 l 241,0 0,18.34375 C 75.47719,585.24613 27.99498,602.82883 23.5625,608.625 c -1.046,1.36781 -1.28228,2.96697 0,5 4.48052,7.10377 68.76018,23.15625 154.15625,23.15625 85.39607,0 150.94886,-15.38124 154.125,-23.15625 0.63744,-1.56043 1.31106,-3.11482 0,-5 -4.16613,-5.99048 -51.9147,-23.37887 -121.53125,-24.84375 l 0,-18.34375 241,0 c 32.17618,0 58.09375,-13.39832 58.09375,-30.0625 l 0,-349.84375 c 0,-16.66418 -25.91757,-30.09375 -58.09375,-30.09375 l -547.21875,0 z"
         id="path6260"
         inkscape:connector-curvature="0" />
    </clipPath>
    <clipPath
       clipPathUnits="userSpaceOnUse"
       id="clipPath6262">
      <path
         style="fill:#000000;fill-opacity:1;fill-rule:evenodd;stroke:none"
         d="m 506.05283,1158.7883 c 0,54.1088 -22.58374,97.6929 -50.60693,97.6929 l -588.31206,0 c -28.02319,0 -50.55437,-43.5841 -50.55437,-97.6929 l 0,-405.27582 -30.84763,0 c -2.4634,117.07016 -32.03121,196.91825 -41.7783,204.3721 -2.30017,1.759 -4.98938,2.15634 -8.40821,0 -11.946,-7.53463 -38.94053,-115.63003 -38.94053,-259.23568 0,-143.60564 25.86574,-253.84199 38.94053,-259.18312 2.62408,-1.07195 5.23801,-2.20474 8.40821,0 10.07385,7.00594 39.3149,87.30196 41.7783,204.37209 l 30.84763,0 0,-405.2758 c 0,-54.10883 22.53118,-97.69291 50.55437,-97.69291 l 588.31206,0 c 28.02319,0 50.60693,43.58408 50.60693,97.69291 l 0,920.22623 z"
         id="path6264"
         inkscape:connector-curvature="0" />
    </clipPath>
    <clipPath
       clipPathUnits="userSpaceOnUse"
       id="clipPath6266">
      <path
         style="fill:#000000;fill-opacity:1;fill-rule:evenodd;stroke:none"
         d="m -183.27722,251.70515 c 0,-54.10883 22.58373,-97.69291 50.60692,-97.69291 l 588.31206,0 c 28.0232,0 50.55438,43.58408 50.55438,97.69291 l 0,405.2758 30.84762,0 c 2.46341,-117.07015 32.03122,-196.91825 41.77831,-204.37209 2.30016,-1.759 4.98938,-2.15634 8.40821,0 11.946,7.53463 38.94053,115.63003 38.94053,259.23567 0,143.60565 -25.86575,253.842 -38.94053,259.18313 -2.62409,1.07194 -5.23802,2.20473 -8.40821,0 -10.07385,-7.00594 -39.3149,-87.30196 -41.77831,-204.3721 l -30.84762,0 0,405.27584 c 0,54.1088 -22.53118,97.6929 -50.55438,97.6929 l -588.31206,0 c -28.02319,0 -50.60692,-43.5841 -50.60692,-97.6929 l 0,-920.22625 z"
         id="path6268"
         inkscape:connector-curvature="0" />
    </clipPath>
    <clipPath
       clipPathUnits="userSpaceOnUse"
       id="clipPath6270">
      <path
         style="fill:#000000;fill-opacity:1;fill-rule:evenodd;stroke:none"
         d="m 442.65625,555.99985 c 32.17618,0 58.09375,-13.42957 58.09375,-30.09375 l 0,-349.84375 c 0,-16.66418 -25.91757,-30.0625 -58.09375,-30.0625 l -241,0 0,-18.34375 c 69.61656,-1.46488 117.09877,-19.04758 121.53125,-24.84375 1.046,-1.36781 1.28228,-2.96697 0,-5 -4.48052,-7.10377 -68.76018,-23.15625 -154.15625,-23.15625 -85.39607,0 -150.94886,15.38124 -154.125,23.15625 -0.63744,1.56043 -1.31106,3.11482 0,5 4.16613,5.99048 51.9147,23.37887 121.53125,24.84375 l 0,18.34375 -241,0 c -32.17618,0 -58.09375,13.39832 -58.09375,30.0625 l 0,349.84375 c 0,16.66418 25.91757,30.09375 58.09375,30.09375 l 547.21875,0 z"
         id="path6272"
         inkscape:connector-curvature="0" />
    </clipPath>
    <clipPath
       clipPathUnits="userSpaceOnUse"
       id="clipPath6274">
      <path
         style="fill:#000000;fill-opacity:1;fill-rule:evenodd;stroke:none"
         d="m -95.90625,155.4375 c -32.17618,0 -58.09375,13.42957 -58.09375,30.09375 l 0,349.84375 c 0,16.66418 25.91757,30.0625 58.09375,30.0625 l 241,0 0,18.34375 C 75.47719,585.24613 27.99498,602.82883 23.5625,608.625 c -1.046,1.36781 -1.28228,2.96697 0,5 4.48052,7.10377 68.76018,23.15625 154.15625,23.15625 85.39607,0 150.94886,-15.38124 154.125,-23.15625 0.63744,-1.56043 1.31106,-3.11482 0,-5 -4.16613,-5.99048 -51.9147,-23.37887 -121.53125,-24.84375 l 0,-18.34375 241,0 c 32.17618,0 58.09375,-13.39832 58.09375,-30.0625 l 0,-349.84375 c 0,-16.66418 -25.91757,-30.09375 -58.09375,-30.09375 l -547.21875,0 z"
         id="path6276"
         inkscape:connector-curvature="0" />
    </clipPath>
    <clipPath
       clipPathUnits="userSpaceOnUse"
       id="clipPath6278">
      <path
         style="fill:#000000;fill-opacity:1;fill-rule:evenodd;stroke:none"
         d="m -553.04489,512.45255 c -32.17618,0 -58.09375,13.42957 -58.09375,30.09375 l 0,349.84375 c 0,16.66418 25.91757,30.0625 58.09375,30.0625 l 241,0 0,18.34375 c -69.61656,1.46488 -117.09877,19.04758 -121.53125,24.84375 -1.046,1.36781 -1.28228,2.96697 0,5 4.48052,7.10377 68.76018,23.15625 154.15625,23.15625 85.39607,0 150.94886,-15.38124 154.125,-23.15625 0.63744,-1.56043 1.31106,-3.11482 0,-5 -4.16613,-5.99048 -51.9147,-23.37887 -121.53125,-24.84375 l 0,-18.34375 241,0 c 32.17618,0 58.09375,-13.39832 58.09375,-30.0625 l 0,-349.84375 c 0,-16.66418 -25.91757,-30.09375 -58.09375,-30.09375 l -547.21875,0 z"
         id="path6280"
         inkscape:connector-curvature="0" />
    </clipPath>
    <clipPath
       clipPathUnits="userSpaceOnUse"
       id="clipPath6282">
      <path
         style="fill:#000000;fill-opacity:1;fill-rule:evenodd;stroke:none"
         d="m -95.90625,155.4375 c -32.17618,0 -58.09375,13.42957 -58.09375,30.09375 l 0,349.84375 c 0,16.66418 25.91757,30.0625 58.09375,30.0625 l 241,0 0,18.34375 C 75.47719,585.24613 27.99498,602.82883 23.5625,608.625 c -1.046,1.36781 -1.28228,2.96697 0,5 4.48052,7.10377 68.76018,23.15625 154.15625,23.15625 85.39607,0 150.94886,-15.38124 154.125,-23.15625 0.63744,-1.56043 1.31106,-3.11482 0,-5 -4.16613,-5.99048 -51.9147,-23.37887 -121.53125,-24.84375 l 0,-18.34375 241,0 c 32.17618,0 58.09375,-13.39832 58.09375,-30.0625 l 0,-349.84375 c 0,-16.66418 -25.91757,-30.09375 -58.09375,-30.09375 l -547.21875,0 z"
         id="path6284"
         inkscape:connector-curvature="0" />
    </clipPath>
    <clipPath
       clipPathUnits="userSpaceOnUse"
       id="clipPath6286">
      <path
         style="fill:#000000;fill-opacity:1;fill-rule:evenodd;stroke:none"
         d="m -11.72685,155.4375 c -20.947036,0 -37.819649,13.42957 -37.819649,30.09375 l 0,349.84375 c 0,16.66418 16.872613,30.0625 37.819649,30.0625 l 156.89356,0 0,18.34375 c -45.321117,1.46488 -76.232541,19.04758 -79.118132,24.84375 -0.680957,1.36781 -0.834778,2.96697 0,5 2.916866,7.10377 44.763612,23.15625 100.357362,23.15625 55.59375,0 98.26931,-15.38124 100.33701,-23.15625 0.41498,-1.56043 0.85352,-3.11482 0,-5 -2.71219,-5.99048 -33.79702,-23.37887 -79.11813,-24.84375 l 0,-18.34375 156.89356,0 c 20.94704,0 37.81965,-13.39832 37.81965,-30.0625 l 0,-349.84375 c 0,-16.66418 -16.87261,-30.09375 -37.81965,-30.09375 l -356.24523,0 z"
         id="path6288"
         inkscape:connector-curvature="0" />
    </clipPath>
    <clipPath
       clipPathUnits="userSpaceOnUse"
       id="clipPath6290">
      <path
         style="fill:#000000;fill-opacity:1;fill-rule:evenodd;stroke:none"
         d="m -553.04489,512.45255 c -32.17618,0 -58.09375,13.42957 -58.09375,30.09375 l 0,349.84375 c 0,16.66418 25.91757,30.0625 58.09375,30.0625 l 241,0 0,18.34375 c -69.61656,1.46488 -117.09877,19.04758 -121.53125,24.84375 -1.046,1.36781 -1.28228,2.96697 0,5 4.48052,7.10377 68.76018,23.15625 154.15625,23.15625 85.39607,0 150.94886,-15.38124 154.125,-23.15625 0.63744,-1.56043 1.31106,-3.11482 0,-5 -4.16613,-5.99048 -51.9147,-23.37887 -121.53125,-24.84375 l 0,-18.34375 241,0 c 32.17618,0 58.09375,-13.39832 58.09375,-30.0625 l 0,-349.84375 c 0,-16.66418 -25.91757,-30.09375 -58.09375,-30.09375 l -547.21875,0 z"
         id="path6292"
         inkscape:connector-curvature="0" />
    </clipPath>
  </defs>
  <metadata
     id="metadata7">
    <rdf:RDF>
      <cc:Work
         rdf:about="">
        <dc:format>image/svg+xml</dc:format>
        <dc:type
           rdf:resource="http://purl.org/dc/dcmitype/StillImage" />
        <dc:title></dc:title>
      </cc:Work>
    </rdf:RDF>
  </metadata>
  <g
     transform="translate(611.13864,-512.45255)"
     id="layer1"
     inkscape:groupmode="layer"
     inkscape:label="Layer 1"
     style="display:inline">
    <path
       style="fill:#000000;fill-opacity:1;fill-rule:evenodd;stroke:none"
       d="m -279.42599,864.76505 c -18.06516,0 -32.625,3.59293 -32.625,8.03125 l 0,68 c -69.61656,1.46488 -117.09877,19.04758 -121.53125,24.84375 -1.046,1.36781 -1.28228,2.96697 0,5 4.48052,7.10377 68.76018,23.15625 154.15625,23.15625 85.39607,0 150.94886,-15.38124 154.125,-23.15625 0.63744,-1.56043 1.31106,-3.11482 0,-5 -4.16613,-5.99048 -51.9147,-23.37887 -121.53125,-24.84375 l 0,-68 c 0,-4.43832 -14.52859,-8.03125 -32.59375,-8.03125 z"
       id="rect6178"
       inkscape:connector-curvature="0"
       sodipodi:nodetypes="sscssssscss"
       clip-path="url(#clipPath6290)" />
    <rect
       style="opacity:0.40865383;fill:#ffffff;fill-opacity:1;fill-rule:evenodd;stroke:none;filter:url(#filter6249)"
       id="rect6215"
       width="4"
       height="44"
       x="147.5"
       y="563.45166"
       transform="matrix(1.5360732,0,0,1,-535.03159,357.01505)"
       rx="54.23465"
       ry="27.208382"
       clip-path="url(#clipPath6286)" />
    <rect
       style="fill:#000000;fill-opacity:1;fill-rule:evenodd;stroke:#000000;stroke-width:0.99900001;stroke-linejoin:miter;stroke-miterlimit:4;stroke-opacity:1;stroke-dasharray:none"
       id="rect6125"
       width="663.39392"
       height="410"
       x="-154"
       y="155.45166"
       transform="translate(-457.13864,357.01505)"
       rx="58.079742"
       ry="30.079742"
       clip-path="url(#clipPath6282)" />
    <rect
       ry="27.208382"
       rx="54.23465"
       y="532.03571"
       x="-589.17902"
       height="370.86209"
       width="619.47479"
       id="rect6127"
       style="fill:url(#linearGradient6135);fill-opacity:1;fill-rule:evenodd;stroke:#000000;stroke-width:0.91813356;stroke-linejoin:miter;stroke-miterlimit:4;stroke-opacity:1;stroke-dasharray:none"
       clip-path="url(#clipPath6278)" />
    <path
       style="fill:#ffffff;fill-opacity:1;fill-rule:evenodd;stroke:#000000;stroke-width:0.99900001;stroke-linejoin:miter;stroke-miterlimit:4;stroke-opacity:1;stroke-dasharray:none;filter:url(#filter6168)"
       d="m -61.90625,157.4375 c -29.035906,0 -52.98102,1.46299 -57.375,3.375 -0.0187,0.008 -0.0445,0.0231 -0.0625,0.0312 -17.1609,3.11127 -30.90625,12.16736 -30.90625,29.15625 4.18176,-19.2363 25.75993,-25.07895 46.90625,-25.75 10.522376,0.73637 25.181515,-0.93382 41.4375,-0.93382 l 457.8125,0 c 32.17618,0 58.09375,0.33732 58.09375,-1.87868 0,-2.216 -25.91757,-4 -58.09375,-4 z"
       transform="translate(-457.13864,357.01505)"
       id="rect6143"
       inkscape:connector-curvature="0"
       sodipodi:nodetypes="sscccsssss"
       clip-path="url(#clipPath6274)" />
    <path
       sodipodi:nodetypes="sscccsssss"
       inkscape:connector-curvature="0"
       id="path6172"
       transform="matrix(-1,0,0,-1,-110.38864,1068.4524)"
       d="m -61.90625,157.4375 c -29.035906,0 -52.98102,1.46299 -57.375,3.375 -0.0187,0.008 -0.0445,0.0231 -0.0625,0.0312 -17.1609,3.11127 -30.90625,12.16736 -30.90625,29.15625 4.18176,-19.2363 25.75993,-25.07895 46.90625,-25.75 10.522376,0.73637 25.181515,-0.93382 41.4375,-0.93382 l 457.8125,0 c 32.17618,0 58.09375,0.33732 58.09375,-1.87868 0,-2.216 -25.91757,-4 -58.09375,-4 z"
       style="opacity:0.79807691;fill:#ffffff;fill-opacity:1;fill-rule:evenodd;stroke:#000000;stroke-width:0.99900001;stroke-linejoin:miter;stroke-miterlimit:4;stroke-opacity:1;stroke-dasharray:none;filter:url(#filter6168)"
       clip-path="url(#clipPath6270)" />
    <path
       sodipodi:nodetypes="sscccsssss"
       inkscape:connector-curvature="0"
       id="path6174"
       transform="matrix(0,0.59465677,0.59465677,0,-698.72306,621.43959)"
       d="m -61.90625,157.4375 c -29.035906,0 -52.98102,1.46299 -57.375,3.375 -0.0187,0.008 -0.0445,0.0231 -0.0625,0.0312 -17.1609,3.11127 -30.90625,12.16736 -30.90625,29.15625 4.18176,-19.2363 25.75993,-25.07895 46.90625,-25.75 10.522376,0.73637 25.181515,-0.93382 41.4375,-0.93382 l 457.8125,0 c 32.17618,0 58.09375,0.33732 58.09375,-1.87868 0,-2.216 -25.91757,-4 -58.09375,-4 z"
       style="fill:#ffffff;fill-opacity:1;fill-rule:evenodd;stroke:#000000;stroke-width:0.99900001;stroke-linejoin:miter;stroke-miterlimit:4;stroke-opacity:1;stroke-dasharray:none;filter:url(#filter6168)"
       clip-path="url(#clipPath6266)" />
    <path
       style="fill:#ffffff;fill-opacity:1;fill-rule:evenodd;stroke:#000000;stroke-width:0.99900001;stroke-linejoin:miter;stroke-miterlimit:4;stroke-opacity:1;stroke-dasharray:none;filter:url(#filter6168)"
       d="m -61.90625,157.4375 c -29.035906,0 -52.98102,1.46299 -57.375,3.375 -0.0187,0.008 -0.0445,0.0231 -0.0625,0.0312 -17.1609,3.11127 -30.90625,12.16736 -30.90625,29.15625 4.18176,-19.2363 25.75993,-25.07895 46.90625,-25.75 10.522376,0.73637 25.181515,-0.93382 41.4375,-0.93382 l 457.8125,0 c 32.17618,0 58.09375,0.33732 58.09375,-1.87868 0,-2.216 -25.91757,-4 -58.09375,-4 z"
       transform="matrix(0,-0.59465677,-0.59465677,0,136.03641,813.38029)"
       id="path6176"
       inkscape:connector-curvature="0"
       sodipodi:nodetypes="sscccsssss"
       clip-path="url(#clipPath6262)" />
    <path
       style="opacity:0.66346154;fill:#ffffff;stroke:#000000;stroke-width:1px;stroke-linecap:butt;stroke-linejoin:miter;stroke-opacity:1;filter:url(#filter6211)"
       d="m 26.257359,608.33034 c 36.574307,-4.54491 58.253476,-6.83098 118.242641,-7.87868 0,-1.33333 0,-2.66667 0,-4 -22.1951,1.14435 -85.83489,-1.32248 -118.242641,11.87868 z"
       id="path6185"
       inkscape:connector-curvature="0"
       transform="translate(-457.13864,357.01505)"
       sodipodi:nodetypes="cccc"
       clip-path="url(#clipPath6258)" />
  </g>
</svg>
